G75*
%MOIN*%
%OFA0B0*%
%FSLAX25Y25*%
%IPPOS*%
%LPD*%
%AMOC8*
5,1,8,0,0,1.08239X$1,22.5*
%
%ADD10C,0.06000*%
%ADD11C,0.01480*%
%ADD12C,0.08200*%
%ADD13C,0.06737*%
%ADD14C,0.06343*%
%ADD15R,0.06343X0.06343*%
D10*
X0029487Y0033798D03*
X0029487Y0043798D03*
X0029487Y0053798D03*
X0029487Y0063798D03*
X0059487Y0063798D03*
X0059487Y0053798D03*
X0059487Y0043798D03*
X0059487Y0033798D03*
X0124487Y0033798D03*
X0124487Y0043798D03*
X0124487Y0053798D03*
X0124487Y0063798D03*
X0154487Y0063798D03*
X0154487Y0053798D03*
X0154487Y0043798D03*
X0154487Y0033798D03*
X0219487Y0033798D03*
X0219487Y0043798D03*
X0219487Y0053798D03*
X0219487Y0063798D03*
X0249487Y0063798D03*
X0249487Y0053798D03*
X0249487Y0043798D03*
X0249487Y0033798D03*
X0314487Y0033798D03*
X0314487Y0043798D03*
X0314487Y0053798D03*
X0314487Y0063798D03*
X0344487Y0063798D03*
X0344487Y0053798D03*
X0344487Y0043798D03*
X0344487Y0033798D03*
X0344487Y0128798D03*
X0344487Y0138798D03*
X0344487Y0148798D03*
X0344487Y0158798D03*
X0314487Y0158798D03*
X0314487Y0148798D03*
X0314487Y0138798D03*
X0314487Y0128798D03*
X0249487Y0128798D03*
X0249487Y0138798D03*
X0249487Y0148798D03*
X0249487Y0158798D03*
X0219487Y0158798D03*
X0219487Y0148798D03*
X0219487Y0138798D03*
X0219487Y0128798D03*
X0154487Y0128798D03*
X0154487Y0138798D03*
X0154487Y0148798D03*
X0154487Y0158798D03*
X0124487Y0158798D03*
X0124487Y0148798D03*
X0124487Y0138798D03*
X0124487Y0128798D03*
X0059487Y0128798D03*
X0059487Y0138798D03*
X0059487Y0148798D03*
X0059487Y0158798D03*
X0029487Y0158798D03*
X0029487Y0148798D03*
X0029487Y0138798D03*
X0029487Y0128798D03*
X0029487Y0223798D03*
X0029487Y0233798D03*
X0029487Y0243798D03*
X0029487Y0253798D03*
X0059487Y0253798D03*
X0059487Y0243798D03*
X0059487Y0233798D03*
X0059487Y0223798D03*
X0124487Y0223798D03*
X0124487Y0233798D03*
X0124487Y0243798D03*
X0124487Y0253798D03*
X0154487Y0253798D03*
X0154487Y0243798D03*
X0154487Y0233798D03*
X0154487Y0223798D03*
X0219487Y0223798D03*
X0219487Y0233798D03*
X0219487Y0243798D03*
X0219487Y0253798D03*
X0249487Y0253798D03*
X0249487Y0243798D03*
X0249487Y0233798D03*
X0249487Y0223798D03*
X0314487Y0223798D03*
X0314487Y0233798D03*
X0314487Y0243798D03*
X0314487Y0253798D03*
X0344487Y0253798D03*
X0344487Y0243798D03*
X0344487Y0233798D03*
X0344487Y0223798D03*
X0344487Y0318798D03*
X0344487Y0328798D03*
X0344487Y0338798D03*
X0344487Y0348798D03*
X0314487Y0348798D03*
X0314487Y0338798D03*
X0314487Y0328798D03*
X0314487Y0318798D03*
X0249487Y0318798D03*
X0249487Y0328798D03*
X0249487Y0338798D03*
X0249487Y0348798D03*
X0219487Y0348798D03*
X0219487Y0338798D03*
X0219487Y0328798D03*
X0219487Y0318798D03*
X0154487Y0318798D03*
X0154487Y0328798D03*
X0154487Y0338798D03*
X0154487Y0348798D03*
X0124487Y0348798D03*
X0124487Y0338798D03*
X0124487Y0328798D03*
X0124487Y0318798D03*
X0059487Y0318798D03*
X0059487Y0328798D03*
X0059487Y0338798D03*
X0059487Y0348798D03*
X0029487Y0348798D03*
X0029487Y0338798D03*
X0029487Y0328798D03*
X0029487Y0318798D03*
D11*
X0024847Y0018093D02*
X0024107Y0018833D01*
X0026410Y0017995D01*
X0027446Y0015772D01*
X0026608Y0013469D01*
X0024385Y0012433D01*
X0022082Y0013271D01*
X0021046Y0015494D01*
X0021884Y0017797D01*
X0024107Y0018833D01*
X0024159Y0017633D01*
X0025598Y0017109D01*
X0026246Y0015720D01*
X0025722Y0014281D01*
X0024333Y0013633D01*
X0022894Y0014157D01*
X0022246Y0015546D01*
X0022770Y0016985D01*
X0024159Y0017633D01*
X0024211Y0016432D01*
X0024787Y0016223D01*
X0025045Y0015668D01*
X0024836Y0015092D01*
X0024281Y0014834D01*
X0023705Y0015043D01*
X0023447Y0015598D01*
X0023656Y0016174D01*
X0024211Y0016432D01*
X0012169Y0045282D02*
X0011429Y0046022D01*
X0013732Y0045184D01*
X0014768Y0042961D01*
X0013930Y0040658D01*
X0011707Y0039622D01*
X0009404Y0040460D01*
X0008368Y0042683D01*
X0009206Y0044986D01*
X0011429Y0046022D01*
X0011481Y0044822D01*
X0012920Y0044298D01*
X0013568Y0042909D01*
X0013044Y0041470D01*
X0011655Y0040822D01*
X0010216Y0041346D01*
X0009568Y0042735D01*
X0010092Y0044174D01*
X0011481Y0044822D01*
X0011533Y0043621D01*
X0012109Y0043412D01*
X0012367Y0042857D01*
X0012158Y0042281D01*
X0011603Y0042023D01*
X0011027Y0042232D01*
X0010769Y0042787D01*
X0010978Y0043363D01*
X0011533Y0043621D01*
X0067847Y0075903D02*
X0067107Y0076643D01*
X0069410Y0075805D01*
X0070446Y0073582D01*
X0069608Y0071279D01*
X0067385Y0070243D01*
X0065082Y0071081D01*
X0064046Y0073304D01*
X0064884Y0075607D01*
X0067107Y0076643D01*
X0067159Y0075443D01*
X0068598Y0074919D01*
X0069246Y0073530D01*
X0068722Y0072091D01*
X0067333Y0071443D01*
X0065894Y0071967D01*
X0065246Y0073356D01*
X0065770Y0074795D01*
X0067159Y0075443D01*
X0067211Y0074242D01*
X0067787Y0074033D01*
X0068045Y0073478D01*
X0067836Y0072902D01*
X0067281Y0072644D01*
X0066705Y0072853D01*
X0066447Y0073408D01*
X0066656Y0073984D01*
X0067211Y0074242D01*
X0080525Y0048714D02*
X0079785Y0049454D01*
X0082088Y0048616D01*
X0083124Y0046393D01*
X0082286Y0044090D01*
X0080063Y0043054D01*
X0077760Y0043892D01*
X0076724Y0046115D01*
X0077562Y0048418D01*
X0079785Y0049454D01*
X0079837Y0048254D01*
X0081276Y0047730D01*
X0081924Y0046341D01*
X0081400Y0044902D01*
X0080011Y0044254D01*
X0078572Y0044778D01*
X0077924Y0046167D01*
X0078448Y0047606D01*
X0079837Y0048254D01*
X0079889Y0047053D01*
X0080465Y0046844D01*
X0080723Y0046289D01*
X0080514Y0045713D01*
X0079959Y0045455D01*
X0079383Y0045664D01*
X0079125Y0046219D01*
X0079334Y0046795D01*
X0079889Y0047053D01*
X0107169Y0045282D02*
X0106429Y0046022D01*
X0108732Y0045184D01*
X0109768Y0042961D01*
X0108930Y0040658D01*
X0106707Y0039622D01*
X0104404Y0040460D01*
X0103368Y0042683D01*
X0104206Y0044986D01*
X0106429Y0046022D01*
X0106481Y0044822D01*
X0107920Y0044298D01*
X0108568Y0042909D01*
X0108044Y0041470D01*
X0106655Y0040822D01*
X0105216Y0041346D01*
X0104568Y0042735D01*
X0105092Y0044174D01*
X0106481Y0044822D01*
X0106533Y0043621D01*
X0107109Y0043412D01*
X0107367Y0042857D01*
X0107158Y0042281D01*
X0106603Y0042023D01*
X0106027Y0042232D01*
X0105769Y0042787D01*
X0105978Y0043363D01*
X0106533Y0043621D01*
X0119847Y0018093D02*
X0119107Y0018833D01*
X0121410Y0017995D01*
X0122446Y0015772D01*
X0121608Y0013469D01*
X0119385Y0012433D01*
X0117082Y0013271D01*
X0116046Y0015494D01*
X0116884Y0017797D01*
X0119107Y0018833D01*
X0119159Y0017633D01*
X0120598Y0017109D01*
X0121246Y0015720D01*
X0120722Y0014281D01*
X0119333Y0013633D01*
X0117894Y0014157D01*
X0117246Y0015546D01*
X0117770Y0016985D01*
X0119159Y0017633D01*
X0119211Y0016432D01*
X0119787Y0016223D01*
X0120045Y0015668D01*
X0119836Y0015092D01*
X0119281Y0014834D01*
X0118705Y0015043D01*
X0118447Y0015598D01*
X0118656Y0016174D01*
X0119211Y0016432D01*
X0175525Y0048714D02*
X0174785Y0049454D01*
X0177088Y0048616D01*
X0178124Y0046393D01*
X0177286Y0044090D01*
X0175063Y0043054D01*
X0172760Y0043892D01*
X0171724Y0046115D01*
X0172562Y0048418D01*
X0174785Y0049454D01*
X0174837Y0048254D01*
X0176276Y0047730D01*
X0176924Y0046341D01*
X0176400Y0044902D01*
X0175011Y0044254D01*
X0173572Y0044778D01*
X0172924Y0046167D01*
X0173448Y0047606D01*
X0174837Y0048254D01*
X0174889Y0047053D01*
X0175465Y0046844D01*
X0175723Y0046289D01*
X0175514Y0045713D01*
X0174959Y0045455D01*
X0174383Y0045664D01*
X0174125Y0046219D01*
X0174334Y0046795D01*
X0174889Y0047053D01*
X0202169Y0045282D02*
X0201429Y0046022D01*
X0203732Y0045184D01*
X0204768Y0042961D01*
X0203930Y0040658D01*
X0201707Y0039622D01*
X0199404Y0040460D01*
X0198368Y0042683D01*
X0199206Y0044986D01*
X0201429Y0046022D01*
X0201481Y0044822D01*
X0202920Y0044298D01*
X0203568Y0042909D01*
X0203044Y0041470D01*
X0201655Y0040822D01*
X0200216Y0041346D01*
X0199568Y0042735D01*
X0200092Y0044174D01*
X0201481Y0044822D01*
X0201533Y0043621D01*
X0202109Y0043412D01*
X0202367Y0042857D01*
X0202158Y0042281D01*
X0201603Y0042023D01*
X0201027Y0042232D01*
X0200769Y0042787D01*
X0200978Y0043363D01*
X0201533Y0043621D01*
X0214847Y0018093D02*
X0214107Y0018833D01*
X0216410Y0017995D01*
X0217446Y0015772D01*
X0216608Y0013469D01*
X0214385Y0012433D01*
X0212082Y0013271D01*
X0211046Y0015494D01*
X0211884Y0017797D01*
X0214107Y0018833D01*
X0214159Y0017633D01*
X0215598Y0017109D01*
X0216246Y0015720D01*
X0215722Y0014281D01*
X0214333Y0013633D01*
X0212894Y0014157D01*
X0212246Y0015546D01*
X0212770Y0016985D01*
X0214159Y0017633D01*
X0214211Y0016432D01*
X0214787Y0016223D01*
X0215045Y0015668D01*
X0214836Y0015092D01*
X0214281Y0014834D01*
X0213705Y0015043D01*
X0213447Y0015598D01*
X0213656Y0016174D01*
X0214211Y0016432D01*
X0270525Y0048714D02*
X0269785Y0049454D01*
X0272088Y0048616D01*
X0273124Y0046393D01*
X0272286Y0044090D01*
X0270063Y0043054D01*
X0267760Y0043892D01*
X0266724Y0046115D01*
X0267562Y0048418D01*
X0269785Y0049454D01*
X0269837Y0048254D01*
X0271276Y0047730D01*
X0271924Y0046341D01*
X0271400Y0044902D01*
X0270011Y0044254D01*
X0268572Y0044778D01*
X0267924Y0046167D01*
X0268448Y0047606D01*
X0269837Y0048254D01*
X0269889Y0047053D01*
X0270465Y0046844D01*
X0270723Y0046289D01*
X0270514Y0045713D01*
X0269959Y0045455D01*
X0269383Y0045664D01*
X0269125Y0046219D01*
X0269334Y0046795D01*
X0269889Y0047053D01*
X0297169Y0045282D02*
X0296429Y0046022D01*
X0298732Y0045184D01*
X0299768Y0042961D01*
X0298930Y0040658D01*
X0296707Y0039622D01*
X0294404Y0040460D01*
X0293368Y0042683D01*
X0294206Y0044986D01*
X0296429Y0046022D01*
X0296481Y0044822D01*
X0297920Y0044298D01*
X0298568Y0042909D01*
X0298044Y0041470D01*
X0296655Y0040822D01*
X0295216Y0041346D01*
X0294568Y0042735D01*
X0295092Y0044174D01*
X0296481Y0044822D01*
X0296533Y0043621D01*
X0297109Y0043412D01*
X0297367Y0042857D01*
X0297158Y0042281D01*
X0296603Y0042023D01*
X0296027Y0042232D01*
X0295769Y0042787D01*
X0295978Y0043363D01*
X0296533Y0043621D01*
X0309847Y0018093D02*
X0309107Y0018833D01*
X0311410Y0017995D01*
X0312446Y0015772D01*
X0311608Y0013469D01*
X0309385Y0012433D01*
X0307082Y0013271D01*
X0306046Y0015494D01*
X0306884Y0017797D01*
X0309107Y0018833D01*
X0309159Y0017633D01*
X0310598Y0017109D01*
X0311246Y0015720D01*
X0310722Y0014281D01*
X0309333Y0013633D01*
X0307894Y0014157D01*
X0307246Y0015546D01*
X0307770Y0016985D01*
X0309159Y0017633D01*
X0309211Y0016432D01*
X0309787Y0016223D01*
X0310045Y0015668D01*
X0309836Y0015092D01*
X0309281Y0014834D01*
X0308705Y0015043D01*
X0308447Y0015598D01*
X0308656Y0016174D01*
X0309211Y0016432D01*
X0365525Y0048714D02*
X0364785Y0049454D01*
X0367088Y0048616D01*
X0368124Y0046393D01*
X0367286Y0044090D01*
X0365063Y0043054D01*
X0362760Y0043892D01*
X0361724Y0046115D01*
X0362562Y0048418D01*
X0364785Y0049454D01*
X0364837Y0048254D01*
X0366276Y0047730D01*
X0366924Y0046341D01*
X0366400Y0044902D01*
X0365011Y0044254D01*
X0363572Y0044778D01*
X0362924Y0046167D01*
X0363448Y0047606D01*
X0364837Y0048254D01*
X0364889Y0047053D01*
X0365465Y0046844D01*
X0365723Y0046289D01*
X0365514Y0045713D01*
X0364959Y0045455D01*
X0364383Y0045664D01*
X0364125Y0046219D01*
X0364334Y0046795D01*
X0364889Y0047053D01*
X0352847Y0075903D02*
X0352107Y0076643D01*
X0354410Y0075805D01*
X0355446Y0073582D01*
X0354608Y0071279D01*
X0352385Y0070243D01*
X0350082Y0071081D01*
X0349046Y0073304D01*
X0349884Y0075607D01*
X0352107Y0076643D01*
X0352159Y0075443D01*
X0353598Y0074919D01*
X0354246Y0073530D01*
X0353722Y0072091D01*
X0352333Y0071443D01*
X0350894Y0071967D01*
X0350246Y0073356D01*
X0350770Y0074795D01*
X0352159Y0075443D01*
X0352211Y0074242D01*
X0352787Y0074033D01*
X0353045Y0073478D01*
X0352836Y0072902D01*
X0352281Y0072644D01*
X0351705Y0072853D01*
X0351447Y0073408D01*
X0351656Y0073984D01*
X0352211Y0074242D01*
X0309847Y0113093D02*
X0309107Y0113833D01*
X0311410Y0112995D01*
X0312446Y0110772D01*
X0311608Y0108469D01*
X0309385Y0107433D01*
X0307082Y0108271D01*
X0306046Y0110494D01*
X0306884Y0112797D01*
X0309107Y0113833D01*
X0309159Y0112633D01*
X0310598Y0112109D01*
X0311246Y0110720D01*
X0310722Y0109281D01*
X0309333Y0108633D01*
X0307894Y0109157D01*
X0307246Y0110546D01*
X0307770Y0111985D01*
X0309159Y0112633D01*
X0309211Y0111432D01*
X0309787Y0111223D01*
X0310045Y0110668D01*
X0309836Y0110092D01*
X0309281Y0109834D01*
X0308705Y0110043D01*
X0308447Y0110598D01*
X0308656Y0111174D01*
X0309211Y0111432D01*
X0297169Y0140282D02*
X0296429Y0141022D01*
X0298732Y0140184D01*
X0299768Y0137961D01*
X0298930Y0135658D01*
X0296707Y0134622D01*
X0294404Y0135460D01*
X0293368Y0137683D01*
X0294206Y0139986D01*
X0296429Y0141022D01*
X0296481Y0139822D01*
X0297920Y0139298D01*
X0298568Y0137909D01*
X0298044Y0136470D01*
X0296655Y0135822D01*
X0295216Y0136346D01*
X0294568Y0137735D01*
X0295092Y0139174D01*
X0296481Y0139822D01*
X0296533Y0138621D01*
X0297109Y0138412D01*
X0297367Y0137857D01*
X0297158Y0137281D01*
X0296603Y0137023D01*
X0296027Y0137232D01*
X0295769Y0137787D01*
X0295978Y0138363D01*
X0296533Y0138621D01*
X0270525Y0143714D02*
X0269785Y0144454D01*
X0272088Y0143616D01*
X0273124Y0141393D01*
X0272286Y0139090D01*
X0270063Y0138054D01*
X0267760Y0138892D01*
X0266724Y0141115D01*
X0267562Y0143418D01*
X0269785Y0144454D01*
X0269837Y0143254D01*
X0271276Y0142730D01*
X0271924Y0141341D01*
X0271400Y0139902D01*
X0270011Y0139254D01*
X0268572Y0139778D01*
X0267924Y0141167D01*
X0268448Y0142606D01*
X0269837Y0143254D01*
X0269889Y0142053D01*
X0270465Y0141844D01*
X0270723Y0141289D01*
X0270514Y0140713D01*
X0269959Y0140455D01*
X0269383Y0140664D01*
X0269125Y0141219D01*
X0269334Y0141795D01*
X0269889Y0142053D01*
X0257847Y0170903D02*
X0257107Y0171643D01*
X0259410Y0170805D01*
X0260446Y0168582D01*
X0259608Y0166279D01*
X0257385Y0165243D01*
X0255082Y0166081D01*
X0254046Y0168304D01*
X0254884Y0170607D01*
X0257107Y0171643D01*
X0257159Y0170443D01*
X0258598Y0169919D01*
X0259246Y0168530D01*
X0258722Y0167091D01*
X0257333Y0166443D01*
X0255894Y0166967D01*
X0255246Y0168356D01*
X0255770Y0169795D01*
X0257159Y0170443D01*
X0257211Y0169242D01*
X0257787Y0169033D01*
X0258045Y0168478D01*
X0257836Y0167902D01*
X0257281Y0167644D01*
X0256705Y0167853D01*
X0256447Y0168408D01*
X0256656Y0168984D01*
X0257211Y0169242D01*
X0214847Y0208093D02*
X0214107Y0208833D01*
X0216410Y0207995D01*
X0217446Y0205772D01*
X0216608Y0203469D01*
X0214385Y0202433D01*
X0212082Y0203271D01*
X0211046Y0205494D01*
X0211884Y0207797D01*
X0214107Y0208833D01*
X0214159Y0207633D01*
X0215598Y0207109D01*
X0216246Y0205720D01*
X0215722Y0204281D01*
X0214333Y0203633D01*
X0212894Y0204157D01*
X0212246Y0205546D01*
X0212770Y0206985D01*
X0214159Y0207633D01*
X0214211Y0206432D01*
X0214787Y0206223D01*
X0215045Y0205668D01*
X0214836Y0205092D01*
X0214281Y0204834D01*
X0213705Y0205043D01*
X0213447Y0205598D01*
X0213656Y0206174D01*
X0214211Y0206432D01*
X0202169Y0235282D02*
X0201429Y0236022D01*
X0203732Y0235184D01*
X0204768Y0232961D01*
X0203930Y0230658D01*
X0201707Y0229622D01*
X0199404Y0230460D01*
X0198368Y0232683D01*
X0199206Y0234986D01*
X0201429Y0236022D01*
X0201481Y0234822D01*
X0202920Y0234298D01*
X0203568Y0232909D01*
X0203044Y0231470D01*
X0201655Y0230822D01*
X0200216Y0231346D01*
X0199568Y0232735D01*
X0200092Y0234174D01*
X0201481Y0234822D01*
X0201533Y0233621D01*
X0202109Y0233412D01*
X0202367Y0232857D01*
X0202158Y0232281D01*
X0201603Y0232023D01*
X0201027Y0232232D01*
X0200769Y0232787D01*
X0200978Y0233363D01*
X0201533Y0233621D01*
X0175525Y0238714D02*
X0174785Y0239454D01*
X0177088Y0238616D01*
X0178124Y0236393D01*
X0177286Y0234090D01*
X0175063Y0233054D01*
X0172760Y0233892D01*
X0171724Y0236115D01*
X0172562Y0238418D01*
X0174785Y0239454D01*
X0174837Y0238254D01*
X0176276Y0237730D01*
X0176924Y0236341D01*
X0176400Y0234902D01*
X0175011Y0234254D01*
X0173572Y0234778D01*
X0172924Y0236167D01*
X0173448Y0237606D01*
X0174837Y0238254D01*
X0174889Y0237053D01*
X0175465Y0236844D01*
X0175723Y0236289D01*
X0175514Y0235713D01*
X0174959Y0235455D01*
X0174383Y0235664D01*
X0174125Y0236219D01*
X0174334Y0236795D01*
X0174889Y0237053D01*
X0162847Y0265903D02*
X0162107Y0266643D01*
X0164410Y0265805D01*
X0165446Y0263582D01*
X0164608Y0261279D01*
X0162385Y0260243D01*
X0160082Y0261081D01*
X0159046Y0263304D01*
X0159884Y0265607D01*
X0162107Y0266643D01*
X0162159Y0265443D01*
X0163598Y0264919D01*
X0164246Y0263530D01*
X0163722Y0262091D01*
X0162333Y0261443D01*
X0160894Y0261967D01*
X0160246Y0263356D01*
X0160770Y0264795D01*
X0162159Y0265443D01*
X0162211Y0264242D01*
X0162787Y0264033D01*
X0163045Y0263478D01*
X0162836Y0262902D01*
X0162281Y0262644D01*
X0161705Y0262853D01*
X0161447Y0263408D01*
X0161656Y0263984D01*
X0162211Y0264242D01*
X0119847Y0303093D02*
X0119107Y0303833D01*
X0121410Y0302995D01*
X0122446Y0300772D01*
X0121608Y0298469D01*
X0119385Y0297433D01*
X0117082Y0298271D01*
X0116046Y0300494D01*
X0116884Y0302797D01*
X0119107Y0303833D01*
X0119159Y0302633D01*
X0120598Y0302109D01*
X0121246Y0300720D01*
X0120722Y0299281D01*
X0119333Y0298633D01*
X0117894Y0299157D01*
X0117246Y0300546D01*
X0117770Y0301985D01*
X0119159Y0302633D01*
X0119211Y0301432D01*
X0119787Y0301223D01*
X0120045Y0300668D01*
X0119836Y0300092D01*
X0119281Y0299834D01*
X0118705Y0300043D01*
X0118447Y0300598D01*
X0118656Y0301174D01*
X0119211Y0301432D01*
X0107169Y0330282D02*
X0106429Y0331022D01*
X0108732Y0330184D01*
X0109768Y0327961D01*
X0108930Y0325658D01*
X0106707Y0324622D01*
X0104404Y0325460D01*
X0103368Y0327683D01*
X0104206Y0329986D01*
X0106429Y0331022D01*
X0106481Y0329822D01*
X0107920Y0329298D01*
X0108568Y0327909D01*
X0108044Y0326470D01*
X0106655Y0325822D01*
X0105216Y0326346D01*
X0104568Y0327735D01*
X0105092Y0329174D01*
X0106481Y0329822D01*
X0106533Y0328621D01*
X0107109Y0328412D01*
X0107367Y0327857D01*
X0107158Y0327281D01*
X0106603Y0327023D01*
X0106027Y0327232D01*
X0105769Y0327787D01*
X0105978Y0328363D01*
X0106533Y0328621D01*
X0080525Y0333714D02*
X0079785Y0334454D01*
X0082088Y0333616D01*
X0083124Y0331393D01*
X0082286Y0329090D01*
X0080063Y0328054D01*
X0077760Y0328892D01*
X0076724Y0331115D01*
X0077562Y0333418D01*
X0079785Y0334454D01*
X0079837Y0333254D01*
X0081276Y0332730D01*
X0081924Y0331341D01*
X0081400Y0329902D01*
X0080011Y0329254D01*
X0078572Y0329778D01*
X0077924Y0331167D01*
X0078448Y0332606D01*
X0079837Y0333254D01*
X0079889Y0332053D01*
X0080465Y0331844D01*
X0080723Y0331289D01*
X0080514Y0330713D01*
X0079959Y0330455D01*
X0079383Y0330664D01*
X0079125Y0331219D01*
X0079334Y0331795D01*
X0079889Y0332053D01*
X0067847Y0360903D02*
X0067107Y0361643D01*
X0069410Y0360805D01*
X0070446Y0358582D01*
X0069608Y0356279D01*
X0067385Y0355243D01*
X0065082Y0356081D01*
X0064046Y0358304D01*
X0064884Y0360607D01*
X0067107Y0361643D01*
X0067159Y0360443D01*
X0068598Y0359919D01*
X0069246Y0358530D01*
X0068722Y0357091D01*
X0067333Y0356443D01*
X0065894Y0356967D01*
X0065246Y0358356D01*
X0065770Y0359795D01*
X0067159Y0360443D01*
X0067211Y0359242D01*
X0067787Y0359033D01*
X0068045Y0358478D01*
X0067836Y0357902D01*
X0067281Y0357644D01*
X0066705Y0357853D01*
X0066447Y0358408D01*
X0066656Y0358984D01*
X0067211Y0359242D01*
X0012169Y0330282D02*
X0011429Y0331022D01*
X0013732Y0330184D01*
X0014768Y0327961D01*
X0013930Y0325658D01*
X0011707Y0324622D01*
X0009404Y0325460D01*
X0008368Y0327683D01*
X0009206Y0329986D01*
X0011429Y0331022D01*
X0011481Y0329822D01*
X0012920Y0329298D01*
X0013568Y0327909D01*
X0013044Y0326470D01*
X0011655Y0325822D01*
X0010216Y0326346D01*
X0009568Y0327735D01*
X0010092Y0329174D01*
X0011481Y0329822D01*
X0011533Y0328621D01*
X0012109Y0328412D01*
X0012367Y0327857D01*
X0012158Y0327281D01*
X0011603Y0327023D01*
X0011027Y0327232D01*
X0010769Y0327787D01*
X0010978Y0328363D01*
X0011533Y0328621D01*
X0024847Y0303093D02*
X0024107Y0303833D01*
X0026410Y0302995D01*
X0027446Y0300772D01*
X0026608Y0298469D01*
X0024385Y0297433D01*
X0022082Y0298271D01*
X0021046Y0300494D01*
X0021884Y0302797D01*
X0024107Y0303833D01*
X0024159Y0302633D01*
X0025598Y0302109D01*
X0026246Y0300720D01*
X0025722Y0299281D01*
X0024333Y0298633D01*
X0022894Y0299157D01*
X0022246Y0300546D01*
X0022770Y0301985D01*
X0024159Y0302633D01*
X0024211Y0301432D01*
X0024787Y0301223D01*
X0025045Y0300668D01*
X0024836Y0300092D01*
X0024281Y0299834D01*
X0023705Y0300043D01*
X0023447Y0300598D01*
X0023656Y0301174D01*
X0024211Y0301432D01*
X0067847Y0265903D02*
X0067107Y0266643D01*
X0069410Y0265805D01*
X0070446Y0263582D01*
X0069608Y0261279D01*
X0067385Y0260243D01*
X0065082Y0261081D01*
X0064046Y0263304D01*
X0064884Y0265607D01*
X0067107Y0266643D01*
X0067159Y0265443D01*
X0068598Y0264919D01*
X0069246Y0263530D01*
X0068722Y0262091D01*
X0067333Y0261443D01*
X0065894Y0261967D01*
X0065246Y0263356D01*
X0065770Y0264795D01*
X0067159Y0265443D01*
X0067211Y0264242D01*
X0067787Y0264033D01*
X0068045Y0263478D01*
X0067836Y0262902D01*
X0067281Y0262644D01*
X0066705Y0262853D01*
X0066447Y0263408D01*
X0066656Y0263984D01*
X0067211Y0264242D01*
X0080525Y0238714D02*
X0079785Y0239454D01*
X0082088Y0238616D01*
X0083124Y0236393D01*
X0082286Y0234090D01*
X0080063Y0233054D01*
X0077760Y0233892D01*
X0076724Y0236115D01*
X0077562Y0238418D01*
X0079785Y0239454D01*
X0079837Y0238254D01*
X0081276Y0237730D01*
X0081924Y0236341D01*
X0081400Y0234902D01*
X0080011Y0234254D01*
X0078572Y0234778D01*
X0077924Y0236167D01*
X0078448Y0237606D01*
X0079837Y0238254D01*
X0079889Y0237053D01*
X0080465Y0236844D01*
X0080723Y0236289D01*
X0080514Y0235713D01*
X0079959Y0235455D01*
X0079383Y0235664D01*
X0079125Y0236219D01*
X0079334Y0236795D01*
X0079889Y0237053D01*
X0107169Y0235282D02*
X0106429Y0236022D01*
X0108732Y0235184D01*
X0109768Y0232961D01*
X0108930Y0230658D01*
X0106707Y0229622D01*
X0104404Y0230460D01*
X0103368Y0232683D01*
X0104206Y0234986D01*
X0106429Y0236022D01*
X0106481Y0234822D01*
X0107920Y0234298D01*
X0108568Y0232909D01*
X0108044Y0231470D01*
X0106655Y0230822D01*
X0105216Y0231346D01*
X0104568Y0232735D01*
X0105092Y0234174D01*
X0106481Y0234822D01*
X0106533Y0233621D01*
X0107109Y0233412D01*
X0107367Y0232857D01*
X0107158Y0232281D01*
X0106603Y0232023D01*
X0106027Y0232232D01*
X0105769Y0232787D01*
X0105978Y0233363D01*
X0106533Y0233621D01*
X0119847Y0208093D02*
X0119107Y0208833D01*
X0121410Y0207995D01*
X0122446Y0205772D01*
X0121608Y0203469D01*
X0119385Y0202433D01*
X0117082Y0203271D01*
X0116046Y0205494D01*
X0116884Y0207797D01*
X0119107Y0208833D01*
X0119159Y0207633D01*
X0120598Y0207109D01*
X0121246Y0205720D01*
X0120722Y0204281D01*
X0119333Y0203633D01*
X0117894Y0204157D01*
X0117246Y0205546D01*
X0117770Y0206985D01*
X0119159Y0207633D01*
X0119211Y0206432D01*
X0119787Y0206223D01*
X0120045Y0205668D01*
X0119836Y0205092D01*
X0119281Y0204834D01*
X0118705Y0205043D01*
X0118447Y0205598D01*
X0118656Y0206174D01*
X0119211Y0206432D01*
X0162847Y0170903D02*
X0162107Y0171643D01*
X0164410Y0170805D01*
X0165446Y0168582D01*
X0164608Y0166279D01*
X0162385Y0165243D01*
X0160082Y0166081D01*
X0159046Y0168304D01*
X0159884Y0170607D01*
X0162107Y0171643D01*
X0162159Y0170443D01*
X0163598Y0169919D01*
X0164246Y0168530D01*
X0163722Y0167091D01*
X0162333Y0166443D01*
X0160894Y0166967D01*
X0160246Y0168356D01*
X0160770Y0169795D01*
X0162159Y0170443D01*
X0162211Y0169242D01*
X0162787Y0169033D01*
X0163045Y0168478D01*
X0162836Y0167902D01*
X0162281Y0167644D01*
X0161705Y0167853D01*
X0161447Y0168408D01*
X0161656Y0168984D01*
X0162211Y0169242D01*
X0175525Y0143714D02*
X0174785Y0144454D01*
X0177088Y0143616D01*
X0178124Y0141393D01*
X0177286Y0139090D01*
X0175063Y0138054D01*
X0172760Y0138892D01*
X0171724Y0141115D01*
X0172562Y0143418D01*
X0174785Y0144454D01*
X0174837Y0143254D01*
X0176276Y0142730D01*
X0176924Y0141341D01*
X0176400Y0139902D01*
X0175011Y0139254D01*
X0173572Y0139778D01*
X0172924Y0141167D01*
X0173448Y0142606D01*
X0174837Y0143254D01*
X0174889Y0142053D01*
X0175465Y0141844D01*
X0175723Y0141289D01*
X0175514Y0140713D01*
X0174959Y0140455D01*
X0174383Y0140664D01*
X0174125Y0141219D01*
X0174334Y0141795D01*
X0174889Y0142053D01*
X0202169Y0140282D02*
X0201429Y0141022D01*
X0203732Y0140184D01*
X0204768Y0137961D01*
X0203930Y0135658D01*
X0201707Y0134622D01*
X0199404Y0135460D01*
X0198368Y0137683D01*
X0199206Y0139986D01*
X0201429Y0141022D01*
X0201481Y0139822D01*
X0202920Y0139298D01*
X0203568Y0137909D01*
X0203044Y0136470D01*
X0201655Y0135822D01*
X0200216Y0136346D01*
X0199568Y0137735D01*
X0200092Y0139174D01*
X0201481Y0139822D01*
X0201533Y0138621D01*
X0202109Y0138412D01*
X0202367Y0137857D01*
X0202158Y0137281D01*
X0201603Y0137023D01*
X0201027Y0137232D01*
X0200769Y0137787D01*
X0200978Y0138363D01*
X0201533Y0138621D01*
X0214847Y0113093D02*
X0214107Y0113833D01*
X0216410Y0112995D01*
X0217446Y0110772D01*
X0216608Y0108469D01*
X0214385Y0107433D01*
X0212082Y0108271D01*
X0211046Y0110494D01*
X0211884Y0112797D01*
X0214107Y0113833D01*
X0214159Y0112633D01*
X0215598Y0112109D01*
X0216246Y0110720D01*
X0215722Y0109281D01*
X0214333Y0108633D01*
X0212894Y0109157D01*
X0212246Y0110546D01*
X0212770Y0111985D01*
X0214159Y0112633D01*
X0214211Y0111432D01*
X0214787Y0111223D01*
X0215045Y0110668D01*
X0214836Y0110092D01*
X0214281Y0109834D01*
X0213705Y0110043D01*
X0213447Y0110598D01*
X0213656Y0111174D01*
X0214211Y0111432D01*
X0257847Y0075903D02*
X0257107Y0076643D01*
X0259410Y0075805D01*
X0260446Y0073582D01*
X0259608Y0071279D01*
X0257385Y0070243D01*
X0255082Y0071081D01*
X0254046Y0073304D01*
X0254884Y0075607D01*
X0257107Y0076643D01*
X0257159Y0075443D01*
X0258598Y0074919D01*
X0259246Y0073530D01*
X0258722Y0072091D01*
X0257333Y0071443D01*
X0255894Y0071967D01*
X0255246Y0073356D01*
X0255770Y0074795D01*
X0257159Y0075443D01*
X0257211Y0074242D01*
X0257787Y0074033D01*
X0258045Y0073478D01*
X0257836Y0072902D01*
X0257281Y0072644D01*
X0256705Y0072853D01*
X0256447Y0073408D01*
X0256656Y0073984D01*
X0257211Y0074242D01*
X0162847Y0075903D02*
X0162107Y0076643D01*
X0164410Y0075805D01*
X0165446Y0073582D01*
X0164608Y0071279D01*
X0162385Y0070243D01*
X0160082Y0071081D01*
X0159046Y0073304D01*
X0159884Y0075607D01*
X0162107Y0076643D01*
X0162159Y0075443D01*
X0163598Y0074919D01*
X0164246Y0073530D01*
X0163722Y0072091D01*
X0162333Y0071443D01*
X0160894Y0071967D01*
X0160246Y0073356D01*
X0160770Y0074795D01*
X0162159Y0075443D01*
X0162211Y0074242D01*
X0162787Y0074033D01*
X0163045Y0073478D01*
X0162836Y0072902D01*
X0162281Y0072644D01*
X0161705Y0072853D01*
X0161447Y0073408D01*
X0161656Y0073984D01*
X0162211Y0074242D01*
X0119847Y0113093D02*
X0119107Y0113833D01*
X0121410Y0112995D01*
X0122446Y0110772D01*
X0121608Y0108469D01*
X0119385Y0107433D01*
X0117082Y0108271D01*
X0116046Y0110494D01*
X0116884Y0112797D01*
X0119107Y0113833D01*
X0119159Y0112633D01*
X0120598Y0112109D01*
X0121246Y0110720D01*
X0120722Y0109281D01*
X0119333Y0108633D01*
X0117894Y0109157D01*
X0117246Y0110546D01*
X0117770Y0111985D01*
X0119159Y0112633D01*
X0119211Y0111432D01*
X0119787Y0111223D01*
X0120045Y0110668D01*
X0119836Y0110092D01*
X0119281Y0109834D01*
X0118705Y0110043D01*
X0118447Y0110598D01*
X0118656Y0111174D01*
X0119211Y0111432D01*
X0107169Y0140282D02*
X0106429Y0141022D01*
X0108732Y0140184D01*
X0109768Y0137961D01*
X0108930Y0135658D01*
X0106707Y0134622D01*
X0104404Y0135460D01*
X0103368Y0137683D01*
X0104206Y0139986D01*
X0106429Y0141022D01*
X0106481Y0139822D01*
X0107920Y0139298D01*
X0108568Y0137909D01*
X0108044Y0136470D01*
X0106655Y0135822D01*
X0105216Y0136346D01*
X0104568Y0137735D01*
X0105092Y0139174D01*
X0106481Y0139822D01*
X0106533Y0138621D01*
X0107109Y0138412D01*
X0107367Y0137857D01*
X0107158Y0137281D01*
X0106603Y0137023D01*
X0106027Y0137232D01*
X0105769Y0137787D01*
X0105978Y0138363D01*
X0106533Y0138621D01*
X0080525Y0143714D02*
X0079785Y0144454D01*
X0082088Y0143616D01*
X0083124Y0141393D01*
X0082286Y0139090D01*
X0080063Y0138054D01*
X0077760Y0138892D01*
X0076724Y0141115D01*
X0077562Y0143418D01*
X0079785Y0144454D01*
X0079837Y0143254D01*
X0081276Y0142730D01*
X0081924Y0141341D01*
X0081400Y0139902D01*
X0080011Y0139254D01*
X0078572Y0139778D01*
X0077924Y0141167D01*
X0078448Y0142606D01*
X0079837Y0143254D01*
X0079889Y0142053D01*
X0080465Y0141844D01*
X0080723Y0141289D01*
X0080514Y0140713D01*
X0079959Y0140455D01*
X0079383Y0140664D01*
X0079125Y0141219D01*
X0079334Y0141795D01*
X0079889Y0142053D01*
X0067847Y0170903D02*
X0067107Y0171643D01*
X0069410Y0170805D01*
X0070446Y0168582D01*
X0069608Y0166279D01*
X0067385Y0165243D01*
X0065082Y0166081D01*
X0064046Y0168304D01*
X0064884Y0170607D01*
X0067107Y0171643D01*
X0067159Y0170443D01*
X0068598Y0169919D01*
X0069246Y0168530D01*
X0068722Y0167091D01*
X0067333Y0166443D01*
X0065894Y0166967D01*
X0065246Y0168356D01*
X0065770Y0169795D01*
X0067159Y0170443D01*
X0067211Y0169242D01*
X0067787Y0169033D01*
X0068045Y0168478D01*
X0067836Y0167902D01*
X0067281Y0167644D01*
X0066705Y0167853D01*
X0066447Y0168408D01*
X0066656Y0168984D01*
X0067211Y0169242D01*
X0024847Y0208093D02*
X0024107Y0208833D01*
X0026410Y0207995D01*
X0027446Y0205772D01*
X0026608Y0203469D01*
X0024385Y0202433D01*
X0022082Y0203271D01*
X0021046Y0205494D01*
X0021884Y0207797D01*
X0024107Y0208833D01*
X0024159Y0207633D01*
X0025598Y0207109D01*
X0026246Y0205720D01*
X0025722Y0204281D01*
X0024333Y0203633D01*
X0022894Y0204157D01*
X0022246Y0205546D01*
X0022770Y0206985D01*
X0024159Y0207633D01*
X0024211Y0206432D01*
X0024787Y0206223D01*
X0025045Y0205668D01*
X0024836Y0205092D01*
X0024281Y0204834D01*
X0023705Y0205043D01*
X0023447Y0205598D01*
X0023656Y0206174D01*
X0024211Y0206432D01*
X0012169Y0235282D02*
X0011429Y0236022D01*
X0013732Y0235184D01*
X0014768Y0232961D01*
X0013930Y0230658D01*
X0011707Y0229622D01*
X0009404Y0230460D01*
X0008368Y0232683D01*
X0009206Y0234986D01*
X0011429Y0236022D01*
X0011481Y0234822D01*
X0012920Y0234298D01*
X0013568Y0232909D01*
X0013044Y0231470D01*
X0011655Y0230822D01*
X0010216Y0231346D01*
X0009568Y0232735D01*
X0010092Y0234174D01*
X0011481Y0234822D01*
X0011533Y0233621D01*
X0012109Y0233412D01*
X0012367Y0232857D01*
X0012158Y0232281D01*
X0011603Y0232023D01*
X0011027Y0232232D01*
X0010769Y0232787D01*
X0010978Y0233363D01*
X0011533Y0233621D01*
X0012169Y0140282D02*
X0011429Y0141022D01*
X0013732Y0140184D01*
X0014768Y0137961D01*
X0013930Y0135658D01*
X0011707Y0134622D01*
X0009404Y0135460D01*
X0008368Y0137683D01*
X0009206Y0139986D01*
X0011429Y0141022D01*
X0011481Y0139822D01*
X0012920Y0139298D01*
X0013568Y0137909D01*
X0013044Y0136470D01*
X0011655Y0135822D01*
X0010216Y0136346D01*
X0009568Y0137735D01*
X0010092Y0139174D01*
X0011481Y0139822D01*
X0011533Y0138621D01*
X0012109Y0138412D01*
X0012367Y0137857D01*
X0012158Y0137281D01*
X0011603Y0137023D01*
X0011027Y0137232D01*
X0010769Y0137787D01*
X0010978Y0138363D01*
X0011533Y0138621D01*
X0024847Y0113093D02*
X0024107Y0113833D01*
X0026410Y0112995D01*
X0027446Y0110772D01*
X0026608Y0108469D01*
X0024385Y0107433D01*
X0022082Y0108271D01*
X0021046Y0110494D01*
X0021884Y0112797D01*
X0024107Y0113833D01*
X0024159Y0112633D01*
X0025598Y0112109D01*
X0026246Y0110720D01*
X0025722Y0109281D01*
X0024333Y0108633D01*
X0022894Y0109157D01*
X0022246Y0110546D01*
X0022770Y0111985D01*
X0024159Y0112633D01*
X0024211Y0111432D01*
X0024787Y0111223D01*
X0025045Y0110668D01*
X0024836Y0110092D01*
X0024281Y0109834D01*
X0023705Y0110043D01*
X0023447Y0110598D01*
X0023656Y0111174D01*
X0024211Y0111432D01*
X0214847Y0303093D02*
X0214107Y0303833D01*
X0216410Y0302995D01*
X0217446Y0300772D01*
X0216608Y0298469D01*
X0214385Y0297433D01*
X0212082Y0298271D01*
X0211046Y0300494D01*
X0211884Y0302797D01*
X0214107Y0303833D01*
X0214159Y0302633D01*
X0215598Y0302109D01*
X0216246Y0300720D01*
X0215722Y0299281D01*
X0214333Y0298633D01*
X0212894Y0299157D01*
X0212246Y0300546D01*
X0212770Y0301985D01*
X0214159Y0302633D01*
X0214211Y0301432D01*
X0214787Y0301223D01*
X0215045Y0300668D01*
X0214836Y0300092D01*
X0214281Y0299834D01*
X0213705Y0300043D01*
X0213447Y0300598D01*
X0213656Y0301174D01*
X0214211Y0301432D01*
X0202169Y0330282D02*
X0201429Y0331022D01*
X0203732Y0330184D01*
X0204768Y0327961D01*
X0203930Y0325658D01*
X0201707Y0324622D01*
X0199404Y0325460D01*
X0198368Y0327683D01*
X0199206Y0329986D01*
X0201429Y0331022D01*
X0201481Y0329822D01*
X0202920Y0329298D01*
X0203568Y0327909D01*
X0203044Y0326470D01*
X0201655Y0325822D01*
X0200216Y0326346D01*
X0199568Y0327735D01*
X0200092Y0329174D01*
X0201481Y0329822D01*
X0201533Y0328621D01*
X0202109Y0328412D01*
X0202367Y0327857D01*
X0202158Y0327281D01*
X0201603Y0327023D01*
X0201027Y0327232D01*
X0200769Y0327787D01*
X0200978Y0328363D01*
X0201533Y0328621D01*
X0175525Y0333714D02*
X0174785Y0334454D01*
X0177088Y0333616D01*
X0178124Y0331393D01*
X0177286Y0329090D01*
X0175063Y0328054D01*
X0172760Y0328892D01*
X0171724Y0331115D01*
X0172562Y0333418D01*
X0174785Y0334454D01*
X0174837Y0333254D01*
X0176276Y0332730D01*
X0176924Y0331341D01*
X0176400Y0329902D01*
X0175011Y0329254D01*
X0173572Y0329778D01*
X0172924Y0331167D01*
X0173448Y0332606D01*
X0174837Y0333254D01*
X0174889Y0332053D01*
X0175465Y0331844D01*
X0175723Y0331289D01*
X0175514Y0330713D01*
X0174959Y0330455D01*
X0174383Y0330664D01*
X0174125Y0331219D01*
X0174334Y0331795D01*
X0174889Y0332053D01*
X0162847Y0360903D02*
X0162107Y0361643D01*
X0164410Y0360805D01*
X0165446Y0358582D01*
X0164608Y0356279D01*
X0162385Y0355243D01*
X0160082Y0356081D01*
X0159046Y0358304D01*
X0159884Y0360607D01*
X0162107Y0361643D01*
X0162159Y0360443D01*
X0163598Y0359919D01*
X0164246Y0358530D01*
X0163722Y0357091D01*
X0162333Y0356443D01*
X0160894Y0356967D01*
X0160246Y0358356D01*
X0160770Y0359795D01*
X0162159Y0360443D01*
X0162211Y0359242D01*
X0162787Y0359033D01*
X0163045Y0358478D01*
X0162836Y0357902D01*
X0162281Y0357644D01*
X0161705Y0357853D01*
X0161447Y0358408D01*
X0161656Y0358984D01*
X0162211Y0359242D01*
X0257847Y0360903D02*
X0257107Y0361643D01*
X0259410Y0360805D01*
X0260446Y0358582D01*
X0259608Y0356279D01*
X0257385Y0355243D01*
X0255082Y0356081D01*
X0254046Y0358304D01*
X0254884Y0360607D01*
X0257107Y0361643D01*
X0257159Y0360443D01*
X0258598Y0359919D01*
X0259246Y0358530D01*
X0258722Y0357091D01*
X0257333Y0356443D01*
X0255894Y0356967D01*
X0255246Y0358356D01*
X0255770Y0359795D01*
X0257159Y0360443D01*
X0257211Y0359242D01*
X0257787Y0359033D01*
X0258045Y0358478D01*
X0257836Y0357902D01*
X0257281Y0357644D01*
X0256705Y0357853D01*
X0256447Y0358408D01*
X0256656Y0358984D01*
X0257211Y0359242D01*
X0270525Y0333714D02*
X0269785Y0334454D01*
X0272088Y0333616D01*
X0273124Y0331393D01*
X0272286Y0329090D01*
X0270063Y0328054D01*
X0267760Y0328892D01*
X0266724Y0331115D01*
X0267562Y0333418D01*
X0269785Y0334454D01*
X0269837Y0333254D01*
X0271276Y0332730D01*
X0271924Y0331341D01*
X0271400Y0329902D01*
X0270011Y0329254D01*
X0268572Y0329778D01*
X0267924Y0331167D01*
X0268448Y0332606D01*
X0269837Y0333254D01*
X0269889Y0332053D01*
X0270465Y0331844D01*
X0270723Y0331289D01*
X0270514Y0330713D01*
X0269959Y0330455D01*
X0269383Y0330664D01*
X0269125Y0331219D01*
X0269334Y0331795D01*
X0269889Y0332053D01*
X0297169Y0330282D02*
X0296429Y0331022D01*
X0298732Y0330184D01*
X0299768Y0327961D01*
X0298930Y0325658D01*
X0296707Y0324622D01*
X0294404Y0325460D01*
X0293368Y0327683D01*
X0294206Y0329986D01*
X0296429Y0331022D01*
X0296481Y0329822D01*
X0297920Y0329298D01*
X0298568Y0327909D01*
X0298044Y0326470D01*
X0296655Y0325822D01*
X0295216Y0326346D01*
X0294568Y0327735D01*
X0295092Y0329174D01*
X0296481Y0329822D01*
X0296533Y0328621D01*
X0297109Y0328412D01*
X0297367Y0327857D01*
X0297158Y0327281D01*
X0296603Y0327023D01*
X0296027Y0327232D01*
X0295769Y0327787D01*
X0295978Y0328363D01*
X0296533Y0328621D01*
X0309847Y0303093D02*
X0309107Y0303833D01*
X0311410Y0302995D01*
X0312446Y0300772D01*
X0311608Y0298469D01*
X0309385Y0297433D01*
X0307082Y0298271D01*
X0306046Y0300494D01*
X0306884Y0302797D01*
X0309107Y0303833D01*
X0309159Y0302633D01*
X0310598Y0302109D01*
X0311246Y0300720D01*
X0310722Y0299281D01*
X0309333Y0298633D01*
X0307894Y0299157D01*
X0307246Y0300546D01*
X0307770Y0301985D01*
X0309159Y0302633D01*
X0309211Y0301432D01*
X0309787Y0301223D01*
X0310045Y0300668D01*
X0309836Y0300092D01*
X0309281Y0299834D01*
X0308705Y0300043D01*
X0308447Y0300598D01*
X0308656Y0301174D01*
X0309211Y0301432D01*
X0352847Y0265903D02*
X0352107Y0266643D01*
X0354410Y0265805D01*
X0355446Y0263582D01*
X0354608Y0261279D01*
X0352385Y0260243D01*
X0350082Y0261081D01*
X0349046Y0263304D01*
X0349884Y0265607D01*
X0352107Y0266643D01*
X0352159Y0265443D01*
X0353598Y0264919D01*
X0354246Y0263530D01*
X0353722Y0262091D01*
X0352333Y0261443D01*
X0350894Y0261967D01*
X0350246Y0263356D01*
X0350770Y0264795D01*
X0352159Y0265443D01*
X0352211Y0264242D01*
X0352787Y0264033D01*
X0353045Y0263478D01*
X0352836Y0262902D01*
X0352281Y0262644D01*
X0351705Y0262853D01*
X0351447Y0263408D01*
X0351656Y0263984D01*
X0352211Y0264242D01*
X0365525Y0238714D02*
X0364785Y0239454D01*
X0367088Y0238616D01*
X0368124Y0236393D01*
X0367286Y0234090D01*
X0365063Y0233054D01*
X0362760Y0233892D01*
X0361724Y0236115D01*
X0362562Y0238418D01*
X0364785Y0239454D01*
X0364837Y0238254D01*
X0366276Y0237730D01*
X0366924Y0236341D01*
X0366400Y0234902D01*
X0365011Y0234254D01*
X0363572Y0234778D01*
X0362924Y0236167D01*
X0363448Y0237606D01*
X0364837Y0238254D01*
X0364889Y0237053D01*
X0365465Y0236844D01*
X0365723Y0236289D01*
X0365514Y0235713D01*
X0364959Y0235455D01*
X0364383Y0235664D01*
X0364125Y0236219D01*
X0364334Y0236795D01*
X0364889Y0237053D01*
X0309847Y0208093D02*
X0309107Y0208833D01*
X0311410Y0207995D01*
X0312446Y0205772D01*
X0311608Y0203469D01*
X0309385Y0202433D01*
X0307082Y0203271D01*
X0306046Y0205494D01*
X0306884Y0207797D01*
X0309107Y0208833D01*
X0309159Y0207633D01*
X0310598Y0207109D01*
X0311246Y0205720D01*
X0310722Y0204281D01*
X0309333Y0203633D01*
X0307894Y0204157D01*
X0307246Y0205546D01*
X0307770Y0206985D01*
X0309159Y0207633D01*
X0309211Y0206432D01*
X0309787Y0206223D01*
X0310045Y0205668D01*
X0309836Y0205092D01*
X0309281Y0204834D01*
X0308705Y0205043D01*
X0308447Y0205598D01*
X0308656Y0206174D01*
X0309211Y0206432D01*
X0297169Y0235282D02*
X0296429Y0236022D01*
X0298732Y0235184D01*
X0299768Y0232961D01*
X0298930Y0230658D01*
X0296707Y0229622D01*
X0294404Y0230460D01*
X0293368Y0232683D01*
X0294206Y0234986D01*
X0296429Y0236022D01*
X0296481Y0234822D01*
X0297920Y0234298D01*
X0298568Y0232909D01*
X0298044Y0231470D01*
X0296655Y0230822D01*
X0295216Y0231346D01*
X0294568Y0232735D01*
X0295092Y0234174D01*
X0296481Y0234822D01*
X0296533Y0233621D01*
X0297109Y0233412D01*
X0297367Y0232857D01*
X0297158Y0232281D01*
X0296603Y0232023D01*
X0296027Y0232232D01*
X0295769Y0232787D01*
X0295978Y0233363D01*
X0296533Y0233621D01*
X0270525Y0238714D02*
X0269785Y0239454D01*
X0272088Y0238616D01*
X0273124Y0236393D01*
X0272286Y0234090D01*
X0270063Y0233054D01*
X0267760Y0233892D01*
X0266724Y0236115D01*
X0267562Y0238418D01*
X0269785Y0239454D01*
X0269837Y0238254D01*
X0271276Y0237730D01*
X0271924Y0236341D01*
X0271400Y0234902D01*
X0270011Y0234254D01*
X0268572Y0234778D01*
X0267924Y0236167D01*
X0268448Y0237606D01*
X0269837Y0238254D01*
X0269889Y0237053D01*
X0270465Y0236844D01*
X0270723Y0236289D01*
X0270514Y0235713D01*
X0269959Y0235455D01*
X0269383Y0235664D01*
X0269125Y0236219D01*
X0269334Y0236795D01*
X0269889Y0237053D01*
X0257847Y0265903D02*
X0257107Y0266643D01*
X0259410Y0265805D01*
X0260446Y0263582D01*
X0259608Y0261279D01*
X0257385Y0260243D01*
X0255082Y0261081D01*
X0254046Y0263304D01*
X0254884Y0265607D01*
X0257107Y0266643D01*
X0257159Y0265443D01*
X0258598Y0264919D01*
X0259246Y0263530D01*
X0258722Y0262091D01*
X0257333Y0261443D01*
X0255894Y0261967D01*
X0255246Y0263356D01*
X0255770Y0264795D01*
X0257159Y0265443D01*
X0257211Y0264242D01*
X0257787Y0264033D01*
X0258045Y0263478D01*
X0257836Y0262902D01*
X0257281Y0262644D01*
X0256705Y0262853D01*
X0256447Y0263408D01*
X0256656Y0263984D01*
X0257211Y0264242D01*
X0352847Y0360903D02*
X0352107Y0361643D01*
X0354410Y0360805D01*
X0355446Y0358582D01*
X0354608Y0356279D01*
X0352385Y0355243D01*
X0350082Y0356081D01*
X0349046Y0358304D01*
X0349884Y0360607D01*
X0352107Y0361643D01*
X0352159Y0360443D01*
X0353598Y0359919D01*
X0354246Y0358530D01*
X0353722Y0357091D01*
X0352333Y0356443D01*
X0350894Y0356967D01*
X0350246Y0358356D01*
X0350770Y0359795D01*
X0352159Y0360443D01*
X0352211Y0359242D01*
X0352787Y0359033D01*
X0353045Y0358478D01*
X0352836Y0357902D01*
X0352281Y0357644D01*
X0351705Y0357853D01*
X0351447Y0358408D01*
X0351656Y0358984D01*
X0352211Y0359242D01*
X0365525Y0333714D02*
X0364785Y0334454D01*
X0367088Y0333616D01*
X0368124Y0331393D01*
X0367286Y0329090D01*
X0365063Y0328054D01*
X0362760Y0328892D01*
X0361724Y0331115D01*
X0362562Y0333418D01*
X0364785Y0334454D01*
X0364837Y0333254D01*
X0366276Y0332730D01*
X0366924Y0331341D01*
X0366400Y0329902D01*
X0365011Y0329254D01*
X0363572Y0329778D01*
X0362924Y0331167D01*
X0363448Y0332606D01*
X0364837Y0333254D01*
X0364889Y0332053D01*
X0365465Y0331844D01*
X0365723Y0331289D01*
X0365514Y0330713D01*
X0364959Y0330455D01*
X0364383Y0330664D01*
X0364125Y0331219D01*
X0364334Y0331795D01*
X0364889Y0332053D01*
X0352847Y0170903D02*
X0352107Y0171643D01*
X0354410Y0170805D01*
X0355446Y0168582D01*
X0354608Y0166279D01*
X0352385Y0165243D01*
X0350082Y0166081D01*
X0349046Y0168304D01*
X0349884Y0170607D01*
X0352107Y0171643D01*
X0352159Y0170443D01*
X0353598Y0169919D01*
X0354246Y0168530D01*
X0353722Y0167091D01*
X0352333Y0166443D01*
X0350894Y0166967D01*
X0350246Y0168356D01*
X0350770Y0169795D01*
X0352159Y0170443D01*
X0352211Y0169242D01*
X0352787Y0169033D01*
X0353045Y0168478D01*
X0352836Y0167902D01*
X0352281Y0167644D01*
X0351705Y0167853D01*
X0351447Y0168408D01*
X0351656Y0168984D01*
X0352211Y0169242D01*
X0365525Y0143714D02*
X0364785Y0144454D01*
X0367088Y0143616D01*
X0368124Y0141393D01*
X0367286Y0139090D01*
X0365063Y0138054D01*
X0362760Y0138892D01*
X0361724Y0141115D01*
X0362562Y0143418D01*
X0364785Y0144454D01*
X0364837Y0143254D01*
X0366276Y0142730D01*
X0366924Y0141341D01*
X0366400Y0139902D01*
X0365011Y0139254D01*
X0363572Y0139778D01*
X0362924Y0141167D01*
X0363448Y0142606D01*
X0364837Y0143254D01*
X0364889Y0142053D01*
X0365465Y0141844D01*
X0365723Y0141289D01*
X0365514Y0140713D01*
X0364959Y0140455D01*
X0364383Y0140664D01*
X0364125Y0141219D01*
X0364334Y0141795D01*
X0364889Y0142053D01*
D12*
X0336987Y0108798D03*
X0321987Y0108798D03*
X0241987Y0108798D03*
X0226987Y0108798D03*
X0146987Y0108798D03*
X0131987Y0108798D03*
X0051987Y0108798D03*
X0036987Y0108798D03*
X0036987Y0013798D03*
X0051987Y0013798D03*
X0131987Y0013798D03*
X0146987Y0013798D03*
X0226987Y0013798D03*
X0241987Y0013798D03*
X0321987Y0013798D03*
X0336987Y0013798D03*
X0336987Y0203798D03*
X0321987Y0203798D03*
X0241987Y0203798D03*
X0226987Y0203798D03*
X0146987Y0203798D03*
X0131987Y0203798D03*
X0051987Y0203798D03*
X0036987Y0203798D03*
X0036987Y0298798D03*
X0051987Y0298798D03*
X0131987Y0298798D03*
X0146987Y0298798D03*
X0226987Y0298798D03*
X0241987Y0298798D03*
X0321987Y0298798D03*
X0336987Y0298798D03*
D13*
X0334487Y0270767D02*
X0334487Y0264830D01*
X0324487Y0264830D02*
X0324487Y0270767D01*
X0304044Y0256404D02*
X0298237Y0257638D01*
X0296158Y0247857D02*
X0301965Y0246622D01*
X0239487Y0264830D02*
X0239487Y0270767D01*
X0229487Y0270767D02*
X0229487Y0264830D01*
X0209044Y0256404D02*
X0203237Y0257638D01*
X0201158Y0247857D02*
X0206965Y0246622D01*
X0144487Y0264830D02*
X0144487Y0270767D01*
X0134487Y0270767D02*
X0134487Y0264830D01*
X0114044Y0256404D02*
X0108237Y0257638D01*
X0106158Y0247857D02*
X0111965Y0246622D01*
X0049487Y0264830D02*
X0049487Y0270767D01*
X0039487Y0270767D02*
X0039487Y0264830D01*
X0019044Y0256404D02*
X0013237Y0257638D01*
X0011158Y0247857D02*
X0016965Y0246622D01*
X0039487Y0175767D02*
X0039487Y0169830D01*
X0049487Y0169830D02*
X0049487Y0175767D01*
X0019044Y0161404D02*
X0013237Y0162638D01*
X0011158Y0152857D02*
X0016965Y0151622D01*
X0039487Y0080767D02*
X0039487Y0074830D01*
X0049487Y0074830D02*
X0049487Y0080767D01*
X0019044Y0066404D02*
X0013237Y0067638D01*
X0011158Y0057857D02*
X0016965Y0056622D01*
X0106158Y0057857D02*
X0111965Y0056622D01*
X0114044Y0066404D02*
X0108237Y0067638D01*
X0134487Y0074830D02*
X0134487Y0080767D01*
X0144487Y0080767D02*
X0144487Y0074830D01*
X0201158Y0057857D02*
X0206965Y0056622D01*
X0209044Y0066404D02*
X0203237Y0067638D01*
X0229487Y0074830D02*
X0229487Y0080767D01*
X0239487Y0080767D02*
X0239487Y0074830D01*
X0296158Y0057857D02*
X0301965Y0056622D01*
X0304044Y0066404D02*
X0298237Y0067638D01*
X0324487Y0074830D02*
X0324487Y0080767D01*
X0334487Y0080767D02*
X0334487Y0074830D01*
X0301965Y0151622D02*
X0296158Y0152857D01*
X0298237Y0162638D02*
X0304044Y0161404D01*
X0324487Y0169830D02*
X0324487Y0175767D01*
X0334487Y0175767D02*
X0334487Y0169830D01*
X0239487Y0169830D02*
X0239487Y0175767D01*
X0229487Y0175767D02*
X0229487Y0169830D01*
X0209044Y0161404D02*
X0203237Y0162638D01*
X0201158Y0152857D02*
X0206965Y0151622D01*
X0144487Y0169830D02*
X0144487Y0175767D01*
X0134487Y0175767D02*
X0134487Y0169830D01*
X0114044Y0161404D02*
X0108237Y0162638D01*
X0106158Y0152857D02*
X0111965Y0151622D01*
X0111965Y0341622D02*
X0106158Y0342857D01*
X0108237Y0352638D02*
X0114044Y0351404D01*
X0134487Y0359830D02*
X0134487Y0365767D01*
X0144487Y0365767D02*
X0144487Y0359830D01*
X0201158Y0342857D02*
X0206965Y0341622D01*
X0209044Y0351404D02*
X0203237Y0352638D01*
X0229487Y0359830D02*
X0229487Y0365767D01*
X0239487Y0365767D02*
X0239487Y0359830D01*
X0296158Y0342857D02*
X0301965Y0341622D01*
X0304044Y0351404D02*
X0298237Y0352638D01*
X0324487Y0359830D02*
X0324487Y0365767D01*
X0334487Y0365767D02*
X0334487Y0359830D01*
X0049487Y0359830D02*
X0049487Y0365767D01*
X0039487Y0365767D02*
X0039487Y0359830D01*
X0019044Y0351404D02*
X0013237Y0352638D01*
X0011158Y0342857D02*
X0016965Y0341622D01*
D14*
X0069487Y0328798D03*
X0164487Y0328798D03*
X0259487Y0328798D03*
X0259487Y0233798D03*
X0259487Y0138798D03*
X0259487Y0043798D03*
X0164487Y0043798D03*
X0069487Y0043798D03*
X0069487Y0138798D03*
X0164487Y0138798D03*
X0164487Y0233798D03*
X0069487Y0233798D03*
X0354487Y0233798D03*
X0354487Y0138798D03*
X0354487Y0043798D03*
X0354487Y0328798D03*
D15*
X0354487Y0298798D03*
X0354487Y0203798D03*
X0354487Y0108798D03*
X0354487Y0013798D03*
X0259487Y0013798D03*
X0164487Y0013798D03*
X0069487Y0013798D03*
X0069487Y0108798D03*
X0164487Y0108798D03*
X0259487Y0108798D03*
X0259487Y0203798D03*
X0164487Y0203798D03*
X0069487Y0203798D03*
X0069487Y0298798D03*
X0164487Y0298798D03*
X0259487Y0298798D03*
M02*
