G75*
%MOIN*%
%OFA0B0*%
%FSLAX25Y25*%
%IPPOS*%
%LPD*%
%AMOC8*
5,1,8,0,0,1.08239X$1,22.5*
%
%ADD10C,0.00100*%
D10*
X0001050Y0046050D02*
X0001064Y0047154D01*
X0001104Y0048258D01*
X0001172Y0049360D01*
X0001267Y0050461D01*
X0001388Y0051558D01*
X0001537Y0052653D01*
X0001713Y0053743D01*
X0001915Y0054829D01*
X0002143Y0055910D01*
X0002399Y0056984D01*
X0002680Y0058052D01*
X0002988Y0059113D01*
X0003321Y0060166D01*
X0003681Y0061210D01*
X0004065Y0062245D01*
X0004475Y0063271D01*
X0004911Y0064286D01*
X0005370Y0065290D01*
X0005855Y0066283D01*
X0006364Y0067263D01*
X0006896Y0068230D01*
X0007452Y0069185D01*
X0008032Y0070125D01*
X0008634Y0071051D01*
X0009259Y0071961D01*
X0009906Y0072856D01*
X0010574Y0073735D01*
X0011265Y0074598D01*
X0011976Y0075443D01*
X0012707Y0076270D01*
X0013459Y0077079D01*
X0014230Y0077870D01*
X0015021Y0078641D01*
X0015830Y0079393D01*
X0016657Y0080124D01*
X0017502Y0080835D01*
X0018365Y0081526D01*
X0019244Y0082194D01*
X0020139Y0082841D01*
X0021049Y0083466D01*
X0021975Y0084068D01*
X0022915Y0084648D01*
X0023870Y0085204D01*
X0024837Y0085736D01*
X0025817Y0086245D01*
X0026810Y0086730D01*
X0027814Y0087189D01*
X0028829Y0087625D01*
X0029855Y0088035D01*
X0030890Y0088419D01*
X0031934Y0088779D01*
X0032987Y0089112D01*
X0034048Y0089420D01*
X0035116Y0089701D01*
X0036190Y0089957D01*
X0037271Y0090185D01*
X0038357Y0090387D01*
X0039447Y0090563D01*
X0040542Y0090712D01*
X0041639Y0090833D01*
X0042740Y0090928D01*
X0043842Y0090996D01*
X0044946Y0091036D01*
X0046050Y0091050D01*
X0047154Y0091036D01*
X0048258Y0090996D01*
X0049360Y0090928D01*
X0050461Y0090833D01*
X0051558Y0090712D01*
X0052653Y0090563D01*
X0053743Y0090387D01*
X0054829Y0090185D01*
X0055910Y0089957D01*
X0056984Y0089701D01*
X0058052Y0089420D01*
X0059113Y0089112D01*
X0060166Y0088779D01*
X0061210Y0088419D01*
X0062245Y0088035D01*
X0063271Y0087625D01*
X0064286Y0087189D01*
X0065290Y0086730D01*
X0066283Y0086245D01*
X0067263Y0085736D01*
X0068230Y0085204D01*
X0069185Y0084648D01*
X0070125Y0084068D01*
X0071051Y0083466D01*
X0071961Y0082841D01*
X0072856Y0082194D01*
X0073735Y0081526D01*
X0074598Y0080835D01*
X0075443Y0080124D01*
X0076270Y0079393D01*
X0077079Y0078641D01*
X0077870Y0077870D01*
X0078641Y0077079D01*
X0079393Y0076270D01*
X0080124Y0075443D01*
X0080835Y0074598D01*
X0081526Y0073735D01*
X0082194Y0072856D01*
X0082841Y0071961D01*
X0083466Y0071051D01*
X0084068Y0070125D01*
X0084648Y0069185D01*
X0085204Y0068230D01*
X0085736Y0067263D01*
X0086245Y0066283D01*
X0086730Y0065290D01*
X0087189Y0064286D01*
X0087625Y0063271D01*
X0088035Y0062245D01*
X0088419Y0061210D01*
X0088779Y0060166D01*
X0089112Y0059113D01*
X0089420Y0058052D01*
X0089701Y0056984D01*
X0089957Y0055910D01*
X0090185Y0054829D01*
X0090387Y0053743D01*
X0090563Y0052653D01*
X0090712Y0051558D01*
X0090833Y0050461D01*
X0090928Y0049360D01*
X0090996Y0048258D01*
X0091036Y0047154D01*
X0091050Y0046050D01*
X0091036Y0044946D01*
X0090996Y0043842D01*
X0090928Y0042740D01*
X0090833Y0041639D01*
X0090712Y0040542D01*
X0090563Y0039447D01*
X0090387Y0038357D01*
X0090185Y0037271D01*
X0089957Y0036190D01*
X0089701Y0035116D01*
X0089420Y0034048D01*
X0089112Y0032987D01*
X0088779Y0031934D01*
X0088419Y0030890D01*
X0088035Y0029855D01*
X0087625Y0028829D01*
X0087189Y0027814D01*
X0086730Y0026810D01*
X0086245Y0025817D01*
X0085736Y0024837D01*
X0085204Y0023870D01*
X0084648Y0022915D01*
X0084068Y0021975D01*
X0083466Y0021049D01*
X0082841Y0020139D01*
X0082194Y0019244D01*
X0081526Y0018365D01*
X0080835Y0017502D01*
X0080124Y0016657D01*
X0079393Y0015830D01*
X0078641Y0015021D01*
X0077870Y0014230D01*
X0077079Y0013459D01*
X0076270Y0012707D01*
X0075443Y0011976D01*
X0074598Y0011265D01*
X0073735Y0010574D01*
X0072856Y0009906D01*
X0071961Y0009259D01*
X0071051Y0008634D01*
X0070125Y0008032D01*
X0069185Y0007452D01*
X0068230Y0006896D01*
X0067263Y0006364D01*
X0066283Y0005855D01*
X0065290Y0005370D01*
X0064286Y0004911D01*
X0063271Y0004475D01*
X0062245Y0004065D01*
X0061210Y0003681D01*
X0060166Y0003321D01*
X0059113Y0002988D01*
X0058052Y0002680D01*
X0056984Y0002399D01*
X0055910Y0002143D01*
X0054829Y0001915D01*
X0053743Y0001713D01*
X0052653Y0001537D01*
X0051558Y0001388D01*
X0050461Y0001267D01*
X0049360Y0001172D01*
X0048258Y0001104D01*
X0047154Y0001064D01*
X0046050Y0001050D01*
X0044946Y0001064D01*
X0043842Y0001104D01*
X0042740Y0001172D01*
X0041639Y0001267D01*
X0040542Y0001388D01*
X0039447Y0001537D01*
X0038357Y0001713D01*
X0037271Y0001915D01*
X0036190Y0002143D01*
X0035116Y0002399D01*
X0034048Y0002680D01*
X0032987Y0002988D01*
X0031934Y0003321D01*
X0030890Y0003681D01*
X0029855Y0004065D01*
X0028829Y0004475D01*
X0027814Y0004911D01*
X0026810Y0005370D01*
X0025817Y0005855D01*
X0024837Y0006364D01*
X0023870Y0006896D01*
X0022915Y0007452D01*
X0021975Y0008032D01*
X0021049Y0008634D01*
X0020139Y0009259D01*
X0019244Y0009906D01*
X0018365Y0010574D01*
X0017502Y0011265D01*
X0016657Y0011976D01*
X0015830Y0012707D01*
X0015021Y0013459D01*
X0014230Y0014230D01*
X0013459Y0015021D01*
X0012707Y0015830D01*
X0011976Y0016657D01*
X0011265Y0017502D01*
X0010574Y0018365D01*
X0009906Y0019244D01*
X0009259Y0020139D01*
X0008634Y0021049D01*
X0008032Y0021975D01*
X0007452Y0022915D01*
X0006896Y0023870D01*
X0006364Y0024837D01*
X0005855Y0025817D01*
X0005370Y0026810D01*
X0004911Y0027814D01*
X0004475Y0028829D01*
X0004065Y0029855D01*
X0003681Y0030890D01*
X0003321Y0031934D01*
X0002988Y0032987D01*
X0002680Y0034048D01*
X0002399Y0035116D01*
X0002143Y0036190D01*
X0001915Y0037271D01*
X0001713Y0038357D01*
X0001537Y0039447D01*
X0001388Y0040542D01*
X0001267Y0041639D01*
X0001172Y0042740D01*
X0001104Y0043842D01*
X0001064Y0044946D01*
X0001050Y0046050D01*
X0001050Y0141050D02*
X0001064Y0142154D01*
X0001104Y0143258D01*
X0001172Y0144360D01*
X0001267Y0145461D01*
X0001388Y0146558D01*
X0001537Y0147653D01*
X0001713Y0148743D01*
X0001915Y0149829D01*
X0002143Y0150910D01*
X0002399Y0151984D01*
X0002680Y0153052D01*
X0002988Y0154113D01*
X0003321Y0155166D01*
X0003681Y0156210D01*
X0004065Y0157245D01*
X0004475Y0158271D01*
X0004911Y0159286D01*
X0005370Y0160290D01*
X0005855Y0161283D01*
X0006364Y0162263D01*
X0006896Y0163230D01*
X0007452Y0164185D01*
X0008032Y0165125D01*
X0008634Y0166051D01*
X0009259Y0166961D01*
X0009906Y0167856D01*
X0010574Y0168735D01*
X0011265Y0169598D01*
X0011976Y0170443D01*
X0012707Y0171270D01*
X0013459Y0172079D01*
X0014230Y0172870D01*
X0015021Y0173641D01*
X0015830Y0174393D01*
X0016657Y0175124D01*
X0017502Y0175835D01*
X0018365Y0176526D01*
X0019244Y0177194D01*
X0020139Y0177841D01*
X0021049Y0178466D01*
X0021975Y0179068D01*
X0022915Y0179648D01*
X0023870Y0180204D01*
X0024837Y0180736D01*
X0025817Y0181245D01*
X0026810Y0181730D01*
X0027814Y0182189D01*
X0028829Y0182625D01*
X0029855Y0183035D01*
X0030890Y0183419D01*
X0031934Y0183779D01*
X0032987Y0184112D01*
X0034048Y0184420D01*
X0035116Y0184701D01*
X0036190Y0184957D01*
X0037271Y0185185D01*
X0038357Y0185387D01*
X0039447Y0185563D01*
X0040542Y0185712D01*
X0041639Y0185833D01*
X0042740Y0185928D01*
X0043842Y0185996D01*
X0044946Y0186036D01*
X0046050Y0186050D01*
X0047154Y0186036D01*
X0048258Y0185996D01*
X0049360Y0185928D01*
X0050461Y0185833D01*
X0051558Y0185712D01*
X0052653Y0185563D01*
X0053743Y0185387D01*
X0054829Y0185185D01*
X0055910Y0184957D01*
X0056984Y0184701D01*
X0058052Y0184420D01*
X0059113Y0184112D01*
X0060166Y0183779D01*
X0061210Y0183419D01*
X0062245Y0183035D01*
X0063271Y0182625D01*
X0064286Y0182189D01*
X0065290Y0181730D01*
X0066283Y0181245D01*
X0067263Y0180736D01*
X0068230Y0180204D01*
X0069185Y0179648D01*
X0070125Y0179068D01*
X0071051Y0178466D01*
X0071961Y0177841D01*
X0072856Y0177194D01*
X0073735Y0176526D01*
X0074598Y0175835D01*
X0075443Y0175124D01*
X0076270Y0174393D01*
X0077079Y0173641D01*
X0077870Y0172870D01*
X0078641Y0172079D01*
X0079393Y0171270D01*
X0080124Y0170443D01*
X0080835Y0169598D01*
X0081526Y0168735D01*
X0082194Y0167856D01*
X0082841Y0166961D01*
X0083466Y0166051D01*
X0084068Y0165125D01*
X0084648Y0164185D01*
X0085204Y0163230D01*
X0085736Y0162263D01*
X0086245Y0161283D01*
X0086730Y0160290D01*
X0087189Y0159286D01*
X0087625Y0158271D01*
X0088035Y0157245D01*
X0088419Y0156210D01*
X0088779Y0155166D01*
X0089112Y0154113D01*
X0089420Y0153052D01*
X0089701Y0151984D01*
X0089957Y0150910D01*
X0090185Y0149829D01*
X0090387Y0148743D01*
X0090563Y0147653D01*
X0090712Y0146558D01*
X0090833Y0145461D01*
X0090928Y0144360D01*
X0090996Y0143258D01*
X0091036Y0142154D01*
X0091050Y0141050D01*
X0091036Y0139946D01*
X0090996Y0138842D01*
X0090928Y0137740D01*
X0090833Y0136639D01*
X0090712Y0135542D01*
X0090563Y0134447D01*
X0090387Y0133357D01*
X0090185Y0132271D01*
X0089957Y0131190D01*
X0089701Y0130116D01*
X0089420Y0129048D01*
X0089112Y0127987D01*
X0088779Y0126934D01*
X0088419Y0125890D01*
X0088035Y0124855D01*
X0087625Y0123829D01*
X0087189Y0122814D01*
X0086730Y0121810D01*
X0086245Y0120817D01*
X0085736Y0119837D01*
X0085204Y0118870D01*
X0084648Y0117915D01*
X0084068Y0116975D01*
X0083466Y0116049D01*
X0082841Y0115139D01*
X0082194Y0114244D01*
X0081526Y0113365D01*
X0080835Y0112502D01*
X0080124Y0111657D01*
X0079393Y0110830D01*
X0078641Y0110021D01*
X0077870Y0109230D01*
X0077079Y0108459D01*
X0076270Y0107707D01*
X0075443Y0106976D01*
X0074598Y0106265D01*
X0073735Y0105574D01*
X0072856Y0104906D01*
X0071961Y0104259D01*
X0071051Y0103634D01*
X0070125Y0103032D01*
X0069185Y0102452D01*
X0068230Y0101896D01*
X0067263Y0101364D01*
X0066283Y0100855D01*
X0065290Y0100370D01*
X0064286Y0099911D01*
X0063271Y0099475D01*
X0062245Y0099065D01*
X0061210Y0098681D01*
X0060166Y0098321D01*
X0059113Y0097988D01*
X0058052Y0097680D01*
X0056984Y0097399D01*
X0055910Y0097143D01*
X0054829Y0096915D01*
X0053743Y0096713D01*
X0052653Y0096537D01*
X0051558Y0096388D01*
X0050461Y0096267D01*
X0049360Y0096172D01*
X0048258Y0096104D01*
X0047154Y0096064D01*
X0046050Y0096050D01*
X0044946Y0096064D01*
X0043842Y0096104D01*
X0042740Y0096172D01*
X0041639Y0096267D01*
X0040542Y0096388D01*
X0039447Y0096537D01*
X0038357Y0096713D01*
X0037271Y0096915D01*
X0036190Y0097143D01*
X0035116Y0097399D01*
X0034048Y0097680D01*
X0032987Y0097988D01*
X0031934Y0098321D01*
X0030890Y0098681D01*
X0029855Y0099065D01*
X0028829Y0099475D01*
X0027814Y0099911D01*
X0026810Y0100370D01*
X0025817Y0100855D01*
X0024837Y0101364D01*
X0023870Y0101896D01*
X0022915Y0102452D01*
X0021975Y0103032D01*
X0021049Y0103634D01*
X0020139Y0104259D01*
X0019244Y0104906D01*
X0018365Y0105574D01*
X0017502Y0106265D01*
X0016657Y0106976D01*
X0015830Y0107707D01*
X0015021Y0108459D01*
X0014230Y0109230D01*
X0013459Y0110021D01*
X0012707Y0110830D01*
X0011976Y0111657D01*
X0011265Y0112502D01*
X0010574Y0113365D01*
X0009906Y0114244D01*
X0009259Y0115139D01*
X0008634Y0116049D01*
X0008032Y0116975D01*
X0007452Y0117915D01*
X0006896Y0118870D01*
X0006364Y0119837D01*
X0005855Y0120817D01*
X0005370Y0121810D01*
X0004911Y0122814D01*
X0004475Y0123829D01*
X0004065Y0124855D01*
X0003681Y0125890D01*
X0003321Y0126934D01*
X0002988Y0127987D01*
X0002680Y0129048D01*
X0002399Y0130116D01*
X0002143Y0131190D01*
X0001915Y0132271D01*
X0001713Y0133357D01*
X0001537Y0134447D01*
X0001388Y0135542D01*
X0001267Y0136639D01*
X0001172Y0137740D01*
X0001104Y0138842D01*
X0001064Y0139946D01*
X0001050Y0141050D01*
X0001050Y0236050D02*
X0001064Y0237154D01*
X0001104Y0238258D01*
X0001172Y0239360D01*
X0001267Y0240461D01*
X0001388Y0241558D01*
X0001537Y0242653D01*
X0001713Y0243743D01*
X0001915Y0244829D01*
X0002143Y0245910D01*
X0002399Y0246984D01*
X0002680Y0248052D01*
X0002988Y0249113D01*
X0003321Y0250166D01*
X0003681Y0251210D01*
X0004065Y0252245D01*
X0004475Y0253271D01*
X0004911Y0254286D01*
X0005370Y0255290D01*
X0005855Y0256283D01*
X0006364Y0257263D01*
X0006896Y0258230D01*
X0007452Y0259185D01*
X0008032Y0260125D01*
X0008634Y0261051D01*
X0009259Y0261961D01*
X0009906Y0262856D01*
X0010574Y0263735D01*
X0011265Y0264598D01*
X0011976Y0265443D01*
X0012707Y0266270D01*
X0013459Y0267079D01*
X0014230Y0267870D01*
X0015021Y0268641D01*
X0015830Y0269393D01*
X0016657Y0270124D01*
X0017502Y0270835D01*
X0018365Y0271526D01*
X0019244Y0272194D01*
X0020139Y0272841D01*
X0021049Y0273466D01*
X0021975Y0274068D01*
X0022915Y0274648D01*
X0023870Y0275204D01*
X0024837Y0275736D01*
X0025817Y0276245D01*
X0026810Y0276730D01*
X0027814Y0277189D01*
X0028829Y0277625D01*
X0029855Y0278035D01*
X0030890Y0278419D01*
X0031934Y0278779D01*
X0032987Y0279112D01*
X0034048Y0279420D01*
X0035116Y0279701D01*
X0036190Y0279957D01*
X0037271Y0280185D01*
X0038357Y0280387D01*
X0039447Y0280563D01*
X0040542Y0280712D01*
X0041639Y0280833D01*
X0042740Y0280928D01*
X0043842Y0280996D01*
X0044946Y0281036D01*
X0046050Y0281050D01*
X0047154Y0281036D01*
X0048258Y0280996D01*
X0049360Y0280928D01*
X0050461Y0280833D01*
X0051558Y0280712D01*
X0052653Y0280563D01*
X0053743Y0280387D01*
X0054829Y0280185D01*
X0055910Y0279957D01*
X0056984Y0279701D01*
X0058052Y0279420D01*
X0059113Y0279112D01*
X0060166Y0278779D01*
X0061210Y0278419D01*
X0062245Y0278035D01*
X0063271Y0277625D01*
X0064286Y0277189D01*
X0065290Y0276730D01*
X0066283Y0276245D01*
X0067263Y0275736D01*
X0068230Y0275204D01*
X0069185Y0274648D01*
X0070125Y0274068D01*
X0071051Y0273466D01*
X0071961Y0272841D01*
X0072856Y0272194D01*
X0073735Y0271526D01*
X0074598Y0270835D01*
X0075443Y0270124D01*
X0076270Y0269393D01*
X0077079Y0268641D01*
X0077870Y0267870D01*
X0078641Y0267079D01*
X0079393Y0266270D01*
X0080124Y0265443D01*
X0080835Y0264598D01*
X0081526Y0263735D01*
X0082194Y0262856D01*
X0082841Y0261961D01*
X0083466Y0261051D01*
X0084068Y0260125D01*
X0084648Y0259185D01*
X0085204Y0258230D01*
X0085736Y0257263D01*
X0086245Y0256283D01*
X0086730Y0255290D01*
X0087189Y0254286D01*
X0087625Y0253271D01*
X0088035Y0252245D01*
X0088419Y0251210D01*
X0088779Y0250166D01*
X0089112Y0249113D01*
X0089420Y0248052D01*
X0089701Y0246984D01*
X0089957Y0245910D01*
X0090185Y0244829D01*
X0090387Y0243743D01*
X0090563Y0242653D01*
X0090712Y0241558D01*
X0090833Y0240461D01*
X0090928Y0239360D01*
X0090996Y0238258D01*
X0091036Y0237154D01*
X0091050Y0236050D01*
X0091036Y0234946D01*
X0090996Y0233842D01*
X0090928Y0232740D01*
X0090833Y0231639D01*
X0090712Y0230542D01*
X0090563Y0229447D01*
X0090387Y0228357D01*
X0090185Y0227271D01*
X0089957Y0226190D01*
X0089701Y0225116D01*
X0089420Y0224048D01*
X0089112Y0222987D01*
X0088779Y0221934D01*
X0088419Y0220890D01*
X0088035Y0219855D01*
X0087625Y0218829D01*
X0087189Y0217814D01*
X0086730Y0216810D01*
X0086245Y0215817D01*
X0085736Y0214837D01*
X0085204Y0213870D01*
X0084648Y0212915D01*
X0084068Y0211975D01*
X0083466Y0211049D01*
X0082841Y0210139D01*
X0082194Y0209244D01*
X0081526Y0208365D01*
X0080835Y0207502D01*
X0080124Y0206657D01*
X0079393Y0205830D01*
X0078641Y0205021D01*
X0077870Y0204230D01*
X0077079Y0203459D01*
X0076270Y0202707D01*
X0075443Y0201976D01*
X0074598Y0201265D01*
X0073735Y0200574D01*
X0072856Y0199906D01*
X0071961Y0199259D01*
X0071051Y0198634D01*
X0070125Y0198032D01*
X0069185Y0197452D01*
X0068230Y0196896D01*
X0067263Y0196364D01*
X0066283Y0195855D01*
X0065290Y0195370D01*
X0064286Y0194911D01*
X0063271Y0194475D01*
X0062245Y0194065D01*
X0061210Y0193681D01*
X0060166Y0193321D01*
X0059113Y0192988D01*
X0058052Y0192680D01*
X0056984Y0192399D01*
X0055910Y0192143D01*
X0054829Y0191915D01*
X0053743Y0191713D01*
X0052653Y0191537D01*
X0051558Y0191388D01*
X0050461Y0191267D01*
X0049360Y0191172D01*
X0048258Y0191104D01*
X0047154Y0191064D01*
X0046050Y0191050D01*
X0044946Y0191064D01*
X0043842Y0191104D01*
X0042740Y0191172D01*
X0041639Y0191267D01*
X0040542Y0191388D01*
X0039447Y0191537D01*
X0038357Y0191713D01*
X0037271Y0191915D01*
X0036190Y0192143D01*
X0035116Y0192399D01*
X0034048Y0192680D01*
X0032987Y0192988D01*
X0031934Y0193321D01*
X0030890Y0193681D01*
X0029855Y0194065D01*
X0028829Y0194475D01*
X0027814Y0194911D01*
X0026810Y0195370D01*
X0025817Y0195855D01*
X0024837Y0196364D01*
X0023870Y0196896D01*
X0022915Y0197452D01*
X0021975Y0198032D01*
X0021049Y0198634D01*
X0020139Y0199259D01*
X0019244Y0199906D01*
X0018365Y0200574D01*
X0017502Y0201265D01*
X0016657Y0201976D01*
X0015830Y0202707D01*
X0015021Y0203459D01*
X0014230Y0204230D01*
X0013459Y0205021D01*
X0012707Y0205830D01*
X0011976Y0206657D01*
X0011265Y0207502D01*
X0010574Y0208365D01*
X0009906Y0209244D01*
X0009259Y0210139D01*
X0008634Y0211049D01*
X0008032Y0211975D01*
X0007452Y0212915D01*
X0006896Y0213870D01*
X0006364Y0214837D01*
X0005855Y0215817D01*
X0005370Y0216810D01*
X0004911Y0217814D01*
X0004475Y0218829D01*
X0004065Y0219855D01*
X0003681Y0220890D01*
X0003321Y0221934D01*
X0002988Y0222987D01*
X0002680Y0224048D01*
X0002399Y0225116D01*
X0002143Y0226190D01*
X0001915Y0227271D01*
X0001713Y0228357D01*
X0001537Y0229447D01*
X0001388Y0230542D01*
X0001267Y0231639D01*
X0001172Y0232740D01*
X0001104Y0233842D01*
X0001064Y0234946D01*
X0001050Y0236050D01*
X0001050Y0331050D02*
X0001064Y0332154D01*
X0001104Y0333258D01*
X0001172Y0334360D01*
X0001267Y0335461D01*
X0001388Y0336558D01*
X0001537Y0337653D01*
X0001713Y0338743D01*
X0001915Y0339829D01*
X0002143Y0340910D01*
X0002399Y0341984D01*
X0002680Y0343052D01*
X0002988Y0344113D01*
X0003321Y0345166D01*
X0003681Y0346210D01*
X0004065Y0347245D01*
X0004475Y0348271D01*
X0004911Y0349286D01*
X0005370Y0350290D01*
X0005855Y0351283D01*
X0006364Y0352263D01*
X0006896Y0353230D01*
X0007452Y0354185D01*
X0008032Y0355125D01*
X0008634Y0356051D01*
X0009259Y0356961D01*
X0009906Y0357856D01*
X0010574Y0358735D01*
X0011265Y0359598D01*
X0011976Y0360443D01*
X0012707Y0361270D01*
X0013459Y0362079D01*
X0014230Y0362870D01*
X0015021Y0363641D01*
X0015830Y0364393D01*
X0016657Y0365124D01*
X0017502Y0365835D01*
X0018365Y0366526D01*
X0019244Y0367194D01*
X0020139Y0367841D01*
X0021049Y0368466D01*
X0021975Y0369068D01*
X0022915Y0369648D01*
X0023870Y0370204D01*
X0024837Y0370736D01*
X0025817Y0371245D01*
X0026810Y0371730D01*
X0027814Y0372189D01*
X0028829Y0372625D01*
X0029855Y0373035D01*
X0030890Y0373419D01*
X0031934Y0373779D01*
X0032987Y0374112D01*
X0034048Y0374420D01*
X0035116Y0374701D01*
X0036190Y0374957D01*
X0037271Y0375185D01*
X0038357Y0375387D01*
X0039447Y0375563D01*
X0040542Y0375712D01*
X0041639Y0375833D01*
X0042740Y0375928D01*
X0043842Y0375996D01*
X0044946Y0376036D01*
X0046050Y0376050D01*
X0047154Y0376036D01*
X0048258Y0375996D01*
X0049360Y0375928D01*
X0050461Y0375833D01*
X0051558Y0375712D01*
X0052653Y0375563D01*
X0053743Y0375387D01*
X0054829Y0375185D01*
X0055910Y0374957D01*
X0056984Y0374701D01*
X0058052Y0374420D01*
X0059113Y0374112D01*
X0060166Y0373779D01*
X0061210Y0373419D01*
X0062245Y0373035D01*
X0063271Y0372625D01*
X0064286Y0372189D01*
X0065290Y0371730D01*
X0066283Y0371245D01*
X0067263Y0370736D01*
X0068230Y0370204D01*
X0069185Y0369648D01*
X0070125Y0369068D01*
X0071051Y0368466D01*
X0071961Y0367841D01*
X0072856Y0367194D01*
X0073735Y0366526D01*
X0074598Y0365835D01*
X0075443Y0365124D01*
X0076270Y0364393D01*
X0077079Y0363641D01*
X0077870Y0362870D01*
X0078641Y0362079D01*
X0079393Y0361270D01*
X0080124Y0360443D01*
X0080835Y0359598D01*
X0081526Y0358735D01*
X0082194Y0357856D01*
X0082841Y0356961D01*
X0083466Y0356051D01*
X0084068Y0355125D01*
X0084648Y0354185D01*
X0085204Y0353230D01*
X0085736Y0352263D01*
X0086245Y0351283D01*
X0086730Y0350290D01*
X0087189Y0349286D01*
X0087625Y0348271D01*
X0088035Y0347245D01*
X0088419Y0346210D01*
X0088779Y0345166D01*
X0089112Y0344113D01*
X0089420Y0343052D01*
X0089701Y0341984D01*
X0089957Y0340910D01*
X0090185Y0339829D01*
X0090387Y0338743D01*
X0090563Y0337653D01*
X0090712Y0336558D01*
X0090833Y0335461D01*
X0090928Y0334360D01*
X0090996Y0333258D01*
X0091036Y0332154D01*
X0091050Y0331050D01*
X0091036Y0329946D01*
X0090996Y0328842D01*
X0090928Y0327740D01*
X0090833Y0326639D01*
X0090712Y0325542D01*
X0090563Y0324447D01*
X0090387Y0323357D01*
X0090185Y0322271D01*
X0089957Y0321190D01*
X0089701Y0320116D01*
X0089420Y0319048D01*
X0089112Y0317987D01*
X0088779Y0316934D01*
X0088419Y0315890D01*
X0088035Y0314855D01*
X0087625Y0313829D01*
X0087189Y0312814D01*
X0086730Y0311810D01*
X0086245Y0310817D01*
X0085736Y0309837D01*
X0085204Y0308870D01*
X0084648Y0307915D01*
X0084068Y0306975D01*
X0083466Y0306049D01*
X0082841Y0305139D01*
X0082194Y0304244D01*
X0081526Y0303365D01*
X0080835Y0302502D01*
X0080124Y0301657D01*
X0079393Y0300830D01*
X0078641Y0300021D01*
X0077870Y0299230D01*
X0077079Y0298459D01*
X0076270Y0297707D01*
X0075443Y0296976D01*
X0074598Y0296265D01*
X0073735Y0295574D01*
X0072856Y0294906D01*
X0071961Y0294259D01*
X0071051Y0293634D01*
X0070125Y0293032D01*
X0069185Y0292452D01*
X0068230Y0291896D01*
X0067263Y0291364D01*
X0066283Y0290855D01*
X0065290Y0290370D01*
X0064286Y0289911D01*
X0063271Y0289475D01*
X0062245Y0289065D01*
X0061210Y0288681D01*
X0060166Y0288321D01*
X0059113Y0287988D01*
X0058052Y0287680D01*
X0056984Y0287399D01*
X0055910Y0287143D01*
X0054829Y0286915D01*
X0053743Y0286713D01*
X0052653Y0286537D01*
X0051558Y0286388D01*
X0050461Y0286267D01*
X0049360Y0286172D01*
X0048258Y0286104D01*
X0047154Y0286064D01*
X0046050Y0286050D01*
X0044946Y0286064D01*
X0043842Y0286104D01*
X0042740Y0286172D01*
X0041639Y0286267D01*
X0040542Y0286388D01*
X0039447Y0286537D01*
X0038357Y0286713D01*
X0037271Y0286915D01*
X0036190Y0287143D01*
X0035116Y0287399D01*
X0034048Y0287680D01*
X0032987Y0287988D01*
X0031934Y0288321D01*
X0030890Y0288681D01*
X0029855Y0289065D01*
X0028829Y0289475D01*
X0027814Y0289911D01*
X0026810Y0290370D01*
X0025817Y0290855D01*
X0024837Y0291364D01*
X0023870Y0291896D01*
X0022915Y0292452D01*
X0021975Y0293032D01*
X0021049Y0293634D01*
X0020139Y0294259D01*
X0019244Y0294906D01*
X0018365Y0295574D01*
X0017502Y0296265D01*
X0016657Y0296976D01*
X0015830Y0297707D01*
X0015021Y0298459D01*
X0014230Y0299230D01*
X0013459Y0300021D01*
X0012707Y0300830D01*
X0011976Y0301657D01*
X0011265Y0302502D01*
X0010574Y0303365D01*
X0009906Y0304244D01*
X0009259Y0305139D01*
X0008634Y0306049D01*
X0008032Y0306975D01*
X0007452Y0307915D01*
X0006896Y0308870D01*
X0006364Y0309837D01*
X0005855Y0310817D01*
X0005370Y0311810D01*
X0004911Y0312814D01*
X0004475Y0313829D01*
X0004065Y0314855D01*
X0003681Y0315890D01*
X0003321Y0316934D01*
X0002988Y0317987D01*
X0002680Y0319048D01*
X0002399Y0320116D01*
X0002143Y0321190D01*
X0001915Y0322271D01*
X0001713Y0323357D01*
X0001537Y0324447D01*
X0001388Y0325542D01*
X0001267Y0326639D01*
X0001172Y0327740D01*
X0001104Y0328842D01*
X0001064Y0329946D01*
X0001050Y0331050D01*
X0096050Y0331050D02*
X0096064Y0332154D01*
X0096104Y0333258D01*
X0096172Y0334360D01*
X0096267Y0335461D01*
X0096388Y0336558D01*
X0096537Y0337653D01*
X0096713Y0338743D01*
X0096915Y0339829D01*
X0097143Y0340910D01*
X0097399Y0341984D01*
X0097680Y0343052D01*
X0097988Y0344113D01*
X0098321Y0345166D01*
X0098681Y0346210D01*
X0099065Y0347245D01*
X0099475Y0348271D01*
X0099911Y0349286D01*
X0100370Y0350290D01*
X0100855Y0351283D01*
X0101364Y0352263D01*
X0101896Y0353230D01*
X0102452Y0354185D01*
X0103032Y0355125D01*
X0103634Y0356051D01*
X0104259Y0356961D01*
X0104906Y0357856D01*
X0105574Y0358735D01*
X0106265Y0359598D01*
X0106976Y0360443D01*
X0107707Y0361270D01*
X0108459Y0362079D01*
X0109230Y0362870D01*
X0110021Y0363641D01*
X0110830Y0364393D01*
X0111657Y0365124D01*
X0112502Y0365835D01*
X0113365Y0366526D01*
X0114244Y0367194D01*
X0115139Y0367841D01*
X0116049Y0368466D01*
X0116975Y0369068D01*
X0117915Y0369648D01*
X0118870Y0370204D01*
X0119837Y0370736D01*
X0120817Y0371245D01*
X0121810Y0371730D01*
X0122814Y0372189D01*
X0123829Y0372625D01*
X0124855Y0373035D01*
X0125890Y0373419D01*
X0126934Y0373779D01*
X0127987Y0374112D01*
X0129048Y0374420D01*
X0130116Y0374701D01*
X0131190Y0374957D01*
X0132271Y0375185D01*
X0133357Y0375387D01*
X0134447Y0375563D01*
X0135542Y0375712D01*
X0136639Y0375833D01*
X0137740Y0375928D01*
X0138842Y0375996D01*
X0139946Y0376036D01*
X0141050Y0376050D01*
X0142154Y0376036D01*
X0143258Y0375996D01*
X0144360Y0375928D01*
X0145461Y0375833D01*
X0146558Y0375712D01*
X0147653Y0375563D01*
X0148743Y0375387D01*
X0149829Y0375185D01*
X0150910Y0374957D01*
X0151984Y0374701D01*
X0153052Y0374420D01*
X0154113Y0374112D01*
X0155166Y0373779D01*
X0156210Y0373419D01*
X0157245Y0373035D01*
X0158271Y0372625D01*
X0159286Y0372189D01*
X0160290Y0371730D01*
X0161283Y0371245D01*
X0162263Y0370736D01*
X0163230Y0370204D01*
X0164185Y0369648D01*
X0165125Y0369068D01*
X0166051Y0368466D01*
X0166961Y0367841D01*
X0167856Y0367194D01*
X0168735Y0366526D01*
X0169598Y0365835D01*
X0170443Y0365124D01*
X0171270Y0364393D01*
X0172079Y0363641D01*
X0172870Y0362870D01*
X0173641Y0362079D01*
X0174393Y0361270D01*
X0175124Y0360443D01*
X0175835Y0359598D01*
X0176526Y0358735D01*
X0177194Y0357856D01*
X0177841Y0356961D01*
X0178466Y0356051D01*
X0179068Y0355125D01*
X0179648Y0354185D01*
X0180204Y0353230D01*
X0180736Y0352263D01*
X0181245Y0351283D01*
X0181730Y0350290D01*
X0182189Y0349286D01*
X0182625Y0348271D01*
X0183035Y0347245D01*
X0183419Y0346210D01*
X0183779Y0345166D01*
X0184112Y0344113D01*
X0184420Y0343052D01*
X0184701Y0341984D01*
X0184957Y0340910D01*
X0185185Y0339829D01*
X0185387Y0338743D01*
X0185563Y0337653D01*
X0185712Y0336558D01*
X0185833Y0335461D01*
X0185928Y0334360D01*
X0185996Y0333258D01*
X0186036Y0332154D01*
X0186050Y0331050D01*
X0186036Y0329946D01*
X0185996Y0328842D01*
X0185928Y0327740D01*
X0185833Y0326639D01*
X0185712Y0325542D01*
X0185563Y0324447D01*
X0185387Y0323357D01*
X0185185Y0322271D01*
X0184957Y0321190D01*
X0184701Y0320116D01*
X0184420Y0319048D01*
X0184112Y0317987D01*
X0183779Y0316934D01*
X0183419Y0315890D01*
X0183035Y0314855D01*
X0182625Y0313829D01*
X0182189Y0312814D01*
X0181730Y0311810D01*
X0181245Y0310817D01*
X0180736Y0309837D01*
X0180204Y0308870D01*
X0179648Y0307915D01*
X0179068Y0306975D01*
X0178466Y0306049D01*
X0177841Y0305139D01*
X0177194Y0304244D01*
X0176526Y0303365D01*
X0175835Y0302502D01*
X0175124Y0301657D01*
X0174393Y0300830D01*
X0173641Y0300021D01*
X0172870Y0299230D01*
X0172079Y0298459D01*
X0171270Y0297707D01*
X0170443Y0296976D01*
X0169598Y0296265D01*
X0168735Y0295574D01*
X0167856Y0294906D01*
X0166961Y0294259D01*
X0166051Y0293634D01*
X0165125Y0293032D01*
X0164185Y0292452D01*
X0163230Y0291896D01*
X0162263Y0291364D01*
X0161283Y0290855D01*
X0160290Y0290370D01*
X0159286Y0289911D01*
X0158271Y0289475D01*
X0157245Y0289065D01*
X0156210Y0288681D01*
X0155166Y0288321D01*
X0154113Y0287988D01*
X0153052Y0287680D01*
X0151984Y0287399D01*
X0150910Y0287143D01*
X0149829Y0286915D01*
X0148743Y0286713D01*
X0147653Y0286537D01*
X0146558Y0286388D01*
X0145461Y0286267D01*
X0144360Y0286172D01*
X0143258Y0286104D01*
X0142154Y0286064D01*
X0141050Y0286050D01*
X0139946Y0286064D01*
X0138842Y0286104D01*
X0137740Y0286172D01*
X0136639Y0286267D01*
X0135542Y0286388D01*
X0134447Y0286537D01*
X0133357Y0286713D01*
X0132271Y0286915D01*
X0131190Y0287143D01*
X0130116Y0287399D01*
X0129048Y0287680D01*
X0127987Y0287988D01*
X0126934Y0288321D01*
X0125890Y0288681D01*
X0124855Y0289065D01*
X0123829Y0289475D01*
X0122814Y0289911D01*
X0121810Y0290370D01*
X0120817Y0290855D01*
X0119837Y0291364D01*
X0118870Y0291896D01*
X0117915Y0292452D01*
X0116975Y0293032D01*
X0116049Y0293634D01*
X0115139Y0294259D01*
X0114244Y0294906D01*
X0113365Y0295574D01*
X0112502Y0296265D01*
X0111657Y0296976D01*
X0110830Y0297707D01*
X0110021Y0298459D01*
X0109230Y0299230D01*
X0108459Y0300021D01*
X0107707Y0300830D01*
X0106976Y0301657D01*
X0106265Y0302502D01*
X0105574Y0303365D01*
X0104906Y0304244D01*
X0104259Y0305139D01*
X0103634Y0306049D01*
X0103032Y0306975D01*
X0102452Y0307915D01*
X0101896Y0308870D01*
X0101364Y0309837D01*
X0100855Y0310817D01*
X0100370Y0311810D01*
X0099911Y0312814D01*
X0099475Y0313829D01*
X0099065Y0314855D01*
X0098681Y0315890D01*
X0098321Y0316934D01*
X0097988Y0317987D01*
X0097680Y0319048D01*
X0097399Y0320116D01*
X0097143Y0321190D01*
X0096915Y0322271D01*
X0096713Y0323357D01*
X0096537Y0324447D01*
X0096388Y0325542D01*
X0096267Y0326639D01*
X0096172Y0327740D01*
X0096104Y0328842D01*
X0096064Y0329946D01*
X0096050Y0331050D01*
X0096050Y0236050D02*
X0096064Y0237154D01*
X0096104Y0238258D01*
X0096172Y0239360D01*
X0096267Y0240461D01*
X0096388Y0241558D01*
X0096537Y0242653D01*
X0096713Y0243743D01*
X0096915Y0244829D01*
X0097143Y0245910D01*
X0097399Y0246984D01*
X0097680Y0248052D01*
X0097988Y0249113D01*
X0098321Y0250166D01*
X0098681Y0251210D01*
X0099065Y0252245D01*
X0099475Y0253271D01*
X0099911Y0254286D01*
X0100370Y0255290D01*
X0100855Y0256283D01*
X0101364Y0257263D01*
X0101896Y0258230D01*
X0102452Y0259185D01*
X0103032Y0260125D01*
X0103634Y0261051D01*
X0104259Y0261961D01*
X0104906Y0262856D01*
X0105574Y0263735D01*
X0106265Y0264598D01*
X0106976Y0265443D01*
X0107707Y0266270D01*
X0108459Y0267079D01*
X0109230Y0267870D01*
X0110021Y0268641D01*
X0110830Y0269393D01*
X0111657Y0270124D01*
X0112502Y0270835D01*
X0113365Y0271526D01*
X0114244Y0272194D01*
X0115139Y0272841D01*
X0116049Y0273466D01*
X0116975Y0274068D01*
X0117915Y0274648D01*
X0118870Y0275204D01*
X0119837Y0275736D01*
X0120817Y0276245D01*
X0121810Y0276730D01*
X0122814Y0277189D01*
X0123829Y0277625D01*
X0124855Y0278035D01*
X0125890Y0278419D01*
X0126934Y0278779D01*
X0127987Y0279112D01*
X0129048Y0279420D01*
X0130116Y0279701D01*
X0131190Y0279957D01*
X0132271Y0280185D01*
X0133357Y0280387D01*
X0134447Y0280563D01*
X0135542Y0280712D01*
X0136639Y0280833D01*
X0137740Y0280928D01*
X0138842Y0280996D01*
X0139946Y0281036D01*
X0141050Y0281050D01*
X0142154Y0281036D01*
X0143258Y0280996D01*
X0144360Y0280928D01*
X0145461Y0280833D01*
X0146558Y0280712D01*
X0147653Y0280563D01*
X0148743Y0280387D01*
X0149829Y0280185D01*
X0150910Y0279957D01*
X0151984Y0279701D01*
X0153052Y0279420D01*
X0154113Y0279112D01*
X0155166Y0278779D01*
X0156210Y0278419D01*
X0157245Y0278035D01*
X0158271Y0277625D01*
X0159286Y0277189D01*
X0160290Y0276730D01*
X0161283Y0276245D01*
X0162263Y0275736D01*
X0163230Y0275204D01*
X0164185Y0274648D01*
X0165125Y0274068D01*
X0166051Y0273466D01*
X0166961Y0272841D01*
X0167856Y0272194D01*
X0168735Y0271526D01*
X0169598Y0270835D01*
X0170443Y0270124D01*
X0171270Y0269393D01*
X0172079Y0268641D01*
X0172870Y0267870D01*
X0173641Y0267079D01*
X0174393Y0266270D01*
X0175124Y0265443D01*
X0175835Y0264598D01*
X0176526Y0263735D01*
X0177194Y0262856D01*
X0177841Y0261961D01*
X0178466Y0261051D01*
X0179068Y0260125D01*
X0179648Y0259185D01*
X0180204Y0258230D01*
X0180736Y0257263D01*
X0181245Y0256283D01*
X0181730Y0255290D01*
X0182189Y0254286D01*
X0182625Y0253271D01*
X0183035Y0252245D01*
X0183419Y0251210D01*
X0183779Y0250166D01*
X0184112Y0249113D01*
X0184420Y0248052D01*
X0184701Y0246984D01*
X0184957Y0245910D01*
X0185185Y0244829D01*
X0185387Y0243743D01*
X0185563Y0242653D01*
X0185712Y0241558D01*
X0185833Y0240461D01*
X0185928Y0239360D01*
X0185996Y0238258D01*
X0186036Y0237154D01*
X0186050Y0236050D01*
X0186036Y0234946D01*
X0185996Y0233842D01*
X0185928Y0232740D01*
X0185833Y0231639D01*
X0185712Y0230542D01*
X0185563Y0229447D01*
X0185387Y0228357D01*
X0185185Y0227271D01*
X0184957Y0226190D01*
X0184701Y0225116D01*
X0184420Y0224048D01*
X0184112Y0222987D01*
X0183779Y0221934D01*
X0183419Y0220890D01*
X0183035Y0219855D01*
X0182625Y0218829D01*
X0182189Y0217814D01*
X0181730Y0216810D01*
X0181245Y0215817D01*
X0180736Y0214837D01*
X0180204Y0213870D01*
X0179648Y0212915D01*
X0179068Y0211975D01*
X0178466Y0211049D01*
X0177841Y0210139D01*
X0177194Y0209244D01*
X0176526Y0208365D01*
X0175835Y0207502D01*
X0175124Y0206657D01*
X0174393Y0205830D01*
X0173641Y0205021D01*
X0172870Y0204230D01*
X0172079Y0203459D01*
X0171270Y0202707D01*
X0170443Y0201976D01*
X0169598Y0201265D01*
X0168735Y0200574D01*
X0167856Y0199906D01*
X0166961Y0199259D01*
X0166051Y0198634D01*
X0165125Y0198032D01*
X0164185Y0197452D01*
X0163230Y0196896D01*
X0162263Y0196364D01*
X0161283Y0195855D01*
X0160290Y0195370D01*
X0159286Y0194911D01*
X0158271Y0194475D01*
X0157245Y0194065D01*
X0156210Y0193681D01*
X0155166Y0193321D01*
X0154113Y0192988D01*
X0153052Y0192680D01*
X0151984Y0192399D01*
X0150910Y0192143D01*
X0149829Y0191915D01*
X0148743Y0191713D01*
X0147653Y0191537D01*
X0146558Y0191388D01*
X0145461Y0191267D01*
X0144360Y0191172D01*
X0143258Y0191104D01*
X0142154Y0191064D01*
X0141050Y0191050D01*
X0139946Y0191064D01*
X0138842Y0191104D01*
X0137740Y0191172D01*
X0136639Y0191267D01*
X0135542Y0191388D01*
X0134447Y0191537D01*
X0133357Y0191713D01*
X0132271Y0191915D01*
X0131190Y0192143D01*
X0130116Y0192399D01*
X0129048Y0192680D01*
X0127987Y0192988D01*
X0126934Y0193321D01*
X0125890Y0193681D01*
X0124855Y0194065D01*
X0123829Y0194475D01*
X0122814Y0194911D01*
X0121810Y0195370D01*
X0120817Y0195855D01*
X0119837Y0196364D01*
X0118870Y0196896D01*
X0117915Y0197452D01*
X0116975Y0198032D01*
X0116049Y0198634D01*
X0115139Y0199259D01*
X0114244Y0199906D01*
X0113365Y0200574D01*
X0112502Y0201265D01*
X0111657Y0201976D01*
X0110830Y0202707D01*
X0110021Y0203459D01*
X0109230Y0204230D01*
X0108459Y0205021D01*
X0107707Y0205830D01*
X0106976Y0206657D01*
X0106265Y0207502D01*
X0105574Y0208365D01*
X0104906Y0209244D01*
X0104259Y0210139D01*
X0103634Y0211049D01*
X0103032Y0211975D01*
X0102452Y0212915D01*
X0101896Y0213870D01*
X0101364Y0214837D01*
X0100855Y0215817D01*
X0100370Y0216810D01*
X0099911Y0217814D01*
X0099475Y0218829D01*
X0099065Y0219855D01*
X0098681Y0220890D01*
X0098321Y0221934D01*
X0097988Y0222987D01*
X0097680Y0224048D01*
X0097399Y0225116D01*
X0097143Y0226190D01*
X0096915Y0227271D01*
X0096713Y0228357D01*
X0096537Y0229447D01*
X0096388Y0230542D01*
X0096267Y0231639D01*
X0096172Y0232740D01*
X0096104Y0233842D01*
X0096064Y0234946D01*
X0096050Y0236050D01*
X0096050Y0141050D02*
X0096064Y0142154D01*
X0096104Y0143258D01*
X0096172Y0144360D01*
X0096267Y0145461D01*
X0096388Y0146558D01*
X0096537Y0147653D01*
X0096713Y0148743D01*
X0096915Y0149829D01*
X0097143Y0150910D01*
X0097399Y0151984D01*
X0097680Y0153052D01*
X0097988Y0154113D01*
X0098321Y0155166D01*
X0098681Y0156210D01*
X0099065Y0157245D01*
X0099475Y0158271D01*
X0099911Y0159286D01*
X0100370Y0160290D01*
X0100855Y0161283D01*
X0101364Y0162263D01*
X0101896Y0163230D01*
X0102452Y0164185D01*
X0103032Y0165125D01*
X0103634Y0166051D01*
X0104259Y0166961D01*
X0104906Y0167856D01*
X0105574Y0168735D01*
X0106265Y0169598D01*
X0106976Y0170443D01*
X0107707Y0171270D01*
X0108459Y0172079D01*
X0109230Y0172870D01*
X0110021Y0173641D01*
X0110830Y0174393D01*
X0111657Y0175124D01*
X0112502Y0175835D01*
X0113365Y0176526D01*
X0114244Y0177194D01*
X0115139Y0177841D01*
X0116049Y0178466D01*
X0116975Y0179068D01*
X0117915Y0179648D01*
X0118870Y0180204D01*
X0119837Y0180736D01*
X0120817Y0181245D01*
X0121810Y0181730D01*
X0122814Y0182189D01*
X0123829Y0182625D01*
X0124855Y0183035D01*
X0125890Y0183419D01*
X0126934Y0183779D01*
X0127987Y0184112D01*
X0129048Y0184420D01*
X0130116Y0184701D01*
X0131190Y0184957D01*
X0132271Y0185185D01*
X0133357Y0185387D01*
X0134447Y0185563D01*
X0135542Y0185712D01*
X0136639Y0185833D01*
X0137740Y0185928D01*
X0138842Y0185996D01*
X0139946Y0186036D01*
X0141050Y0186050D01*
X0142154Y0186036D01*
X0143258Y0185996D01*
X0144360Y0185928D01*
X0145461Y0185833D01*
X0146558Y0185712D01*
X0147653Y0185563D01*
X0148743Y0185387D01*
X0149829Y0185185D01*
X0150910Y0184957D01*
X0151984Y0184701D01*
X0153052Y0184420D01*
X0154113Y0184112D01*
X0155166Y0183779D01*
X0156210Y0183419D01*
X0157245Y0183035D01*
X0158271Y0182625D01*
X0159286Y0182189D01*
X0160290Y0181730D01*
X0161283Y0181245D01*
X0162263Y0180736D01*
X0163230Y0180204D01*
X0164185Y0179648D01*
X0165125Y0179068D01*
X0166051Y0178466D01*
X0166961Y0177841D01*
X0167856Y0177194D01*
X0168735Y0176526D01*
X0169598Y0175835D01*
X0170443Y0175124D01*
X0171270Y0174393D01*
X0172079Y0173641D01*
X0172870Y0172870D01*
X0173641Y0172079D01*
X0174393Y0171270D01*
X0175124Y0170443D01*
X0175835Y0169598D01*
X0176526Y0168735D01*
X0177194Y0167856D01*
X0177841Y0166961D01*
X0178466Y0166051D01*
X0179068Y0165125D01*
X0179648Y0164185D01*
X0180204Y0163230D01*
X0180736Y0162263D01*
X0181245Y0161283D01*
X0181730Y0160290D01*
X0182189Y0159286D01*
X0182625Y0158271D01*
X0183035Y0157245D01*
X0183419Y0156210D01*
X0183779Y0155166D01*
X0184112Y0154113D01*
X0184420Y0153052D01*
X0184701Y0151984D01*
X0184957Y0150910D01*
X0185185Y0149829D01*
X0185387Y0148743D01*
X0185563Y0147653D01*
X0185712Y0146558D01*
X0185833Y0145461D01*
X0185928Y0144360D01*
X0185996Y0143258D01*
X0186036Y0142154D01*
X0186050Y0141050D01*
X0186036Y0139946D01*
X0185996Y0138842D01*
X0185928Y0137740D01*
X0185833Y0136639D01*
X0185712Y0135542D01*
X0185563Y0134447D01*
X0185387Y0133357D01*
X0185185Y0132271D01*
X0184957Y0131190D01*
X0184701Y0130116D01*
X0184420Y0129048D01*
X0184112Y0127987D01*
X0183779Y0126934D01*
X0183419Y0125890D01*
X0183035Y0124855D01*
X0182625Y0123829D01*
X0182189Y0122814D01*
X0181730Y0121810D01*
X0181245Y0120817D01*
X0180736Y0119837D01*
X0180204Y0118870D01*
X0179648Y0117915D01*
X0179068Y0116975D01*
X0178466Y0116049D01*
X0177841Y0115139D01*
X0177194Y0114244D01*
X0176526Y0113365D01*
X0175835Y0112502D01*
X0175124Y0111657D01*
X0174393Y0110830D01*
X0173641Y0110021D01*
X0172870Y0109230D01*
X0172079Y0108459D01*
X0171270Y0107707D01*
X0170443Y0106976D01*
X0169598Y0106265D01*
X0168735Y0105574D01*
X0167856Y0104906D01*
X0166961Y0104259D01*
X0166051Y0103634D01*
X0165125Y0103032D01*
X0164185Y0102452D01*
X0163230Y0101896D01*
X0162263Y0101364D01*
X0161283Y0100855D01*
X0160290Y0100370D01*
X0159286Y0099911D01*
X0158271Y0099475D01*
X0157245Y0099065D01*
X0156210Y0098681D01*
X0155166Y0098321D01*
X0154113Y0097988D01*
X0153052Y0097680D01*
X0151984Y0097399D01*
X0150910Y0097143D01*
X0149829Y0096915D01*
X0148743Y0096713D01*
X0147653Y0096537D01*
X0146558Y0096388D01*
X0145461Y0096267D01*
X0144360Y0096172D01*
X0143258Y0096104D01*
X0142154Y0096064D01*
X0141050Y0096050D01*
X0139946Y0096064D01*
X0138842Y0096104D01*
X0137740Y0096172D01*
X0136639Y0096267D01*
X0135542Y0096388D01*
X0134447Y0096537D01*
X0133357Y0096713D01*
X0132271Y0096915D01*
X0131190Y0097143D01*
X0130116Y0097399D01*
X0129048Y0097680D01*
X0127987Y0097988D01*
X0126934Y0098321D01*
X0125890Y0098681D01*
X0124855Y0099065D01*
X0123829Y0099475D01*
X0122814Y0099911D01*
X0121810Y0100370D01*
X0120817Y0100855D01*
X0119837Y0101364D01*
X0118870Y0101896D01*
X0117915Y0102452D01*
X0116975Y0103032D01*
X0116049Y0103634D01*
X0115139Y0104259D01*
X0114244Y0104906D01*
X0113365Y0105574D01*
X0112502Y0106265D01*
X0111657Y0106976D01*
X0110830Y0107707D01*
X0110021Y0108459D01*
X0109230Y0109230D01*
X0108459Y0110021D01*
X0107707Y0110830D01*
X0106976Y0111657D01*
X0106265Y0112502D01*
X0105574Y0113365D01*
X0104906Y0114244D01*
X0104259Y0115139D01*
X0103634Y0116049D01*
X0103032Y0116975D01*
X0102452Y0117915D01*
X0101896Y0118870D01*
X0101364Y0119837D01*
X0100855Y0120817D01*
X0100370Y0121810D01*
X0099911Y0122814D01*
X0099475Y0123829D01*
X0099065Y0124855D01*
X0098681Y0125890D01*
X0098321Y0126934D01*
X0097988Y0127987D01*
X0097680Y0129048D01*
X0097399Y0130116D01*
X0097143Y0131190D01*
X0096915Y0132271D01*
X0096713Y0133357D01*
X0096537Y0134447D01*
X0096388Y0135542D01*
X0096267Y0136639D01*
X0096172Y0137740D01*
X0096104Y0138842D01*
X0096064Y0139946D01*
X0096050Y0141050D01*
X0096050Y0046050D02*
X0096064Y0047154D01*
X0096104Y0048258D01*
X0096172Y0049360D01*
X0096267Y0050461D01*
X0096388Y0051558D01*
X0096537Y0052653D01*
X0096713Y0053743D01*
X0096915Y0054829D01*
X0097143Y0055910D01*
X0097399Y0056984D01*
X0097680Y0058052D01*
X0097988Y0059113D01*
X0098321Y0060166D01*
X0098681Y0061210D01*
X0099065Y0062245D01*
X0099475Y0063271D01*
X0099911Y0064286D01*
X0100370Y0065290D01*
X0100855Y0066283D01*
X0101364Y0067263D01*
X0101896Y0068230D01*
X0102452Y0069185D01*
X0103032Y0070125D01*
X0103634Y0071051D01*
X0104259Y0071961D01*
X0104906Y0072856D01*
X0105574Y0073735D01*
X0106265Y0074598D01*
X0106976Y0075443D01*
X0107707Y0076270D01*
X0108459Y0077079D01*
X0109230Y0077870D01*
X0110021Y0078641D01*
X0110830Y0079393D01*
X0111657Y0080124D01*
X0112502Y0080835D01*
X0113365Y0081526D01*
X0114244Y0082194D01*
X0115139Y0082841D01*
X0116049Y0083466D01*
X0116975Y0084068D01*
X0117915Y0084648D01*
X0118870Y0085204D01*
X0119837Y0085736D01*
X0120817Y0086245D01*
X0121810Y0086730D01*
X0122814Y0087189D01*
X0123829Y0087625D01*
X0124855Y0088035D01*
X0125890Y0088419D01*
X0126934Y0088779D01*
X0127987Y0089112D01*
X0129048Y0089420D01*
X0130116Y0089701D01*
X0131190Y0089957D01*
X0132271Y0090185D01*
X0133357Y0090387D01*
X0134447Y0090563D01*
X0135542Y0090712D01*
X0136639Y0090833D01*
X0137740Y0090928D01*
X0138842Y0090996D01*
X0139946Y0091036D01*
X0141050Y0091050D01*
X0142154Y0091036D01*
X0143258Y0090996D01*
X0144360Y0090928D01*
X0145461Y0090833D01*
X0146558Y0090712D01*
X0147653Y0090563D01*
X0148743Y0090387D01*
X0149829Y0090185D01*
X0150910Y0089957D01*
X0151984Y0089701D01*
X0153052Y0089420D01*
X0154113Y0089112D01*
X0155166Y0088779D01*
X0156210Y0088419D01*
X0157245Y0088035D01*
X0158271Y0087625D01*
X0159286Y0087189D01*
X0160290Y0086730D01*
X0161283Y0086245D01*
X0162263Y0085736D01*
X0163230Y0085204D01*
X0164185Y0084648D01*
X0165125Y0084068D01*
X0166051Y0083466D01*
X0166961Y0082841D01*
X0167856Y0082194D01*
X0168735Y0081526D01*
X0169598Y0080835D01*
X0170443Y0080124D01*
X0171270Y0079393D01*
X0172079Y0078641D01*
X0172870Y0077870D01*
X0173641Y0077079D01*
X0174393Y0076270D01*
X0175124Y0075443D01*
X0175835Y0074598D01*
X0176526Y0073735D01*
X0177194Y0072856D01*
X0177841Y0071961D01*
X0178466Y0071051D01*
X0179068Y0070125D01*
X0179648Y0069185D01*
X0180204Y0068230D01*
X0180736Y0067263D01*
X0181245Y0066283D01*
X0181730Y0065290D01*
X0182189Y0064286D01*
X0182625Y0063271D01*
X0183035Y0062245D01*
X0183419Y0061210D01*
X0183779Y0060166D01*
X0184112Y0059113D01*
X0184420Y0058052D01*
X0184701Y0056984D01*
X0184957Y0055910D01*
X0185185Y0054829D01*
X0185387Y0053743D01*
X0185563Y0052653D01*
X0185712Y0051558D01*
X0185833Y0050461D01*
X0185928Y0049360D01*
X0185996Y0048258D01*
X0186036Y0047154D01*
X0186050Y0046050D01*
X0186036Y0044946D01*
X0185996Y0043842D01*
X0185928Y0042740D01*
X0185833Y0041639D01*
X0185712Y0040542D01*
X0185563Y0039447D01*
X0185387Y0038357D01*
X0185185Y0037271D01*
X0184957Y0036190D01*
X0184701Y0035116D01*
X0184420Y0034048D01*
X0184112Y0032987D01*
X0183779Y0031934D01*
X0183419Y0030890D01*
X0183035Y0029855D01*
X0182625Y0028829D01*
X0182189Y0027814D01*
X0181730Y0026810D01*
X0181245Y0025817D01*
X0180736Y0024837D01*
X0180204Y0023870D01*
X0179648Y0022915D01*
X0179068Y0021975D01*
X0178466Y0021049D01*
X0177841Y0020139D01*
X0177194Y0019244D01*
X0176526Y0018365D01*
X0175835Y0017502D01*
X0175124Y0016657D01*
X0174393Y0015830D01*
X0173641Y0015021D01*
X0172870Y0014230D01*
X0172079Y0013459D01*
X0171270Y0012707D01*
X0170443Y0011976D01*
X0169598Y0011265D01*
X0168735Y0010574D01*
X0167856Y0009906D01*
X0166961Y0009259D01*
X0166051Y0008634D01*
X0165125Y0008032D01*
X0164185Y0007452D01*
X0163230Y0006896D01*
X0162263Y0006364D01*
X0161283Y0005855D01*
X0160290Y0005370D01*
X0159286Y0004911D01*
X0158271Y0004475D01*
X0157245Y0004065D01*
X0156210Y0003681D01*
X0155166Y0003321D01*
X0154113Y0002988D01*
X0153052Y0002680D01*
X0151984Y0002399D01*
X0150910Y0002143D01*
X0149829Y0001915D01*
X0148743Y0001713D01*
X0147653Y0001537D01*
X0146558Y0001388D01*
X0145461Y0001267D01*
X0144360Y0001172D01*
X0143258Y0001104D01*
X0142154Y0001064D01*
X0141050Y0001050D01*
X0139946Y0001064D01*
X0138842Y0001104D01*
X0137740Y0001172D01*
X0136639Y0001267D01*
X0135542Y0001388D01*
X0134447Y0001537D01*
X0133357Y0001713D01*
X0132271Y0001915D01*
X0131190Y0002143D01*
X0130116Y0002399D01*
X0129048Y0002680D01*
X0127987Y0002988D01*
X0126934Y0003321D01*
X0125890Y0003681D01*
X0124855Y0004065D01*
X0123829Y0004475D01*
X0122814Y0004911D01*
X0121810Y0005370D01*
X0120817Y0005855D01*
X0119837Y0006364D01*
X0118870Y0006896D01*
X0117915Y0007452D01*
X0116975Y0008032D01*
X0116049Y0008634D01*
X0115139Y0009259D01*
X0114244Y0009906D01*
X0113365Y0010574D01*
X0112502Y0011265D01*
X0111657Y0011976D01*
X0110830Y0012707D01*
X0110021Y0013459D01*
X0109230Y0014230D01*
X0108459Y0015021D01*
X0107707Y0015830D01*
X0106976Y0016657D01*
X0106265Y0017502D01*
X0105574Y0018365D01*
X0104906Y0019244D01*
X0104259Y0020139D01*
X0103634Y0021049D01*
X0103032Y0021975D01*
X0102452Y0022915D01*
X0101896Y0023870D01*
X0101364Y0024837D01*
X0100855Y0025817D01*
X0100370Y0026810D01*
X0099911Y0027814D01*
X0099475Y0028829D01*
X0099065Y0029855D01*
X0098681Y0030890D01*
X0098321Y0031934D01*
X0097988Y0032987D01*
X0097680Y0034048D01*
X0097399Y0035116D01*
X0097143Y0036190D01*
X0096915Y0037271D01*
X0096713Y0038357D01*
X0096537Y0039447D01*
X0096388Y0040542D01*
X0096267Y0041639D01*
X0096172Y0042740D01*
X0096104Y0043842D01*
X0096064Y0044946D01*
X0096050Y0046050D01*
X0191050Y0046050D02*
X0191064Y0047154D01*
X0191104Y0048258D01*
X0191172Y0049360D01*
X0191267Y0050461D01*
X0191388Y0051558D01*
X0191537Y0052653D01*
X0191713Y0053743D01*
X0191915Y0054829D01*
X0192143Y0055910D01*
X0192399Y0056984D01*
X0192680Y0058052D01*
X0192988Y0059113D01*
X0193321Y0060166D01*
X0193681Y0061210D01*
X0194065Y0062245D01*
X0194475Y0063271D01*
X0194911Y0064286D01*
X0195370Y0065290D01*
X0195855Y0066283D01*
X0196364Y0067263D01*
X0196896Y0068230D01*
X0197452Y0069185D01*
X0198032Y0070125D01*
X0198634Y0071051D01*
X0199259Y0071961D01*
X0199906Y0072856D01*
X0200574Y0073735D01*
X0201265Y0074598D01*
X0201976Y0075443D01*
X0202707Y0076270D01*
X0203459Y0077079D01*
X0204230Y0077870D01*
X0205021Y0078641D01*
X0205830Y0079393D01*
X0206657Y0080124D01*
X0207502Y0080835D01*
X0208365Y0081526D01*
X0209244Y0082194D01*
X0210139Y0082841D01*
X0211049Y0083466D01*
X0211975Y0084068D01*
X0212915Y0084648D01*
X0213870Y0085204D01*
X0214837Y0085736D01*
X0215817Y0086245D01*
X0216810Y0086730D01*
X0217814Y0087189D01*
X0218829Y0087625D01*
X0219855Y0088035D01*
X0220890Y0088419D01*
X0221934Y0088779D01*
X0222987Y0089112D01*
X0224048Y0089420D01*
X0225116Y0089701D01*
X0226190Y0089957D01*
X0227271Y0090185D01*
X0228357Y0090387D01*
X0229447Y0090563D01*
X0230542Y0090712D01*
X0231639Y0090833D01*
X0232740Y0090928D01*
X0233842Y0090996D01*
X0234946Y0091036D01*
X0236050Y0091050D01*
X0237154Y0091036D01*
X0238258Y0090996D01*
X0239360Y0090928D01*
X0240461Y0090833D01*
X0241558Y0090712D01*
X0242653Y0090563D01*
X0243743Y0090387D01*
X0244829Y0090185D01*
X0245910Y0089957D01*
X0246984Y0089701D01*
X0248052Y0089420D01*
X0249113Y0089112D01*
X0250166Y0088779D01*
X0251210Y0088419D01*
X0252245Y0088035D01*
X0253271Y0087625D01*
X0254286Y0087189D01*
X0255290Y0086730D01*
X0256283Y0086245D01*
X0257263Y0085736D01*
X0258230Y0085204D01*
X0259185Y0084648D01*
X0260125Y0084068D01*
X0261051Y0083466D01*
X0261961Y0082841D01*
X0262856Y0082194D01*
X0263735Y0081526D01*
X0264598Y0080835D01*
X0265443Y0080124D01*
X0266270Y0079393D01*
X0267079Y0078641D01*
X0267870Y0077870D01*
X0268641Y0077079D01*
X0269393Y0076270D01*
X0270124Y0075443D01*
X0270835Y0074598D01*
X0271526Y0073735D01*
X0272194Y0072856D01*
X0272841Y0071961D01*
X0273466Y0071051D01*
X0274068Y0070125D01*
X0274648Y0069185D01*
X0275204Y0068230D01*
X0275736Y0067263D01*
X0276245Y0066283D01*
X0276730Y0065290D01*
X0277189Y0064286D01*
X0277625Y0063271D01*
X0278035Y0062245D01*
X0278419Y0061210D01*
X0278779Y0060166D01*
X0279112Y0059113D01*
X0279420Y0058052D01*
X0279701Y0056984D01*
X0279957Y0055910D01*
X0280185Y0054829D01*
X0280387Y0053743D01*
X0280563Y0052653D01*
X0280712Y0051558D01*
X0280833Y0050461D01*
X0280928Y0049360D01*
X0280996Y0048258D01*
X0281036Y0047154D01*
X0281050Y0046050D01*
X0281036Y0044946D01*
X0280996Y0043842D01*
X0280928Y0042740D01*
X0280833Y0041639D01*
X0280712Y0040542D01*
X0280563Y0039447D01*
X0280387Y0038357D01*
X0280185Y0037271D01*
X0279957Y0036190D01*
X0279701Y0035116D01*
X0279420Y0034048D01*
X0279112Y0032987D01*
X0278779Y0031934D01*
X0278419Y0030890D01*
X0278035Y0029855D01*
X0277625Y0028829D01*
X0277189Y0027814D01*
X0276730Y0026810D01*
X0276245Y0025817D01*
X0275736Y0024837D01*
X0275204Y0023870D01*
X0274648Y0022915D01*
X0274068Y0021975D01*
X0273466Y0021049D01*
X0272841Y0020139D01*
X0272194Y0019244D01*
X0271526Y0018365D01*
X0270835Y0017502D01*
X0270124Y0016657D01*
X0269393Y0015830D01*
X0268641Y0015021D01*
X0267870Y0014230D01*
X0267079Y0013459D01*
X0266270Y0012707D01*
X0265443Y0011976D01*
X0264598Y0011265D01*
X0263735Y0010574D01*
X0262856Y0009906D01*
X0261961Y0009259D01*
X0261051Y0008634D01*
X0260125Y0008032D01*
X0259185Y0007452D01*
X0258230Y0006896D01*
X0257263Y0006364D01*
X0256283Y0005855D01*
X0255290Y0005370D01*
X0254286Y0004911D01*
X0253271Y0004475D01*
X0252245Y0004065D01*
X0251210Y0003681D01*
X0250166Y0003321D01*
X0249113Y0002988D01*
X0248052Y0002680D01*
X0246984Y0002399D01*
X0245910Y0002143D01*
X0244829Y0001915D01*
X0243743Y0001713D01*
X0242653Y0001537D01*
X0241558Y0001388D01*
X0240461Y0001267D01*
X0239360Y0001172D01*
X0238258Y0001104D01*
X0237154Y0001064D01*
X0236050Y0001050D01*
X0234946Y0001064D01*
X0233842Y0001104D01*
X0232740Y0001172D01*
X0231639Y0001267D01*
X0230542Y0001388D01*
X0229447Y0001537D01*
X0228357Y0001713D01*
X0227271Y0001915D01*
X0226190Y0002143D01*
X0225116Y0002399D01*
X0224048Y0002680D01*
X0222987Y0002988D01*
X0221934Y0003321D01*
X0220890Y0003681D01*
X0219855Y0004065D01*
X0218829Y0004475D01*
X0217814Y0004911D01*
X0216810Y0005370D01*
X0215817Y0005855D01*
X0214837Y0006364D01*
X0213870Y0006896D01*
X0212915Y0007452D01*
X0211975Y0008032D01*
X0211049Y0008634D01*
X0210139Y0009259D01*
X0209244Y0009906D01*
X0208365Y0010574D01*
X0207502Y0011265D01*
X0206657Y0011976D01*
X0205830Y0012707D01*
X0205021Y0013459D01*
X0204230Y0014230D01*
X0203459Y0015021D01*
X0202707Y0015830D01*
X0201976Y0016657D01*
X0201265Y0017502D01*
X0200574Y0018365D01*
X0199906Y0019244D01*
X0199259Y0020139D01*
X0198634Y0021049D01*
X0198032Y0021975D01*
X0197452Y0022915D01*
X0196896Y0023870D01*
X0196364Y0024837D01*
X0195855Y0025817D01*
X0195370Y0026810D01*
X0194911Y0027814D01*
X0194475Y0028829D01*
X0194065Y0029855D01*
X0193681Y0030890D01*
X0193321Y0031934D01*
X0192988Y0032987D01*
X0192680Y0034048D01*
X0192399Y0035116D01*
X0192143Y0036190D01*
X0191915Y0037271D01*
X0191713Y0038357D01*
X0191537Y0039447D01*
X0191388Y0040542D01*
X0191267Y0041639D01*
X0191172Y0042740D01*
X0191104Y0043842D01*
X0191064Y0044946D01*
X0191050Y0046050D01*
X0191050Y0141050D02*
X0191064Y0142154D01*
X0191104Y0143258D01*
X0191172Y0144360D01*
X0191267Y0145461D01*
X0191388Y0146558D01*
X0191537Y0147653D01*
X0191713Y0148743D01*
X0191915Y0149829D01*
X0192143Y0150910D01*
X0192399Y0151984D01*
X0192680Y0153052D01*
X0192988Y0154113D01*
X0193321Y0155166D01*
X0193681Y0156210D01*
X0194065Y0157245D01*
X0194475Y0158271D01*
X0194911Y0159286D01*
X0195370Y0160290D01*
X0195855Y0161283D01*
X0196364Y0162263D01*
X0196896Y0163230D01*
X0197452Y0164185D01*
X0198032Y0165125D01*
X0198634Y0166051D01*
X0199259Y0166961D01*
X0199906Y0167856D01*
X0200574Y0168735D01*
X0201265Y0169598D01*
X0201976Y0170443D01*
X0202707Y0171270D01*
X0203459Y0172079D01*
X0204230Y0172870D01*
X0205021Y0173641D01*
X0205830Y0174393D01*
X0206657Y0175124D01*
X0207502Y0175835D01*
X0208365Y0176526D01*
X0209244Y0177194D01*
X0210139Y0177841D01*
X0211049Y0178466D01*
X0211975Y0179068D01*
X0212915Y0179648D01*
X0213870Y0180204D01*
X0214837Y0180736D01*
X0215817Y0181245D01*
X0216810Y0181730D01*
X0217814Y0182189D01*
X0218829Y0182625D01*
X0219855Y0183035D01*
X0220890Y0183419D01*
X0221934Y0183779D01*
X0222987Y0184112D01*
X0224048Y0184420D01*
X0225116Y0184701D01*
X0226190Y0184957D01*
X0227271Y0185185D01*
X0228357Y0185387D01*
X0229447Y0185563D01*
X0230542Y0185712D01*
X0231639Y0185833D01*
X0232740Y0185928D01*
X0233842Y0185996D01*
X0234946Y0186036D01*
X0236050Y0186050D01*
X0237154Y0186036D01*
X0238258Y0185996D01*
X0239360Y0185928D01*
X0240461Y0185833D01*
X0241558Y0185712D01*
X0242653Y0185563D01*
X0243743Y0185387D01*
X0244829Y0185185D01*
X0245910Y0184957D01*
X0246984Y0184701D01*
X0248052Y0184420D01*
X0249113Y0184112D01*
X0250166Y0183779D01*
X0251210Y0183419D01*
X0252245Y0183035D01*
X0253271Y0182625D01*
X0254286Y0182189D01*
X0255290Y0181730D01*
X0256283Y0181245D01*
X0257263Y0180736D01*
X0258230Y0180204D01*
X0259185Y0179648D01*
X0260125Y0179068D01*
X0261051Y0178466D01*
X0261961Y0177841D01*
X0262856Y0177194D01*
X0263735Y0176526D01*
X0264598Y0175835D01*
X0265443Y0175124D01*
X0266270Y0174393D01*
X0267079Y0173641D01*
X0267870Y0172870D01*
X0268641Y0172079D01*
X0269393Y0171270D01*
X0270124Y0170443D01*
X0270835Y0169598D01*
X0271526Y0168735D01*
X0272194Y0167856D01*
X0272841Y0166961D01*
X0273466Y0166051D01*
X0274068Y0165125D01*
X0274648Y0164185D01*
X0275204Y0163230D01*
X0275736Y0162263D01*
X0276245Y0161283D01*
X0276730Y0160290D01*
X0277189Y0159286D01*
X0277625Y0158271D01*
X0278035Y0157245D01*
X0278419Y0156210D01*
X0278779Y0155166D01*
X0279112Y0154113D01*
X0279420Y0153052D01*
X0279701Y0151984D01*
X0279957Y0150910D01*
X0280185Y0149829D01*
X0280387Y0148743D01*
X0280563Y0147653D01*
X0280712Y0146558D01*
X0280833Y0145461D01*
X0280928Y0144360D01*
X0280996Y0143258D01*
X0281036Y0142154D01*
X0281050Y0141050D01*
X0281036Y0139946D01*
X0280996Y0138842D01*
X0280928Y0137740D01*
X0280833Y0136639D01*
X0280712Y0135542D01*
X0280563Y0134447D01*
X0280387Y0133357D01*
X0280185Y0132271D01*
X0279957Y0131190D01*
X0279701Y0130116D01*
X0279420Y0129048D01*
X0279112Y0127987D01*
X0278779Y0126934D01*
X0278419Y0125890D01*
X0278035Y0124855D01*
X0277625Y0123829D01*
X0277189Y0122814D01*
X0276730Y0121810D01*
X0276245Y0120817D01*
X0275736Y0119837D01*
X0275204Y0118870D01*
X0274648Y0117915D01*
X0274068Y0116975D01*
X0273466Y0116049D01*
X0272841Y0115139D01*
X0272194Y0114244D01*
X0271526Y0113365D01*
X0270835Y0112502D01*
X0270124Y0111657D01*
X0269393Y0110830D01*
X0268641Y0110021D01*
X0267870Y0109230D01*
X0267079Y0108459D01*
X0266270Y0107707D01*
X0265443Y0106976D01*
X0264598Y0106265D01*
X0263735Y0105574D01*
X0262856Y0104906D01*
X0261961Y0104259D01*
X0261051Y0103634D01*
X0260125Y0103032D01*
X0259185Y0102452D01*
X0258230Y0101896D01*
X0257263Y0101364D01*
X0256283Y0100855D01*
X0255290Y0100370D01*
X0254286Y0099911D01*
X0253271Y0099475D01*
X0252245Y0099065D01*
X0251210Y0098681D01*
X0250166Y0098321D01*
X0249113Y0097988D01*
X0248052Y0097680D01*
X0246984Y0097399D01*
X0245910Y0097143D01*
X0244829Y0096915D01*
X0243743Y0096713D01*
X0242653Y0096537D01*
X0241558Y0096388D01*
X0240461Y0096267D01*
X0239360Y0096172D01*
X0238258Y0096104D01*
X0237154Y0096064D01*
X0236050Y0096050D01*
X0234946Y0096064D01*
X0233842Y0096104D01*
X0232740Y0096172D01*
X0231639Y0096267D01*
X0230542Y0096388D01*
X0229447Y0096537D01*
X0228357Y0096713D01*
X0227271Y0096915D01*
X0226190Y0097143D01*
X0225116Y0097399D01*
X0224048Y0097680D01*
X0222987Y0097988D01*
X0221934Y0098321D01*
X0220890Y0098681D01*
X0219855Y0099065D01*
X0218829Y0099475D01*
X0217814Y0099911D01*
X0216810Y0100370D01*
X0215817Y0100855D01*
X0214837Y0101364D01*
X0213870Y0101896D01*
X0212915Y0102452D01*
X0211975Y0103032D01*
X0211049Y0103634D01*
X0210139Y0104259D01*
X0209244Y0104906D01*
X0208365Y0105574D01*
X0207502Y0106265D01*
X0206657Y0106976D01*
X0205830Y0107707D01*
X0205021Y0108459D01*
X0204230Y0109230D01*
X0203459Y0110021D01*
X0202707Y0110830D01*
X0201976Y0111657D01*
X0201265Y0112502D01*
X0200574Y0113365D01*
X0199906Y0114244D01*
X0199259Y0115139D01*
X0198634Y0116049D01*
X0198032Y0116975D01*
X0197452Y0117915D01*
X0196896Y0118870D01*
X0196364Y0119837D01*
X0195855Y0120817D01*
X0195370Y0121810D01*
X0194911Y0122814D01*
X0194475Y0123829D01*
X0194065Y0124855D01*
X0193681Y0125890D01*
X0193321Y0126934D01*
X0192988Y0127987D01*
X0192680Y0129048D01*
X0192399Y0130116D01*
X0192143Y0131190D01*
X0191915Y0132271D01*
X0191713Y0133357D01*
X0191537Y0134447D01*
X0191388Y0135542D01*
X0191267Y0136639D01*
X0191172Y0137740D01*
X0191104Y0138842D01*
X0191064Y0139946D01*
X0191050Y0141050D01*
X0191050Y0236050D02*
X0191064Y0237154D01*
X0191104Y0238258D01*
X0191172Y0239360D01*
X0191267Y0240461D01*
X0191388Y0241558D01*
X0191537Y0242653D01*
X0191713Y0243743D01*
X0191915Y0244829D01*
X0192143Y0245910D01*
X0192399Y0246984D01*
X0192680Y0248052D01*
X0192988Y0249113D01*
X0193321Y0250166D01*
X0193681Y0251210D01*
X0194065Y0252245D01*
X0194475Y0253271D01*
X0194911Y0254286D01*
X0195370Y0255290D01*
X0195855Y0256283D01*
X0196364Y0257263D01*
X0196896Y0258230D01*
X0197452Y0259185D01*
X0198032Y0260125D01*
X0198634Y0261051D01*
X0199259Y0261961D01*
X0199906Y0262856D01*
X0200574Y0263735D01*
X0201265Y0264598D01*
X0201976Y0265443D01*
X0202707Y0266270D01*
X0203459Y0267079D01*
X0204230Y0267870D01*
X0205021Y0268641D01*
X0205830Y0269393D01*
X0206657Y0270124D01*
X0207502Y0270835D01*
X0208365Y0271526D01*
X0209244Y0272194D01*
X0210139Y0272841D01*
X0211049Y0273466D01*
X0211975Y0274068D01*
X0212915Y0274648D01*
X0213870Y0275204D01*
X0214837Y0275736D01*
X0215817Y0276245D01*
X0216810Y0276730D01*
X0217814Y0277189D01*
X0218829Y0277625D01*
X0219855Y0278035D01*
X0220890Y0278419D01*
X0221934Y0278779D01*
X0222987Y0279112D01*
X0224048Y0279420D01*
X0225116Y0279701D01*
X0226190Y0279957D01*
X0227271Y0280185D01*
X0228357Y0280387D01*
X0229447Y0280563D01*
X0230542Y0280712D01*
X0231639Y0280833D01*
X0232740Y0280928D01*
X0233842Y0280996D01*
X0234946Y0281036D01*
X0236050Y0281050D01*
X0237154Y0281036D01*
X0238258Y0280996D01*
X0239360Y0280928D01*
X0240461Y0280833D01*
X0241558Y0280712D01*
X0242653Y0280563D01*
X0243743Y0280387D01*
X0244829Y0280185D01*
X0245910Y0279957D01*
X0246984Y0279701D01*
X0248052Y0279420D01*
X0249113Y0279112D01*
X0250166Y0278779D01*
X0251210Y0278419D01*
X0252245Y0278035D01*
X0253271Y0277625D01*
X0254286Y0277189D01*
X0255290Y0276730D01*
X0256283Y0276245D01*
X0257263Y0275736D01*
X0258230Y0275204D01*
X0259185Y0274648D01*
X0260125Y0274068D01*
X0261051Y0273466D01*
X0261961Y0272841D01*
X0262856Y0272194D01*
X0263735Y0271526D01*
X0264598Y0270835D01*
X0265443Y0270124D01*
X0266270Y0269393D01*
X0267079Y0268641D01*
X0267870Y0267870D01*
X0268641Y0267079D01*
X0269393Y0266270D01*
X0270124Y0265443D01*
X0270835Y0264598D01*
X0271526Y0263735D01*
X0272194Y0262856D01*
X0272841Y0261961D01*
X0273466Y0261051D01*
X0274068Y0260125D01*
X0274648Y0259185D01*
X0275204Y0258230D01*
X0275736Y0257263D01*
X0276245Y0256283D01*
X0276730Y0255290D01*
X0277189Y0254286D01*
X0277625Y0253271D01*
X0278035Y0252245D01*
X0278419Y0251210D01*
X0278779Y0250166D01*
X0279112Y0249113D01*
X0279420Y0248052D01*
X0279701Y0246984D01*
X0279957Y0245910D01*
X0280185Y0244829D01*
X0280387Y0243743D01*
X0280563Y0242653D01*
X0280712Y0241558D01*
X0280833Y0240461D01*
X0280928Y0239360D01*
X0280996Y0238258D01*
X0281036Y0237154D01*
X0281050Y0236050D01*
X0281036Y0234946D01*
X0280996Y0233842D01*
X0280928Y0232740D01*
X0280833Y0231639D01*
X0280712Y0230542D01*
X0280563Y0229447D01*
X0280387Y0228357D01*
X0280185Y0227271D01*
X0279957Y0226190D01*
X0279701Y0225116D01*
X0279420Y0224048D01*
X0279112Y0222987D01*
X0278779Y0221934D01*
X0278419Y0220890D01*
X0278035Y0219855D01*
X0277625Y0218829D01*
X0277189Y0217814D01*
X0276730Y0216810D01*
X0276245Y0215817D01*
X0275736Y0214837D01*
X0275204Y0213870D01*
X0274648Y0212915D01*
X0274068Y0211975D01*
X0273466Y0211049D01*
X0272841Y0210139D01*
X0272194Y0209244D01*
X0271526Y0208365D01*
X0270835Y0207502D01*
X0270124Y0206657D01*
X0269393Y0205830D01*
X0268641Y0205021D01*
X0267870Y0204230D01*
X0267079Y0203459D01*
X0266270Y0202707D01*
X0265443Y0201976D01*
X0264598Y0201265D01*
X0263735Y0200574D01*
X0262856Y0199906D01*
X0261961Y0199259D01*
X0261051Y0198634D01*
X0260125Y0198032D01*
X0259185Y0197452D01*
X0258230Y0196896D01*
X0257263Y0196364D01*
X0256283Y0195855D01*
X0255290Y0195370D01*
X0254286Y0194911D01*
X0253271Y0194475D01*
X0252245Y0194065D01*
X0251210Y0193681D01*
X0250166Y0193321D01*
X0249113Y0192988D01*
X0248052Y0192680D01*
X0246984Y0192399D01*
X0245910Y0192143D01*
X0244829Y0191915D01*
X0243743Y0191713D01*
X0242653Y0191537D01*
X0241558Y0191388D01*
X0240461Y0191267D01*
X0239360Y0191172D01*
X0238258Y0191104D01*
X0237154Y0191064D01*
X0236050Y0191050D01*
X0234946Y0191064D01*
X0233842Y0191104D01*
X0232740Y0191172D01*
X0231639Y0191267D01*
X0230542Y0191388D01*
X0229447Y0191537D01*
X0228357Y0191713D01*
X0227271Y0191915D01*
X0226190Y0192143D01*
X0225116Y0192399D01*
X0224048Y0192680D01*
X0222987Y0192988D01*
X0221934Y0193321D01*
X0220890Y0193681D01*
X0219855Y0194065D01*
X0218829Y0194475D01*
X0217814Y0194911D01*
X0216810Y0195370D01*
X0215817Y0195855D01*
X0214837Y0196364D01*
X0213870Y0196896D01*
X0212915Y0197452D01*
X0211975Y0198032D01*
X0211049Y0198634D01*
X0210139Y0199259D01*
X0209244Y0199906D01*
X0208365Y0200574D01*
X0207502Y0201265D01*
X0206657Y0201976D01*
X0205830Y0202707D01*
X0205021Y0203459D01*
X0204230Y0204230D01*
X0203459Y0205021D01*
X0202707Y0205830D01*
X0201976Y0206657D01*
X0201265Y0207502D01*
X0200574Y0208365D01*
X0199906Y0209244D01*
X0199259Y0210139D01*
X0198634Y0211049D01*
X0198032Y0211975D01*
X0197452Y0212915D01*
X0196896Y0213870D01*
X0196364Y0214837D01*
X0195855Y0215817D01*
X0195370Y0216810D01*
X0194911Y0217814D01*
X0194475Y0218829D01*
X0194065Y0219855D01*
X0193681Y0220890D01*
X0193321Y0221934D01*
X0192988Y0222987D01*
X0192680Y0224048D01*
X0192399Y0225116D01*
X0192143Y0226190D01*
X0191915Y0227271D01*
X0191713Y0228357D01*
X0191537Y0229447D01*
X0191388Y0230542D01*
X0191267Y0231639D01*
X0191172Y0232740D01*
X0191104Y0233842D01*
X0191064Y0234946D01*
X0191050Y0236050D01*
X0191050Y0331050D02*
X0191064Y0332154D01*
X0191104Y0333258D01*
X0191172Y0334360D01*
X0191267Y0335461D01*
X0191388Y0336558D01*
X0191537Y0337653D01*
X0191713Y0338743D01*
X0191915Y0339829D01*
X0192143Y0340910D01*
X0192399Y0341984D01*
X0192680Y0343052D01*
X0192988Y0344113D01*
X0193321Y0345166D01*
X0193681Y0346210D01*
X0194065Y0347245D01*
X0194475Y0348271D01*
X0194911Y0349286D01*
X0195370Y0350290D01*
X0195855Y0351283D01*
X0196364Y0352263D01*
X0196896Y0353230D01*
X0197452Y0354185D01*
X0198032Y0355125D01*
X0198634Y0356051D01*
X0199259Y0356961D01*
X0199906Y0357856D01*
X0200574Y0358735D01*
X0201265Y0359598D01*
X0201976Y0360443D01*
X0202707Y0361270D01*
X0203459Y0362079D01*
X0204230Y0362870D01*
X0205021Y0363641D01*
X0205830Y0364393D01*
X0206657Y0365124D01*
X0207502Y0365835D01*
X0208365Y0366526D01*
X0209244Y0367194D01*
X0210139Y0367841D01*
X0211049Y0368466D01*
X0211975Y0369068D01*
X0212915Y0369648D01*
X0213870Y0370204D01*
X0214837Y0370736D01*
X0215817Y0371245D01*
X0216810Y0371730D01*
X0217814Y0372189D01*
X0218829Y0372625D01*
X0219855Y0373035D01*
X0220890Y0373419D01*
X0221934Y0373779D01*
X0222987Y0374112D01*
X0224048Y0374420D01*
X0225116Y0374701D01*
X0226190Y0374957D01*
X0227271Y0375185D01*
X0228357Y0375387D01*
X0229447Y0375563D01*
X0230542Y0375712D01*
X0231639Y0375833D01*
X0232740Y0375928D01*
X0233842Y0375996D01*
X0234946Y0376036D01*
X0236050Y0376050D01*
X0237154Y0376036D01*
X0238258Y0375996D01*
X0239360Y0375928D01*
X0240461Y0375833D01*
X0241558Y0375712D01*
X0242653Y0375563D01*
X0243743Y0375387D01*
X0244829Y0375185D01*
X0245910Y0374957D01*
X0246984Y0374701D01*
X0248052Y0374420D01*
X0249113Y0374112D01*
X0250166Y0373779D01*
X0251210Y0373419D01*
X0252245Y0373035D01*
X0253271Y0372625D01*
X0254286Y0372189D01*
X0255290Y0371730D01*
X0256283Y0371245D01*
X0257263Y0370736D01*
X0258230Y0370204D01*
X0259185Y0369648D01*
X0260125Y0369068D01*
X0261051Y0368466D01*
X0261961Y0367841D01*
X0262856Y0367194D01*
X0263735Y0366526D01*
X0264598Y0365835D01*
X0265443Y0365124D01*
X0266270Y0364393D01*
X0267079Y0363641D01*
X0267870Y0362870D01*
X0268641Y0362079D01*
X0269393Y0361270D01*
X0270124Y0360443D01*
X0270835Y0359598D01*
X0271526Y0358735D01*
X0272194Y0357856D01*
X0272841Y0356961D01*
X0273466Y0356051D01*
X0274068Y0355125D01*
X0274648Y0354185D01*
X0275204Y0353230D01*
X0275736Y0352263D01*
X0276245Y0351283D01*
X0276730Y0350290D01*
X0277189Y0349286D01*
X0277625Y0348271D01*
X0278035Y0347245D01*
X0278419Y0346210D01*
X0278779Y0345166D01*
X0279112Y0344113D01*
X0279420Y0343052D01*
X0279701Y0341984D01*
X0279957Y0340910D01*
X0280185Y0339829D01*
X0280387Y0338743D01*
X0280563Y0337653D01*
X0280712Y0336558D01*
X0280833Y0335461D01*
X0280928Y0334360D01*
X0280996Y0333258D01*
X0281036Y0332154D01*
X0281050Y0331050D01*
X0281036Y0329946D01*
X0280996Y0328842D01*
X0280928Y0327740D01*
X0280833Y0326639D01*
X0280712Y0325542D01*
X0280563Y0324447D01*
X0280387Y0323357D01*
X0280185Y0322271D01*
X0279957Y0321190D01*
X0279701Y0320116D01*
X0279420Y0319048D01*
X0279112Y0317987D01*
X0278779Y0316934D01*
X0278419Y0315890D01*
X0278035Y0314855D01*
X0277625Y0313829D01*
X0277189Y0312814D01*
X0276730Y0311810D01*
X0276245Y0310817D01*
X0275736Y0309837D01*
X0275204Y0308870D01*
X0274648Y0307915D01*
X0274068Y0306975D01*
X0273466Y0306049D01*
X0272841Y0305139D01*
X0272194Y0304244D01*
X0271526Y0303365D01*
X0270835Y0302502D01*
X0270124Y0301657D01*
X0269393Y0300830D01*
X0268641Y0300021D01*
X0267870Y0299230D01*
X0267079Y0298459D01*
X0266270Y0297707D01*
X0265443Y0296976D01*
X0264598Y0296265D01*
X0263735Y0295574D01*
X0262856Y0294906D01*
X0261961Y0294259D01*
X0261051Y0293634D01*
X0260125Y0293032D01*
X0259185Y0292452D01*
X0258230Y0291896D01*
X0257263Y0291364D01*
X0256283Y0290855D01*
X0255290Y0290370D01*
X0254286Y0289911D01*
X0253271Y0289475D01*
X0252245Y0289065D01*
X0251210Y0288681D01*
X0250166Y0288321D01*
X0249113Y0287988D01*
X0248052Y0287680D01*
X0246984Y0287399D01*
X0245910Y0287143D01*
X0244829Y0286915D01*
X0243743Y0286713D01*
X0242653Y0286537D01*
X0241558Y0286388D01*
X0240461Y0286267D01*
X0239360Y0286172D01*
X0238258Y0286104D01*
X0237154Y0286064D01*
X0236050Y0286050D01*
X0234946Y0286064D01*
X0233842Y0286104D01*
X0232740Y0286172D01*
X0231639Y0286267D01*
X0230542Y0286388D01*
X0229447Y0286537D01*
X0228357Y0286713D01*
X0227271Y0286915D01*
X0226190Y0287143D01*
X0225116Y0287399D01*
X0224048Y0287680D01*
X0222987Y0287988D01*
X0221934Y0288321D01*
X0220890Y0288681D01*
X0219855Y0289065D01*
X0218829Y0289475D01*
X0217814Y0289911D01*
X0216810Y0290370D01*
X0215817Y0290855D01*
X0214837Y0291364D01*
X0213870Y0291896D01*
X0212915Y0292452D01*
X0211975Y0293032D01*
X0211049Y0293634D01*
X0210139Y0294259D01*
X0209244Y0294906D01*
X0208365Y0295574D01*
X0207502Y0296265D01*
X0206657Y0296976D01*
X0205830Y0297707D01*
X0205021Y0298459D01*
X0204230Y0299230D01*
X0203459Y0300021D01*
X0202707Y0300830D01*
X0201976Y0301657D01*
X0201265Y0302502D01*
X0200574Y0303365D01*
X0199906Y0304244D01*
X0199259Y0305139D01*
X0198634Y0306049D01*
X0198032Y0306975D01*
X0197452Y0307915D01*
X0196896Y0308870D01*
X0196364Y0309837D01*
X0195855Y0310817D01*
X0195370Y0311810D01*
X0194911Y0312814D01*
X0194475Y0313829D01*
X0194065Y0314855D01*
X0193681Y0315890D01*
X0193321Y0316934D01*
X0192988Y0317987D01*
X0192680Y0319048D01*
X0192399Y0320116D01*
X0192143Y0321190D01*
X0191915Y0322271D01*
X0191713Y0323357D01*
X0191537Y0324447D01*
X0191388Y0325542D01*
X0191267Y0326639D01*
X0191172Y0327740D01*
X0191104Y0328842D01*
X0191064Y0329946D01*
X0191050Y0331050D01*
X0286050Y0331050D02*
X0286064Y0332154D01*
X0286104Y0333258D01*
X0286172Y0334360D01*
X0286267Y0335461D01*
X0286388Y0336558D01*
X0286537Y0337653D01*
X0286713Y0338743D01*
X0286915Y0339829D01*
X0287143Y0340910D01*
X0287399Y0341984D01*
X0287680Y0343052D01*
X0287988Y0344113D01*
X0288321Y0345166D01*
X0288681Y0346210D01*
X0289065Y0347245D01*
X0289475Y0348271D01*
X0289911Y0349286D01*
X0290370Y0350290D01*
X0290855Y0351283D01*
X0291364Y0352263D01*
X0291896Y0353230D01*
X0292452Y0354185D01*
X0293032Y0355125D01*
X0293634Y0356051D01*
X0294259Y0356961D01*
X0294906Y0357856D01*
X0295574Y0358735D01*
X0296265Y0359598D01*
X0296976Y0360443D01*
X0297707Y0361270D01*
X0298459Y0362079D01*
X0299230Y0362870D01*
X0300021Y0363641D01*
X0300830Y0364393D01*
X0301657Y0365124D01*
X0302502Y0365835D01*
X0303365Y0366526D01*
X0304244Y0367194D01*
X0305139Y0367841D01*
X0306049Y0368466D01*
X0306975Y0369068D01*
X0307915Y0369648D01*
X0308870Y0370204D01*
X0309837Y0370736D01*
X0310817Y0371245D01*
X0311810Y0371730D01*
X0312814Y0372189D01*
X0313829Y0372625D01*
X0314855Y0373035D01*
X0315890Y0373419D01*
X0316934Y0373779D01*
X0317987Y0374112D01*
X0319048Y0374420D01*
X0320116Y0374701D01*
X0321190Y0374957D01*
X0322271Y0375185D01*
X0323357Y0375387D01*
X0324447Y0375563D01*
X0325542Y0375712D01*
X0326639Y0375833D01*
X0327740Y0375928D01*
X0328842Y0375996D01*
X0329946Y0376036D01*
X0331050Y0376050D01*
X0332154Y0376036D01*
X0333258Y0375996D01*
X0334360Y0375928D01*
X0335461Y0375833D01*
X0336558Y0375712D01*
X0337653Y0375563D01*
X0338743Y0375387D01*
X0339829Y0375185D01*
X0340910Y0374957D01*
X0341984Y0374701D01*
X0343052Y0374420D01*
X0344113Y0374112D01*
X0345166Y0373779D01*
X0346210Y0373419D01*
X0347245Y0373035D01*
X0348271Y0372625D01*
X0349286Y0372189D01*
X0350290Y0371730D01*
X0351283Y0371245D01*
X0352263Y0370736D01*
X0353230Y0370204D01*
X0354185Y0369648D01*
X0355125Y0369068D01*
X0356051Y0368466D01*
X0356961Y0367841D01*
X0357856Y0367194D01*
X0358735Y0366526D01*
X0359598Y0365835D01*
X0360443Y0365124D01*
X0361270Y0364393D01*
X0362079Y0363641D01*
X0362870Y0362870D01*
X0363641Y0362079D01*
X0364393Y0361270D01*
X0365124Y0360443D01*
X0365835Y0359598D01*
X0366526Y0358735D01*
X0367194Y0357856D01*
X0367841Y0356961D01*
X0368466Y0356051D01*
X0369068Y0355125D01*
X0369648Y0354185D01*
X0370204Y0353230D01*
X0370736Y0352263D01*
X0371245Y0351283D01*
X0371730Y0350290D01*
X0372189Y0349286D01*
X0372625Y0348271D01*
X0373035Y0347245D01*
X0373419Y0346210D01*
X0373779Y0345166D01*
X0374112Y0344113D01*
X0374420Y0343052D01*
X0374701Y0341984D01*
X0374957Y0340910D01*
X0375185Y0339829D01*
X0375387Y0338743D01*
X0375563Y0337653D01*
X0375712Y0336558D01*
X0375833Y0335461D01*
X0375928Y0334360D01*
X0375996Y0333258D01*
X0376036Y0332154D01*
X0376050Y0331050D01*
X0376036Y0329946D01*
X0375996Y0328842D01*
X0375928Y0327740D01*
X0375833Y0326639D01*
X0375712Y0325542D01*
X0375563Y0324447D01*
X0375387Y0323357D01*
X0375185Y0322271D01*
X0374957Y0321190D01*
X0374701Y0320116D01*
X0374420Y0319048D01*
X0374112Y0317987D01*
X0373779Y0316934D01*
X0373419Y0315890D01*
X0373035Y0314855D01*
X0372625Y0313829D01*
X0372189Y0312814D01*
X0371730Y0311810D01*
X0371245Y0310817D01*
X0370736Y0309837D01*
X0370204Y0308870D01*
X0369648Y0307915D01*
X0369068Y0306975D01*
X0368466Y0306049D01*
X0367841Y0305139D01*
X0367194Y0304244D01*
X0366526Y0303365D01*
X0365835Y0302502D01*
X0365124Y0301657D01*
X0364393Y0300830D01*
X0363641Y0300021D01*
X0362870Y0299230D01*
X0362079Y0298459D01*
X0361270Y0297707D01*
X0360443Y0296976D01*
X0359598Y0296265D01*
X0358735Y0295574D01*
X0357856Y0294906D01*
X0356961Y0294259D01*
X0356051Y0293634D01*
X0355125Y0293032D01*
X0354185Y0292452D01*
X0353230Y0291896D01*
X0352263Y0291364D01*
X0351283Y0290855D01*
X0350290Y0290370D01*
X0349286Y0289911D01*
X0348271Y0289475D01*
X0347245Y0289065D01*
X0346210Y0288681D01*
X0345166Y0288321D01*
X0344113Y0287988D01*
X0343052Y0287680D01*
X0341984Y0287399D01*
X0340910Y0287143D01*
X0339829Y0286915D01*
X0338743Y0286713D01*
X0337653Y0286537D01*
X0336558Y0286388D01*
X0335461Y0286267D01*
X0334360Y0286172D01*
X0333258Y0286104D01*
X0332154Y0286064D01*
X0331050Y0286050D01*
X0329946Y0286064D01*
X0328842Y0286104D01*
X0327740Y0286172D01*
X0326639Y0286267D01*
X0325542Y0286388D01*
X0324447Y0286537D01*
X0323357Y0286713D01*
X0322271Y0286915D01*
X0321190Y0287143D01*
X0320116Y0287399D01*
X0319048Y0287680D01*
X0317987Y0287988D01*
X0316934Y0288321D01*
X0315890Y0288681D01*
X0314855Y0289065D01*
X0313829Y0289475D01*
X0312814Y0289911D01*
X0311810Y0290370D01*
X0310817Y0290855D01*
X0309837Y0291364D01*
X0308870Y0291896D01*
X0307915Y0292452D01*
X0306975Y0293032D01*
X0306049Y0293634D01*
X0305139Y0294259D01*
X0304244Y0294906D01*
X0303365Y0295574D01*
X0302502Y0296265D01*
X0301657Y0296976D01*
X0300830Y0297707D01*
X0300021Y0298459D01*
X0299230Y0299230D01*
X0298459Y0300021D01*
X0297707Y0300830D01*
X0296976Y0301657D01*
X0296265Y0302502D01*
X0295574Y0303365D01*
X0294906Y0304244D01*
X0294259Y0305139D01*
X0293634Y0306049D01*
X0293032Y0306975D01*
X0292452Y0307915D01*
X0291896Y0308870D01*
X0291364Y0309837D01*
X0290855Y0310817D01*
X0290370Y0311810D01*
X0289911Y0312814D01*
X0289475Y0313829D01*
X0289065Y0314855D01*
X0288681Y0315890D01*
X0288321Y0316934D01*
X0287988Y0317987D01*
X0287680Y0319048D01*
X0287399Y0320116D01*
X0287143Y0321190D01*
X0286915Y0322271D01*
X0286713Y0323357D01*
X0286537Y0324447D01*
X0286388Y0325542D01*
X0286267Y0326639D01*
X0286172Y0327740D01*
X0286104Y0328842D01*
X0286064Y0329946D01*
X0286050Y0331050D01*
X0286050Y0236050D02*
X0286064Y0237154D01*
X0286104Y0238258D01*
X0286172Y0239360D01*
X0286267Y0240461D01*
X0286388Y0241558D01*
X0286537Y0242653D01*
X0286713Y0243743D01*
X0286915Y0244829D01*
X0287143Y0245910D01*
X0287399Y0246984D01*
X0287680Y0248052D01*
X0287988Y0249113D01*
X0288321Y0250166D01*
X0288681Y0251210D01*
X0289065Y0252245D01*
X0289475Y0253271D01*
X0289911Y0254286D01*
X0290370Y0255290D01*
X0290855Y0256283D01*
X0291364Y0257263D01*
X0291896Y0258230D01*
X0292452Y0259185D01*
X0293032Y0260125D01*
X0293634Y0261051D01*
X0294259Y0261961D01*
X0294906Y0262856D01*
X0295574Y0263735D01*
X0296265Y0264598D01*
X0296976Y0265443D01*
X0297707Y0266270D01*
X0298459Y0267079D01*
X0299230Y0267870D01*
X0300021Y0268641D01*
X0300830Y0269393D01*
X0301657Y0270124D01*
X0302502Y0270835D01*
X0303365Y0271526D01*
X0304244Y0272194D01*
X0305139Y0272841D01*
X0306049Y0273466D01*
X0306975Y0274068D01*
X0307915Y0274648D01*
X0308870Y0275204D01*
X0309837Y0275736D01*
X0310817Y0276245D01*
X0311810Y0276730D01*
X0312814Y0277189D01*
X0313829Y0277625D01*
X0314855Y0278035D01*
X0315890Y0278419D01*
X0316934Y0278779D01*
X0317987Y0279112D01*
X0319048Y0279420D01*
X0320116Y0279701D01*
X0321190Y0279957D01*
X0322271Y0280185D01*
X0323357Y0280387D01*
X0324447Y0280563D01*
X0325542Y0280712D01*
X0326639Y0280833D01*
X0327740Y0280928D01*
X0328842Y0280996D01*
X0329946Y0281036D01*
X0331050Y0281050D01*
X0332154Y0281036D01*
X0333258Y0280996D01*
X0334360Y0280928D01*
X0335461Y0280833D01*
X0336558Y0280712D01*
X0337653Y0280563D01*
X0338743Y0280387D01*
X0339829Y0280185D01*
X0340910Y0279957D01*
X0341984Y0279701D01*
X0343052Y0279420D01*
X0344113Y0279112D01*
X0345166Y0278779D01*
X0346210Y0278419D01*
X0347245Y0278035D01*
X0348271Y0277625D01*
X0349286Y0277189D01*
X0350290Y0276730D01*
X0351283Y0276245D01*
X0352263Y0275736D01*
X0353230Y0275204D01*
X0354185Y0274648D01*
X0355125Y0274068D01*
X0356051Y0273466D01*
X0356961Y0272841D01*
X0357856Y0272194D01*
X0358735Y0271526D01*
X0359598Y0270835D01*
X0360443Y0270124D01*
X0361270Y0269393D01*
X0362079Y0268641D01*
X0362870Y0267870D01*
X0363641Y0267079D01*
X0364393Y0266270D01*
X0365124Y0265443D01*
X0365835Y0264598D01*
X0366526Y0263735D01*
X0367194Y0262856D01*
X0367841Y0261961D01*
X0368466Y0261051D01*
X0369068Y0260125D01*
X0369648Y0259185D01*
X0370204Y0258230D01*
X0370736Y0257263D01*
X0371245Y0256283D01*
X0371730Y0255290D01*
X0372189Y0254286D01*
X0372625Y0253271D01*
X0373035Y0252245D01*
X0373419Y0251210D01*
X0373779Y0250166D01*
X0374112Y0249113D01*
X0374420Y0248052D01*
X0374701Y0246984D01*
X0374957Y0245910D01*
X0375185Y0244829D01*
X0375387Y0243743D01*
X0375563Y0242653D01*
X0375712Y0241558D01*
X0375833Y0240461D01*
X0375928Y0239360D01*
X0375996Y0238258D01*
X0376036Y0237154D01*
X0376050Y0236050D01*
X0376036Y0234946D01*
X0375996Y0233842D01*
X0375928Y0232740D01*
X0375833Y0231639D01*
X0375712Y0230542D01*
X0375563Y0229447D01*
X0375387Y0228357D01*
X0375185Y0227271D01*
X0374957Y0226190D01*
X0374701Y0225116D01*
X0374420Y0224048D01*
X0374112Y0222987D01*
X0373779Y0221934D01*
X0373419Y0220890D01*
X0373035Y0219855D01*
X0372625Y0218829D01*
X0372189Y0217814D01*
X0371730Y0216810D01*
X0371245Y0215817D01*
X0370736Y0214837D01*
X0370204Y0213870D01*
X0369648Y0212915D01*
X0369068Y0211975D01*
X0368466Y0211049D01*
X0367841Y0210139D01*
X0367194Y0209244D01*
X0366526Y0208365D01*
X0365835Y0207502D01*
X0365124Y0206657D01*
X0364393Y0205830D01*
X0363641Y0205021D01*
X0362870Y0204230D01*
X0362079Y0203459D01*
X0361270Y0202707D01*
X0360443Y0201976D01*
X0359598Y0201265D01*
X0358735Y0200574D01*
X0357856Y0199906D01*
X0356961Y0199259D01*
X0356051Y0198634D01*
X0355125Y0198032D01*
X0354185Y0197452D01*
X0353230Y0196896D01*
X0352263Y0196364D01*
X0351283Y0195855D01*
X0350290Y0195370D01*
X0349286Y0194911D01*
X0348271Y0194475D01*
X0347245Y0194065D01*
X0346210Y0193681D01*
X0345166Y0193321D01*
X0344113Y0192988D01*
X0343052Y0192680D01*
X0341984Y0192399D01*
X0340910Y0192143D01*
X0339829Y0191915D01*
X0338743Y0191713D01*
X0337653Y0191537D01*
X0336558Y0191388D01*
X0335461Y0191267D01*
X0334360Y0191172D01*
X0333258Y0191104D01*
X0332154Y0191064D01*
X0331050Y0191050D01*
X0329946Y0191064D01*
X0328842Y0191104D01*
X0327740Y0191172D01*
X0326639Y0191267D01*
X0325542Y0191388D01*
X0324447Y0191537D01*
X0323357Y0191713D01*
X0322271Y0191915D01*
X0321190Y0192143D01*
X0320116Y0192399D01*
X0319048Y0192680D01*
X0317987Y0192988D01*
X0316934Y0193321D01*
X0315890Y0193681D01*
X0314855Y0194065D01*
X0313829Y0194475D01*
X0312814Y0194911D01*
X0311810Y0195370D01*
X0310817Y0195855D01*
X0309837Y0196364D01*
X0308870Y0196896D01*
X0307915Y0197452D01*
X0306975Y0198032D01*
X0306049Y0198634D01*
X0305139Y0199259D01*
X0304244Y0199906D01*
X0303365Y0200574D01*
X0302502Y0201265D01*
X0301657Y0201976D01*
X0300830Y0202707D01*
X0300021Y0203459D01*
X0299230Y0204230D01*
X0298459Y0205021D01*
X0297707Y0205830D01*
X0296976Y0206657D01*
X0296265Y0207502D01*
X0295574Y0208365D01*
X0294906Y0209244D01*
X0294259Y0210139D01*
X0293634Y0211049D01*
X0293032Y0211975D01*
X0292452Y0212915D01*
X0291896Y0213870D01*
X0291364Y0214837D01*
X0290855Y0215817D01*
X0290370Y0216810D01*
X0289911Y0217814D01*
X0289475Y0218829D01*
X0289065Y0219855D01*
X0288681Y0220890D01*
X0288321Y0221934D01*
X0287988Y0222987D01*
X0287680Y0224048D01*
X0287399Y0225116D01*
X0287143Y0226190D01*
X0286915Y0227271D01*
X0286713Y0228357D01*
X0286537Y0229447D01*
X0286388Y0230542D01*
X0286267Y0231639D01*
X0286172Y0232740D01*
X0286104Y0233842D01*
X0286064Y0234946D01*
X0286050Y0236050D01*
X0286050Y0141050D02*
X0286064Y0142154D01*
X0286104Y0143258D01*
X0286172Y0144360D01*
X0286267Y0145461D01*
X0286388Y0146558D01*
X0286537Y0147653D01*
X0286713Y0148743D01*
X0286915Y0149829D01*
X0287143Y0150910D01*
X0287399Y0151984D01*
X0287680Y0153052D01*
X0287988Y0154113D01*
X0288321Y0155166D01*
X0288681Y0156210D01*
X0289065Y0157245D01*
X0289475Y0158271D01*
X0289911Y0159286D01*
X0290370Y0160290D01*
X0290855Y0161283D01*
X0291364Y0162263D01*
X0291896Y0163230D01*
X0292452Y0164185D01*
X0293032Y0165125D01*
X0293634Y0166051D01*
X0294259Y0166961D01*
X0294906Y0167856D01*
X0295574Y0168735D01*
X0296265Y0169598D01*
X0296976Y0170443D01*
X0297707Y0171270D01*
X0298459Y0172079D01*
X0299230Y0172870D01*
X0300021Y0173641D01*
X0300830Y0174393D01*
X0301657Y0175124D01*
X0302502Y0175835D01*
X0303365Y0176526D01*
X0304244Y0177194D01*
X0305139Y0177841D01*
X0306049Y0178466D01*
X0306975Y0179068D01*
X0307915Y0179648D01*
X0308870Y0180204D01*
X0309837Y0180736D01*
X0310817Y0181245D01*
X0311810Y0181730D01*
X0312814Y0182189D01*
X0313829Y0182625D01*
X0314855Y0183035D01*
X0315890Y0183419D01*
X0316934Y0183779D01*
X0317987Y0184112D01*
X0319048Y0184420D01*
X0320116Y0184701D01*
X0321190Y0184957D01*
X0322271Y0185185D01*
X0323357Y0185387D01*
X0324447Y0185563D01*
X0325542Y0185712D01*
X0326639Y0185833D01*
X0327740Y0185928D01*
X0328842Y0185996D01*
X0329946Y0186036D01*
X0331050Y0186050D01*
X0332154Y0186036D01*
X0333258Y0185996D01*
X0334360Y0185928D01*
X0335461Y0185833D01*
X0336558Y0185712D01*
X0337653Y0185563D01*
X0338743Y0185387D01*
X0339829Y0185185D01*
X0340910Y0184957D01*
X0341984Y0184701D01*
X0343052Y0184420D01*
X0344113Y0184112D01*
X0345166Y0183779D01*
X0346210Y0183419D01*
X0347245Y0183035D01*
X0348271Y0182625D01*
X0349286Y0182189D01*
X0350290Y0181730D01*
X0351283Y0181245D01*
X0352263Y0180736D01*
X0353230Y0180204D01*
X0354185Y0179648D01*
X0355125Y0179068D01*
X0356051Y0178466D01*
X0356961Y0177841D01*
X0357856Y0177194D01*
X0358735Y0176526D01*
X0359598Y0175835D01*
X0360443Y0175124D01*
X0361270Y0174393D01*
X0362079Y0173641D01*
X0362870Y0172870D01*
X0363641Y0172079D01*
X0364393Y0171270D01*
X0365124Y0170443D01*
X0365835Y0169598D01*
X0366526Y0168735D01*
X0367194Y0167856D01*
X0367841Y0166961D01*
X0368466Y0166051D01*
X0369068Y0165125D01*
X0369648Y0164185D01*
X0370204Y0163230D01*
X0370736Y0162263D01*
X0371245Y0161283D01*
X0371730Y0160290D01*
X0372189Y0159286D01*
X0372625Y0158271D01*
X0373035Y0157245D01*
X0373419Y0156210D01*
X0373779Y0155166D01*
X0374112Y0154113D01*
X0374420Y0153052D01*
X0374701Y0151984D01*
X0374957Y0150910D01*
X0375185Y0149829D01*
X0375387Y0148743D01*
X0375563Y0147653D01*
X0375712Y0146558D01*
X0375833Y0145461D01*
X0375928Y0144360D01*
X0375996Y0143258D01*
X0376036Y0142154D01*
X0376050Y0141050D01*
X0376036Y0139946D01*
X0375996Y0138842D01*
X0375928Y0137740D01*
X0375833Y0136639D01*
X0375712Y0135542D01*
X0375563Y0134447D01*
X0375387Y0133357D01*
X0375185Y0132271D01*
X0374957Y0131190D01*
X0374701Y0130116D01*
X0374420Y0129048D01*
X0374112Y0127987D01*
X0373779Y0126934D01*
X0373419Y0125890D01*
X0373035Y0124855D01*
X0372625Y0123829D01*
X0372189Y0122814D01*
X0371730Y0121810D01*
X0371245Y0120817D01*
X0370736Y0119837D01*
X0370204Y0118870D01*
X0369648Y0117915D01*
X0369068Y0116975D01*
X0368466Y0116049D01*
X0367841Y0115139D01*
X0367194Y0114244D01*
X0366526Y0113365D01*
X0365835Y0112502D01*
X0365124Y0111657D01*
X0364393Y0110830D01*
X0363641Y0110021D01*
X0362870Y0109230D01*
X0362079Y0108459D01*
X0361270Y0107707D01*
X0360443Y0106976D01*
X0359598Y0106265D01*
X0358735Y0105574D01*
X0357856Y0104906D01*
X0356961Y0104259D01*
X0356051Y0103634D01*
X0355125Y0103032D01*
X0354185Y0102452D01*
X0353230Y0101896D01*
X0352263Y0101364D01*
X0351283Y0100855D01*
X0350290Y0100370D01*
X0349286Y0099911D01*
X0348271Y0099475D01*
X0347245Y0099065D01*
X0346210Y0098681D01*
X0345166Y0098321D01*
X0344113Y0097988D01*
X0343052Y0097680D01*
X0341984Y0097399D01*
X0340910Y0097143D01*
X0339829Y0096915D01*
X0338743Y0096713D01*
X0337653Y0096537D01*
X0336558Y0096388D01*
X0335461Y0096267D01*
X0334360Y0096172D01*
X0333258Y0096104D01*
X0332154Y0096064D01*
X0331050Y0096050D01*
X0329946Y0096064D01*
X0328842Y0096104D01*
X0327740Y0096172D01*
X0326639Y0096267D01*
X0325542Y0096388D01*
X0324447Y0096537D01*
X0323357Y0096713D01*
X0322271Y0096915D01*
X0321190Y0097143D01*
X0320116Y0097399D01*
X0319048Y0097680D01*
X0317987Y0097988D01*
X0316934Y0098321D01*
X0315890Y0098681D01*
X0314855Y0099065D01*
X0313829Y0099475D01*
X0312814Y0099911D01*
X0311810Y0100370D01*
X0310817Y0100855D01*
X0309837Y0101364D01*
X0308870Y0101896D01*
X0307915Y0102452D01*
X0306975Y0103032D01*
X0306049Y0103634D01*
X0305139Y0104259D01*
X0304244Y0104906D01*
X0303365Y0105574D01*
X0302502Y0106265D01*
X0301657Y0106976D01*
X0300830Y0107707D01*
X0300021Y0108459D01*
X0299230Y0109230D01*
X0298459Y0110021D01*
X0297707Y0110830D01*
X0296976Y0111657D01*
X0296265Y0112502D01*
X0295574Y0113365D01*
X0294906Y0114244D01*
X0294259Y0115139D01*
X0293634Y0116049D01*
X0293032Y0116975D01*
X0292452Y0117915D01*
X0291896Y0118870D01*
X0291364Y0119837D01*
X0290855Y0120817D01*
X0290370Y0121810D01*
X0289911Y0122814D01*
X0289475Y0123829D01*
X0289065Y0124855D01*
X0288681Y0125890D01*
X0288321Y0126934D01*
X0287988Y0127987D01*
X0287680Y0129048D01*
X0287399Y0130116D01*
X0287143Y0131190D01*
X0286915Y0132271D01*
X0286713Y0133357D01*
X0286537Y0134447D01*
X0286388Y0135542D01*
X0286267Y0136639D01*
X0286172Y0137740D01*
X0286104Y0138842D01*
X0286064Y0139946D01*
X0286050Y0141050D01*
X0286050Y0046050D02*
X0286064Y0047154D01*
X0286104Y0048258D01*
X0286172Y0049360D01*
X0286267Y0050461D01*
X0286388Y0051558D01*
X0286537Y0052653D01*
X0286713Y0053743D01*
X0286915Y0054829D01*
X0287143Y0055910D01*
X0287399Y0056984D01*
X0287680Y0058052D01*
X0287988Y0059113D01*
X0288321Y0060166D01*
X0288681Y0061210D01*
X0289065Y0062245D01*
X0289475Y0063271D01*
X0289911Y0064286D01*
X0290370Y0065290D01*
X0290855Y0066283D01*
X0291364Y0067263D01*
X0291896Y0068230D01*
X0292452Y0069185D01*
X0293032Y0070125D01*
X0293634Y0071051D01*
X0294259Y0071961D01*
X0294906Y0072856D01*
X0295574Y0073735D01*
X0296265Y0074598D01*
X0296976Y0075443D01*
X0297707Y0076270D01*
X0298459Y0077079D01*
X0299230Y0077870D01*
X0300021Y0078641D01*
X0300830Y0079393D01*
X0301657Y0080124D01*
X0302502Y0080835D01*
X0303365Y0081526D01*
X0304244Y0082194D01*
X0305139Y0082841D01*
X0306049Y0083466D01*
X0306975Y0084068D01*
X0307915Y0084648D01*
X0308870Y0085204D01*
X0309837Y0085736D01*
X0310817Y0086245D01*
X0311810Y0086730D01*
X0312814Y0087189D01*
X0313829Y0087625D01*
X0314855Y0088035D01*
X0315890Y0088419D01*
X0316934Y0088779D01*
X0317987Y0089112D01*
X0319048Y0089420D01*
X0320116Y0089701D01*
X0321190Y0089957D01*
X0322271Y0090185D01*
X0323357Y0090387D01*
X0324447Y0090563D01*
X0325542Y0090712D01*
X0326639Y0090833D01*
X0327740Y0090928D01*
X0328842Y0090996D01*
X0329946Y0091036D01*
X0331050Y0091050D01*
X0332154Y0091036D01*
X0333258Y0090996D01*
X0334360Y0090928D01*
X0335461Y0090833D01*
X0336558Y0090712D01*
X0337653Y0090563D01*
X0338743Y0090387D01*
X0339829Y0090185D01*
X0340910Y0089957D01*
X0341984Y0089701D01*
X0343052Y0089420D01*
X0344113Y0089112D01*
X0345166Y0088779D01*
X0346210Y0088419D01*
X0347245Y0088035D01*
X0348271Y0087625D01*
X0349286Y0087189D01*
X0350290Y0086730D01*
X0351283Y0086245D01*
X0352263Y0085736D01*
X0353230Y0085204D01*
X0354185Y0084648D01*
X0355125Y0084068D01*
X0356051Y0083466D01*
X0356961Y0082841D01*
X0357856Y0082194D01*
X0358735Y0081526D01*
X0359598Y0080835D01*
X0360443Y0080124D01*
X0361270Y0079393D01*
X0362079Y0078641D01*
X0362870Y0077870D01*
X0363641Y0077079D01*
X0364393Y0076270D01*
X0365124Y0075443D01*
X0365835Y0074598D01*
X0366526Y0073735D01*
X0367194Y0072856D01*
X0367841Y0071961D01*
X0368466Y0071051D01*
X0369068Y0070125D01*
X0369648Y0069185D01*
X0370204Y0068230D01*
X0370736Y0067263D01*
X0371245Y0066283D01*
X0371730Y0065290D01*
X0372189Y0064286D01*
X0372625Y0063271D01*
X0373035Y0062245D01*
X0373419Y0061210D01*
X0373779Y0060166D01*
X0374112Y0059113D01*
X0374420Y0058052D01*
X0374701Y0056984D01*
X0374957Y0055910D01*
X0375185Y0054829D01*
X0375387Y0053743D01*
X0375563Y0052653D01*
X0375712Y0051558D01*
X0375833Y0050461D01*
X0375928Y0049360D01*
X0375996Y0048258D01*
X0376036Y0047154D01*
X0376050Y0046050D01*
X0376036Y0044946D01*
X0375996Y0043842D01*
X0375928Y0042740D01*
X0375833Y0041639D01*
X0375712Y0040542D01*
X0375563Y0039447D01*
X0375387Y0038357D01*
X0375185Y0037271D01*
X0374957Y0036190D01*
X0374701Y0035116D01*
X0374420Y0034048D01*
X0374112Y0032987D01*
X0373779Y0031934D01*
X0373419Y0030890D01*
X0373035Y0029855D01*
X0372625Y0028829D01*
X0372189Y0027814D01*
X0371730Y0026810D01*
X0371245Y0025817D01*
X0370736Y0024837D01*
X0370204Y0023870D01*
X0369648Y0022915D01*
X0369068Y0021975D01*
X0368466Y0021049D01*
X0367841Y0020139D01*
X0367194Y0019244D01*
X0366526Y0018365D01*
X0365835Y0017502D01*
X0365124Y0016657D01*
X0364393Y0015830D01*
X0363641Y0015021D01*
X0362870Y0014230D01*
X0362079Y0013459D01*
X0361270Y0012707D01*
X0360443Y0011976D01*
X0359598Y0011265D01*
X0358735Y0010574D01*
X0357856Y0009906D01*
X0356961Y0009259D01*
X0356051Y0008634D01*
X0355125Y0008032D01*
X0354185Y0007452D01*
X0353230Y0006896D01*
X0352263Y0006364D01*
X0351283Y0005855D01*
X0350290Y0005370D01*
X0349286Y0004911D01*
X0348271Y0004475D01*
X0347245Y0004065D01*
X0346210Y0003681D01*
X0345166Y0003321D01*
X0344113Y0002988D01*
X0343052Y0002680D01*
X0341984Y0002399D01*
X0340910Y0002143D01*
X0339829Y0001915D01*
X0338743Y0001713D01*
X0337653Y0001537D01*
X0336558Y0001388D01*
X0335461Y0001267D01*
X0334360Y0001172D01*
X0333258Y0001104D01*
X0332154Y0001064D01*
X0331050Y0001050D01*
X0329946Y0001064D01*
X0328842Y0001104D01*
X0327740Y0001172D01*
X0326639Y0001267D01*
X0325542Y0001388D01*
X0324447Y0001537D01*
X0323357Y0001713D01*
X0322271Y0001915D01*
X0321190Y0002143D01*
X0320116Y0002399D01*
X0319048Y0002680D01*
X0317987Y0002988D01*
X0316934Y0003321D01*
X0315890Y0003681D01*
X0314855Y0004065D01*
X0313829Y0004475D01*
X0312814Y0004911D01*
X0311810Y0005370D01*
X0310817Y0005855D01*
X0309837Y0006364D01*
X0308870Y0006896D01*
X0307915Y0007452D01*
X0306975Y0008032D01*
X0306049Y0008634D01*
X0305139Y0009259D01*
X0304244Y0009906D01*
X0303365Y0010574D01*
X0302502Y0011265D01*
X0301657Y0011976D01*
X0300830Y0012707D01*
X0300021Y0013459D01*
X0299230Y0014230D01*
X0298459Y0015021D01*
X0297707Y0015830D01*
X0296976Y0016657D01*
X0296265Y0017502D01*
X0295574Y0018365D01*
X0294906Y0019244D01*
X0294259Y0020139D01*
X0293634Y0021049D01*
X0293032Y0021975D01*
X0292452Y0022915D01*
X0291896Y0023870D01*
X0291364Y0024837D01*
X0290855Y0025817D01*
X0290370Y0026810D01*
X0289911Y0027814D01*
X0289475Y0028829D01*
X0289065Y0029855D01*
X0288681Y0030890D01*
X0288321Y0031934D01*
X0287988Y0032987D01*
X0287680Y0034048D01*
X0287399Y0035116D01*
X0287143Y0036190D01*
X0286915Y0037271D01*
X0286713Y0038357D01*
X0286537Y0039447D01*
X0286388Y0040542D01*
X0286267Y0041639D01*
X0286172Y0042740D01*
X0286104Y0043842D01*
X0286064Y0044946D01*
X0286050Y0046050D01*
M02*
