%
M48
M72
T01C0.0320
T02C0.0354
T03C0.0394
%
T01
X2425Y1563
X3699Y1380
X5199Y1380
X5949Y3380
X5949Y4380
X5949Y5380
X5949Y6380
X6725Y7344
X7992Y4625
X10657Y4282
X12449Y4380
X12449Y5380
X12449Y6380
X15449Y6380
X15449Y5380
X15449Y4380
X15449Y3380
X14699Y1380
X13199Y1380
X11925Y1563
X12449Y3380
X16225Y7344
X17492Y4625
X20157Y4282
X21949Y4380
X21949Y5380
X21949Y6380
X24949Y6380
X24949Y5380
X24949Y4380
X24949Y3380
X24199Y1380
X22699Y1380
X21425Y1563
X21949Y3380
X25725Y7344
X26992Y4625
X29657Y4282
X31449Y4380
X31449Y5380
X31449Y6380
X34449Y6380
X34449Y5380
X34449Y4380
X34449Y3380
X33699Y1380
X32199Y1380
X30925Y1563
X31449Y3380
X35225Y7344
X36492Y4625
X33699Y10880
X32199Y10880
X30925Y11063
X31449Y12880
X31449Y13880
X31449Y14880
X31449Y15880
X29657Y13782
X26992Y14125
X24949Y13880
X24949Y12880
X24949Y14880
X24949Y15880
X25725Y16844
X24199Y20380
X22699Y20380
X21425Y20563
X21949Y22380
X21949Y23380
X21949Y24380
X21949Y25380
X20157Y23282
X17492Y23625
X15449Y23380
X15449Y22380
X15449Y24380
X15449Y25380
X16225Y26344
X14699Y29880
X13199Y29880
X11925Y30063
X12449Y31880
X12449Y32880
X12449Y33880
X12449Y34880
X10657Y32782
X7992Y33125
X5949Y32880
X5949Y33880
X5949Y34880
X6725Y35844
X2949Y34880
X2949Y33880
X2949Y32880
X2949Y31880
X1157Y32782
X2425Y30063
X3699Y29880
X5199Y29880
X5949Y31880
X6725Y26344
X5949Y25380
X5949Y24380
X5949Y23380
X5949Y22380
X5199Y20380
X3699Y20380
X2425Y20563
X2949Y22380
X2949Y23380
X2949Y24380
X2949Y25380
X1157Y23282
X6725Y16844
X5949Y15880
X5949Y14880
X5949Y13880
X5949Y12880
X5199Y10880
X3699Y10880
X2425Y11063
X2949Y12880
X2949Y13880
X2949Y14880
X2949Y15880
X1157Y13782
X7992Y14125
X10657Y13782
X12449Y13880
X12449Y12880
X11925Y11063
X13199Y10880
X14699Y10880
X15449Y12880
X15449Y13880
X15449Y14880
X15449Y15880
X16225Y16844
X17492Y14125
X20157Y13782
X21949Y13880
X21949Y12880
X21425Y11063
X22699Y10880
X24199Y10880
X21949Y14880
X21949Y15880
X24949Y22380
X24949Y23380
X24949Y24380
X24949Y25380
X25725Y26344
X26992Y23625
X29657Y23282
X31449Y23380
X31449Y22380
X30925Y20563
X32199Y20380
X33699Y20380
X34449Y22380
X34449Y23380
X34449Y24380
X34449Y25380
X35225Y26344
X36492Y23625
X31449Y24380
X31449Y25380
X32199Y29880
X30925Y30063
X31449Y31880
X31449Y32880
X31449Y33880
X31449Y34880
X29657Y32782
X26992Y33125
X24949Y32880
X24949Y33880
X24949Y34880
X25725Y35844
X21949Y34880
X21949Y33880
X21949Y32880
X21949Y31880
X21425Y30063
X22699Y29880
X24199Y29880
X24949Y31880
X20157Y32782
X17492Y33125
X15449Y32880
X15449Y33880
X15449Y34880
X16225Y35844
X15449Y31880
X12449Y25380
X12449Y24380
X12449Y23380
X12449Y22380
X11925Y20563
X13199Y20380
X14699Y20380
X10657Y23282
X7992Y23625
X12449Y15880
X12449Y14880
X2949Y6380
X2949Y5380
X2949Y4380
X2949Y3380
X1157Y4282
X33699Y29880
X34449Y31880
X34449Y32880
X34449Y33880
X34449Y34880
X35225Y35844
X36492Y33125
X35225Y16844
X34449Y15880
X34449Y14880
X34449Y13880
X34449Y12880
X36492Y14125
T02
X35449Y13880
X35449Y10880
X35449Y4380
X35449Y1380
X25949Y1380
X25949Y4380
X25949Y10880
X25949Y13880
X25949Y20380
X25949Y23380
X25949Y29880
X25949Y32880
X16449Y32880
X16449Y29880
X16449Y23380
X16449Y20380
X16449Y13880
X16449Y10880
X16449Y4380
X16449Y1380
X6949Y1380
X6949Y4380
X6949Y10880
X6949Y13880
X6949Y20380
X6949Y23380
X6949Y29880
X6949Y32880
X35449Y32880
X35449Y29880
X35449Y23380
X35449Y20380
T03
X33449Y17280
X32449Y17280
X30114Y16202
X29906Y15224
X23949Y17280
X22949Y17280
X20614Y16202
X20406Y15224
X14449Y17280
X13449Y17280
X11114Y16202
X10906Y15224
X4949Y17280
X3949Y17280
X1614Y16202
X1406Y15224
X3949Y7780
X4949Y7780
X1614Y6702
X1406Y5724
X10906Y5724
X11114Y6702
X13449Y7780
X14449Y7780
X20614Y6702
X20406Y5724
X22949Y7780
X23949Y7780
X30114Y6702
X29906Y5724
X32449Y7780
X33449Y7780
X29906Y24724
X30114Y25702
X32449Y26780
X33449Y26780
X29906Y34224
X30114Y35202
X32449Y36280
X33449Y36280
X23949Y36280
X22949Y36280
X20614Y35202
X20406Y34224
X14449Y36280
X13449Y36280
X11114Y35202
X10906Y34224
X4949Y36280
X3949Y36280
X1614Y35202
X1406Y34224
X3949Y26780
X4949Y26780
X1614Y25702
X1406Y24724
X10906Y24724
X11114Y25702
X13449Y26780
X14449Y26780
X20614Y25702
X20406Y24724
X22949Y26780
X23949Y26780
M30
