G75*
%MOIN*%
%OFA0B0*%
%FSLAX25Y25*%
%IPPOS*%
%LPD*%
%AMOC8*
5,1,8,0,0,1.08239X$1,22.5*
%
%ADD10C,0.05200*%
%ADD11C,0.01320*%
%ADD12C,0.07400*%
%ADD13C,0.05937*%
%ADD14C,0.05543*%
%ADD15R,0.05543X0.05543*%
D10*
X0029487Y0033798D03*
X0029487Y0043798D03*
X0029487Y0053798D03*
X0029487Y0063798D03*
X0059487Y0063798D03*
X0059487Y0053798D03*
X0059487Y0043798D03*
X0059487Y0033798D03*
X0124487Y0033798D03*
X0124487Y0043798D03*
X0124487Y0053798D03*
X0124487Y0063798D03*
X0154487Y0063798D03*
X0154487Y0053798D03*
X0154487Y0043798D03*
X0154487Y0033798D03*
X0219487Y0033798D03*
X0219487Y0043798D03*
X0219487Y0053798D03*
X0219487Y0063798D03*
X0249487Y0063798D03*
X0249487Y0053798D03*
X0249487Y0043798D03*
X0249487Y0033798D03*
X0314487Y0033798D03*
X0314487Y0043798D03*
X0314487Y0053798D03*
X0314487Y0063798D03*
X0344487Y0063798D03*
X0344487Y0053798D03*
X0344487Y0043798D03*
X0344487Y0033798D03*
X0344487Y0128798D03*
X0344487Y0138798D03*
X0344487Y0148798D03*
X0344487Y0158798D03*
X0314487Y0158798D03*
X0314487Y0148798D03*
X0314487Y0138798D03*
X0314487Y0128798D03*
X0249487Y0128798D03*
X0249487Y0138798D03*
X0249487Y0148798D03*
X0249487Y0158798D03*
X0219487Y0158798D03*
X0219487Y0148798D03*
X0219487Y0138798D03*
X0219487Y0128798D03*
X0154487Y0128798D03*
X0154487Y0138798D03*
X0154487Y0148798D03*
X0154487Y0158798D03*
X0124487Y0158798D03*
X0124487Y0148798D03*
X0124487Y0138798D03*
X0124487Y0128798D03*
X0059487Y0128798D03*
X0059487Y0138798D03*
X0059487Y0148798D03*
X0059487Y0158798D03*
X0029487Y0158798D03*
X0029487Y0148798D03*
X0029487Y0138798D03*
X0029487Y0128798D03*
X0029487Y0223798D03*
X0029487Y0233798D03*
X0029487Y0243798D03*
X0029487Y0253798D03*
X0059487Y0253798D03*
X0059487Y0243798D03*
X0059487Y0233798D03*
X0059487Y0223798D03*
X0124487Y0223798D03*
X0124487Y0233798D03*
X0124487Y0243798D03*
X0124487Y0253798D03*
X0154487Y0253798D03*
X0154487Y0243798D03*
X0154487Y0233798D03*
X0154487Y0223798D03*
X0219487Y0223798D03*
X0219487Y0233798D03*
X0219487Y0243798D03*
X0219487Y0253798D03*
X0249487Y0253798D03*
X0249487Y0243798D03*
X0249487Y0233798D03*
X0249487Y0223798D03*
X0314487Y0223798D03*
X0314487Y0233798D03*
X0314487Y0243798D03*
X0314487Y0253798D03*
X0344487Y0253798D03*
X0344487Y0243798D03*
X0344487Y0233798D03*
X0344487Y0223798D03*
X0344487Y0318798D03*
X0344487Y0328798D03*
X0344487Y0338798D03*
X0344487Y0348798D03*
X0314487Y0348798D03*
X0314487Y0338798D03*
X0314487Y0328798D03*
X0314487Y0318798D03*
X0249487Y0318798D03*
X0249487Y0328798D03*
X0249487Y0338798D03*
X0249487Y0348798D03*
X0219487Y0348798D03*
X0219487Y0338798D03*
X0219487Y0328798D03*
X0219487Y0318798D03*
X0154487Y0318798D03*
X0154487Y0328798D03*
X0154487Y0338798D03*
X0154487Y0348798D03*
X0124487Y0348798D03*
X0124487Y0338798D03*
X0124487Y0328798D03*
X0124487Y0318798D03*
X0059487Y0318798D03*
X0059487Y0328798D03*
X0059487Y0338798D03*
X0059487Y0348798D03*
X0029487Y0348798D03*
X0029487Y0338798D03*
X0029487Y0328798D03*
X0029487Y0318798D03*
D11*
X0024781Y0017827D02*
X0024121Y0018487D01*
X0026176Y0017739D01*
X0027100Y0015758D01*
X0026352Y0013703D01*
X0024371Y0012779D01*
X0022316Y0013527D01*
X0021392Y0015508D01*
X0022140Y0017563D01*
X0024121Y0018487D01*
X0024168Y0017417D01*
X0025452Y0016949D01*
X0026030Y0015711D01*
X0025562Y0014427D01*
X0024324Y0013849D01*
X0023040Y0014317D01*
X0022462Y0015555D01*
X0022930Y0016839D01*
X0024168Y0017417D01*
X0024215Y0016346D01*
X0024728Y0016159D01*
X0024959Y0015664D01*
X0024772Y0015151D01*
X0024277Y0014920D01*
X0023764Y0015107D01*
X0023533Y0015602D01*
X0023720Y0016115D01*
X0024215Y0016346D01*
X0012103Y0045016D02*
X0011443Y0045676D01*
X0013498Y0044928D01*
X0014422Y0042947D01*
X0013674Y0040892D01*
X0011693Y0039968D01*
X0009638Y0040716D01*
X0008714Y0042697D01*
X0009462Y0044752D01*
X0011443Y0045676D01*
X0011490Y0044606D01*
X0012774Y0044138D01*
X0013352Y0042900D01*
X0012884Y0041616D01*
X0011646Y0041038D01*
X0010362Y0041506D01*
X0009784Y0042744D01*
X0010252Y0044028D01*
X0011490Y0044606D01*
X0011537Y0043535D01*
X0012050Y0043348D01*
X0012281Y0042853D01*
X0012094Y0042340D01*
X0011599Y0042109D01*
X0011086Y0042296D01*
X0010855Y0042791D01*
X0011042Y0043304D01*
X0011537Y0043535D01*
X0067781Y0075637D02*
X0067121Y0076297D01*
X0069176Y0075549D01*
X0070100Y0073568D01*
X0069352Y0071513D01*
X0067371Y0070589D01*
X0065316Y0071337D01*
X0064392Y0073318D01*
X0065140Y0075373D01*
X0067121Y0076297D01*
X0067168Y0075227D01*
X0068452Y0074759D01*
X0069030Y0073521D01*
X0068562Y0072237D01*
X0067324Y0071659D01*
X0066040Y0072127D01*
X0065462Y0073365D01*
X0065930Y0074649D01*
X0067168Y0075227D01*
X0067215Y0074156D01*
X0067728Y0073969D01*
X0067959Y0073474D01*
X0067772Y0072961D01*
X0067277Y0072730D01*
X0066764Y0072917D01*
X0066533Y0073412D01*
X0066720Y0073925D01*
X0067215Y0074156D01*
X0080459Y0048448D02*
X0079799Y0049108D01*
X0081854Y0048360D01*
X0082778Y0046379D01*
X0082030Y0044324D01*
X0080049Y0043400D01*
X0077994Y0044148D01*
X0077070Y0046129D01*
X0077818Y0048184D01*
X0079799Y0049108D01*
X0079846Y0048038D01*
X0081130Y0047570D01*
X0081708Y0046332D01*
X0081240Y0045048D01*
X0080002Y0044470D01*
X0078718Y0044938D01*
X0078140Y0046176D01*
X0078608Y0047460D01*
X0079846Y0048038D01*
X0079893Y0046967D01*
X0080406Y0046780D01*
X0080637Y0046285D01*
X0080450Y0045772D01*
X0079955Y0045541D01*
X0079442Y0045728D01*
X0079211Y0046223D01*
X0079398Y0046736D01*
X0079893Y0046967D01*
X0107103Y0045016D02*
X0106443Y0045676D01*
X0108498Y0044928D01*
X0109422Y0042947D01*
X0108674Y0040892D01*
X0106693Y0039968D01*
X0104638Y0040716D01*
X0103714Y0042697D01*
X0104462Y0044752D01*
X0106443Y0045676D01*
X0106490Y0044606D01*
X0107774Y0044138D01*
X0108352Y0042900D01*
X0107884Y0041616D01*
X0106646Y0041038D01*
X0105362Y0041506D01*
X0104784Y0042744D01*
X0105252Y0044028D01*
X0106490Y0044606D01*
X0106537Y0043535D01*
X0107050Y0043348D01*
X0107281Y0042853D01*
X0107094Y0042340D01*
X0106599Y0042109D01*
X0106086Y0042296D01*
X0105855Y0042791D01*
X0106042Y0043304D01*
X0106537Y0043535D01*
X0119781Y0017827D02*
X0119121Y0018487D01*
X0121176Y0017739D01*
X0122100Y0015758D01*
X0121352Y0013703D01*
X0119371Y0012779D01*
X0117316Y0013527D01*
X0116392Y0015508D01*
X0117140Y0017563D01*
X0119121Y0018487D01*
X0119168Y0017417D01*
X0120452Y0016949D01*
X0121030Y0015711D01*
X0120562Y0014427D01*
X0119324Y0013849D01*
X0118040Y0014317D01*
X0117462Y0015555D01*
X0117930Y0016839D01*
X0119168Y0017417D01*
X0119215Y0016346D01*
X0119728Y0016159D01*
X0119959Y0015664D01*
X0119772Y0015151D01*
X0119277Y0014920D01*
X0118764Y0015107D01*
X0118533Y0015602D01*
X0118720Y0016115D01*
X0119215Y0016346D01*
X0175459Y0048448D02*
X0174799Y0049108D01*
X0176854Y0048360D01*
X0177778Y0046379D01*
X0177030Y0044324D01*
X0175049Y0043400D01*
X0172994Y0044148D01*
X0172070Y0046129D01*
X0172818Y0048184D01*
X0174799Y0049108D01*
X0174846Y0048038D01*
X0176130Y0047570D01*
X0176708Y0046332D01*
X0176240Y0045048D01*
X0175002Y0044470D01*
X0173718Y0044938D01*
X0173140Y0046176D01*
X0173608Y0047460D01*
X0174846Y0048038D01*
X0174893Y0046967D01*
X0175406Y0046780D01*
X0175637Y0046285D01*
X0175450Y0045772D01*
X0174955Y0045541D01*
X0174442Y0045728D01*
X0174211Y0046223D01*
X0174398Y0046736D01*
X0174893Y0046967D01*
X0202103Y0045016D02*
X0201443Y0045676D01*
X0203498Y0044928D01*
X0204422Y0042947D01*
X0203674Y0040892D01*
X0201693Y0039968D01*
X0199638Y0040716D01*
X0198714Y0042697D01*
X0199462Y0044752D01*
X0201443Y0045676D01*
X0201490Y0044606D01*
X0202774Y0044138D01*
X0203352Y0042900D01*
X0202884Y0041616D01*
X0201646Y0041038D01*
X0200362Y0041506D01*
X0199784Y0042744D01*
X0200252Y0044028D01*
X0201490Y0044606D01*
X0201537Y0043535D01*
X0202050Y0043348D01*
X0202281Y0042853D01*
X0202094Y0042340D01*
X0201599Y0042109D01*
X0201086Y0042296D01*
X0200855Y0042791D01*
X0201042Y0043304D01*
X0201537Y0043535D01*
X0214781Y0017827D02*
X0214121Y0018487D01*
X0216176Y0017739D01*
X0217100Y0015758D01*
X0216352Y0013703D01*
X0214371Y0012779D01*
X0212316Y0013527D01*
X0211392Y0015508D01*
X0212140Y0017563D01*
X0214121Y0018487D01*
X0214168Y0017417D01*
X0215452Y0016949D01*
X0216030Y0015711D01*
X0215562Y0014427D01*
X0214324Y0013849D01*
X0213040Y0014317D01*
X0212462Y0015555D01*
X0212930Y0016839D01*
X0214168Y0017417D01*
X0214215Y0016346D01*
X0214728Y0016159D01*
X0214959Y0015664D01*
X0214772Y0015151D01*
X0214277Y0014920D01*
X0213764Y0015107D01*
X0213533Y0015602D01*
X0213720Y0016115D01*
X0214215Y0016346D01*
X0270459Y0048448D02*
X0269799Y0049108D01*
X0271854Y0048360D01*
X0272778Y0046379D01*
X0272030Y0044324D01*
X0270049Y0043400D01*
X0267994Y0044148D01*
X0267070Y0046129D01*
X0267818Y0048184D01*
X0269799Y0049108D01*
X0269846Y0048038D01*
X0271130Y0047570D01*
X0271708Y0046332D01*
X0271240Y0045048D01*
X0270002Y0044470D01*
X0268718Y0044938D01*
X0268140Y0046176D01*
X0268608Y0047460D01*
X0269846Y0048038D01*
X0269893Y0046967D01*
X0270406Y0046780D01*
X0270637Y0046285D01*
X0270450Y0045772D01*
X0269955Y0045541D01*
X0269442Y0045728D01*
X0269211Y0046223D01*
X0269398Y0046736D01*
X0269893Y0046967D01*
X0297103Y0045016D02*
X0296443Y0045676D01*
X0298498Y0044928D01*
X0299422Y0042947D01*
X0298674Y0040892D01*
X0296693Y0039968D01*
X0294638Y0040716D01*
X0293714Y0042697D01*
X0294462Y0044752D01*
X0296443Y0045676D01*
X0296490Y0044606D01*
X0297774Y0044138D01*
X0298352Y0042900D01*
X0297884Y0041616D01*
X0296646Y0041038D01*
X0295362Y0041506D01*
X0294784Y0042744D01*
X0295252Y0044028D01*
X0296490Y0044606D01*
X0296537Y0043535D01*
X0297050Y0043348D01*
X0297281Y0042853D01*
X0297094Y0042340D01*
X0296599Y0042109D01*
X0296086Y0042296D01*
X0295855Y0042791D01*
X0296042Y0043304D01*
X0296537Y0043535D01*
X0309781Y0017827D02*
X0309121Y0018487D01*
X0311176Y0017739D01*
X0312100Y0015758D01*
X0311352Y0013703D01*
X0309371Y0012779D01*
X0307316Y0013527D01*
X0306392Y0015508D01*
X0307140Y0017563D01*
X0309121Y0018487D01*
X0309168Y0017417D01*
X0310452Y0016949D01*
X0311030Y0015711D01*
X0310562Y0014427D01*
X0309324Y0013849D01*
X0308040Y0014317D01*
X0307462Y0015555D01*
X0307930Y0016839D01*
X0309168Y0017417D01*
X0309215Y0016346D01*
X0309728Y0016159D01*
X0309959Y0015664D01*
X0309772Y0015151D01*
X0309277Y0014920D01*
X0308764Y0015107D01*
X0308533Y0015602D01*
X0308720Y0016115D01*
X0309215Y0016346D01*
X0365459Y0048448D02*
X0364799Y0049108D01*
X0366854Y0048360D01*
X0367778Y0046379D01*
X0367030Y0044324D01*
X0365049Y0043400D01*
X0362994Y0044148D01*
X0362070Y0046129D01*
X0362818Y0048184D01*
X0364799Y0049108D01*
X0364846Y0048038D01*
X0366130Y0047570D01*
X0366708Y0046332D01*
X0366240Y0045048D01*
X0365002Y0044470D01*
X0363718Y0044938D01*
X0363140Y0046176D01*
X0363608Y0047460D01*
X0364846Y0048038D01*
X0364893Y0046967D01*
X0365406Y0046780D01*
X0365637Y0046285D01*
X0365450Y0045772D01*
X0364955Y0045541D01*
X0364442Y0045728D01*
X0364211Y0046223D01*
X0364398Y0046736D01*
X0364893Y0046967D01*
X0352781Y0075637D02*
X0352121Y0076297D01*
X0354176Y0075549D01*
X0355100Y0073568D01*
X0354352Y0071513D01*
X0352371Y0070589D01*
X0350316Y0071337D01*
X0349392Y0073318D01*
X0350140Y0075373D01*
X0352121Y0076297D01*
X0352168Y0075227D01*
X0353452Y0074759D01*
X0354030Y0073521D01*
X0353562Y0072237D01*
X0352324Y0071659D01*
X0351040Y0072127D01*
X0350462Y0073365D01*
X0350930Y0074649D01*
X0352168Y0075227D01*
X0352215Y0074156D01*
X0352728Y0073969D01*
X0352959Y0073474D01*
X0352772Y0072961D01*
X0352277Y0072730D01*
X0351764Y0072917D01*
X0351533Y0073412D01*
X0351720Y0073925D01*
X0352215Y0074156D01*
X0309781Y0112827D02*
X0309121Y0113487D01*
X0311176Y0112739D01*
X0312100Y0110758D01*
X0311352Y0108703D01*
X0309371Y0107779D01*
X0307316Y0108527D01*
X0306392Y0110508D01*
X0307140Y0112563D01*
X0309121Y0113487D01*
X0309168Y0112417D01*
X0310452Y0111949D01*
X0311030Y0110711D01*
X0310562Y0109427D01*
X0309324Y0108849D01*
X0308040Y0109317D01*
X0307462Y0110555D01*
X0307930Y0111839D01*
X0309168Y0112417D01*
X0309215Y0111346D01*
X0309728Y0111159D01*
X0309959Y0110664D01*
X0309772Y0110151D01*
X0309277Y0109920D01*
X0308764Y0110107D01*
X0308533Y0110602D01*
X0308720Y0111115D01*
X0309215Y0111346D01*
X0297103Y0140016D02*
X0296443Y0140676D01*
X0298498Y0139928D01*
X0299422Y0137947D01*
X0298674Y0135892D01*
X0296693Y0134968D01*
X0294638Y0135716D01*
X0293714Y0137697D01*
X0294462Y0139752D01*
X0296443Y0140676D01*
X0296490Y0139606D01*
X0297774Y0139138D01*
X0298352Y0137900D01*
X0297884Y0136616D01*
X0296646Y0136038D01*
X0295362Y0136506D01*
X0294784Y0137744D01*
X0295252Y0139028D01*
X0296490Y0139606D01*
X0296537Y0138535D01*
X0297050Y0138348D01*
X0297281Y0137853D01*
X0297094Y0137340D01*
X0296599Y0137109D01*
X0296086Y0137296D01*
X0295855Y0137791D01*
X0296042Y0138304D01*
X0296537Y0138535D01*
X0270459Y0143448D02*
X0269799Y0144108D01*
X0271854Y0143360D01*
X0272778Y0141379D01*
X0272030Y0139324D01*
X0270049Y0138400D01*
X0267994Y0139148D01*
X0267070Y0141129D01*
X0267818Y0143184D01*
X0269799Y0144108D01*
X0269846Y0143038D01*
X0271130Y0142570D01*
X0271708Y0141332D01*
X0271240Y0140048D01*
X0270002Y0139470D01*
X0268718Y0139938D01*
X0268140Y0141176D01*
X0268608Y0142460D01*
X0269846Y0143038D01*
X0269893Y0141967D01*
X0270406Y0141780D01*
X0270637Y0141285D01*
X0270450Y0140772D01*
X0269955Y0140541D01*
X0269442Y0140728D01*
X0269211Y0141223D01*
X0269398Y0141736D01*
X0269893Y0141967D01*
X0257781Y0170637D02*
X0257121Y0171297D01*
X0259176Y0170549D01*
X0260100Y0168568D01*
X0259352Y0166513D01*
X0257371Y0165589D01*
X0255316Y0166337D01*
X0254392Y0168318D01*
X0255140Y0170373D01*
X0257121Y0171297D01*
X0257168Y0170227D01*
X0258452Y0169759D01*
X0259030Y0168521D01*
X0258562Y0167237D01*
X0257324Y0166659D01*
X0256040Y0167127D01*
X0255462Y0168365D01*
X0255930Y0169649D01*
X0257168Y0170227D01*
X0257215Y0169156D01*
X0257728Y0168969D01*
X0257959Y0168474D01*
X0257772Y0167961D01*
X0257277Y0167730D01*
X0256764Y0167917D01*
X0256533Y0168412D01*
X0256720Y0168925D01*
X0257215Y0169156D01*
X0214781Y0207827D02*
X0214121Y0208487D01*
X0216176Y0207739D01*
X0217100Y0205758D01*
X0216352Y0203703D01*
X0214371Y0202779D01*
X0212316Y0203527D01*
X0211392Y0205508D01*
X0212140Y0207563D01*
X0214121Y0208487D01*
X0214168Y0207417D01*
X0215452Y0206949D01*
X0216030Y0205711D01*
X0215562Y0204427D01*
X0214324Y0203849D01*
X0213040Y0204317D01*
X0212462Y0205555D01*
X0212930Y0206839D01*
X0214168Y0207417D01*
X0214215Y0206346D01*
X0214728Y0206159D01*
X0214959Y0205664D01*
X0214772Y0205151D01*
X0214277Y0204920D01*
X0213764Y0205107D01*
X0213533Y0205602D01*
X0213720Y0206115D01*
X0214215Y0206346D01*
X0202103Y0235016D02*
X0201443Y0235676D01*
X0203498Y0234928D01*
X0204422Y0232947D01*
X0203674Y0230892D01*
X0201693Y0229968D01*
X0199638Y0230716D01*
X0198714Y0232697D01*
X0199462Y0234752D01*
X0201443Y0235676D01*
X0201490Y0234606D01*
X0202774Y0234138D01*
X0203352Y0232900D01*
X0202884Y0231616D01*
X0201646Y0231038D01*
X0200362Y0231506D01*
X0199784Y0232744D01*
X0200252Y0234028D01*
X0201490Y0234606D01*
X0201537Y0233535D01*
X0202050Y0233348D01*
X0202281Y0232853D01*
X0202094Y0232340D01*
X0201599Y0232109D01*
X0201086Y0232296D01*
X0200855Y0232791D01*
X0201042Y0233304D01*
X0201537Y0233535D01*
X0175459Y0238448D02*
X0174799Y0239108D01*
X0176854Y0238360D01*
X0177778Y0236379D01*
X0177030Y0234324D01*
X0175049Y0233400D01*
X0172994Y0234148D01*
X0172070Y0236129D01*
X0172818Y0238184D01*
X0174799Y0239108D01*
X0174846Y0238038D01*
X0176130Y0237570D01*
X0176708Y0236332D01*
X0176240Y0235048D01*
X0175002Y0234470D01*
X0173718Y0234938D01*
X0173140Y0236176D01*
X0173608Y0237460D01*
X0174846Y0238038D01*
X0174893Y0236967D01*
X0175406Y0236780D01*
X0175637Y0236285D01*
X0175450Y0235772D01*
X0174955Y0235541D01*
X0174442Y0235728D01*
X0174211Y0236223D01*
X0174398Y0236736D01*
X0174893Y0236967D01*
X0162781Y0265637D02*
X0162121Y0266297D01*
X0164176Y0265549D01*
X0165100Y0263568D01*
X0164352Y0261513D01*
X0162371Y0260589D01*
X0160316Y0261337D01*
X0159392Y0263318D01*
X0160140Y0265373D01*
X0162121Y0266297D01*
X0162168Y0265227D01*
X0163452Y0264759D01*
X0164030Y0263521D01*
X0163562Y0262237D01*
X0162324Y0261659D01*
X0161040Y0262127D01*
X0160462Y0263365D01*
X0160930Y0264649D01*
X0162168Y0265227D01*
X0162215Y0264156D01*
X0162728Y0263969D01*
X0162959Y0263474D01*
X0162772Y0262961D01*
X0162277Y0262730D01*
X0161764Y0262917D01*
X0161533Y0263412D01*
X0161720Y0263925D01*
X0162215Y0264156D01*
X0119781Y0302827D02*
X0119121Y0303487D01*
X0121176Y0302739D01*
X0122100Y0300758D01*
X0121352Y0298703D01*
X0119371Y0297779D01*
X0117316Y0298527D01*
X0116392Y0300508D01*
X0117140Y0302563D01*
X0119121Y0303487D01*
X0119168Y0302417D01*
X0120452Y0301949D01*
X0121030Y0300711D01*
X0120562Y0299427D01*
X0119324Y0298849D01*
X0118040Y0299317D01*
X0117462Y0300555D01*
X0117930Y0301839D01*
X0119168Y0302417D01*
X0119215Y0301346D01*
X0119728Y0301159D01*
X0119959Y0300664D01*
X0119772Y0300151D01*
X0119277Y0299920D01*
X0118764Y0300107D01*
X0118533Y0300602D01*
X0118720Y0301115D01*
X0119215Y0301346D01*
X0107103Y0330016D02*
X0106443Y0330676D01*
X0108498Y0329928D01*
X0109422Y0327947D01*
X0108674Y0325892D01*
X0106693Y0324968D01*
X0104638Y0325716D01*
X0103714Y0327697D01*
X0104462Y0329752D01*
X0106443Y0330676D01*
X0106490Y0329606D01*
X0107774Y0329138D01*
X0108352Y0327900D01*
X0107884Y0326616D01*
X0106646Y0326038D01*
X0105362Y0326506D01*
X0104784Y0327744D01*
X0105252Y0329028D01*
X0106490Y0329606D01*
X0106537Y0328535D01*
X0107050Y0328348D01*
X0107281Y0327853D01*
X0107094Y0327340D01*
X0106599Y0327109D01*
X0106086Y0327296D01*
X0105855Y0327791D01*
X0106042Y0328304D01*
X0106537Y0328535D01*
X0080459Y0333448D02*
X0079799Y0334108D01*
X0081854Y0333360D01*
X0082778Y0331379D01*
X0082030Y0329324D01*
X0080049Y0328400D01*
X0077994Y0329148D01*
X0077070Y0331129D01*
X0077818Y0333184D01*
X0079799Y0334108D01*
X0079846Y0333038D01*
X0081130Y0332570D01*
X0081708Y0331332D01*
X0081240Y0330048D01*
X0080002Y0329470D01*
X0078718Y0329938D01*
X0078140Y0331176D01*
X0078608Y0332460D01*
X0079846Y0333038D01*
X0079893Y0331967D01*
X0080406Y0331780D01*
X0080637Y0331285D01*
X0080450Y0330772D01*
X0079955Y0330541D01*
X0079442Y0330728D01*
X0079211Y0331223D01*
X0079398Y0331736D01*
X0079893Y0331967D01*
X0067781Y0360637D02*
X0067121Y0361297D01*
X0069176Y0360549D01*
X0070100Y0358568D01*
X0069352Y0356513D01*
X0067371Y0355589D01*
X0065316Y0356337D01*
X0064392Y0358318D01*
X0065140Y0360373D01*
X0067121Y0361297D01*
X0067168Y0360227D01*
X0068452Y0359759D01*
X0069030Y0358521D01*
X0068562Y0357237D01*
X0067324Y0356659D01*
X0066040Y0357127D01*
X0065462Y0358365D01*
X0065930Y0359649D01*
X0067168Y0360227D01*
X0067215Y0359156D01*
X0067728Y0358969D01*
X0067959Y0358474D01*
X0067772Y0357961D01*
X0067277Y0357730D01*
X0066764Y0357917D01*
X0066533Y0358412D01*
X0066720Y0358925D01*
X0067215Y0359156D01*
X0012103Y0330016D02*
X0011443Y0330676D01*
X0013498Y0329928D01*
X0014422Y0327947D01*
X0013674Y0325892D01*
X0011693Y0324968D01*
X0009638Y0325716D01*
X0008714Y0327697D01*
X0009462Y0329752D01*
X0011443Y0330676D01*
X0011490Y0329606D01*
X0012774Y0329138D01*
X0013352Y0327900D01*
X0012884Y0326616D01*
X0011646Y0326038D01*
X0010362Y0326506D01*
X0009784Y0327744D01*
X0010252Y0329028D01*
X0011490Y0329606D01*
X0011537Y0328535D01*
X0012050Y0328348D01*
X0012281Y0327853D01*
X0012094Y0327340D01*
X0011599Y0327109D01*
X0011086Y0327296D01*
X0010855Y0327791D01*
X0011042Y0328304D01*
X0011537Y0328535D01*
X0024781Y0302827D02*
X0024121Y0303487D01*
X0026176Y0302739D01*
X0027100Y0300758D01*
X0026352Y0298703D01*
X0024371Y0297779D01*
X0022316Y0298527D01*
X0021392Y0300508D01*
X0022140Y0302563D01*
X0024121Y0303487D01*
X0024168Y0302417D01*
X0025452Y0301949D01*
X0026030Y0300711D01*
X0025562Y0299427D01*
X0024324Y0298849D01*
X0023040Y0299317D01*
X0022462Y0300555D01*
X0022930Y0301839D01*
X0024168Y0302417D01*
X0024215Y0301346D01*
X0024728Y0301159D01*
X0024959Y0300664D01*
X0024772Y0300151D01*
X0024277Y0299920D01*
X0023764Y0300107D01*
X0023533Y0300602D01*
X0023720Y0301115D01*
X0024215Y0301346D01*
X0067781Y0265637D02*
X0067121Y0266297D01*
X0069176Y0265549D01*
X0070100Y0263568D01*
X0069352Y0261513D01*
X0067371Y0260589D01*
X0065316Y0261337D01*
X0064392Y0263318D01*
X0065140Y0265373D01*
X0067121Y0266297D01*
X0067168Y0265227D01*
X0068452Y0264759D01*
X0069030Y0263521D01*
X0068562Y0262237D01*
X0067324Y0261659D01*
X0066040Y0262127D01*
X0065462Y0263365D01*
X0065930Y0264649D01*
X0067168Y0265227D01*
X0067215Y0264156D01*
X0067728Y0263969D01*
X0067959Y0263474D01*
X0067772Y0262961D01*
X0067277Y0262730D01*
X0066764Y0262917D01*
X0066533Y0263412D01*
X0066720Y0263925D01*
X0067215Y0264156D01*
X0080459Y0238448D02*
X0079799Y0239108D01*
X0081854Y0238360D01*
X0082778Y0236379D01*
X0082030Y0234324D01*
X0080049Y0233400D01*
X0077994Y0234148D01*
X0077070Y0236129D01*
X0077818Y0238184D01*
X0079799Y0239108D01*
X0079846Y0238038D01*
X0081130Y0237570D01*
X0081708Y0236332D01*
X0081240Y0235048D01*
X0080002Y0234470D01*
X0078718Y0234938D01*
X0078140Y0236176D01*
X0078608Y0237460D01*
X0079846Y0238038D01*
X0079893Y0236967D01*
X0080406Y0236780D01*
X0080637Y0236285D01*
X0080450Y0235772D01*
X0079955Y0235541D01*
X0079442Y0235728D01*
X0079211Y0236223D01*
X0079398Y0236736D01*
X0079893Y0236967D01*
X0107103Y0235016D02*
X0106443Y0235676D01*
X0108498Y0234928D01*
X0109422Y0232947D01*
X0108674Y0230892D01*
X0106693Y0229968D01*
X0104638Y0230716D01*
X0103714Y0232697D01*
X0104462Y0234752D01*
X0106443Y0235676D01*
X0106490Y0234606D01*
X0107774Y0234138D01*
X0108352Y0232900D01*
X0107884Y0231616D01*
X0106646Y0231038D01*
X0105362Y0231506D01*
X0104784Y0232744D01*
X0105252Y0234028D01*
X0106490Y0234606D01*
X0106537Y0233535D01*
X0107050Y0233348D01*
X0107281Y0232853D01*
X0107094Y0232340D01*
X0106599Y0232109D01*
X0106086Y0232296D01*
X0105855Y0232791D01*
X0106042Y0233304D01*
X0106537Y0233535D01*
X0119781Y0207827D02*
X0119121Y0208487D01*
X0121176Y0207739D01*
X0122100Y0205758D01*
X0121352Y0203703D01*
X0119371Y0202779D01*
X0117316Y0203527D01*
X0116392Y0205508D01*
X0117140Y0207563D01*
X0119121Y0208487D01*
X0119168Y0207417D01*
X0120452Y0206949D01*
X0121030Y0205711D01*
X0120562Y0204427D01*
X0119324Y0203849D01*
X0118040Y0204317D01*
X0117462Y0205555D01*
X0117930Y0206839D01*
X0119168Y0207417D01*
X0119215Y0206346D01*
X0119728Y0206159D01*
X0119959Y0205664D01*
X0119772Y0205151D01*
X0119277Y0204920D01*
X0118764Y0205107D01*
X0118533Y0205602D01*
X0118720Y0206115D01*
X0119215Y0206346D01*
X0162781Y0170637D02*
X0162121Y0171297D01*
X0164176Y0170549D01*
X0165100Y0168568D01*
X0164352Y0166513D01*
X0162371Y0165589D01*
X0160316Y0166337D01*
X0159392Y0168318D01*
X0160140Y0170373D01*
X0162121Y0171297D01*
X0162168Y0170227D01*
X0163452Y0169759D01*
X0164030Y0168521D01*
X0163562Y0167237D01*
X0162324Y0166659D01*
X0161040Y0167127D01*
X0160462Y0168365D01*
X0160930Y0169649D01*
X0162168Y0170227D01*
X0162215Y0169156D01*
X0162728Y0168969D01*
X0162959Y0168474D01*
X0162772Y0167961D01*
X0162277Y0167730D01*
X0161764Y0167917D01*
X0161533Y0168412D01*
X0161720Y0168925D01*
X0162215Y0169156D01*
X0175459Y0143448D02*
X0174799Y0144108D01*
X0176854Y0143360D01*
X0177778Y0141379D01*
X0177030Y0139324D01*
X0175049Y0138400D01*
X0172994Y0139148D01*
X0172070Y0141129D01*
X0172818Y0143184D01*
X0174799Y0144108D01*
X0174846Y0143038D01*
X0176130Y0142570D01*
X0176708Y0141332D01*
X0176240Y0140048D01*
X0175002Y0139470D01*
X0173718Y0139938D01*
X0173140Y0141176D01*
X0173608Y0142460D01*
X0174846Y0143038D01*
X0174893Y0141967D01*
X0175406Y0141780D01*
X0175637Y0141285D01*
X0175450Y0140772D01*
X0174955Y0140541D01*
X0174442Y0140728D01*
X0174211Y0141223D01*
X0174398Y0141736D01*
X0174893Y0141967D01*
X0202103Y0140016D02*
X0201443Y0140676D01*
X0203498Y0139928D01*
X0204422Y0137947D01*
X0203674Y0135892D01*
X0201693Y0134968D01*
X0199638Y0135716D01*
X0198714Y0137697D01*
X0199462Y0139752D01*
X0201443Y0140676D01*
X0201490Y0139606D01*
X0202774Y0139138D01*
X0203352Y0137900D01*
X0202884Y0136616D01*
X0201646Y0136038D01*
X0200362Y0136506D01*
X0199784Y0137744D01*
X0200252Y0139028D01*
X0201490Y0139606D01*
X0201537Y0138535D01*
X0202050Y0138348D01*
X0202281Y0137853D01*
X0202094Y0137340D01*
X0201599Y0137109D01*
X0201086Y0137296D01*
X0200855Y0137791D01*
X0201042Y0138304D01*
X0201537Y0138535D01*
X0214781Y0112827D02*
X0214121Y0113487D01*
X0216176Y0112739D01*
X0217100Y0110758D01*
X0216352Y0108703D01*
X0214371Y0107779D01*
X0212316Y0108527D01*
X0211392Y0110508D01*
X0212140Y0112563D01*
X0214121Y0113487D01*
X0214168Y0112417D01*
X0215452Y0111949D01*
X0216030Y0110711D01*
X0215562Y0109427D01*
X0214324Y0108849D01*
X0213040Y0109317D01*
X0212462Y0110555D01*
X0212930Y0111839D01*
X0214168Y0112417D01*
X0214215Y0111346D01*
X0214728Y0111159D01*
X0214959Y0110664D01*
X0214772Y0110151D01*
X0214277Y0109920D01*
X0213764Y0110107D01*
X0213533Y0110602D01*
X0213720Y0111115D01*
X0214215Y0111346D01*
X0257781Y0075637D02*
X0257121Y0076297D01*
X0259176Y0075549D01*
X0260100Y0073568D01*
X0259352Y0071513D01*
X0257371Y0070589D01*
X0255316Y0071337D01*
X0254392Y0073318D01*
X0255140Y0075373D01*
X0257121Y0076297D01*
X0257168Y0075227D01*
X0258452Y0074759D01*
X0259030Y0073521D01*
X0258562Y0072237D01*
X0257324Y0071659D01*
X0256040Y0072127D01*
X0255462Y0073365D01*
X0255930Y0074649D01*
X0257168Y0075227D01*
X0257215Y0074156D01*
X0257728Y0073969D01*
X0257959Y0073474D01*
X0257772Y0072961D01*
X0257277Y0072730D01*
X0256764Y0072917D01*
X0256533Y0073412D01*
X0256720Y0073925D01*
X0257215Y0074156D01*
X0162781Y0075637D02*
X0162121Y0076297D01*
X0164176Y0075549D01*
X0165100Y0073568D01*
X0164352Y0071513D01*
X0162371Y0070589D01*
X0160316Y0071337D01*
X0159392Y0073318D01*
X0160140Y0075373D01*
X0162121Y0076297D01*
X0162168Y0075227D01*
X0163452Y0074759D01*
X0164030Y0073521D01*
X0163562Y0072237D01*
X0162324Y0071659D01*
X0161040Y0072127D01*
X0160462Y0073365D01*
X0160930Y0074649D01*
X0162168Y0075227D01*
X0162215Y0074156D01*
X0162728Y0073969D01*
X0162959Y0073474D01*
X0162772Y0072961D01*
X0162277Y0072730D01*
X0161764Y0072917D01*
X0161533Y0073412D01*
X0161720Y0073925D01*
X0162215Y0074156D01*
X0119781Y0112827D02*
X0119121Y0113487D01*
X0121176Y0112739D01*
X0122100Y0110758D01*
X0121352Y0108703D01*
X0119371Y0107779D01*
X0117316Y0108527D01*
X0116392Y0110508D01*
X0117140Y0112563D01*
X0119121Y0113487D01*
X0119168Y0112417D01*
X0120452Y0111949D01*
X0121030Y0110711D01*
X0120562Y0109427D01*
X0119324Y0108849D01*
X0118040Y0109317D01*
X0117462Y0110555D01*
X0117930Y0111839D01*
X0119168Y0112417D01*
X0119215Y0111346D01*
X0119728Y0111159D01*
X0119959Y0110664D01*
X0119772Y0110151D01*
X0119277Y0109920D01*
X0118764Y0110107D01*
X0118533Y0110602D01*
X0118720Y0111115D01*
X0119215Y0111346D01*
X0107103Y0140016D02*
X0106443Y0140676D01*
X0108498Y0139928D01*
X0109422Y0137947D01*
X0108674Y0135892D01*
X0106693Y0134968D01*
X0104638Y0135716D01*
X0103714Y0137697D01*
X0104462Y0139752D01*
X0106443Y0140676D01*
X0106490Y0139606D01*
X0107774Y0139138D01*
X0108352Y0137900D01*
X0107884Y0136616D01*
X0106646Y0136038D01*
X0105362Y0136506D01*
X0104784Y0137744D01*
X0105252Y0139028D01*
X0106490Y0139606D01*
X0106537Y0138535D01*
X0107050Y0138348D01*
X0107281Y0137853D01*
X0107094Y0137340D01*
X0106599Y0137109D01*
X0106086Y0137296D01*
X0105855Y0137791D01*
X0106042Y0138304D01*
X0106537Y0138535D01*
X0080459Y0143448D02*
X0079799Y0144108D01*
X0081854Y0143360D01*
X0082778Y0141379D01*
X0082030Y0139324D01*
X0080049Y0138400D01*
X0077994Y0139148D01*
X0077070Y0141129D01*
X0077818Y0143184D01*
X0079799Y0144108D01*
X0079846Y0143038D01*
X0081130Y0142570D01*
X0081708Y0141332D01*
X0081240Y0140048D01*
X0080002Y0139470D01*
X0078718Y0139938D01*
X0078140Y0141176D01*
X0078608Y0142460D01*
X0079846Y0143038D01*
X0079893Y0141967D01*
X0080406Y0141780D01*
X0080637Y0141285D01*
X0080450Y0140772D01*
X0079955Y0140541D01*
X0079442Y0140728D01*
X0079211Y0141223D01*
X0079398Y0141736D01*
X0079893Y0141967D01*
X0067781Y0170637D02*
X0067121Y0171297D01*
X0069176Y0170549D01*
X0070100Y0168568D01*
X0069352Y0166513D01*
X0067371Y0165589D01*
X0065316Y0166337D01*
X0064392Y0168318D01*
X0065140Y0170373D01*
X0067121Y0171297D01*
X0067168Y0170227D01*
X0068452Y0169759D01*
X0069030Y0168521D01*
X0068562Y0167237D01*
X0067324Y0166659D01*
X0066040Y0167127D01*
X0065462Y0168365D01*
X0065930Y0169649D01*
X0067168Y0170227D01*
X0067215Y0169156D01*
X0067728Y0168969D01*
X0067959Y0168474D01*
X0067772Y0167961D01*
X0067277Y0167730D01*
X0066764Y0167917D01*
X0066533Y0168412D01*
X0066720Y0168925D01*
X0067215Y0169156D01*
X0024781Y0207827D02*
X0024121Y0208487D01*
X0026176Y0207739D01*
X0027100Y0205758D01*
X0026352Y0203703D01*
X0024371Y0202779D01*
X0022316Y0203527D01*
X0021392Y0205508D01*
X0022140Y0207563D01*
X0024121Y0208487D01*
X0024168Y0207417D01*
X0025452Y0206949D01*
X0026030Y0205711D01*
X0025562Y0204427D01*
X0024324Y0203849D01*
X0023040Y0204317D01*
X0022462Y0205555D01*
X0022930Y0206839D01*
X0024168Y0207417D01*
X0024215Y0206346D01*
X0024728Y0206159D01*
X0024959Y0205664D01*
X0024772Y0205151D01*
X0024277Y0204920D01*
X0023764Y0205107D01*
X0023533Y0205602D01*
X0023720Y0206115D01*
X0024215Y0206346D01*
X0012103Y0235016D02*
X0011443Y0235676D01*
X0013498Y0234928D01*
X0014422Y0232947D01*
X0013674Y0230892D01*
X0011693Y0229968D01*
X0009638Y0230716D01*
X0008714Y0232697D01*
X0009462Y0234752D01*
X0011443Y0235676D01*
X0011490Y0234606D01*
X0012774Y0234138D01*
X0013352Y0232900D01*
X0012884Y0231616D01*
X0011646Y0231038D01*
X0010362Y0231506D01*
X0009784Y0232744D01*
X0010252Y0234028D01*
X0011490Y0234606D01*
X0011537Y0233535D01*
X0012050Y0233348D01*
X0012281Y0232853D01*
X0012094Y0232340D01*
X0011599Y0232109D01*
X0011086Y0232296D01*
X0010855Y0232791D01*
X0011042Y0233304D01*
X0011537Y0233535D01*
X0012103Y0140016D02*
X0011443Y0140676D01*
X0013498Y0139928D01*
X0014422Y0137947D01*
X0013674Y0135892D01*
X0011693Y0134968D01*
X0009638Y0135716D01*
X0008714Y0137697D01*
X0009462Y0139752D01*
X0011443Y0140676D01*
X0011490Y0139606D01*
X0012774Y0139138D01*
X0013352Y0137900D01*
X0012884Y0136616D01*
X0011646Y0136038D01*
X0010362Y0136506D01*
X0009784Y0137744D01*
X0010252Y0139028D01*
X0011490Y0139606D01*
X0011537Y0138535D01*
X0012050Y0138348D01*
X0012281Y0137853D01*
X0012094Y0137340D01*
X0011599Y0137109D01*
X0011086Y0137296D01*
X0010855Y0137791D01*
X0011042Y0138304D01*
X0011537Y0138535D01*
X0024781Y0112827D02*
X0024121Y0113487D01*
X0026176Y0112739D01*
X0027100Y0110758D01*
X0026352Y0108703D01*
X0024371Y0107779D01*
X0022316Y0108527D01*
X0021392Y0110508D01*
X0022140Y0112563D01*
X0024121Y0113487D01*
X0024168Y0112417D01*
X0025452Y0111949D01*
X0026030Y0110711D01*
X0025562Y0109427D01*
X0024324Y0108849D01*
X0023040Y0109317D01*
X0022462Y0110555D01*
X0022930Y0111839D01*
X0024168Y0112417D01*
X0024215Y0111346D01*
X0024728Y0111159D01*
X0024959Y0110664D01*
X0024772Y0110151D01*
X0024277Y0109920D01*
X0023764Y0110107D01*
X0023533Y0110602D01*
X0023720Y0111115D01*
X0024215Y0111346D01*
X0214781Y0302827D02*
X0214121Y0303487D01*
X0216176Y0302739D01*
X0217100Y0300758D01*
X0216352Y0298703D01*
X0214371Y0297779D01*
X0212316Y0298527D01*
X0211392Y0300508D01*
X0212140Y0302563D01*
X0214121Y0303487D01*
X0214168Y0302417D01*
X0215452Y0301949D01*
X0216030Y0300711D01*
X0215562Y0299427D01*
X0214324Y0298849D01*
X0213040Y0299317D01*
X0212462Y0300555D01*
X0212930Y0301839D01*
X0214168Y0302417D01*
X0214215Y0301346D01*
X0214728Y0301159D01*
X0214959Y0300664D01*
X0214772Y0300151D01*
X0214277Y0299920D01*
X0213764Y0300107D01*
X0213533Y0300602D01*
X0213720Y0301115D01*
X0214215Y0301346D01*
X0202103Y0330016D02*
X0201443Y0330676D01*
X0203498Y0329928D01*
X0204422Y0327947D01*
X0203674Y0325892D01*
X0201693Y0324968D01*
X0199638Y0325716D01*
X0198714Y0327697D01*
X0199462Y0329752D01*
X0201443Y0330676D01*
X0201490Y0329606D01*
X0202774Y0329138D01*
X0203352Y0327900D01*
X0202884Y0326616D01*
X0201646Y0326038D01*
X0200362Y0326506D01*
X0199784Y0327744D01*
X0200252Y0329028D01*
X0201490Y0329606D01*
X0201537Y0328535D01*
X0202050Y0328348D01*
X0202281Y0327853D01*
X0202094Y0327340D01*
X0201599Y0327109D01*
X0201086Y0327296D01*
X0200855Y0327791D01*
X0201042Y0328304D01*
X0201537Y0328535D01*
X0175459Y0333448D02*
X0174799Y0334108D01*
X0176854Y0333360D01*
X0177778Y0331379D01*
X0177030Y0329324D01*
X0175049Y0328400D01*
X0172994Y0329148D01*
X0172070Y0331129D01*
X0172818Y0333184D01*
X0174799Y0334108D01*
X0174846Y0333038D01*
X0176130Y0332570D01*
X0176708Y0331332D01*
X0176240Y0330048D01*
X0175002Y0329470D01*
X0173718Y0329938D01*
X0173140Y0331176D01*
X0173608Y0332460D01*
X0174846Y0333038D01*
X0174893Y0331967D01*
X0175406Y0331780D01*
X0175637Y0331285D01*
X0175450Y0330772D01*
X0174955Y0330541D01*
X0174442Y0330728D01*
X0174211Y0331223D01*
X0174398Y0331736D01*
X0174893Y0331967D01*
X0162781Y0360637D02*
X0162121Y0361297D01*
X0164176Y0360549D01*
X0165100Y0358568D01*
X0164352Y0356513D01*
X0162371Y0355589D01*
X0160316Y0356337D01*
X0159392Y0358318D01*
X0160140Y0360373D01*
X0162121Y0361297D01*
X0162168Y0360227D01*
X0163452Y0359759D01*
X0164030Y0358521D01*
X0163562Y0357237D01*
X0162324Y0356659D01*
X0161040Y0357127D01*
X0160462Y0358365D01*
X0160930Y0359649D01*
X0162168Y0360227D01*
X0162215Y0359156D01*
X0162728Y0358969D01*
X0162959Y0358474D01*
X0162772Y0357961D01*
X0162277Y0357730D01*
X0161764Y0357917D01*
X0161533Y0358412D01*
X0161720Y0358925D01*
X0162215Y0359156D01*
X0257781Y0360637D02*
X0257121Y0361297D01*
X0259176Y0360549D01*
X0260100Y0358568D01*
X0259352Y0356513D01*
X0257371Y0355589D01*
X0255316Y0356337D01*
X0254392Y0358318D01*
X0255140Y0360373D01*
X0257121Y0361297D01*
X0257168Y0360227D01*
X0258452Y0359759D01*
X0259030Y0358521D01*
X0258562Y0357237D01*
X0257324Y0356659D01*
X0256040Y0357127D01*
X0255462Y0358365D01*
X0255930Y0359649D01*
X0257168Y0360227D01*
X0257215Y0359156D01*
X0257728Y0358969D01*
X0257959Y0358474D01*
X0257772Y0357961D01*
X0257277Y0357730D01*
X0256764Y0357917D01*
X0256533Y0358412D01*
X0256720Y0358925D01*
X0257215Y0359156D01*
X0270459Y0333448D02*
X0269799Y0334108D01*
X0271854Y0333360D01*
X0272778Y0331379D01*
X0272030Y0329324D01*
X0270049Y0328400D01*
X0267994Y0329148D01*
X0267070Y0331129D01*
X0267818Y0333184D01*
X0269799Y0334108D01*
X0269846Y0333038D01*
X0271130Y0332570D01*
X0271708Y0331332D01*
X0271240Y0330048D01*
X0270002Y0329470D01*
X0268718Y0329938D01*
X0268140Y0331176D01*
X0268608Y0332460D01*
X0269846Y0333038D01*
X0269893Y0331967D01*
X0270406Y0331780D01*
X0270637Y0331285D01*
X0270450Y0330772D01*
X0269955Y0330541D01*
X0269442Y0330728D01*
X0269211Y0331223D01*
X0269398Y0331736D01*
X0269893Y0331967D01*
X0297103Y0330016D02*
X0296443Y0330676D01*
X0298498Y0329928D01*
X0299422Y0327947D01*
X0298674Y0325892D01*
X0296693Y0324968D01*
X0294638Y0325716D01*
X0293714Y0327697D01*
X0294462Y0329752D01*
X0296443Y0330676D01*
X0296490Y0329606D01*
X0297774Y0329138D01*
X0298352Y0327900D01*
X0297884Y0326616D01*
X0296646Y0326038D01*
X0295362Y0326506D01*
X0294784Y0327744D01*
X0295252Y0329028D01*
X0296490Y0329606D01*
X0296537Y0328535D01*
X0297050Y0328348D01*
X0297281Y0327853D01*
X0297094Y0327340D01*
X0296599Y0327109D01*
X0296086Y0327296D01*
X0295855Y0327791D01*
X0296042Y0328304D01*
X0296537Y0328535D01*
X0309781Y0302827D02*
X0309121Y0303487D01*
X0311176Y0302739D01*
X0312100Y0300758D01*
X0311352Y0298703D01*
X0309371Y0297779D01*
X0307316Y0298527D01*
X0306392Y0300508D01*
X0307140Y0302563D01*
X0309121Y0303487D01*
X0309168Y0302417D01*
X0310452Y0301949D01*
X0311030Y0300711D01*
X0310562Y0299427D01*
X0309324Y0298849D01*
X0308040Y0299317D01*
X0307462Y0300555D01*
X0307930Y0301839D01*
X0309168Y0302417D01*
X0309215Y0301346D01*
X0309728Y0301159D01*
X0309959Y0300664D01*
X0309772Y0300151D01*
X0309277Y0299920D01*
X0308764Y0300107D01*
X0308533Y0300602D01*
X0308720Y0301115D01*
X0309215Y0301346D01*
X0352781Y0265637D02*
X0352121Y0266297D01*
X0354176Y0265549D01*
X0355100Y0263568D01*
X0354352Y0261513D01*
X0352371Y0260589D01*
X0350316Y0261337D01*
X0349392Y0263318D01*
X0350140Y0265373D01*
X0352121Y0266297D01*
X0352168Y0265227D01*
X0353452Y0264759D01*
X0354030Y0263521D01*
X0353562Y0262237D01*
X0352324Y0261659D01*
X0351040Y0262127D01*
X0350462Y0263365D01*
X0350930Y0264649D01*
X0352168Y0265227D01*
X0352215Y0264156D01*
X0352728Y0263969D01*
X0352959Y0263474D01*
X0352772Y0262961D01*
X0352277Y0262730D01*
X0351764Y0262917D01*
X0351533Y0263412D01*
X0351720Y0263925D01*
X0352215Y0264156D01*
X0365459Y0238448D02*
X0364799Y0239108D01*
X0366854Y0238360D01*
X0367778Y0236379D01*
X0367030Y0234324D01*
X0365049Y0233400D01*
X0362994Y0234148D01*
X0362070Y0236129D01*
X0362818Y0238184D01*
X0364799Y0239108D01*
X0364846Y0238038D01*
X0366130Y0237570D01*
X0366708Y0236332D01*
X0366240Y0235048D01*
X0365002Y0234470D01*
X0363718Y0234938D01*
X0363140Y0236176D01*
X0363608Y0237460D01*
X0364846Y0238038D01*
X0364893Y0236967D01*
X0365406Y0236780D01*
X0365637Y0236285D01*
X0365450Y0235772D01*
X0364955Y0235541D01*
X0364442Y0235728D01*
X0364211Y0236223D01*
X0364398Y0236736D01*
X0364893Y0236967D01*
X0309781Y0207827D02*
X0309121Y0208487D01*
X0311176Y0207739D01*
X0312100Y0205758D01*
X0311352Y0203703D01*
X0309371Y0202779D01*
X0307316Y0203527D01*
X0306392Y0205508D01*
X0307140Y0207563D01*
X0309121Y0208487D01*
X0309168Y0207417D01*
X0310452Y0206949D01*
X0311030Y0205711D01*
X0310562Y0204427D01*
X0309324Y0203849D01*
X0308040Y0204317D01*
X0307462Y0205555D01*
X0307930Y0206839D01*
X0309168Y0207417D01*
X0309215Y0206346D01*
X0309728Y0206159D01*
X0309959Y0205664D01*
X0309772Y0205151D01*
X0309277Y0204920D01*
X0308764Y0205107D01*
X0308533Y0205602D01*
X0308720Y0206115D01*
X0309215Y0206346D01*
X0297103Y0235016D02*
X0296443Y0235676D01*
X0298498Y0234928D01*
X0299422Y0232947D01*
X0298674Y0230892D01*
X0296693Y0229968D01*
X0294638Y0230716D01*
X0293714Y0232697D01*
X0294462Y0234752D01*
X0296443Y0235676D01*
X0296490Y0234606D01*
X0297774Y0234138D01*
X0298352Y0232900D01*
X0297884Y0231616D01*
X0296646Y0231038D01*
X0295362Y0231506D01*
X0294784Y0232744D01*
X0295252Y0234028D01*
X0296490Y0234606D01*
X0296537Y0233535D01*
X0297050Y0233348D01*
X0297281Y0232853D01*
X0297094Y0232340D01*
X0296599Y0232109D01*
X0296086Y0232296D01*
X0295855Y0232791D01*
X0296042Y0233304D01*
X0296537Y0233535D01*
X0270459Y0238448D02*
X0269799Y0239108D01*
X0271854Y0238360D01*
X0272778Y0236379D01*
X0272030Y0234324D01*
X0270049Y0233400D01*
X0267994Y0234148D01*
X0267070Y0236129D01*
X0267818Y0238184D01*
X0269799Y0239108D01*
X0269846Y0238038D01*
X0271130Y0237570D01*
X0271708Y0236332D01*
X0271240Y0235048D01*
X0270002Y0234470D01*
X0268718Y0234938D01*
X0268140Y0236176D01*
X0268608Y0237460D01*
X0269846Y0238038D01*
X0269893Y0236967D01*
X0270406Y0236780D01*
X0270637Y0236285D01*
X0270450Y0235772D01*
X0269955Y0235541D01*
X0269442Y0235728D01*
X0269211Y0236223D01*
X0269398Y0236736D01*
X0269893Y0236967D01*
X0257781Y0265637D02*
X0257121Y0266297D01*
X0259176Y0265549D01*
X0260100Y0263568D01*
X0259352Y0261513D01*
X0257371Y0260589D01*
X0255316Y0261337D01*
X0254392Y0263318D01*
X0255140Y0265373D01*
X0257121Y0266297D01*
X0257168Y0265227D01*
X0258452Y0264759D01*
X0259030Y0263521D01*
X0258562Y0262237D01*
X0257324Y0261659D01*
X0256040Y0262127D01*
X0255462Y0263365D01*
X0255930Y0264649D01*
X0257168Y0265227D01*
X0257215Y0264156D01*
X0257728Y0263969D01*
X0257959Y0263474D01*
X0257772Y0262961D01*
X0257277Y0262730D01*
X0256764Y0262917D01*
X0256533Y0263412D01*
X0256720Y0263925D01*
X0257215Y0264156D01*
X0352781Y0360637D02*
X0352121Y0361297D01*
X0354176Y0360549D01*
X0355100Y0358568D01*
X0354352Y0356513D01*
X0352371Y0355589D01*
X0350316Y0356337D01*
X0349392Y0358318D01*
X0350140Y0360373D01*
X0352121Y0361297D01*
X0352168Y0360227D01*
X0353452Y0359759D01*
X0354030Y0358521D01*
X0353562Y0357237D01*
X0352324Y0356659D01*
X0351040Y0357127D01*
X0350462Y0358365D01*
X0350930Y0359649D01*
X0352168Y0360227D01*
X0352215Y0359156D01*
X0352728Y0358969D01*
X0352959Y0358474D01*
X0352772Y0357961D01*
X0352277Y0357730D01*
X0351764Y0357917D01*
X0351533Y0358412D01*
X0351720Y0358925D01*
X0352215Y0359156D01*
X0365459Y0333448D02*
X0364799Y0334108D01*
X0366854Y0333360D01*
X0367778Y0331379D01*
X0367030Y0329324D01*
X0365049Y0328400D01*
X0362994Y0329148D01*
X0362070Y0331129D01*
X0362818Y0333184D01*
X0364799Y0334108D01*
X0364846Y0333038D01*
X0366130Y0332570D01*
X0366708Y0331332D01*
X0366240Y0330048D01*
X0365002Y0329470D01*
X0363718Y0329938D01*
X0363140Y0331176D01*
X0363608Y0332460D01*
X0364846Y0333038D01*
X0364893Y0331967D01*
X0365406Y0331780D01*
X0365637Y0331285D01*
X0365450Y0330772D01*
X0364955Y0330541D01*
X0364442Y0330728D01*
X0364211Y0331223D01*
X0364398Y0331736D01*
X0364893Y0331967D01*
X0352781Y0170637D02*
X0352121Y0171297D01*
X0354176Y0170549D01*
X0355100Y0168568D01*
X0354352Y0166513D01*
X0352371Y0165589D01*
X0350316Y0166337D01*
X0349392Y0168318D01*
X0350140Y0170373D01*
X0352121Y0171297D01*
X0352168Y0170227D01*
X0353452Y0169759D01*
X0354030Y0168521D01*
X0353562Y0167237D01*
X0352324Y0166659D01*
X0351040Y0167127D01*
X0350462Y0168365D01*
X0350930Y0169649D01*
X0352168Y0170227D01*
X0352215Y0169156D01*
X0352728Y0168969D01*
X0352959Y0168474D01*
X0352772Y0167961D01*
X0352277Y0167730D01*
X0351764Y0167917D01*
X0351533Y0168412D01*
X0351720Y0168925D01*
X0352215Y0169156D01*
X0365459Y0143448D02*
X0364799Y0144108D01*
X0366854Y0143360D01*
X0367778Y0141379D01*
X0367030Y0139324D01*
X0365049Y0138400D01*
X0362994Y0139148D01*
X0362070Y0141129D01*
X0362818Y0143184D01*
X0364799Y0144108D01*
X0364846Y0143038D01*
X0366130Y0142570D01*
X0366708Y0141332D01*
X0366240Y0140048D01*
X0365002Y0139470D01*
X0363718Y0139938D01*
X0363140Y0141176D01*
X0363608Y0142460D01*
X0364846Y0143038D01*
X0364893Y0141967D01*
X0365406Y0141780D01*
X0365637Y0141285D01*
X0365450Y0140772D01*
X0364955Y0140541D01*
X0364442Y0140728D01*
X0364211Y0141223D01*
X0364398Y0141736D01*
X0364893Y0141967D01*
D12*
X0336987Y0108798D03*
X0321987Y0108798D03*
X0241987Y0108798D03*
X0226987Y0108798D03*
X0146987Y0108798D03*
X0131987Y0108798D03*
X0051987Y0108798D03*
X0036987Y0108798D03*
X0036987Y0013798D03*
X0051987Y0013798D03*
X0131987Y0013798D03*
X0146987Y0013798D03*
X0226987Y0013798D03*
X0241987Y0013798D03*
X0321987Y0013798D03*
X0336987Y0013798D03*
X0336987Y0203798D03*
X0321987Y0203798D03*
X0241987Y0203798D03*
X0226987Y0203798D03*
X0146987Y0203798D03*
X0131987Y0203798D03*
X0051987Y0203798D03*
X0036987Y0203798D03*
X0036987Y0298798D03*
X0051987Y0298798D03*
X0131987Y0298798D03*
X0146987Y0298798D03*
X0226987Y0298798D03*
X0241987Y0298798D03*
X0321987Y0298798D03*
X0336987Y0298798D03*
D13*
X0334487Y0270767D02*
X0334487Y0264830D01*
X0324487Y0264830D02*
X0324487Y0270767D01*
X0304044Y0256404D02*
X0298237Y0257638D01*
X0296158Y0247857D02*
X0301965Y0246622D01*
X0239487Y0264830D02*
X0239487Y0270767D01*
X0229487Y0270767D02*
X0229487Y0264830D01*
X0209044Y0256404D02*
X0203237Y0257638D01*
X0201158Y0247857D02*
X0206965Y0246622D01*
X0144487Y0264830D02*
X0144487Y0270767D01*
X0134487Y0270767D02*
X0134487Y0264830D01*
X0114044Y0256404D02*
X0108237Y0257638D01*
X0106158Y0247857D02*
X0111965Y0246622D01*
X0049487Y0264830D02*
X0049487Y0270767D01*
X0039487Y0270767D02*
X0039487Y0264830D01*
X0019044Y0256404D02*
X0013237Y0257638D01*
X0011158Y0247857D02*
X0016965Y0246622D01*
X0039487Y0175767D02*
X0039487Y0169830D01*
X0049487Y0169830D02*
X0049487Y0175767D01*
X0019044Y0161404D02*
X0013237Y0162638D01*
X0011158Y0152857D02*
X0016965Y0151622D01*
X0039487Y0080767D02*
X0039487Y0074830D01*
X0049487Y0074830D02*
X0049487Y0080767D01*
X0019044Y0066404D02*
X0013237Y0067638D01*
X0011158Y0057857D02*
X0016965Y0056622D01*
X0106158Y0057857D02*
X0111965Y0056622D01*
X0114044Y0066404D02*
X0108237Y0067638D01*
X0134487Y0074830D02*
X0134487Y0080767D01*
X0144487Y0080767D02*
X0144487Y0074830D01*
X0201158Y0057857D02*
X0206965Y0056622D01*
X0209044Y0066404D02*
X0203237Y0067638D01*
X0229487Y0074830D02*
X0229487Y0080767D01*
X0239487Y0080767D02*
X0239487Y0074830D01*
X0296158Y0057857D02*
X0301965Y0056622D01*
X0304044Y0066404D02*
X0298237Y0067638D01*
X0324487Y0074830D02*
X0324487Y0080767D01*
X0334487Y0080767D02*
X0334487Y0074830D01*
X0301965Y0151622D02*
X0296158Y0152857D01*
X0298237Y0162638D02*
X0304044Y0161404D01*
X0324487Y0169830D02*
X0324487Y0175767D01*
X0334487Y0175767D02*
X0334487Y0169830D01*
X0239487Y0169830D02*
X0239487Y0175767D01*
X0229487Y0175767D02*
X0229487Y0169830D01*
X0209044Y0161404D02*
X0203237Y0162638D01*
X0201158Y0152857D02*
X0206965Y0151622D01*
X0144487Y0169830D02*
X0144487Y0175767D01*
X0134487Y0175767D02*
X0134487Y0169830D01*
X0114044Y0161404D02*
X0108237Y0162638D01*
X0106158Y0152857D02*
X0111965Y0151622D01*
X0111965Y0341622D02*
X0106158Y0342857D01*
X0108237Y0352638D02*
X0114044Y0351404D01*
X0134487Y0359830D02*
X0134487Y0365767D01*
X0144487Y0365767D02*
X0144487Y0359830D01*
X0201158Y0342857D02*
X0206965Y0341622D01*
X0209044Y0351404D02*
X0203237Y0352638D01*
X0229487Y0359830D02*
X0229487Y0365767D01*
X0239487Y0365767D02*
X0239487Y0359830D01*
X0296158Y0342857D02*
X0301965Y0341622D01*
X0304044Y0351404D02*
X0298237Y0352638D01*
X0324487Y0359830D02*
X0324487Y0365767D01*
X0334487Y0365767D02*
X0334487Y0359830D01*
X0049487Y0359830D02*
X0049487Y0365767D01*
X0039487Y0365767D02*
X0039487Y0359830D01*
X0019044Y0351404D02*
X0013237Y0352638D01*
X0011158Y0342857D02*
X0016965Y0341622D01*
D14*
X0069487Y0328798D03*
X0164487Y0328798D03*
X0259487Y0328798D03*
X0259487Y0233798D03*
X0259487Y0138798D03*
X0259487Y0043798D03*
X0164487Y0043798D03*
X0069487Y0043798D03*
X0069487Y0138798D03*
X0164487Y0138798D03*
X0164487Y0233798D03*
X0069487Y0233798D03*
X0354487Y0233798D03*
X0354487Y0138798D03*
X0354487Y0043798D03*
X0354487Y0328798D03*
D15*
X0354487Y0298798D03*
X0354487Y0203798D03*
X0354487Y0108798D03*
X0354487Y0013798D03*
X0259487Y0013798D03*
X0164487Y0013798D03*
X0069487Y0013798D03*
X0069487Y0108798D03*
X0164487Y0108798D03*
X0259487Y0108798D03*
X0259487Y0203798D03*
X0164487Y0203798D03*
X0069487Y0203798D03*
X0069487Y0298798D03*
X0164487Y0298798D03*
X0259487Y0298798D03*
M02*
