<svg xmlns="http://www.w3.org/2000/svg" xmlns:xlink="http://www.w3.org/1999/xlink" width="28.245mm" height="22.86mm" viewBox="-25.4 -81 111.2 90"><title></title><style type="text/css">
*[layerid="1"] {stroke:#FF0000;fill:#FF0000;}
*[layerid="2"] {stroke:#0000FF;fill:#0000FF;}
*[layerid="3"] {stroke:#FFFF00;fill:#FFFF00;}
*[layerid="4"] {stroke:#808000;fill:#808000;}
*[layerid="5"] {stroke:#808080;fill:#808080;}
*[layerid="6"] {stroke:#800000;fill:#800000;}
*[layerid="7"] {stroke:#800080;fill:#800080;}
*[layerid="8"] {stroke:#AA00FF;fill:#AA00FF;}
*[layerid="9"] {stroke:#6464FF;fill:#6464FF;}
*[layerid="10"] {stroke:#FF00FF;fill:#FF00FF;}
*[layerid="11"] {stroke:#C0C0C0;fill:#C0C0C0;}
*[layerid="12"] {stroke:#FFFFFF;fill:#FFFFFF;}
*[layerid="13"] {stroke:#33CC99;fill:#33CC99;}
*[layerid="14"] {stroke:#5555FF;fill:#5555FF;}
*[layerid="15"] {stroke:#F022F0;fill:#F022F0;}
*[layerid="21"] {stroke:#800000;fill:#800000;}
*[layerid="22"] {stroke:#008000;fill:#008000;}
*[layerid="23"] {stroke:#00FF00;fill:#00FF00;}
*[layerid="24"] {stroke:#000080;fill:#000080;}
*[layerid="25"] {stroke:#70DBFA;fill:#70DBFA;}
*[layerid="26"] {stroke:#00CC66;fill:#00CC66;}
*[layerid="27"] {stroke:#9966FF;fill:#9966FF;}
*[layerid="28"] {stroke:#800080;fill:#800080;}
*[layerid="29"] {stroke:#008080;fill:#008080;}
*[layerid="30"] {stroke:#15935F;fill:#15935F;}
*[layerid="31"] {stroke:#000080;fill:#000080;}
*[layerid="32"] {stroke:#00B400;fill:#00B400;}
*[layerid="33"] {stroke:#2E4736;fill:#2E4736;}
*[layerid="34"] {stroke:#99842F;fill:#99842F;}
*[layerid="35"] {stroke:#FFFFAA;fill:#FFFFAA;}
*[layerid="36"] {stroke:#99842F;fill:#99842F;}
*[layerid="37"] {stroke:#2E4736;fill:#2E4736;}
*[layerid="38"] {stroke:#3535FF;fill:#3535FF;}
*[layerid="39"] {stroke:#8000BC;fill:#8000BC;}
*[layerid="40"] {stroke:#43AE5F;fill:#43AE5F;}
*[layerid="41"] {stroke:#C3ECCE;fill:#C3ECCE;}
*[layerid="42"] {stroke:#728978;fill:#728978;}
*[layerid="43"] {stroke:#39503F;fill:#39503F;}
*[layerid="44"] {stroke:#0C715D;fill:#0C715D;}
*[layerid="45"] {stroke:#5A8A80;fill:#5A8A80;}
*[layerid="46"] {stroke:#2B937E;fill:#2B937E;}
*[layerid="47"] {stroke:#23999D;fill:#23999D;}
*[layerid="48"] {stroke:#45B4E3;fill:#45B4E3;}
*[layerid="49"] {stroke:#215DA1;fill:#215DA1;}
*[layerid="50"] {stroke:#4564D7;fill:#4564D7;}
*[layerid="51"] {stroke:#6969E9;fill:#6969E9;}
*[layerid="52"] {stroke:#9069E9;fill:#9069E9;}
*[fill="none"] {fill: none;}
*[stroke="none"] {stroke: none;}
path, polyline, polygon, line {stroke-linecap:round;}
g[c_partid="part_pad"][layerid="1"] ellipse:not([c_padid]) {fill:#FF0000;}
g[c_partid="part_pad"][layerid="1"]  polygon:not([c_padid]) {fill:#FF0000;}
g[c_partid="part_pad"][layerid="1"]  polyline:not([c_padid]) {stroke:#FF0000;}
g[c_partid="part_pad"][layerid="1"]  circle {fill:#FF0000;}
g[c_partid="part_pad"][layerid="2"]  ellipse:not([c_padid]) {fill:#0000FF;}
g[c_partid="part_pad"][layerid="2"]  polygon:not([c_padid]) {fill:#0000FF;}
g[c_partid="part_pad"][layerid="2"]  polyline:not([c_padid]) {stroke:#0000FF;}
g[c_partid="part_pad"][layerid="2"]  circle {fill:#0000FF;}
g[c_partid="part_pad"][layerid="11"]  ellipse:not([c_padid]) {fill:#C0C0C0;}
g[c_partid="part_pad"][layerid="11"]  polygon:not([c_padid]) {fill:#C0C0C0;}
g[c_partid="part_pad"][layerid="11"]  polyline:not([c_padid]) {stroke:#C0C0C0;}
g[c_partid="part_pad"][layerid="11"]  circle {fill:#C0C0C0;}
g[c_partid="part_pad"][layerid] > circle[c_padhole] {fill: #222222;}
g[c_partid="part_pad"][layerid] > polyline[c_padhole] {stroke:#222222;}
g[c_partid="part_via"][layerid] > * + circle {fill: #222222;}
g[c_partid="part_pad"] > polygon[c_padid] {stroke-linejoin: miter;stroke-miterlimit: 100;}
g[c_partid="part_hole"] > circle {fill: #222222;}path, polyline, polygon {stroke-linejoin:round;}
rect, circle, ellipse, polyline, line, polygon, path {shape-rendering:crispEdges;}
</style>
<rect x="-25.4" y="-81" width="111.2" height="90" fill="#000000" stroke="none"/><g id="g1" cpara="" c_transformList="" importFlag="0" xmlns="http://www.w3.org/2000/svg"><g xmlns="http://www.w3.org/2000/svg" c_origin="40.437,-28.748" c_para="package`SO08`value`LM741" c_partid="part_import_rep28" id="rep28" c_shapetype="group" c_etype="pinpart" layerid="1" c_rotation="270"><g c_partid="part_pcbtext" c_origin="32.94,-41.75" c_rotation="360" c_mirror="0" id="rep3" layerid="12" c_shapetype="group" ><path c_fontSize="5" c_fontFamily="" c_text="OPAMP" d="M 34.3 -44.48L33.85 -44.25 L33.39 -43.79 L33.16 -43.34 L32.94 -42.66 L32.94 -41.52 L33.16 -40.84 L33.39 -40.38 L33.85 -39.93 L34.3 -39.7 L35.21 -39.7 L35.66 -39.93 L36.12 -40.38 L36.35 -40.84 L36.57 -41.52 L36.57 -42.66 L36.35 -43.34 L36.12 -43.79 L35.66 -44.25 L35.21 -44.48 L34.3 -44.48 M 38.07 -44.48L38.07 -39.7 M 38.07 -44.48L40.12 -44.48 L40.8 -44.25 L41.03 -44.02 L41.26 -43.57 L41.26 -42.88 L41.03 -42.43 L40.8 -42.2 L40.12 -41.98 L38.07 -41.98 M 44.57 -44.48L42.76 -39.7 M 44.57 -44.48L46.39 -39.7 M 43.44 -41.29L45.71 -41.29 M 47.89 -44.48L47.89 -39.7 M 47.89 -44.48L49.71 -39.7 M 51.53 -44.48L49.71 -39.7 M 51.53 -44.48L51.53 -39.7 M 53.03 -44.48L53.03 -39.7 M 53.03 -44.48L55.07 -44.48 L55.76 -44.25 L55.98 -44.02 L56.21 -43.57 L56.21 -42.88 L55.98 -42.43 L55.76 -42.2 L55.07 -41.98 L53.03 -41.98 " fill="none"  stroke-width="0.4" c_note="note_pre" /></g><g c_partid="part_pcbtext" c_origin="40.54,-22.35" c_rotation="90" c_mirror="0" id="rep4" layerid="12" c_shapetype="group" ><path c_fontSize="3.2" c_fontFamily="" c_text="LM741" d="M 38.795 -22.351L41.845 -22.351 M 41.845 -22.351L41.845 -24.091 M 38.795 -25.051L41.845 -25.051 M 38.795 -25.051L41.845 -26.221 M 38.795 -27.381L41.845 -26.221 M 38.795 -27.381L41.845 -27.381 M 38.795 -30.381L41.845 -28.921 M 38.795 -28.341L38.795 -30.381 M 38.795 -32.791L40.825 -31.341 L40.825 -33.521 M 38.795 -32.791L41.845 -32.791 M 39.375 -34.481L39.225 -34.771 L38.795 -35.211 L41.845 -35.211 " fill="none"  stroke-width="0.32"  /></g><polyline points="47.917 -19.299 34.925 -19.299" stroke-width="0.8" c_shapetype="line" stroke-linecap="round" fill="none" layerid="12" net="" id="rep5" /><polyline points="34.925 -19.299 32.957 -19.299" stroke-width="0.8" c_shapetype="line" stroke-linecap="round" fill="none" layerid="12" net="" id="rep6" /><polyline points="32.957 -19.299 32.957 -38.197" stroke-width="0.8" c_shapetype="line" stroke-linecap="round" fill="none" layerid="12" net="" id="rep7" /><polyline points="32.957 -38.197 34.925 -38.197" stroke-width="0.8" c_shapetype="line" stroke-linecap="round" fill="none" layerid="12" net="" id="rep8" /><polyline points="34.925 -38.197 47.917 -38.197" stroke-width="0.8" c_shapetype="line" stroke-linecap="round" fill="none" layerid="12" net="" id="rep9" /><polyline points="47.917 -38.197 47.917 -19.299" stroke-width="0.8" c_shapetype="line" stroke-linecap="round" fill="none" layerid="12" net="" id="rep10" /><polyline points="34.925 -19.299 34.925 -38.197" stroke-width="0.8" c_shapetype="line" stroke-linecap="round" fill="none" layerid="12" net="" id="rep11" /><path d="M28.232,-37.213L28.232,-35.283L32.563,-35.283L32.563,-37.213Z" stroke-width="0"  c_shapetype="line" net="" type="solid" layerid="12" id="rep12" locked="0" c_teardrop="" c_targetpad="" c_targetwire="" /><path d="M28.232,-32.213L28.232,-30.283L32.563,-30.283L32.563,-32.213Z" stroke-width="0"  c_shapetype="line" net="" type="solid" layerid="12" id="rep13" locked="0" c_teardrop="" c_targetpad="" c_targetwire="" /><path d="M28.232,-27.213L28.232,-25.283L32.563,-25.283L32.563,-27.213Z" stroke-width="0"  c_shapetype="line" net="" type="solid" layerid="12" id="rep14" locked="0" c_teardrop="" c_targetpad="" c_targetwire="" /><path d="M28.232,-22.213L28.232,-20.283L32.563,-20.283L32.563,-22.213Z" stroke-width="0"  c_shapetype="line" net="" type="solid" layerid="12" id="rep15" locked="0" c_teardrop="" c_targetpad="" c_targetwire="" /><path d="M48.311,-22.213L48.311,-20.283L52.642,-20.283L52.642,-22.213Z" stroke-width="0"  c_shapetype="line" net="" type="solid" layerid="12" id="rep16" locked="0" c_teardrop="" c_targetpad="" c_targetwire="" /><path d="M48.311,-27.213L48.311,-25.283L52.642,-25.283L52.642,-27.213Z" stroke-width="0"  c_shapetype="line" net="" type="solid" layerid="12" id="rep17" locked="0" c_teardrop="" c_targetpad="" c_targetwire="" /><path d="M48.311,-32.213L48.311,-30.283L52.642,-30.283L52.642,-32.213Z" stroke-width="0"  c_shapetype="line" net="" type="solid" layerid="12" id="rep18" locked="0" c_teardrop="" c_targetpad="" c_targetwire="" /><path d="M48.311,-37.213L48.311,-35.283L52.642,-35.283L52.642,-37.213Z" stroke-width="0"  c_shapetype="line" net="" type="solid" layerid="12" id="rep19" locked="0" c_teardrop="" c_targetpad="" c_targetwire="" /><g c_partid="part_pad" c_etype="pinpart" c_origin="30.2,-36.25" layerid="1" number="1" net="" plated ="Y" c_shapetype="group" id="rep20" locked="0" c_rotation="270" c_width="0" c_height="0" title="" c_shape="POLYGON" pasteExpansion="0" solderExpansion="0.4"><polygon points="34.531 -37.429 34.531 -35.067 25.87 -35.067 25.87 -37.429" stroke-width="0" /><circle c_padhole="1" cx="30.201" cy="-36.248" r="0" stroke-width="0" /></g><g c_partid="part_pad" c_etype="pinpart" c_origin="30.2,-31.25" layerid="1" number="2" net="SIG" plated ="Y" c_shapetype="group" id="rep21" locked="0" c_rotation="270" c_width="0" c_height="0" title="SIG" c_shape="POLYGON" pasteExpansion="0" solderExpansion="0.4"><polygon points="34.531 -32.429 34.531 -30.067 25.87 -30.067 25.87 -32.429" stroke-width="0" /><circle c_padhole="1" cx="30.201" cy="-31.248" r="0" stroke-width="0" /></g><g c_partid="part_pad" c_etype="pinpart" c_origin="30.2,-26.25" layerid="1" number="3" net="N$1" plated ="Y" c_shapetype="group" id="rep22" locked="0" c_rotation="270" c_width="0" c_height="0" title="N$1" c_shape="POLYGON" pasteExpansion="0" solderExpansion="0.4"><polygon points="34.531 -27.429 34.531 -25.067 25.87 -25.067 25.87 -27.429" stroke-width="0" /><circle c_padhole="1" cx="30.201" cy="-26.248" r="0" stroke-width="0" /></g><g c_partid="part_pad" c_etype="pinpart" c_origin="30.2,-21.25" layerid="1" number="4" net="GND" plated ="Y" c_shapetype="group" id="rep23" locked="0" c_rotation="270" c_width="0" c_height="0" title="GND" c_shape="POLYGON" pasteExpansion="0" solderExpansion="0.4"><polygon points="34.531 -22.429 34.531 -20.067 25.87 -20.067 25.87 -22.429" stroke-width="0" /><circle c_padhole="1" cx="30.201" cy="-21.248" r="0" stroke-width="0" /></g><g c_partid="part_pad" c_etype="pinpart" c_origin="50.67,-21.25" layerid="1" number="5" net="" plated ="Y" c_shapetype="group" id="rep24" locked="0" c_rotation="270" c_width="0" c_height="0" title="" c_shape="POLYGON" pasteExpansion="0" solderExpansion="0.4"><polygon points="55.004 -22.429 55.004 -20.067 46.342 -20.067 46.342 -22.429" stroke-width="0" /><circle c_padhole="1" cx="50.673" cy="-21.248" r="0" stroke-width="0" /></g><g c_partid="part_pad" c_etype="pinpart" c_origin="50.67,-26.25" layerid="1" number="6" net="N$2" plated ="Y" c_shapetype="group" id="rep25" locked="0" c_rotation="270" c_width="0" c_height="0" title="N$2" c_shape="POLYGON" pasteExpansion="0" solderExpansion="0.4"><polygon points="55.004 -27.429 55.004 -25.067 46.342 -25.067 46.342 -27.429" stroke-width="0" /><circle c_padhole="1" cx="50.673" cy="-26.248" r="0" stroke-width="0" /></g><g c_partid="part_pad" c_etype="pinpart" c_origin="50.67,-31.25" layerid="1" number="7" net="VCC" plated ="Y" c_shapetype="group" id="rep26" locked="0" c_rotation="270" c_width="0" c_height="0" title="VCC" c_shape="POLYGON" pasteExpansion="0" solderExpansion="0.4"><polygon points="55.004 -32.429 55.004 -30.067 46.342 -30.067 46.342 -32.429" stroke-width="0" /><circle c_padhole="1" cx="50.673" cy="-31.248" r="0" stroke-width="0" /></g><g c_partid="part_pad" c_etype="pinpart" c_origin="50.67,-36.25" layerid="1" number="8" net="" plated ="Y" c_shapetype="group" id="rep27" locked="0" c_rotation="270" c_width="0" c_height="0" title="" c_shape="POLYGON" pasteExpansion="0" solderExpansion="0.4"><polygon points="55.004 -37.429 55.004 -35.067 46.342 -35.067 46.342 -37.429" stroke-width="0" /><circle c_padhole="1" cx="50.673" cy="-36.248" r="0" stroke-width="0" /></g></g><g xmlns="http://www.w3.org/2000/svg" c_origin="1.335,-51.47" c_para="package`M1206`value`10K" c_partid="part_import_rep42" id="rep42" c_shapetype="group" c_etype="pinpart" layerid="1" c_rotation="90"><g c_partid="part_pcbtext" c_origin="-6.16,-46.47" c_rotation="90" c_mirror="0" id="rep29" layerid="12" c_shapetype="group" ><path c_fontSize="5" c_fontFamily="" c_text="R1" d="M -8.895 -46.475L-4.115 -46.475 M -8.895 -46.475L-8.895 -48.515 L-8.665 -49.195 L-8.435 -49.425 L-7.985 -49.655 L-7.525 -49.655 L-7.075 -49.425 L-6.845 -49.195 L-6.615 -48.515 L-6.615 -46.475 M -6.615 -48.065L-4.115 -49.655 M -7.985 -51.155L-8.215 -51.605 L-8.895 -52.285 L-4.115 -52.285 " fill="none"  stroke-width="0.4" c_note="note_pre" /></g><g c_partid="part_pcbtext" c_origin="-6.78,-46.04" c_rotation="90" c_mirror="0" id="rep30" layerid="12" c_shapetype="group" ><path c_fontSize="5" c_fontFamily="" c_text="10K" d="M -8.603 -46.045L-8.833 -46.495 L-9.513 -47.175 L-4.743 -47.175 M -9.513 -50.045L-9.283 -49.355 L-8.603 -48.905 L-7.463 -48.675 L-6.783 -48.675 L-5.643 -48.905 L-4.963 -49.355 L-4.743 -50.045 L-4.743 -50.495 L-4.963 -51.175 L-5.643 -51.635 L-6.783 -51.855 L-7.463 -51.855 L-8.603 -51.635 L-9.283 -51.175 L-9.513 -50.495 L-9.513 -50.045 M -9.513 -53.355L-4.743 -53.355 M -9.513 -56.545L-6.333 -53.355 M -7.463 -54.495L-4.743 -56.545 " fill="none"  stroke-width="0.5"  /></g><polyline points="-4.503 -41.734 -4.503 -61.206" stroke-width="0.2" c_shapetype="line" stroke-linecap="round" fill="none" layerid="12" net="" id="rep31" /><polyline points="7.174 -61.206 7.174 -41.734" stroke-width="0.2" c_shapetype="line" stroke-linecap="round" fill="none" layerid="12" net="" id="rep32" /><polyline points="7.174 -41.734 -4.503 -41.734" stroke-width="0.2" c_shapetype="line" stroke-linecap="round" fill="none" layerid="12" net="" id="rep33" /><polyline points="-4.503 -61.206 7.174 -61.206" stroke-width="0.2" c_shapetype="line" stroke-linecap="round" fill="none" layerid="12" net="" id="rep34" /><polyline points="-1.965 -55.97 -1.965 -46.97" stroke-width="0.6" c_shapetype="line" stroke-linecap="round" fill="none" layerid="12" net="" id="rep35" /><polyline points="4.635 -55.97 4.635 -46.97" stroke-width="0.6" c_shapetype="line" stroke-linecap="round" fill="none" layerid="12" net="" id="rep36" /><path d="M4.935,-44.77L4.935,-47.07L-2.265,-47.07L-2.265,-44.77Z" stroke-width="0"  c_shapetype="line" net="" type="solid" layerid="12" id="rep37" locked="0" c_teardrop="" c_targetpad="" c_targetwire="" /><path d="M4.935,-55.87L4.935,-58.17L-2.265,-58.17L-2.265,-55.87Z" stroke-width="0"  c_shapetype="line" net="" type="solid" layerid="12" id="rep38" locked="0" c_teardrop="" c_targetpad="" c_targetwire="" /><path d="M4.485,-50.289L4.485,-52.651L-1.815,-52.651L-1.815,-50.289Z" stroke-width="0"  c_shapetype="line" net="" type="solid" layerid="12" id="rep39" locked="0" c_teardrop="" c_targetpad="" c_targetwire="" /><g c_partid="part_pad" c_etype="pinpart" c_origin="1.34,-45.96" layerid="1" number="1" net="GND" plated ="Y" c_shapetype="group" id="rep40" locked="0" c_rotation="90" c_width="0" c_height="0" title="GND" c_shape="POLYGON" pasteExpansion="0" solderExpansion="0.4"><polygon points="-2.602 -42.808 -2.602 -49.108 5.272 -49.108 5.272 -42.808" stroke-width="0" /><circle c_padhole="1" cx="1.335" cy="-45.958" r="0" stroke-width="0" /></g><g c_partid="part_pad" c_etype="pinpart" c_origin="1.34,-56.98" layerid="1" number="2" net="N$1" plated ="Y" c_shapetype="group" id="rep41" locked="0" c_rotation="90" c_width="0" c_height="0" title="N$1" c_shape="POLYGON" pasteExpansion="0" solderExpansion="0.4"><polygon points="-2.602 -53.832 -2.602 -60.131 5.272 -60.131 5.272 -53.832" stroke-width="0" /><circle c_padhole="1" cx="1.335" cy="-56.982" r="0" stroke-width="0" /></g></g><g xmlns="http://www.w3.org/2000/svg" c_origin="-5.023,-25.685" c_para="package`M1206`value`10M" c_partid="part_import_rep56" id="rep56" c_shapetype="group" c_etype="pinpart" layerid="1" c_rotation="90"><g c_partid="part_pcbtext" c_origin="-12.52,-20.68" c_rotation="90" c_mirror="0" id="rep43" layerid="12" c_shapetype="group" ><path c_fontSize="5" c_fontFamily="" c_text="R2" d="M -15.248 -20.688L-10.478 -20.688 M -15.248 -20.688L-15.248 -22.728 L-15.018 -23.408 L-14.798 -23.638 L-14.338 -23.868 L-13.888 -23.868 L-13.428 -23.638 L-13.208 -23.408 L-12.978 -22.728 L-12.978 -20.688 M -12.978 -22.278L-10.478 -23.868 M -14.118 -25.598L-14.338 -25.598 L-14.798 -25.818 L-15.018 -26.048 L-15.248 -26.508 L-15.248 -27.408 L-15.018 -27.868 L-14.798 -28.098 L-14.338 -28.318 L-13.888 -28.318 L-13.428 -28.098 L-12.748 -27.638 L-10.478 -25.368 L-10.478 -28.548 " fill="none"  stroke-width="0.4" c_note="note_pre" /></g><g c_partid="part_pcbtext" c_origin="-12.65,-19.99" c_rotation="90" c_mirror="0" id="rep44" layerid="12" c_shapetype="group" ><path c_fontSize="5" c_fontFamily="" c_text="10M" d="M -14.462 -19.984L-14.692 -20.444 L-15.372 -21.124 L-10.602 -21.124 M -15.372 -23.984L-15.152 -23.304 L-14.462 -22.854 L-13.332 -22.624 L-12.652 -22.624 L-11.512 -22.854 L-10.832 -23.304 L-10.602 -23.984 L-10.602 -24.444 L-10.832 -25.124 L-11.512 -25.574 L-12.652 -25.804 L-13.332 -25.804 L-14.462 -25.574 L-15.152 -25.124 L-15.372 -24.444 L-15.372 -23.984 M -15.372 -27.304L-10.602 -27.304 M -15.372 -27.304L-10.602 -29.124 M -15.372 -30.944L-10.602 -29.124 M -15.372 -30.944L-10.602 -30.944 " fill="none"  stroke-width="0.5"  /></g><polyline points="-10.861 -15.949 -10.861 -35.421" stroke-width="0.2" c_shapetype="line" stroke-linecap="round" fill="none" layerid="12" net="" id="rep45" /><polyline points="0.816 -35.421 0.816 -15.949" stroke-width="0.2" c_shapetype="line" stroke-linecap="round" fill="none" layerid="12" net="" id="rep46" /><polyline points="0.816 -15.949 -10.861 -15.949" stroke-width="0.2" c_shapetype="line" stroke-linecap="round" fill="none" layerid="12" net="" id="rep47" /><polyline points="-10.861 -35.421 0.816 -35.421" stroke-width="0.2" c_shapetype="line" stroke-linecap="round" fill="none" layerid="12" net="" id="rep48" /><polyline points="-8.323 -30.185 -8.323 -21.185" stroke-width="0.6" c_shapetype="line" stroke-linecap="round" fill="none" layerid="12" net="" id="rep49" /><polyline points="-1.723 -30.185 -1.723 -21.185" stroke-width="0.6" c_shapetype="line" stroke-linecap="round" fill="none" layerid="12" net="" id="rep50" /><path d="M-1.423,-18.985L-1.423,-21.285L-8.623,-21.285L-8.623,-18.985Z" stroke-width="0"  c_shapetype="line" net="" type="solid" layerid="12" id="rep51" locked="0" c_teardrop="" c_targetpad="" c_targetwire="" /><path d="M-1.423,-30.085L-1.423,-32.385L-8.623,-32.385L-8.623,-30.085Z" stroke-width="0"  c_shapetype="line" net="" type="solid" layerid="12" id="rep52" locked="0" c_teardrop="" c_targetpad="" c_targetwire="" /><path d="M-1.873,-24.504L-1.873,-26.866L-8.173,-26.866L-8.173,-24.504Z" stroke-width="0"  c_shapetype="line" net="" type="solid" layerid="12" id="rep53" locked="0" c_teardrop="" c_targetpad="" c_targetwire="" /><g c_partid="part_pad" c_etype="pinpart" c_origin="-5.02,-20.17" layerid="1" number="1" net="N$2" plated ="Y" c_shapetype="group" id="rep54" locked="0" c_rotation="90" c_width="0" c_height="0" title="N$2" c_shape="POLYGON" pasteExpansion="0" solderExpansion="0.4"><polygon points="-8.96 -17.023 -8.96 -23.323 -1.086 -23.323 -1.086 -17.023" stroke-width="0" /><circle c_padhole="1" cx="-5.023" cy="-20.173" r="0" stroke-width="0" /></g><g c_partid="part_pad" c_etype="pinpart" c_origin="-5.02,-31.2" layerid="1" number="2" net="SIG" plated ="Y" c_shapetype="group" id="rep55" locked="0" c_rotation="90" c_width="0" c_height="0" title="SIG" c_shape="POLYGON" pasteExpansion="0" solderExpansion="0.4"><polygon points="-8.96 -28.047 -8.96 -34.346 -1.086 -34.346 -1.086 -28.047" stroke-width="0" /><circle c_padhole="1" cx="-5.023" cy="-31.197" r="0" stroke-width="0" /></g></g><g xmlns="http://www.w3.org/2000/svg" c_origin="42.437,-55.748" c_para="package`LED-1206`value`" c_partid="part_import_rep72" id="rep72" c_shapetype="group" c_etype="pinpart" layerid="1" c_rotation="180"><g c_partid="part_pcbtext" c_origin="34.04,-63.65" c_rotation="360" c_mirror="0" id="rep57" layerid="12" c_shapetype="group" ><path c_fontSize="4" c_fontFamily="" c_text="LED1" d="M 34.04 -65.83L34.04 -62.01 M 34.04 -62.01L36.22 -62.01 M 37.42 -65.83L37.42 -62.01 M 37.42 -65.83L39.78 -65.83 M 37.42 -64.01L38.87 -64.01 M 37.42 -62.01L39.78 -62.01 M 40.98 -65.83L40.98 -62.01 M 40.98 -65.83L42.26 -65.83 L42.8 -65.65 L43.16 -65.28 L43.35 -64.92 L43.53 -64.38 L43.53 -63.47 L43.35 -62.92 L43.16 -62.56 L42.8 -62.19 L42.26 -62.01 L40.98 -62.01 M 44.73 -65.1L45.09 -65.28 L45.64 -65.83 L45.64 -62.01 " fill="none"  stroke-width="0.4" c_note="note_pre" /></g><polyline points="46.374 -51.811 51.886 -51.811" stroke-width="0.8" c_shapetype="line" stroke-linecap="round" fill="none" layerid="3" net="" id="rep58" /><polyline points="51.886 -51.811 51.886 -59.685" stroke-width="0.8" c_shapetype="line" stroke-linecap="round" fill="none" layerid="3" net="" id="rep59" /><polyline points="51.886 -59.685 46.374 -59.685" stroke-width="0.8" c_shapetype="line" stroke-linecap="round" fill="none" layerid="3" net="" id="rep60" /><polyline points="38.5 -51.811 32.988 -51.811" stroke-width="0.8" c_shapetype="line" stroke-linecap="round" fill="none" layerid="3" net="" id="rep61" /><polyline points="32.988 -51.811 32.988 -59.685" stroke-width="0.8" c_shapetype="line" stroke-linecap="round" fill="none" layerid="3" net="" id="rep62" /><polyline points="32.988 -59.685 38.5 -59.685" stroke-width="0.8" c_shapetype="line" stroke-linecap="round" fill="none" layerid="3" net="" id="rep63" /><polyline points="41.256 -52.992 41.256 -55.748" stroke-width="0.8" c_shapetype="line" stroke-linecap="round" fill="none" layerid="3" net="" id="rep64" /><polyline points="41.256 -55.748 41.256 -58.504" stroke-width="0.8" c_shapetype="line" stroke-linecap="round" fill="none" layerid="3" net="" id="rep65" /><polyline points="41.256 -55.748 43.618 -53.386" stroke-width="0.8" c_shapetype="line" stroke-linecap="round" fill="none" layerid="3" net="" id="rep66" /><polyline points="43.618 -53.386 43.618 -58.11" stroke-width="0.8" c_shapetype="line" stroke-linecap="round" fill="none" layerid="3" net="" id="rep67" /><polyline points="43.618 -58.11 41.256 -55.748" stroke-width="0.8" c_shapetype="line" stroke-linecap="round" fill="none" layerid="3" net="" id="rep68" /><g c_partid="part_pad" c_etype="pinpart" c_origin="48.34,-55.75" layerid="1" number="A" net="N$5" plated ="Y" c_shapetype="group" id="rep69" locked="0" c_rotation="180" c_width="0" c_height="0" title="N$5" c_shape="POLYGON" pasteExpansion="0" solderExpansion="0.4"><polygon points="50.705 -52.992 45.98 -52.992 45.98 -58.504 50.705 -58.504" stroke-width="0" /><circle c_padhole="1" cx="48.342" cy="-55.748" r="0" stroke-width="0" /></g><g c_partid="part_pad" c_etype="pinpart" c_origin="36.53,-55.75" layerid="1" number="C" net="GND" plated ="Y" c_shapetype="group" id="rep70" locked="0" c_rotation="180" c_width="0" c_height="0" title="GND" c_shape="POLYGON" pasteExpansion="0" solderExpansion="0.4"><polygon points="38.894 -52.992 34.169 -52.992 34.169 -58.504 38.894 -58.504" stroke-width="0" /><circle c_padhole="1" cx="36.531" cy="-55.748" r="0" stroke-width="0" /></g><g c_partid="part_pcbtext" c_origin="34.04,-71.65" c_rotation="360" c_mirror="0" id="rep71" layerid="3" c_shapetype="group" display="none"><path c_fontSize="4" c_fontFamily="" c_text="_" d="M 34.04 -68.74L37.31 -68.74 " fill="none"  stroke-width="0.4"  /></g></g><g xmlns="http://www.w3.org/2000/svg" c_origin="65.748,-37.563" c_para="package`1X02_ROUND`value`6V+" c_partid="part_import_rep80" id="rep80" c_shapetype="group" c_etype="pinpart" layerid="1" c_rotation="270"><g c_partid="part_pcbtext" c_origin="74.55,-39.22" c_rotation="90" c_mirror="0" id="rep73" layerid="12" c_shapetype="group" ><path c_fontSize="3.2" c_fontFamily="" c_text="JP1" d="M 72.801 -40.675L75.131 -40.675 L75.571 -40.535 L75.711 -40.385 L75.861 -40.095 L75.861 -39.805 L75.711 -39.515 L75.571 -39.365 L75.131 -39.225 L74.841 -39.225 M 72.801 -41.635L75.861 -41.635 M 72.801 -41.635L72.801 -42.945 L72.951 -43.385 L73.091 -43.525 L73.381 -43.675 L73.821 -43.675 L74.111 -43.525 L74.261 -43.385 L74.401 -42.945 L74.401 -41.635 M 73.381 -44.635L73.241 -44.925 L72.801 -45.365 L75.861 -45.365 " fill="none"  stroke-width="0.576" c_note="note_pre" /></g><g c_partid="part_pcbtext" c_origin="61.44,-25.55" c_rotation="0" c_mirror="0" id="rep74" layerid="12" c_shapetype="group" ><path c_fontSize="4" c_fontFamily="" c_text="6V+" d="M 63.62 -27.18L63.44 -27.55 L62.89 -27.73 L62.53 -27.73 L61.98 -27.55 L61.62 -27 L61.44 -26.09 L61.44 -25.18 L61.62 -24.46 L61.98 -24.09 L62.53 -23.91 L62.71 -23.91 L63.26 -24.09 L63.62 -24.46 L63.8 -25 L63.8 -25.18 L63.62 -25.73 L63.26 -26.09 L62.71 -26.28 L62.53 -26.28 L61.98 -26.09 L61.62 -25.73 L61.44 -25.18 M 65 -27.73L66.46 -23.91 M 67.91 -27.73L66.46 -23.91 M 70.75 -27.18L70.75 -23.91 M 69.11 -25.55L72.38 -25.55 " fill="none"  stroke-width="0.4"  /></g><polyline points="68.248 -47.563 63.248 -47.563" stroke-width="0.8" c_shapetype="line" stroke-linecap="round" fill="none" layerid="12" net="" id="rep75" /><path d="M64.748,-43.563L64.748,-41.563L66.748,-41.563L66.748,-43.563Z" stroke-width="0"  c_shapetype="line" net="" type="solid" layerid="12" id="rep76" locked="0" c_teardrop="" c_targetpad="" c_targetwire="" /><path d="M64.748,-33.563L64.748,-31.563L66.748,-31.563L66.748,-33.563Z" stroke-width="0"  c_shapetype="line" net="" type="solid" layerid="12" id="rep77" locked="0" c_teardrop="" c_targetpad="" c_targetwire="" /><g c_partid="part_pad" c_etype="pinpart" c_origin="65.75,-42.56" layerid="11" number="1" net="GND" plated ="Y" c_shapetype="group" id="rep78" locked="0" c_rotation="0" c_width="6.6" c_height="6.6" title="GND" c_shape="ELLIPSE" pasteExpansion="0" solderExpansion="0.4"><ellipse cx="65.75" cy="-42.56" rx="3.3" ry="3.3" stroke-width="0" /><polyline c_padhole="1" points="65.748 -42.563 65.749 -42.563" stroke-width="3.936"></polyline></g><g c_partid="part_pad" c_etype="pinpart" c_origin="65.75,-32.56" layerid="11" number="2" net="VCC" plated ="Y" c_shapetype="group" id="rep79" locked="0" c_rotation="0" c_width="6.6" c_height="6.6" title="VCC" c_shape="ELLIPSE" pasteExpansion="0" solderExpansion="0.4"><ellipse cx="65.75" cy="-32.56" rx="3.3" ry="3.3" stroke-width="0" /><polyline c_padhole="1" points="65.748 -32.563 65.749 -32.563" stroke-width="3.936"></polyline></g></g><g xmlns="http://www.w3.org/2000/svg" c_origin="42.748,-7.563" c_para="package`DO-214AC`value`1N4001" c_partid="part_import_rep95" id="rep95" c_shapetype="group" c_etype="pinpart" layerid="1" ><g c_partid="part_pcbtext" c_origin="39.65,-8.56" c_rotation="0" c_mirror="0" id="rep81" layerid="12" c_shapetype="group" ><path c_fontSize="5" c_fontFamily="" c_text="D1" d="M 39.65 -11.29L39.65 -6.52 M 39.65 -11.29L41.24 -11.29 L41.92 -11.06 L42.38 -10.61 L42.6 -10.15 L42.83 -9.47 L42.83 -8.34 L42.6 -7.65 L42.38 -7.2 L41.92 -6.74 L41.24 -6.52 L39.65 -6.52 M 44.33 -10.38L44.78 -10.61 L45.47 -11.29 L45.47 -6.52 " fill="none"  stroke-width="0.6" c_note="note_pre" /></g><g c_partid="part_pcbtext" c_origin="34.75,-15.66" c_rotation="0" c_mirror="0" id="rep82" layerid="12" c_shapetype="group" ><path c_fontSize="3.2" c_fontFamily="" c_text="1N4001" d="M 34.75 -16.83L35.04 -16.97 L35.48 -17.41 L35.48 -14.35 M 36.44 -17.41L36.44 -14.35 M 36.44 -17.41L38.47 -14.35 M 38.47 -17.41L38.47 -14.35 M 40.89 -17.41L39.43 -15.37 L41.61 -15.37 M 40.89 -17.41L40.89 -14.35 M 43.45 -17.41L43.01 -17.26 L42.72 -16.83 L42.57 -16.1 L42.57 -15.66 L42.72 -14.94 L43.01 -14.5 L43.45 -14.35 L43.74 -14.35 L44.17 -14.5 L44.46 -14.94 L44.61 -15.66 L44.61 -16.1 L44.46 -16.83 L44.17 -17.26 L43.74 -17.41 L43.45 -17.41 M 46.44 -17.41L46.01 -17.26 L45.72 -16.83 L45.57 -16.1 L45.57 -15.66 L45.72 -14.94 L46.01 -14.5 L46.44 -14.35 L46.73 -14.35 L47.17 -14.5 L47.46 -14.94 L47.61 -15.66 L47.61 -16.1 L47.46 -16.83 L47.17 -17.26 L46.73 -17.41 L46.44 -17.41 M 48.57 -16.83L48.86 -16.97 L49.29 -17.41 L49.29 -14.35 " fill="none"  stroke-width="0.384"  /></g><polyline points="34.283 -12.681 51.212 -12.681" stroke-width="0.8" c_shapetype="line" stroke-linecap="round" fill="none" layerid="12" net="" id="rep83" /><polyline points="51.212 -12.681 51.212 -2.445" stroke-width="0.8" c_shapetype="line" stroke-linecap="round" fill="none" layerid="12" net="" id="rep84" /><polyline points="51.212 -2.445 34.283 -2.445" stroke-width="0.8" c_shapetype="line" stroke-linecap="round" fill="none" layerid="12" net="" id="rep85" /><polyline points="34.283 -2.445 34.283 -12.681" stroke-width="0.8" c_shapetype="line" stroke-linecap="round" fill="none" layerid="12" net="" id="rep86" /><polyline points="38.673 -12.681 46.783 -12.681" stroke-width="0.8" c_shapetype="line" stroke-linecap="round" fill="none" layerid="3" net="" id="rep87" /><polyline points="46.783 -2.445 38.673 -2.445" stroke-width="0.8" c_shapetype="line" stroke-linecap="round" fill="none" layerid="3" net="" id="rep88" /><g c_partid="part_pad" c_etype="pinpart" c_origin="34.78,-7.56" layerid="1" number="C" net="N$5" plated ="Y" c_shapetype="group" id="rep89" locked="0" c_rotation="0" c_width="0" c_height="0" title="N$5" c_shape="POLYGON" pasteExpansion="0" solderExpansion="0.4"><polygon points="31.232 -12.287 38.319 -12.287 38.319 -2.839 31.232 -2.839" stroke-width="0" /><circle c_padhole="1" cx="34.776" cy="-7.563" r="0" stroke-width="0" /></g><g c_partid="part_pad" c_etype="pinpart" c_origin="50.72,-7.56" layerid="1" number="A" net="N$2" plated ="Y" c_shapetype="group" id="rep90" locked="0" c_rotation="180" c_width="0" c_height="0" title="N$2" c_shape="POLYGON" pasteExpansion="0" solderExpansion="0.4"><polygon points="54.264 -2.839 47.177 -2.839 47.177 -12.287 54.264 -12.287" stroke-width="0" /><circle c_padhole="1" cx="50.72" cy="-7.563" r="0" stroke-width="0" /></g><path d="M31.626,-3.232L34.185,-3.232L34.185,-11.894L31.626,-11.894Z" stroke-width="0"  c_shapetype="line" net="" type="solid" layerid="12" id="rep91" locked="0" c_teardrop="" c_targetpad="" c_targetwire="" /><path d="M53.87,-11.894L51.311,-11.894L51.311,-3.232L53.87,-3.232Z" stroke-width="0"  c_shapetype="line" net="" type="solid" layerid="12" id="rep92" locked="0" c_teardrop="" c_targetpad="" c_targetwire="" /><path d="M38.555,-2.74L41.213,-2.74L41.213,-12.386L38.555,-12.386Z" stroke-width="0"  c_shapetype="line" net="" type="solid" layerid="3" id="rep93" locked="0" c_teardrop="" c_targetpad="" c_targetwire="" /><path d="M35.858,-2.74L38.516,-2.74L38.516,-12.386L35.858,-12.386Z" stroke-width="0"  c_shapetype="line" net="" type="solid" layerid="12" id="rep94" locked="0" c_teardrop="" c_targetpad="" c_targetwire="" /></g><g xmlns="http://www.w3.org/2000/svg" c_origin="14.033,-29.089" c_para="package`1X02_ROUND`value`PIEZO" c_partid="part_import_rep103" id="rep103" c_shapetype="group" c_etype="pinpart" layerid="1" c_rotation="90"><g c_partid="part_pcbtext" c_origin="7.8,-21.95" c_rotation="90" c_mirror="0" id="rep96" layerid="12" c_shapetype="group" ><path c_fontSize="3.2" c_fontFamily="" c_text="PIEZO" d="M 6.049 -21.957L9.109 -21.957 M 6.049 -21.957L6.049 -23.267 L6.199 -23.697 L6.339 -23.847 L6.629 -23.987 L7.069 -23.987 L7.359 -23.847 L7.509 -23.697 L7.649 -23.267 L7.649 -21.957 M 6.049 -24.947L9.109 -24.947 M 6.049 -25.907L9.109 -25.907 M 6.049 -25.907L6.049 -27.797 M 7.509 -25.907L7.509 -27.077 M 9.109 -25.907L9.109 -27.797 M 6.049 -30.797L9.109 -28.757 M 6.049 -28.757L6.049 -30.797 M 9.109 -28.757L9.109 -30.797 M 6.049 -32.627L6.199 -32.337 L6.489 -32.047 L6.779 -31.907 L7.219 -31.757 L7.939 -31.757 L8.379 -31.907 L8.669 -32.047 L8.959 -32.337 L9.109 -32.627 L9.109 -33.207 L8.959 -33.507 L8.669 -33.797 L8.379 -33.937 L7.939 -34.087 L7.219 -34.087 L6.779 -33.937 L6.489 -33.797 L6.199 -33.507 L6.049 -33.207 L6.049 -32.627 " fill="none"  stroke-width="0.576" c_note="note_pre" /></g><g c_partid="part_pcbtext" c_origin="25.73,-19.09" c_rotation="90" c_mirror="0" id="rep97" layerid="12" c_shapetype="group" ><path c_fontSize="1.6" c_fontFamily="" c_text="PIEZO" d="M 24.862 -19.086L26.392 -19.086 M 24.862 -19.086L24.862 -19.746 L24.932 -19.966 L25.002 -20.036 L25.152 -20.106 L25.372 -20.106 L25.512 -20.036 L25.592 -19.966 L25.662 -19.746 L25.662 -19.086 M 24.862 -20.586L26.392 -20.586 M 24.862 -21.066L26.392 -21.066 M 24.862 -21.066L24.862 -22.016 M 25.592 -21.066L25.592 -21.646 M 26.392 -21.066L26.392 -22.016 M 24.862 -23.506L26.392 -22.496 M 24.862 -22.496L24.862 -23.506 M 26.392 -22.496L26.392 -23.506 M 24.862 -24.426L24.932 -24.286 L25.082 -24.136 L25.222 -24.066 L25.442 -23.986 L25.802 -23.986 L26.022 -24.066 L26.172 -24.136 L26.312 -24.286 L26.392 -24.426 L26.392 -24.716 L26.312 -24.866 L26.172 -25.006 L26.022 -25.086 L25.802 -25.156 L25.442 -25.156 L25.222 -25.086 L25.082 -25.006 L24.932 -24.866 L24.862 -24.716 L24.862 -24.426 " fill="none"  stroke-width="0.16"  /></g><polyline points="11.533 -19.089 16.533 -19.089" stroke-width="0.8" c_shapetype="line" stroke-linecap="round" fill="none" layerid="12" net="" id="rep98" /><path d="M15.033,-23.089L15.033,-25.089L13.033,-25.089L13.033,-23.089Z" stroke-width="0"  c_shapetype="line" net="" type="solid" layerid="12" id="rep99" locked="0" c_teardrop="" c_targetpad="" c_targetwire="" /><path d="M15.033,-33.089L15.033,-35.089L13.033,-35.089L13.033,-33.089Z" stroke-width="0"  c_shapetype="line" net="" type="solid" layerid="12" id="rep100" locked="0" c_teardrop="" c_targetpad="" c_targetwire="" /><g c_partid="part_pad" c_etype="pinpart" c_origin="14.03,-24.09" layerid="11" number="1" net="GND" plated ="Y" c_shapetype="group" id="rep101" locked="0" c_rotation="180" c_width="6.6" c_height="6.6" title="GND" c_shape="ELLIPSE" pasteExpansion="0" solderExpansion="0.4"><ellipse cx="14.03" cy="-24.09" rx="3.3" ry="3.3" stroke-width="0" /><polyline c_padhole="1" points="14.034 -24.089 14.033 -24.089" stroke-width="3.936"></polyline></g><g c_partid="part_pad" c_etype="pinpart" c_origin="14.03,-34.09" layerid="11" number="2" net="SIG" plated ="Y" c_shapetype="group" id="rep102" locked="0" c_rotation="180" c_width="6.6" c_height="6.6" title="SIG" c_shape="ELLIPSE" pasteExpansion="0" solderExpansion="0.4"><ellipse cx="14.03" cy="-34.09" rx="3.3" ry="3.3" stroke-width="0" /><polyline c_padhole="1" points="14.034 -34.089 14.033 -34.089" stroke-width="3.936"></polyline></g></g><path d="M 70 -36 A 35 35 0 1 0 70 -35.963" c_shapetype="line" fill="none" stroke-width="1" c_helper_type="arc2" net="" layerid="10" id="rep2" /></g></svg>