G75*
%MOIN*%
%OFA0B0*%
%FSLAX25Y25*%
%IPPOS*%
%LPD*%
%AMOC8*
5,1,8,0,0,1.08239X$1,22.5*
%
%ADD10C,0.00100*%
%ADD11C,0.05200*%
%ADD12C,0.01320*%
%ADD13C,0.07400*%
%ADD14C,0.05937*%
%ADD15C,0.05543*%
%ADD16R,0.05543X0.05543*%
%ADD17C,0.01600*%
%ADD18C,0.01200*%
D10*
X0001050Y0046050D02*
X0001064Y0047154D01*
X0001104Y0048258D01*
X0001172Y0049360D01*
X0001267Y0050461D01*
X0001388Y0051558D01*
X0001537Y0052653D01*
X0001713Y0053743D01*
X0001915Y0054829D01*
X0002143Y0055910D01*
X0002399Y0056984D01*
X0002680Y0058052D01*
X0002988Y0059113D01*
X0003321Y0060166D01*
X0003681Y0061210D01*
X0004065Y0062245D01*
X0004475Y0063271D01*
X0004911Y0064286D01*
X0005370Y0065290D01*
X0005855Y0066283D01*
X0006364Y0067263D01*
X0006896Y0068230D01*
X0007452Y0069185D01*
X0008032Y0070125D01*
X0008634Y0071051D01*
X0009259Y0071961D01*
X0009906Y0072856D01*
X0010574Y0073735D01*
X0011265Y0074598D01*
X0011976Y0075443D01*
X0012707Y0076270D01*
X0013459Y0077079D01*
X0014230Y0077870D01*
X0015021Y0078641D01*
X0015830Y0079393D01*
X0016657Y0080124D01*
X0017502Y0080835D01*
X0018365Y0081526D01*
X0019244Y0082194D01*
X0020139Y0082841D01*
X0021049Y0083466D01*
X0021975Y0084068D01*
X0022915Y0084648D01*
X0023870Y0085204D01*
X0024837Y0085736D01*
X0025817Y0086245D01*
X0026810Y0086730D01*
X0027814Y0087189D01*
X0028829Y0087625D01*
X0029855Y0088035D01*
X0030890Y0088419D01*
X0031934Y0088779D01*
X0032987Y0089112D01*
X0034048Y0089420D01*
X0035116Y0089701D01*
X0036190Y0089957D01*
X0037271Y0090185D01*
X0038357Y0090387D01*
X0039447Y0090563D01*
X0040542Y0090712D01*
X0041639Y0090833D01*
X0042740Y0090928D01*
X0043842Y0090996D01*
X0044946Y0091036D01*
X0046050Y0091050D01*
X0047154Y0091036D01*
X0048258Y0090996D01*
X0049360Y0090928D01*
X0050461Y0090833D01*
X0051558Y0090712D01*
X0052653Y0090563D01*
X0053743Y0090387D01*
X0054829Y0090185D01*
X0055910Y0089957D01*
X0056984Y0089701D01*
X0058052Y0089420D01*
X0059113Y0089112D01*
X0060166Y0088779D01*
X0061210Y0088419D01*
X0062245Y0088035D01*
X0063271Y0087625D01*
X0064286Y0087189D01*
X0065290Y0086730D01*
X0066283Y0086245D01*
X0067263Y0085736D01*
X0068230Y0085204D01*
X0069185Y0084648D01*
X0070125Y0084068D01*
X0071051Y0083466D01*
X0071961Y0082841D01*
X0072856Y0082194D01*
X0073735Y0081526D01*
X0074598Y0080835D01*
X0075443Y0080124D01*
X0076270Y0079393D01*
X0077079Y0078641D01*
X0077870Y0077870D01*
X0078641Y0077079D01*
X0079393Y0076270D01*
X0080124Y0075443D01*
X0080835Y0074598D01*
X0081526Y0073735D01*
X0082194Y0072856D01*
X0082841Y0071961D01*
X0083466Y0071051D01*
X0084068Y0070125D01*
X0084648Y0069185D01*
X0085204Y0068230D01*
X0085736Y0067263D01*
X0086245Y0066283D01*
X0086730Y0065290D01*
X0087189Y0064286D01*
X0087625Y0063271D01*
X0088035Y0062245D01*
X0088419Y0061210D01*
X0088779Y0060166D01*
X0089112Y0059113D01*
X0089420Y0058052D01*
X0089701Y0056984D01*
X0089957Y0055910D01*
X0090185Y0054829D01*
X0090387Y0053743D01*
X0090563Y0052653D01*
X0090712Y0051558D01*
X0090833Y0050461D01*
X0090928Y0049360D01*
X0090996Y0048258D01*
X0091036Y0047154D01*
X0091050Y0046050D01*
X0091036Y0044946D01*
X0090996Y0043842D01*
X0090928Y0042740D01*
X0090833Y0041639D01*
X0090712Y0040542D01*
X0090563Y0039447D01*
X0090387Y0038357D01*
X0090185Y0037271D01*
X0089957Y0036190D01*
X0089701Y0035116D01*
X0089420Y0034048D01*
X0089112Y0032987D01*
X0088779Y0031934D01*
X0088419Y0030890D01*
X0088035Y0029855D01*
X0087625Y0028829D01*
X0087189Y0027814D01*
X0086730Y0026810D01*
X0086245Y0025817D01*
X0085736Y0024837D01*
X0085204Y0023870D01*
X0084648Y0022915D01*
X0084068Y0021975D01*
X0083466Y0021049D01*
X0082841Y0020139D01*
X0082194Y0019244D01*
X0081526Y0018365D01*
X0080835Y0017502D01*
X0080124Y0016657D01*
X0079393Y0015830D01*
X0078641Y0015021D01*
X0077870Y0014230D01*
X0077079Y0013459D01*
X0076270Y0012707D01*
X0075443Y0011976D01*
X0074598Y0011265D01*
X0073735Y0010574D01*
X0072856Y0009906D01*
X0071961Y0009259D01*
X0071051Y0008634D01*
X0070125Y0008032D01*
X0069185Y0007452D01*
X0068230Y0006896D01*
X0067263Y0006364D01*
X0066283Y0005855D01*
X0065290Y0005370D01*
X0064286Y0004911D01*
X0063271Y0004475D01*
X0062245Y0004065D01*
X0061210Y0003681D01*
X0060166Y0003321D01*
X0059113Y0002988D01*
X0058052Y0002680D01*
X0056984Y0002399D01*
X0055910Y0002143D01*
X0054829Y0001915D01*
X0053743Y0001713D01*
X0052653Y0001537D01*
X0051558Y0001388D01*
X0050461Y0001267D01*
X0049360Y0001172D01*
X0048258Y0001104D01*
X0047154Y0001064D01*
X0046050Y0001050D01*
X0044946Y0001064D01*
X0043842Y0001104D01*
X0042740Y0001172D01*
X0041639Y0001267D01*
X0040542Y0001388D01*
X0039447Y0001537D01*
X0038357Y0001713D01*
X0037271Y0001915D01*
X0036190Y0002143D01*
X0035116Y0002399D01*
X0034048Y0002680D01*
X0032987Y0002988D01*
X0031934Y0003321D01*
X0030890Y0003681D01*
X0029855Y0004065D01*
X0028829Y0004475D01*
X0027814Y0004911D01*
X0026810Y0005370D01*
X0025817Y0005855D01*
X0024837Y0006364D01*
X0023870Y0006896D01*
X0022915Y0007452D01*
X0021975Y0008032D01*
X0021049Y0008634D01*
X0020139Y0009259D01*
X0019244Y0009906D01*
X0018365Y0010574D01*
X0017502Y0011265D01*
X0016657Y0011976D01*
X0015830Y0012707D01*
X0015021Y0013459D01*
X0014230Y0014230D01*
X0013459Y0015021D01*
X0012707Y0015830D01*
X0011976Y0016657D01*
X0011265Y0017502D01*
X0010574Y0018365D01*
X0009906Y0019244D01*
X0009259Y0020139D01*
X0008634Y0021049D01*
X0008032Y0021975D01*
X0007452Y0022915D01*
X0006896Y0023870D01*
X0006364Y0024837D01*
X0005855Y0025817D01*
X0005370Y0026810D01*
X0004911Y0027814D01*
X0004475Y0028829D01*
X0004065Y0029855D01*
X0003681Y0030890D01*
X0003321Y0031934D01*
X0002988Y0032987D01*
X0002680Y0034048D01*
X0002399Y0035116D01*
X0002143Y0036190D01*
X0001915Y0037271D01*
X0001713Y0038357D01*
X0001537Y0039447D01*
X0001388Y0040542D01*
X0001267Y0041639D01*
X0001172Y0042740D01*
X0001104Y0043842D01*
X0001064Y0044946D01*
X0001050Y0046050D01*
D11*
X0029487Y0043798D03*
X0029487Y0033798D03*
X0029487Y0053798D03*
X0029487Y0063798D03*
X0059487Y0063798D03*
X0059487Y0053798D03*
X0059487Y0043798D03*
X0059487Y0033798D03*
D12*
X0024781Y0017827D02*
X0024121Y0018487D01*
X0026176Y0017739D01*
X0027100Y0015758D01*
X0026352Y0013703D01*
X0024371Y0012779D01*
X0022316Y0013527D01*
X0021392Y0015508D01*
X0022140Y0017563D01*
X0024121Y0018487D01*
X0024168Y0017417D01*
X0025452Y0016949D01*
X0026030Y0015711D01*
X0025562Y0014427D01*
X0024324Y0013849D01*
X0023040Y0014317D01*
X0022462Y0015555D01*
X0022930Y0016839D01*
X0024168Y0017417D01*
X0024215Y0016346D01*
X0024728Y0016159D01*
X0024959Y0015664D01*
X0024772Y0015151D01*
X0024277Y0014920D01*
X0023764Y0015107D01*
X0023533Y0015602D01*
X0023720Y0016115D01*
X0024215Y0016346D01*
X0012103Y0045016D02*
X0011443Y0045676D01*
X0013498Y0044928D01*
X0014422Y0042947D01*
X0013674Y0040892D01*
X0011693Y0039968D01*
X0009638Y0040716D01*
X0008714Y0042697D01*
X0009462Y0044752D01*
X0011443Y0045676D01*
X0011490Y0044606D01*
X0012774Y0044138D01*
X0013352Y0042900D01*
X0012884Y0041616D01*
X0011646Y0041038D01*
X0010362Y0041506D01*
X0009784Y0042744D01*
X0010252Y0044028D01*
X0011490Y0044606D01*
X0011537Y0043535D01*
X0012050Y0043348D01*
X0012281Y0042853D01*
X0012094Y0042340D01*
X0011599Y0042109D01*
X0011086Y0042296D01*
X0010855Y0042791D01*
X0011042Y0043304D01*
X0011537Y0043535D01*
X0067781Y0075637D02*
X0067121Y0076297D01*
X0069176Y0075549D01*
X0070100Y0073568D01*
X0069352Y0071513D01*
X0067371Y0070589D01*
X0065316Y0071337D01*
X0064392Y0073318D01*
X0065140Y0075373D01*
X0067121Y0076297D01*
X0067168Y0075227D01*
X0068452Y0074759D01*
X0069030Y0073521D01*
X0068562Y0072237D01*
X0067324Y0071659D01*
X0066040Y0072127D01*
X0065462Y0073365D01*
X0065930Y0074649D01*
X0067168Y0075227D01*
X0067215Y0074156D01*
X0067728Y0073969D01*
X0067959Y0073474D01*
X0067772Y0072961D01*
X0067277Y0072730D01*
X0066764Y0072917D01*
X0066533Y0073412D01*
X0066720Y0073925D01*
X0067215Y0074156D01*
X0080459Y0048448D02*
X0079799Y0049108D01*
X0081854Y0048360D01*
X0082778Y0046379D01*
X0082030Y0044324D01*
X0080049Y0043400D01*
X0077994Y0044148D01*
X0077070Y0046129D01*
X0077818Y0048184D01*
X0079799Y0049108D01*
X0079846Y0048038D01*
X0081130Y0047570D01*
X0081708Y0046332D01*
X0081240Y0045048D01*
X0080002Y0044470D01*
X0078718Y0044938D01*
X0078140Y0046176D01*
X0078608Y0047460D01*
X0079846Y0048038D01*
X0079893Y0046967D01*
X0080406Y0046780D01*
X0080637Y0046285D01*
X0080450Y0045772D01*
X0079955Y0045541D01*
X0079442Y0045728D01*
X0079211Y0046223D01*
X0079398Y0046736D01*
X0079893Y0046967D01*
D13*
X0051987Y0013798D03*
X0036987Y0013798D03*
D14*
X0016965Y0056622D02*
X0011158Y0057857D01*
X0013237Y0067638D02*
X0019044Y0066404D01*
X0039487Y0074830D02*
X0039487Y0080767D01*
X0049487Y0080767D02*
X0049487Y0074830D01*
D15*
X0069487Y0043798D03*
D16*
X0069487Y0013798D03*
D17*
X0051987Y0013798D01*
X0036987Y0013798D02*
X0024246Y0015633D01*
X0029487Y0033798D01*
X0029487Y0043798D02*
X0011568Y0042822D01*
X0024050Y0059050D02*
X0024298Y0058931D01*
X0024543Y0058807D01*
X0024786Y0058677D01*
X0025025Y0058541D01*
X0025261Y0058400D01*
X0025493Y0058252D01*
X0025722Y0058100D01*
X0025947Y0057941D01*
X0026168Y0057778D01*
X0026386Y0057609D01*
X0026599Y0057435D01*
X0026808Y0057256D01*
X0027012Y0057073D01*
X0027213Y0056884D01*
X0027408Y0056690D01*
X0027599Y0056492D01*
X0027785Y0056290D01*
X0027966Y0056083D01*
X0028142Y0055871D01*
X0028313Y0055656D01*
X0028479Y0055436D01*
X0028640Y0055213D01*
X0028795Y0054986D01*
X0028945Y0054755D01*
X0029089Y0054521D01*
X0029227Y0054283D01*
X0029360Y0054042D01*
X0029487Y0053798D01*
X0028050Y0049050D02*
X0035050Y0047050D01*
X0035161Y0047011D01*
X0035271Y0046968D01*
X0035379Y0046922D01*
X0035486Y0046872D01*
X0035591Y0046818D01*
X0035694Y0046761D01*
X0035795Y0046701D01*
X0035894Y0046637D01*
X0035991Y0046570D01*
X0036086Y0046499D01*
X0036178Y0046426D01*
X0036268Y0046350D01*
X0036355Y0046270D01*
X0036439Y0046188D01*
X0036521Y0046103D01*
X0036599Y0046015D01*
X0036675Y0045925D01*
X0036748Y0045832D01*
X0036817Y0045737D01*
X0036883Y0045640D01*
X0036946Y0045540D01*
X0037006Y0045438D01*
X0037062Y0045335D01*
X0037115Y0045230D01*
X0037164Y0045123D01*
X0037210Y0045014D01*
X0037252Y0044904D01*
X0037290Y0044792D01*
X0037324Y0044680D01*
X0037355Y0044566D01*
X0037382Y0044451D01*
X0037405Y0044336D01*
X0037424Y0044219D01*
X0037439Y0044103D01*
X0037451Y0043985D01*
X0037458Y0043868D01*
X0037462Y0043750D01*
X0037461Y0043632D01*
X0037457Y0043514D01*
X0037449Y0043397D01*
X0037436Y0043280D01*
X0037420Y0043163D01*
X0037400Y0043047D01*
X0037376Y0042932D01*
X0037349Y0042817D01*
X0037317Y0042704D01*
X0037282Y0042591D01*
X0037243Y0042480D01*
X0037200Y0042370D01*
X0037154Y0042262D01*
X0037104Y0042155D01*
X0037050Y0042050D01*
X0028050Y0049050D02*
X0014062Y0057239D01*
X0037050Y0042050D02*
X0036792Y0041578D01*
X0036522Y0041111D01*
X0036241Y0040651D01*
X0035949Y0040199D01*
X0035646Y0039753D01*
X0035333Y0039315D01*
X0035009Y0038884D01*
X0034675Y0038462D01*
X0034330Y0038047D01*
X0033976Y0037642D01*
X0033612Y0037244D01*
X0033238Y0036856D01*
X0032855Y0036477D01*
X0032464Y0036107D01*
X0032063Y0035747D01*
X0031654Y0035397D01*
X0031236Y0035056D01*
X0030810Y0034726D01*
X0030377Y0034406D01*
X0029936Y0034097D01*
X0029487Y0033798D01*
X0033050Y0049050D02*
X0033293Y0049186D01*
X0033532Y0049328D01*
X0033767Y0049475D01*
X0033999Y0049629D01*
X0034227Y0049788D01*
X0034451Y0049952D01*
X0034671Y0050121D01*
X0034887Y0050296D01*
X0035098Y0050476D01*
X0035306Y0050662D01*
X0035508Y0050852D01*
X0035706Y0051047D01*
X0035900Y0051246D01*
X0036088Y0051450D01*
X0036272Y0051659D01*
X0036450Y0051872D01*
X0036623Y0052089D01*
X0036791Y0052311D01*
X0036954Y0052536D01*
X0037111Y0052765D01*
X0037262Y0052998D01*
X0037408Y0053235D01*
X0037548Y0053475D01*
X0037683Y0053718D01*
X0037811Y0053965D01*
X0037933Y0054214D01*
X0038050Y0054466D01*
X0038160Y0054722D01*
X0038264Y0054979D01*
X0038362Y0055239D01*
X0038453Y0055502D01*
X0038538Y0055766D01*
X0038617Y0056033D01*
X0038689Y0056301D01*
X0038755Y0056571D01*
X0038814Y0056842D01*
X0038867Y0057115D01*
X0038913Y0057389D01*
X0038953Y0057664D01*
X0038986Y0057940D01*
X0039012Y0058217D01*
X0039031Y0058494D01*
X0039044Y0058772D01*
X0039050Y0059050D01*
X0050050Y0087050D02*
X0050645Y0086894D01*
X0051236Y0086724D01*
X0051824Y0086540D01*
X0052406Y0086342D01*
X0052984Y0086130D01*
X0053556Y0085904D01*
X0054123Y0085664D01*
X0054683Y0085411D01*
X0055238Y0085144D01*
X0055786Y0084864D01*
X0056327Y0084571D01*
X0056861Y0084265D01*
X0057387Y0083946D01*
X0057905Y0083615D01*
X0058416Y0083271D01*
X0058918Y0082915D01*
X0059411Y0082547D01*
X0059895Y0082168D01*
X0060370Y0081777D01*
X0060836Y0081374D01*
X0061291Y0080961D01*
X0061737Y0080536D01*
X0062172Y0080101D01*
X0062597Y0079656D01*
X0063010Y0079200D01*
X0063413Y0078735D01*
X0063804Y0078260D01*
X0064184Y0077776D01*
X0064552Y0077283D01*
X0064908Y0076781D01*
X0065252Y0076271D01*
X0065584Y0075753D01*
X0065903Y0075227D01*
X0066209Y0074693D01*
X0066502Y0074152D01*
X0066783Y0073604D01*
X0067050Y0073050D01*
X0069487Y0043798D02*
X0070056Y0043805D01*
X0070625Y0043826D01*
X0071194Y0043860D01*
X0071761Y0043909D01*
X0072327Y0043971D01*
X0072891Y0044047D01*
X0073454Y0044137D01*
X0074013Y0044240D01*
X0074571Y0044357D01*
X0075125Y0044487D01*
X0075676Y0044631D01*
X0076223Y0044788D01*
X0076766Y0044959D01*
X0077305Y0045142D01*
X0077840Y0045339D01*
X0078369Y0045549D01*
X0078893Y0045771D01*
X0079412Y0046006D01*
X0079924Y0046254D01*
X0069487Y0043798D02*
X0059487Y0043798D01*
X0059487Y0053798D02*
X0052050Y0059050D01*
X0051861Y0059186D01*
X0051677Y0059327D01*
X0051495Y0059473D01*
X0051318Y0059622D01*
X0051144Y0059777D01*
X0050974Y0059935D01*
X0050808Y0060097D01*
X0050646Y0060264D01*
X0050488Y0060434D01*
X0050334Y0060608D01*
X0050185Y0060786D01*
X0050040Y0060968D01*
X0049899Y0061153D01*
X0049763Y0061341D01*
X0049632Y0061533D01*
X0049505Y0061728D01*
X0049384Y0061926D01*
X0049267Y0062127D01*
X0049155Y0062330D01*
X0049048Y0062537D01*
X0048946Y0062745D01*
X0048850Y0062957D01*
X0048758Y0063170D01*
X0048672Y0063386D01*
X0048591Y0063604D01*
X0048516Y0063824D01*
X0048446Y0064045D01*
X0048381Y0064269D01*
X0048322Y0064493D01*
X0048268Y0064719D01*
X0048220Y0064947D01*
X0048178Y0065175D01*
X0048141Y0065405D01*
X0048110Y0065635D01*
X0048084Y0065866D01*
X0048064Y0066097D01*
X0048050Y0066329D01*
X0048042Y0066561D01*
X0048039Y0066794D01*
X0048042Y0067026D01*
X0048050Y0067258D01*
X0048065Y0067490D01*
X0048085Y0067722D01*
X0048110Y0067953D01*
X0048142Y0068183D01*
X0048179Y0068412D01*
X0048221Y0068641D01*
X0048269Y0068868D01*
X0048323Y0069094D01*
X0048382Y0069319D01*
X0048447Y0069542D01*
X0048517Y0069763D01*
X0048592Y0069983D01*
X0048673Y0070201D01*
X0048759Y0070417D01*
X0048851Y0070630D01*
X0048948Y0070842D01*
X0049049Y0071050D01*
X0049051Y0071050D02*
X0049142Y0071233D01*
X0049229Y0071418D01*
X0049311Y0071605D01*
X0049389Y0071794D01*
X0049462Y0071985D01*
X0049531Y0072178D01*
X0049595Y0072372D01*
X0049654Y0072568D01*
X0049708Y0072765D01*
X0049758Y0072964D01*
X0049803Y0073163D01*
X0049843Y0073364D01*
X0049878Y0073566D01*
X0049908Y0073768D01*
X0049934Y0073971D01*
X0049955Y0074174D01*
X0049970Y0074378D01*
X0049981Y0074583D01*
X0049987Y0074787D01*
X0049988Y0074992D01*
X0049984Y0075196D01*
X0049975Y0075401D01*
X0049961Y0075605D01*
X0049942Y0075808D01*
X0049918Y0076012D01*
X0049890Y0076214D01*
X0049856Y0076416D01*
X0049818Y0076617D01*
X0049775Y0076817D01*
X0049727Y0077016D01*
X0049674Y0077213D01*
X0049617Y0077410D01*
X0049555Y0077605D01*
X0049488Y0077798D01*
X0041050Y0087050D02*
X0040793Y0087082D01*
X0040536Y0087108D01*
X0040278Y0087128D01*
X0040020Y0087141D01*
X0039761Y0087149D01*
X0039503Y0087150D01*
X0039244Y0087144D01*
X0038986Y0087133D01*
X0038728Y0087115D01*
X0038470Y0087091D01*
X0038213Y0087061D01*
X0037957Y0087025D01*
X0037702Y0086983D01*
X0037448Y0086934D01*
X0037195Y0086879D01*
X0036944Y0086818D01*
X0036694Y0086752D01*
X0036446Y0086679D01*
X0036200Y0086600D01*
X0035955Y0086515D01*
X0035713Y0086425D01*
X0035473Y0086328D01*
X0035236Y0086226D01*
X0035001Y0086118D01*
X0034768Y0086005D01*
X0034539Y0085886D01*
X0034312Y0085761D01*
X0034088Y0085631D01*
X0033868Y0085495D01*
X0033651Y0085355D01*
X0033438Y0085209D01*
X0033228Y0085058D01*
X0033021Y0084902D01*
X0032819Y0084741D01*
X0032620Y0084575D01*
X0032426Y0084405D01*
X0032236Y0084230D01*
X0032050Y0084050D01*
X0016049Y0065050D02*
X0016422Y0064632D01*
X0016804Y0064224D01*
X0017196Y0063824D01*
X0017597Y0063433D01*
X0018007Y0063052D01*
X0018426Y0062681D01*
X0018853Y0062320D01*
X0019289Y0061968D01*
X0019732Y0061627D01*
X0020184Y0061297D01*
X0020643Y0060977D01*
X0021110Y0060668D01*
X0021584Y0060370D01*
X0022064Y0060083D01*
X0022551Y0059807D01*
X0023045Y0059543D01*
X0023544Y0059291D01*
X0024050Y0059050D01*
X0041050Y0087050D02*
X0043300Y0086982D01*
X0045550Y0086959D01*
X0047800Y0086982D01*
X0050050Y0087050D01*
X0039487Y0077798D02*
X0039050Y0059050D01*
X0016141Y0067020D02*
X0019477Y0070278D01*
X0022738Y0073612D01*
X0025921Y0077020D01*
X0029026Y0080499D01*
X0032050Y0084049D01*
D18*
X0016141Y0067021D02*
X0016088Y0066968D01*
X0016038Y0066912D01*
X0015991Y0066853D01*
X0015947Y0066792D01*
X0015906Y0066729D01*
X0015869Y0066664D01*
X0015835Y0066597D01*
X0015805Y0066528D01*
X0015779Y0066458D01*
X0015756Y0066386D01*
X0015737Y0066314D01*
X0015721Y0066240D01*
X0015710Y0066166D01*
X0015703Y0066091D01*
X0015699Y0066016D01*
X0015700Y0065941D01*
X0015704Y0065866D01*
X0015713Y0065791D01*
X0015725Y0065717D01*
X0015741Y0065644D01*
X0015761Y0065572D01*
X0015785Y0065500D01*
X0015812Y0065430D01*
X0015843Y0065362D01*
X0015878Y0065295D01*
X0015916Y0065231D01*
X0015958Y0065168D01*
X0016003Y0065108D01*
X0016050Y0065050D01*
X0028050Y0049050D02*
X0028175Y0048985D01*
X0028301Y0048922D01*
X0028429Y0048863D01*
X0028558Y0048807D01*
X0028689Y0048755D01*
X0028822Y0048707D01*
X0028955Y0048662D01*
X0029090Y0048621D01*
X0029226Y0048583D01*
X0029363Y0048549D01*
X0029500Y0048519D01*
X0029639Y0048492D01*
X0029778Y0048470D01*
X0029917Y0048451D01*
X0030057Y0048435D01*
X0030198Y0048424D01*
X0030339Y0048416D01*
X0030480Y0048412D01*
X0030620Y0048412D01*
X0030761Y0048416D01*
X0030902Y0048424D01*
X0031043Y0048435D01*
X0031183Y0048451D01*
X0031322Y0048470D01*
X0031461Y0048492D01*
X0031600Y0048519D01*
X0031737Y0048549D01*
X0031874Y0048583D01*
X0032010Y0048621D01*
X0032145Y0048662D01*
X0032278Y0048707D01*
X0032411Y0048755D01*
X0032542Y0048807D01*
X0032671Y0048863D01*
X0032799Y0048922D01*
X0032925Y0048985D01*
X0033050Y0049050D01*
X0067050Y0073050D02*
X0067246Y0073443D01*
M02*
