G75*
%MOIN*%
%OFA0B0*%
%FSLAX25Y25*%
%IPPOS*%
%LPD*%
%AMOC8*
5,1,8,0,0,1.08239X$1,22.5*
%
%ADD10C,0.05200*%
%ADD11C,0.01320*%
%ADD12C,0.07400*%
%ADD13C,0.05937*%
%ADD14C,0.05543*%
%ADD15R,0.05543X0.05543*%
D10*
X0029487Y0033798D03*
X0029487Y0043798D03*
X0029487Y0053798D03*
X0029487Y0063798D03*
X0059487Y0063798D03*
X0059487Y0053798D03*
X0059487Y0043798D03*
X0059487Y0033798D03*
D11*
X0024781Y0017827D02*
X0024121Y0018487D01*
X0026176Y0017739D01*
X0027100Y0015758D01*
X0026352Y0013703D01*
X0024371Y0012779D01*
X0022316Y0013527D01*
X0021392Y0015508D01*
X0022140Y0017563D01*
X0024121Y0018487D01*
X0024168Y0017417D01*
X0025452Y0016949D01*
X0026030Y0015711D01*
X0025562Y0014427D01*
X0024324Y0013849D01*
X0023040Y0014317D01*
X0022462Y0015555D01*
X0022930Y0016839D01*
X0024168Y0017417D01*
X0024215Y0016346D01*
X0024728Y0016159D01*
X0024959Y0015664D01*
X0024772Y0015151D01*
X0024277Y0014920D01*
X0023764Y0015107D01*
X0023533Y0015602D01*
X0023720Y0016115D01*
X0024215Y0016346D01*
X0012103Y0045016D02*
X0011443Y0045676D01*
X0013498Y0044928D01*
X0014422Y0042947D01*
X0013674Y0040892D01*
X0011693Y0039968D01*
X0009638Y0040716D01*
X0008714Y0042697D01*
X0009462Y0044752D01*
X0011443Y0045676D01*
X0011490Y0044606D01*
X0012774Y0044138D01*
X0013352Y0042900D01*
X0012884Y0041616D01*
X0011646Y0041038D01*
X0010362Y0041506D01*
X0009784Y0042744D01*
X0010252Y0044028D01*
X0011490Y0044606D01*
X0011537Y0043535D01*
X0012050Y0043348D01*
X0012281Y0042853D01*
X0012094Y0042340D01*
X0011599Y0042109D01*
X0011086Y0042296D01*
X0010855Y0042791D01*
X0011042Y0043304D01*
X0011537Y0043535D01*
X0067781Y0075637D02*
X0067121Y0076297D01*
X0069176Y0075549D01*
X0070100Y0073568D01*
X0069352Y0071513D01*
X0067371Y0070589D01*
X0065316Y0071337D01*
X0064392Y0073318D01*
X0065140Y0075373D01*
X0067121Y0076297D01*
X0067168Y0075227D01*
X0068452Y0074759D01*
X0069030Y0073521D01*
X0068562Y0072237D01*
X0067324Y0071659D01*
X0066040Y0072127D01*
X0065462Y0073365D01*
X0065930Y0074649D01*
X0067168Y0075227D01*
X0067215Y0074156D01*
X0067728Y0073969D01*
X0067959Y0073474D01*
X0067772Y0072961D01*
X0067277Y0072730D01*
X0066764Y0072917D01*
X0066533Y0073412D01*
X0066720Y0073925D01*
X0067215Y0074156D01*
X0080459Y0048448D02*
X0079799Y0049108D01*
X0081854Y0048360D01*
X0082778Y0046379D01*
X0082030Y0044324D01*
X0080049Y0043400D01*
X0077994Y0044148D01*
X0077070Y0046129D01*
X0077818Y0048184D01*
X0079799Y0049108D01*
X0079846Y0048038D01*
X0081130Y0047570D01*
X0081708Y0046332D01*
X0081240Y0045048D01*
X0080002Y0044470D01*
X0078718Y0044938D01*
X0078140Y0046176D01*
X0078608Y0047460D01*
X0079846Y0048038D01*
X0079893Y0046967D01*
X0080406Y0046780D01*
X0080637Y0046285D01*
X0080450Y0045772D01*
X0079955Y0045541D01*
X0079442Y0045728D01*
X0079211Y0046223D01*
X0079398Y0046736D01*
X0079893Y0046967D01*
D12*
X0051987Y0013798D03*
X0036987Y0013798D03*
D13*
X0016965Y0056622D02*
X0011158Y0057857D01*
X0013237Y0067638D02*
X0019044Y0066404D01*
X0039487Y0074830D02*
X0039487Y0080767D01*
X0049487Y0080767D02*
X0049487Y0074830D01*
D14*
X0069487Y0043798D03*
D15*
X0069487Y0013798D03*
M02*
