G75*
%MOIN*%
%OFA0B0*%
%FSLAX25Y25*%
%IPPOS*%
%LPD*%
%AMOC8*
5,1,8,0,0,1.08239X$1,22.5*
%
%ADD10C,0.06000*%
%ADD11C,0.01480*%
%ADD12C,0.08200*%
%ADD13C,0.06737*%
%ADD14C,0.06343*%
%ADD15R,0.06343X0.06343*%
D10*
X0029487Y0033798D03*
X0029487Y0043798D03*
X0029487Y0053798D03*
X0029487Y0063798D03*
X0059487Y0063798D03*
X0059487Y0053798D03*
X0059487Y0043798D03*
X0059487Y0033798D03*
D11*
X0024847Y0018093D02*
X0024107Y0018833D01*
X0026410Y0017995D01*
X0027446Y0015772D01*
X0026608Y0013469D01*
X0024385Y0012433D01*
X0022082Y0013271D01*
X0021046Y0015494D01*
X0021884Y0017797D01*
X0024107Y0018833D01*
X0024159Y0017633D01*
X0025598Y0017109D01*
X0026246Y0015720D01*
X0025722Y0014281D01*
X0024333Y0013633D01*
X0022894Y0014157D01*
X0022246Y0015546D01*
X0022770Y0016985D01*
X0024159Y0017633D01*
X0024211Y0016432D01*
X0024787Y0016223D01*
X0025045Y0015668D01*
X0024836Y0015092D01*
X0024281Y0014834D01*
X0023705Y0015043D01*
X0023447Y0015598D01*
X0023656Y0016174D01*
X0024211Y0016432D01*
X0012169Y0045282D02*
X0011429Y0046022D01*
X0013732Y0045184D01*
X0014768Y0042961D01*
X0013930Y0040658D01*
X0011707Y0039622D01*
X0009404Y0040460D01*
X0008368Y0042683D01*
X0009206Y0044986D01*
X0011429Y0046022D01*
X0011481Y0044822D01*
X0012920Y0044298D01*
X0013568Y0042909D01*
X0013044Y0041470D01*
X0011655Y0040822D01*
X0010216Y0041346D01*
X0009568Y0042735D01*
X0010092Y0044174D01*
X0011481Y0044822D01*
X0011533Y0043621D01*
X0012109Y0043412D01*
X0012367Y0042857D01*
X0012158Y0042281D01*
X0011603Y0042023D01*
X0011027Y0042232D01*
X0010769Y0042787D01*
X0010978Y0043363D01*
X0011533Y0043621D01*
X0067847Y0075903D02*
X0067107Y0076643D01*
X0069410Y0075805D01*
X0070446Y0073582D01*
X0069608Y0071279D01*
X0067385Y0070243D01*
X0065082Y0071081D01*
X0064046Y0073304D01*
X0064884Y0075607D01*
X0067107Y0076643D01*
X0067159Y0075443D01*
X0068598Y0074919D01*
X0069246Y0073530D01*
X0068722Y0072091D01*
X0067333Y0071443D01*
X0065894Y0071967D01*
X0065246Y0073356D01*
X0065770Y0074795D01*
X0067159Y0075443D01*
X0067211Y0074242D01*
X0067787Y0074033D01*
X0068045Y0073478D01*
X0067836Y0072902D01*
X0067281Y0072644D01*
X0066705Y0072853D01*
X0066447Y0073408D01*
X0066656Y0073984D01*
X0067211Y0074242D01*
X0080525Y0048714D02*
X0079785Y0049454D01*
X0082088Y0048616D01*
X0083124Y0046393D01*
X0082286Y0044090D01*
X0080063Y0043054D01*
X0077760Y0043892D01*
X0076724Y0046115D01*
X0077562Y0048418D01*
X0079785Y0049454D01*
X0079837Y0048254D01*
X0081276Y0047730D01*
X0081924Y0046341D01*
X0081400Y0044902D01*
X0080011Y0044254D01*
X0078572Y0044778D01*
X0077924Y0046167D01*
X0078448Y0047606D01*
X0079837Y0048254D01*
X0079889Y0047053D01*
X0080465Y0046844D01*
X0080723Y0046289D01*
X0080514Y0045713D01*
X0079959Y0045455D01*
X0079383Y0045664D01*
X0079125Y0046219D01*
X0079334Y0046795D01*
X0079889Y0047053D01*
D12*
X0051987Y0013798D03*
X0036987Y0013798D03*
D13*
X0016965Y0056622D02*
X0011158Y0057857D01*
X0013237Y0067638D02*
X0019044Y0066404D01*
X0039487Y0074830D02*
X0039487Y0080767D01*
X0049487Y0080767D02*
X0049487Y0074830D01*
D14*
X0069487Y0043798D03*
D15*
X0069487Y0013798D03*
M02*
