%
M48
M72
T01C0.0320
T02C0.0354
T03C0.0394
%
T01
X2425Y1563
X3699Y1380
X5199Y1380
X5949Y3380
X5949Y4380
X5949Y5380
X5949Y6380
X6725Y7344
X7992Y4625
X2949Y4380
X2949Y5380
X2949Y6380
X1157Y4282
X2949Y3380
T02
X6949Y4380
X6949Y1380
T03
X1614Y6702
X1406Y5724
X3949Y7780
X4949Y7780
M30
