G75*
%MOIN*%
%OFA0B0*%
%FSLAX25Y25*%
%IPPOS*%
%LPD*%
%AMOC8*
5,1,8,0,0,1.08239X$1,22.5*
%
%ADD10C,0.00600*%
%ADD11C,0.00400*%
%ADD12C,0.00500*%
%ADD13R,0.01500X0.02000*%
%ADD14R,0.08000X0.02000*%
%ADD15R,0.02000X0.02500*%
%ADD16C,0.00200*%
D10*
X0018085Y0019380D02*
X0017451Y0020740D01*
X0017693Y0021404D01*
X0011776Y0034093D01*
X0011112Y0034334D01*
X0010478Y0035694D01*
X0010478Y0035693D02*
X0010454Y0035749D01*
X0010433Y0035806D01*
X0010416Y0035864D01*
X0010403Y0035923D01*
X0010393Y0035982D01*
X0010387Y0036042D01*
X0010384Y0036103D01*
X0010385Y0036163D01*
X0010390Y0036223D01*
X0010398Y0036283D01*
X0010410Y0036342D01*
X0010425Y0036401D01*
X0010444Y0036458D01*
X0010467Y0036514D01*
X0010492Y0036569D01*
X0010521Y0036622D01*
X0010553Y0036673D01*
X0010589Y0036722D01*
X0010627Y0036769D01*
X0010667Y0036814D01*
X0010711Y0036856D01*
X0010757Y0036895D01*
X0010805Y0036931D01*
X0010855Y0036965D01*
X0010907Y0036995D01*
X0010961Y0037022D01*
X0010962Y0037023D02*
X0016400Y0039559D01*
X0016399Y0039558D02*
X0016455Y0039582D01*
X0016512Y0039603D01*
X0016570Y0039620D01*
X0016629Y0039633D01*
X0016688Y0039643D01*
X0016748Y0039649D01*
X0016809Y0039652D01*
X0016869Y0039651D01*
X0016929Y0039646D01*
X0016989Y0039638D01*
X0017048Y0039626D01*
X0017107Y0039611D01*
X0017164Y0039592D01*
X0017220Y0039569D01*
X0017275Y0039544D01*
X0017328Y0039515D01*
X0017379Y0039483D01*
X0017428Y0039447D01*
X0017475Y0039409D01*
X0017520Y0039369D01*
X0017562Y0039325D01*
X0017601Y0039279D01*
X0017637Y0039231D01*
X0017671Y0039181D01*
X0017701Y0039129D01*
X0017728Y0039075D01*
X0017729Y0039075D02*
X0018362Y0037715D01*
X0018121Y0037051D01*
X0024037Y0024363D01*
X0024702Y0024121D01*
X0025336Y0022761D01*
X0025335Y0022762D02*
X0025360Y0022704D01*
X0025381Y0022645D01*
X0025398Y0022584D01*
X0025412Y0022523D01*
X0025422Y0022461D01*
X0025427Y0022398D01*
X0025429Y0022336D01*
X0025427Y0022273D01*
X0025421Y0022210D01*
X0025411Y0022148D01*
X0025397Y0022087D01*
X0025379Y0022027D01*
X0025357Y0021968D01*
X0025332Y0021910D01*
X0025304Y0021854D01*
X0025271Y0021800D01*
X0025236Y0021748D01*
X0025197Y0021699D01*
X0025156Y0021652D01*
X0025111Y0021608D01*
X0025064Y0021566D01*
X0025014Y0021528D01*
X0024962Y0021493D01*
X0024908Y0021461D01*
X0024852Y0021433D01*
X0024852Y0021432D02*
X0019414Y0018897D01*
X0019415Y0018897D02*
X0019359Y0018873D01*
X0019302Y0018852D01*
X0019244Y0018835D01*
X0019185Y0018822D01*
X0019126Y0018812D01*
X0019066Y0018806D01*
X0019005Y0018803D01*
X0018945Y0018804D01*
X0018885Y0018809D01*
X0018825Y0018817D01*
X0018766Y0018829D01*
X0018707Y0018844D01*
X0018650Y0018863D01*
X0018594Y0018886D01*
X0018539Y0018911D01*
X0018486Y0018940D01*
X0018435Y0018972D01*
X0018386Y0019008D01*
X0018339Y0019046D01*
X0018294Y0019086D01*
X0018252Y0019130D01*
X0018213Y0019176D01*
X0018177Y0019224D01*
X0018143Y0019274D01*
X0018113Y0019326D01*
X0018086Y0019380D01*
X0032987Y0028798D02*
X0055987Y0028798D01*
X0055987Y0068798D01*
X0048487Y0068798D01*
X0048485Y0068672D01*
X0048479Y0068547D01*
X0048469Y0068422D01*
X0048455Y0068297D01*
X0048438Y0068172D01*
X0048416Y0068048D01*
X0048391Y0067925D01*
X0048361Y0067803D01*
X0048328Y0067682D01*
X0048291Y0067562D01*
X0048251Y0067443D01*
X0048206Y0067326D01*
X0048158Y0067209D01*
X0048106Y0067095D01*
X0048051Y0066982D01*
X0047992Y0066871D01*
X0047930Y0066762D01*
X0047864Y0066655D01*
X0047795Y0066550D01*
X0047723Y0066447D01*
X0047648Y0066346D01*
X0047569Y0066248D01*
X0047487Y0066153D01*
X0047403Y0066060D01*
X0047315Y0065970D01*
X0047225Y0065882D01*
X0047132Y0065798D01*
X0047037Y0065716D01*
X0046939Y0065637D01*
X0046838Y0065562D01*
X0046735Y0065490D01*
X0046630Y0065421D01*
X0046523Y0065355D01*
X0046414Y0065293D01*
X0046303Y0065234D01*
X0046190Y0065179D01*
X0046076Y0065127D01*
X0045959Y0065079D01*
X0045842Y0065034D01*
X0045723Y0064994D01*
X0045603Y0064957D01*
X0045482Y0064924D01*
X0045360Y0064894D01*
X0045237Y0064869D01*
X0045113Y0064847D01*
X0044988Y0064830D01*
X0044863Y0064816D01*
X0044738Y0064806D01*
X0044613Y0064800D01*
X0044487Y0064798D01*
X0044361Y0064800D01*
X0044236Y0064806D01*
X0044111Y0064816D01*
X0043986Y0064830D01*
X0043861Y0064847D01*
X0043737Y0064869D01*
X0043614Y0064894D01*
X0043492Y0064924D01*
X0043371Y0064957D01*
X0043251Y0064994D01*
X0043132Y0065034D01*
X0043015Y0065079D01*
X0042898Y0065127D01*
X0042784Y0065179D01*
X0042671Y0065234D01*
X0042560Y0065293D01*
X0042451Y0065355D01*
X0042344Y0065421D01*
X0042239Y0065490D01*
X0042136Y0065562D01*
X0042035Y0065637D01*
X0041937Y0065716D01*
X0041842Y0065798D01*
X0041749Y0065882D01*
X0041659Y0065970D01*
X0041571Y0066060D01*
X0041487Y0066153D01*
X0041405Y0066248D01*
X0041326Y0066346D01*
X0041251Y0066447D01*
X0041179Y0066550D01*
X0041110Y0066655D01*
X0041044Y0066762D01*
X0040982Y0066871D01*
X0040923Y0066982D01*
X0040868Y0067095D01*
X0040816Y0067209D01*
X0040768Y0067326D01*
X0040723Y0067443D01*
X0040683Y0067562D01*
X0040646Y0067682D01*
X0040613Y0067803D01*
X0040583Y0067925D01*
X0040558Y0068048D01*
X0040536Y0068172D01*
X0040519Y0068297D01*
X0040505Y0068422D01*
X0040495Y0068547D01*
X0040489Y0068672D01*
X0040487Y0068798D01*
X0032987Y0068798D01*
X0032987Y0028798D01*
X0052550Y0009050D02*
X0052550Y0006050D01*
X0050550Y0007550D02*
X0054550Y0007550D01*
X0066487Y0019798D02*
X0072487Y0019798D01*
X0072547Y0019800D01*
X0072608Y0019805D01*
X0072667Y0019814D01*
X0072726Y0019827D01*
X0072785Y0019843D01*
X0072842Y0019863D01*
X0072897Y0019886D01*
X0072952Y0019913D01*
X0073004Y0019942D01*
X0073055Y0019975D01*
X0073104Y0020011D01*
X0073150Y0020049D01*
X0073194Y0020091D01*
X0073236Y0020135D01*
X0073274Y0020181D01*
X0073310Y0020230D01*
X0073343Y0020281D01*
X0073372Y0020333D01*
X0073399Y0020388D01*
X0073422Y0020443D01*
X0073442Y0020500D01*
X0073458Y0020559D01*
X0073471Y0020618D01*
X0073480Y0020677D01*
X0073485Y0020738D01*
X0073487Y0020798D01*
X0073487Y0036798D01*
X0073485Y0036858D01*
X0073480Y0036919D01*
X0073471Y0036978D01*
X0073458Y0037037D01*
X0073442Y0037096D01*
X0073422Y0037153D01*
X0073399Y0037208D01*
X0073372Y0037263D01*
X0073343Y0037315D01*
X0073310Y0037366D01*
X0073274Y0037415D01*
X0073236Y0037461D01*
X0073194Y0037505D01*
X0073150Y0037547D01*
X0073104Y0037585D01*
X0073055Y0037621D01*
X0073004Y0037654D01*
X0072952Y0037683D01*
X0072897Y0037710D01*
X0072842Y0037733D01*
X0072785Y0037753D01*
X0072726Y0037769D01*
X0072667Y0037782D01*
X0072608Y0037791D01*
X0072547Y0037796D01*
X0072487Y0037798D01*
X0066487Y0037798D01*
X0066427Y0037796D01*
X0066366Y0037791D01*
X0066307Y0037782D01*
X0066248Y0037769D01*
X0066189Y0037753D01*
X0066132Y0037733D01*
X0066077Y0037710D01*
X0066022Y0037683D01*
X0065970Y0037654D01*
X0065919Y0037621D01*
X0065870Y0037585D01*
X0065824Y0037547D01*
X0065780Y0037505D01*
X0065738Y0037461D01*
X0065700Y0037415D01*
X0065664Y0037366D01*
X0065631Y0037315D01*
X0065602Y0037263D01*
X0065575Y0037208D01*
X0065552Y0037153D01*
X0065532Y0037096D01*
X0065516Y0037037D01*
X0065503Y0036978D01*
X0065494Y0036919D01*
X0065489Y0036858D01*
X0065487Y0036798D01*
X0065487Y0020798D01*
X0065489Y0020738D01*
X0065494Y0020677D01*
X0065503Y0020618D01*
X0065516Y0020559D01*
X0065532Y0020500D01*
X0065552Y0020443D01*
X0065575Y0020388D01*
X0065602Y0020333D01*
X0065631Y0020281D01*
X0065664Y0020230D01*
X0065700Y0020181D01*
X0065738Y0020135D01*
X0065780Y0020091D01*
X0065824Y0020049D01*
X0065870Y0020011D01*
X0065919Y0019975D01*
X0065970Y0019942D01*
X0066022Y0019913D01*
X0066077Y0019886D01*
X0066132Y0019863D01*
X0066189Y0019843D01*
X0066248Y0019827D01*
X0066307Y0019814D01*
X0066366Y0019805D01*
X0066427Y0019800D01*
X0066487Y0019798D01*
X0067283Y0025998D02*
X0067283Y0028200D01*
X0068017Y0028934D01*
X0070953Y0028934D01*
X0071687Y0028200D01*
X0071687Y0025998D01*
X0067283Y0025998D01*
X0068751Y0030602D02*
X0067283Y0032070D01*
X0071687Y0032070D01*
X0071687Y0030602D02*
X0071687Y0033538D01*
X0075092Y0049518D02*
X0080530Y0052053D01*
X0080531Y0052054D02*
X0080587Y0052082D01*
X0080641Y0052114D01*
X0080693Y0052149D01*
X0080743Y0052187D01*
X0080790Y0052229D01*
X0080835Y0052273D01*
X0080876Y0052320D01*
X0080915Y0052369D01*
X0080950Y0052421D01*
X0080983Y0052475D01*
X0081011Y0052531D01*
X0081036Y0052589D01*
X0081058Y0052648D01*
X0081076Y0052708D01*
X0081090Y0052769D01*
X0081100Y0052831D01*
X0081106Y0052894D01*
X0081108Y0052957D01*
X0081106Y0053019D01*
X0081101Y0053082D01*
X0081091Y0053144D01*
X0081077Y0053205D01*
X0081060Y0053266D01*
X0081039Y0053325D01*
X0081014Y0053383D01*
X0081014Y0053382D02*
X0080380Y0054742D01*
X0079716Y0054983D01*
X0073799Y0067672D01*
X0074041Y0068336D01*
X0073407Y0069696D01*
X0073380Y0069750D01*
X0073350Y0069802D01*
X0073316Y0069852D01*
X0073280Y0069900D01*
X0073241Y0069946D01*
X0073199Y0069990D01*
X0073154Y0070030D01*
X0073107Y0070068D01*
X0073058Y0070104D01*
X0073007Y0070136D01*
X0072954Y0070165D01*
X0072899Y0070190D01*
X0072843Y0070213D01*
X0072786Y0070232D01*
X0072727Y0070247D01*
X0072668Y0070259D01*
X0072608Y0070267D01*
X0072548Y0070272D01*
X0072488Y0070273D01*
X0072427Y0070270D01*
X0072367Y0070264D01*
X0072308Y0070254D01*
X0072249Y0070241D01*
X0072191Y0070224D01*
X0072134Y0070203D01*
X0072078Y0070179D01*
X0066640Y0067644D01*
X0066640Y0067643D02*
X0066586Y0067616D01*
X0066534Y0067586D01*
X0066484Y0067552D01*
X0066436Y0067516D01*
X0066390Y0067477D01*
X0066346Y0067435D01*
X0066306Y0067390D01*
X0066268Y0067343D01*
X0066232Y0067294D01*
X0066200Y0067243D01*
X0066171Y0067190D01*
X0066146Y0067135D01*
X0066123Y0067079D01*
X0066104Y0067022D01*
X0066089Y0066963D01*
X0066077Y0066904D01*
X0066069Y0066844D01*
X0066064Y0066784D01*
X0066063Y0066724D01*
X0066066Y0066663D01*
X0066072Y0066603D01*
X0066082Y0066544D01*
X0066095Y0066485D01*
X0066112Y0066427D01*
X0066133Y0066370D01*
X0066157Y0066314D01*
X0066156Y0066315D02*
X0066790Y0064955D01*
X0067455Y0064713D01*
X0073371Y0052025D01*
X0073130Y0051361D01*
X0073763Y0050001D01*
X0073764Y0050001D02*
X0073791Y0049947D01*
X0073821Y0049895D01*
X0073855Y0049845D01*
X0073891Y0049797D01*
X0073930Y0049751D01*
X0073972Y0049707D01*
X0074017Y0049667D01*
X0074064Y0049629D01*
X0074113Y0049593D01*
X0074164Y0049561D01*
X0074217Y0049532D01*
X0074272Y0049507D01*
X0074328Y0049484D01*
X0074385Y0049465D01*
X0074444Y0049450D01*
X0074503Y0049438D01*
X0074563Y0049430D01*
X0074623Y0049425D01*
X0074683Y0049424D01*
X0074744Y0049427D01*
X0074804Y0049433D01*
X0074863Y0049443D01*
X0074922Y0049456D01*
X0074980Y0049473D01*
X0075037Y0049494D01*
X0075093Y0049518D01*
X0056168Y0071916D02*
X0056168Y0079790D01*
X0060105Y0075853D02*
X0052231Y0075853D01*
X0034550Y0075550D02*
X0034550Y0080550D01*
X0019550Y0073550D02*
X0014550Y0073550D01*
X0017050Y0071550D02*
X0017050Y0076050D01*
X0007869Y0064263D02*
X0006172Y0064623D01*
X0005657Y0064289D01*
X0005477Y0063441D01*
X0005811Y0062927D01*
X0007508Y0062566D01*
X0008022Y0062900D01*
X0008203Y0063748D01*
X0007869Y0064263D01*
X0005559Y0061741D02*
X0006895Y0059684D01*
X0007320Y0059594D01*
X0007680Y0061290D01*
X0005559Y0061741D02*
X0005135Y0061832D01*
X0004774Y0060135D01*
X0004522Y0058949D02*
X0004162Y0057252D01*
X0006707Y0056711D01*
X0007068Y0058408D01*
X0005615Y0057830D02*
X0005434Y0056982D01*
X0003934Y0056180D02*
X0003753Y0055331D01*
X0003843Y0055755D02*
X0006389Y0055214D01*
X0006299Y0054790D02*
X0006479Y0055638D01*
X0004774Y0053875D02*
X0005108Y0053361D01*
X0004837Y0052088D01*
X0005686Y0051908D02*
X0003141Y0052449D01*
X0003411Y0053722D01*
X0003925Y0054056D01*
X0004774Y0053875D01*
X0010550Y0053050D02*
X0015550Y0052050D01*
X0035050Y0007050D02*
X0039550Y0007050D01*
D11*
X0039701Y0018898D02*
X0042103Y0018898D01*
X0043384Y0018898D02*
X0045786Y0018898D01*
X0047067Y0018898D02*
X0048868Y0018898D01*
X0049469Y0019499D01*
X0049469Y0021901D01*
X0048868Y0022501D01*
X0047067Y0022501D01*
X0047067Y0018898D01*
X0044585Y0020700D02*
X0043384Y0020700D01*
X0043384Y0022501D02*
X0043384Y0018898D01*
X0043384Y0022501D02*
X0045786Y0022501D01*
X0039701Y0022501D02*
X0039701Y0018898D01*
X0076246Y0021250D02*
X0076246Y0022017D01*
X0080850Y0022017D01*
X0080850Y0021250D02*
X0080850Y0022785D01*
X0080083Y0024319D02*
X0078548Y0024319D01*
X0077781Y0025087D01*
X0077781Y0026621D01*
X0078548Y0027389D01*
X0079315Y0027389D01*
X0079315Y0024319D01*
X0080083Y0024319D02*
X0080850Y0025087D01*
X0080850Y0026621D01*
X0080083Y0028923D02*
X0078548Y0028923D01*
X0077781Y0029691D01*
X0077781Y0031992D01*
X0076246Y0031992D02*
X0080850Y0031992D01*
X0080850Y0029691D01*
X0080083Y0028923D01*
X0080850Y0033527D02*
X0076246Y0033527D01*
X0076246Y0035829D01*
X0077013Y0036596D01*
X0077781Y0036596D01*
X0078548Y0035829D01*
X0078548Y0033527D01*
X0080850Y0033527D02*
X0080850Y0035829D01*
X0080083Y0036596D01*
X0079315Y0036596D01*
X0078548Y0035829D01*
X0045695Y0085198D02*
X0046896Y0086399D01*
X0046896Y0088801D01*
X0048177Y0087000D02*
X0050579Y0087000D01*
X0049378Y0088201D02*
X0049378Y0085799D01*
X0045695Y0085198D02*
X0044494Y0086399D01*
X0044494Y0088801D01*
X0043213Y0088801D02*
X0042012Y0088201D01*
X0040811Y0087000D01*
X0042612Y0087000D01*
X0043213Y0086399D01*
X0043213Y0085799D01*
X0042612Y0085198D01*
X0041411Y0085198D01*
X0040811Y0085799D01*
X0040811Y0087000D01*
D12*
X0068846Y0064905D02*
X0070115Y0062184D01*
X0069481Y0063545D02*
X0073562Y0065448D01*
X0071567Y0066174D01*
X0074193Y0062319D02*
X0075191Y0061956D01*
X0075825Y0060595D01*
X0075462Y0059598D01*
X0071472Y0061050D01*
X0071109Y0060052D01*
X0071744Y0058692D01*
X0072741Y0058329D01*
X0075462Y0059598D01*
X0076819Y0058463D02*
X0076093Y0056468D01*
X0078088Y0055742D01*
X0074006Y0053839D01*
X0072738Y0056560D02*
X0076819Y0058463D01*
X0074193Y0062319D02*
X0071472Y0061050D01*
X0046737Y0056447D02*
X0046737Y0053444D01*
X0046737Y0054945D02*
X0042233Y0054945D01*
X0043734Y0053444D01*
X0044485Y0051843D02*
X0044485Y0048840D01*
X0042233Y0051092D01*
X0046737Y0051092D01*
X0042984Y0047239D02*
X0045986Y0044236D01*
X0046737Y0044236D01*
X0046737Y0042635D02*
X0042233Y0042635D01*
X0043734Y0041134D01*
X0042233Y0039632D01*
X0046737Y0039632D01*
X0046737Y0038031D02*
X0046737Y0035028D01*
X0042233Y0035028D01*
X0042233Y0044236D02*
X0042233Y0047239D01*
X0042984Y0047239D01*
X0021141Y0027343D02*
X0017059Y0025439D01*
X0018420Y0026074D02*
X0022410Y0024621D01*
X0019417Y0025711D02*
X0018328Y0022718D01*
X0017063Y0027208D02*
X0016065Y0027571D01*
X0015431Y0028931D01*
X0015794Y0029929D01*
X0019784Y0028477D01*
X0017063Y0027208D01*
X0019784Y0028477D02*
X0020147Y0029474D01*
X0019513Y0030835D01*
X0018515Y0031198D01*
X0015794Y0029929D01*
X0014437Y0031063D02*
X0013168Y0033784D01*
X0013802Y0032424D02*
X0017884Y0034327D01*
X0015889Y0035053D01*
X0031987Y0018798D02*
X0031987Y0008798D01*
X0031987Y0006298D02*
X0031989Y0006200D01*
X0031995Y0006102D01*
X0032004Y0006004D01*
X0032018Y0005907D01*
X0032035Y0005810D01*
X0032056Y0005714D01*
X0032081Y0005619D01*
X0032109Y0005525D01*
X0032142Y0005433D01*
X0032177Y0005341D01*
X0032217Y0005251D01*
X0032259Y0005163D01*
X0032306Y0005076D01*
X0032355Y0004992D01*
X0032408Y0004909D01*
X0032464Y0004829D01*
X0032524Y0004750D01*
X0032586Y0004674D01*
X0032651Y0004601D01*
X0032719Y0004530D01*
X0032790Y0004462D01*
X0032863Y0004397D01*
X0032939Y0004335D01*
X0033018Y0004275D01*
X0033098Y0004219D01*
X0033181Y0004166D01*
X0033265Y0004117D01*
X0033352Y0004070D01*
X0033440Y0004028D01*
X0033530Y0003988D01*
X0033622Y0003953D01*
X0033714Y0003920D01*
X0033808Y0003892D01*
X0033903Y0003867D01*
X0033999Y0003846D01*
X0034096Y0003829D01*
X0034193Y0003815D01*
X0034291Y0003806D01*
X0034389Y0003800D01*
X0034487Y0003798D01*
X0049487Y0003798D01*
X0049731Y0003801D01*
X0049974Y0003810D01*
X0050217Y0003825D01*
X0050460Y0003845D01*
X0050702Y0003872D01*
X0050943Y0003905D01*
X0051183Y0003943D01*
X0051423Y0003987D01*
X0051661Y0004037D01*
X0051898Y0004093D01*
X0052134Y0004155D01*
X0052368Y0004222D01*
X0052600Y0004295D01*
X0052831Y0004374D01*
X0053059Y0004458D01*
X0053286Y0004548D01*
X0053510Y0004643D01*
X0053732Y0004744D01*
X0053951Y0004850D01*
X0054167Y0004961D01*
X0054381Y0005078D01*
X0054592Y0005199D01*
X0054800Y0005326D01*
X0055005Y0005458D01*
X0055206Y0005595D01*
X0055404Y0005737D01*
X0055599Y0005883D01*
X0055790Y0006034D01*
X0055977Y0006190D01*
X0056160Y0006350D01*
X0056340Y0006515D01*
X0056515Y0006684D01*
X0056686Y0006857D01*
X0056853Y0007035D01*
X0057015Y0007216D01*
X0057173Y0007401D01*
X0057327Y0007590D01*
X0057476Y0007783D01*
X0057620Y0007979D01*
X0057759Y0008179D01*
X0057894Y0008382D01*
X0058023Y0008589D01*
X0058147Y0008798D01*
X0058266Y0009010D01*
X0058380Y0009226D01*
X0058489Y0009443D01*
X0058592Y0009664D01*
X0058690Y0009887D01*
X0058783Y0010112D01*
X0058870Y0010340D01*
X0058951Y0010569D01*
X0059027Y0010801D01*
X0059097Y0011034D01*
X0059162Y0011269D01*
X0059221Y0011505D01*
X0059274Y0011743D01*
X0059321Y0011982D01*
X0059362Y0012222D01*
X0059397Y0012463D01*
X0059427Y0012704D01*
X0059451Y0012947D01*
X0059468Y0013190D01*
X0059480Y0013433D01*
X0059486Y0013676D01*
X0059486Y0013920D01*
X0059480Y0014163D01*
X0059468Y0014406D01*
X0059451Y0014649D01*
X0059427Y0014892D01*
X0059397Y0015133D01*
X0059362Y0015374D01*
X0059321Y0015614D01*
X0059274Y0015853D01*
X0059221Y0016091D01*
X0059162Y0016327D01*
X0059097Y0016562D01*
X0059027Y0016795D01*
X0058951Y0017027D01*
X0058870Y0017256D01*
X0058783Y0017484D01*
X0058690Y0017709D01*
X0058592Y0017932D01*
X0058489Y0018153D01*
X0058380Y0018370D01*
X0058266Y0018586D01*
X0058147Y0018798D01*
X0058023Y0019007D01*
X0057894Y0019214D01*
X0057759Y0019417D01*
X0057620Y0019617D01*
X0057476Y0019813D01*
X0057327Y0020006D01*
X0057173Y0020195D01*
X0057015Y0020380D01*
X0056853Y0020561D01*
X0056686Y0020739D01*
X0056515Y0020912D01*
X0056340Y0021081D01*
X0056160Y0021246D01*
X0055977Y0021406D01*
X0055790Y0021562D01*
X0055599Y0021713D01*
X0055404Y0021859D01*
X0055206Y0022001D01*
X0055005Y0022138D01*
X0054800Y0022270D01*
X0054592Y0022397D01*
X0054381Y0022518D01*
X0054167Y0022635D01*
X0053951Y0022746D01*
X0053732Y0022852D01*
X0053510Y0022953D01*
X0053286Y0023048D01*
X0053059Y0023138D01*
X0052831Y0023222D01*
X0052600Y0023301D01*
X0052368Y0023374D01*
X0052134Y0023441D01*
X0051898Y0023503D01*
X0051661Y0023559D01*
X0051423Y0023609D01*
X0051183Y0023653D01*
X0050943Y0023691D01*
X0050702Y0023724D01*
X0050460Y0023751D01*
X0050217Y0023771D01*
X0049974Y0023786D01*
X0049731Y0023795D01*
X0049487Y0023798D01*
X0034487Y0023798D01*
X0034389Y0023796D01*
X0034291Y0023790D01*
X0034193Y0023781D01*
X0034096Y0023767D01*
X0033999Y0023750D01*
X0033903Y0023729D01*
X0033808Y0023704D01*
X0033714Y0023676D01*
X0033622Y0023643D01*
X0033530Y0023608D01*
X0033440Y0023568D01*
X0033352Y0023526D01*
X0033265Y0023479D01*
X0033181Y0023430D01*
X0033098Y0023377D01*
X0033018Y0023321D01*
X0032939Y0023261D01*
X0032863Y0023199D01*
X0032790Y0023134D01*
X0032719Y0023066D01*
X0032651Y0022995D01*
X0032586Y0022922D01*
X0032524Y0022846D01*
X0032464Y0022767D01*
X0032408Y0022687D01*
X0032355Y0022604D01*
X0032306Y0022520D01*
X0032259Y0022433D01*
X0032217Y0022345D01*
X0032177Y0022255D01*
X0032142Y0022163D01*
X0032109Y0022071D01*
X0032081Y0021977D01*
X0032056Y0021882D01*
X0032035Y0021786D01*
X0032018Y0021689D01*
X0032004Y0021592D01*
X0031995Y0021494D01*
X0031989Y0021396D01*
X0031987Y0021298D01*
D13*
G36*
X0023039Y0020587D02*
X0023673Y0019228D01*
X0021861Y0018383D01*
X0021227Y0019742D01*
X0023039Y0020587D01*
G37*
G36*
X0013953Y0040072D02*
X0014587Y0038713D01*
X0012775Y0037868D01*
X0012141Y0039227D01*
X0013953Y0040072D01*
G37*
G36*
X0069631Y0070693D02*
X0070265Y0069334D01*
X0068453Y0068489D01*
X0067819Y0069848D01*
X0069631Y0070693D01*
G37*
G36*
X0078717Y0051208D02*
X0079351Y0049849D01*
X0077539Y0049004D01*
X0076905Y0050363D01*
X0078717Y0051208D01*
G37*
D14*
X0069487Y0022298D03*
D15*
X0069487Y0018548D03*
X0069487Y0039048D03*
D16*
X0031234Y0054341D02*
X0031331Y0054798D01*
X0031151Y0055075D01*
X0030238Y0055269D01*
X0029961Y0055089D01*
X0029864Y0054632D01*
X0030044Y0054355D01*
X0030957Y0054161D01*
X0031234Y0054341D01*
X0031074Y0053585D02*
X0030879Y0052672D01*
X0030651Y0052720D01*
X0029931Y0053828D01*
X0029703Y0053877D01*
X0029509Y0052963D01*
X0029397Y0052436D02*
X0029203Y0051522D01*
X0030573Y0051231D01*
X0030767Y0052144D01*
X0029985Y0051833D02*
X0029888Y0051376D01*
X0030466Y0050727D02*
X0030369Y0050270D01*
X0030417Y0050498D02*
X0029047Y0050790D01*
X0029095Y0051018D02*
X0028998Y0050561D01*
X0029115Y0049985D02*
X0029572Y0049888D01*
X0029751Y0049611D01*
X0029606Y0048926D01*
X0030063Y0048829D02*
X0028692Y0049120D01*
X0028838Y0049805D01*
X0029115Y0049985D01*
M02*
