G75*
%MOIN*%
%OFA0B0*%
%FSLAX25Y25*%
%IPPOS*%
%LPD*%
%AMOC8*
5,1,8,0,0,1.08239X$1,22.5*
%
%ADD10C,0.00100*%
D10*
X0001050Y0046050D02*
X0001064Y0047154D01*
X0001104Y0048258D01*
X0001172Y0049360D01*
X0001267Y0050461D01*
X0001388Y0051558D01*
X0001537Y0052653D01*
X0001713Y0053743D01*
X0001915Y0054829D01*
X0002143Y0055910D01*
X0002399Y0056984D01*
X0002680Y0058052D01*
X0002988Y0059113D01*
X0003321Y0060166D01*
X0003681Y0061210D01*
X0004065Y0062245D01*
X0004475Y0063271D01*
X0004911Y0064286D01*
X0005370Y0065290D01*
X0005855Y0066283D01*
X0006364Y0067263D01*
X0006896Y0068230D01*
X0007452Y0069185D01*
X0008032Y0070125D01*
X0008634Y0071051D01*
X0009259Y0071961D01*
X0009906Y0072856D01*
X0010574Y0073735D01*
X0011265Y0074598D01*
X0011976Y0075443D01*
X0012707Y0076270D01*
X0013459Y0077079D01*
X0014230Y0077870D01*
X0015021Y0078641D01*
X0015830Y0079393D01*
X0016657Y0080124D01*
X0017502Y0080835D01*
X0018365Y0081526D01*
X0019244Y0082194D01*
X0020139Y0082841D01*
X0021049Y0083466D01*
X0021975Y0084068D01*
X0022915Y0084648D01*
X0023870Y0085204D01*
X0024837Y0085736D01*
X0025817Y0086245D01*
X0026810Y0086730D01*
X0027814Y0087189D01*
X0028829Y0087625D01*
X0029855Y0088035D01*
X0030890Y0088419D01*
X0031934Y0088779D01*
X0032987Y0089112D01*
X0034048Y0089420D01*
X0035116Y0089701D01*
X0036190Y0089957D01*
X0037271Y0090185D01*
X0038357Y0090387D01*
X0039447Y0090563D01*
X0040542Y0090712D01*
X0041639Y0090833D01*
X0042740Y0090928D01*
X0043842Y0090996D01*
X0044946Y0091036D01*
X0046050Y0091050D01*
X0047154Y0091036D01*
X0048258Y0090996D01*
X0049360Y0090928D01*
X0050461Y0090833D01*
X0051558Y0090712D01*
X0052653Y0090563D01*
X0053743Y0090387D01*
X0054829Y0090185D01*
X0055910Y0089957D01*
X0056984Y0089701D01*
X0058052Y0089420D01*
X0059113Y0089112D01*
X0060166Y0088779D01*
X0061210Y0088419D01*
X0062245Y0088035D01*
X0063271Y0087625D01*
X0064286Y0087189D01*
X0065290Y0086730D01*
X0066283Y0086245D01*
X0067263Y0085736D01*
X0068230Y0085204D01*
X0069185Y0084648D01*
X0070125Y0084068D01*
X0071051Y0083466D01*
X0071961Y0082841D01*
X0072856Y0082194D01*
X0073735Y0081526D01*
X0074598Y0080835D01*
X0075443Y0080124D01*
X0076270Y0079393D01*
X0077079Y0078641D01*
X0077870Y0077870D01*
X0078641Y0077079D01*
X0079393Y0076270D01*
X0080124Y0075443D01*
X0080835Y0074598D01*
X0081526Y0073735D01*
X0082194Y0072856D01*
X0082841Y0071961D01*
X0083466Y0071051D01*
X0084068Y0070125D01*
X0084648Y0069185D01*
X0085204Y0068230D01*
X0085736Y0067263D01*
X0086245Y0066283D01*
X0086730Y0065290D01*
X0087189Y0064286D01*
X0087625Y0063271D01*
X0088035Y0062245D01*
X0088419Y0061210D01*
X0088779Y0060166D01*
X0089112Y0059113D01*
X0089420Y0058052D01*
X0089701Y0056984D01*
X0089957Y0055910D01*
X0090185Y0054829D01*
X0090387Y0053743D01*
X0090563Y0052653D01*
X0090712Y0051558D01*
X0090833Y0050461D01*
X0090928Y0049360D01*
X0090996Y0048258D01*
X0091036Y0047154D01*
X0091050Y0046050D01*
X0091036Y0044946D01*
X0090996Y0043842D01*
X0090928Y0042740D01*
X0090833Y0041639D01*
X0090712Y0040542D01*
X0090563Y0039447D01*
X0090387Y0038357D01*
X0090185Y0037271D01*
X0089957Y0036190D01*
X0089701Y0035116D01*
X0089420Y0034048D01*
X0089112Y0032987D01*
X0088779Y0031934D01*
X0088419Y0030890D01*
X0088035Y0029855D01*
X0087625Y0028829D01*
X0087189Y0027814D01*
X0086730Y0026810D01*
X0086245Y0025817D01*
X0085736Y0024837D01*
X0085204Y0023870D01*
X0084648Y0022915D01*
X0084068Y0021975D01*
X0083466Y0021049D01*
X0082841Y0020139D01*
X0082194Y0019244D01*
X0081526Y0018365D01*
X0080835Y0017502D01*
X0080124Y0016657D01*
X0079393Y0015830D01*
X0078641Y0015021D01*
X0077870Y0014230D01*
X0077079Y0013459D01*
X0076270Y0012707D01*
X0075443Y0011976D01*
X0074598Y0011265D01*
X0073735Y0010574D01*
X0072856Y0009906D01*
X0071961Y0009259D01*
X0071051Y0008634D01*
X0070125Y0008032D01*
X0069185Y0007452D01*
X0068230Y0006896D01*
X0067263Y0006364D01*
X0066283Y0005855D01*
X0065290Y0005370D01*
X0064286Y0004911D01*
X0063271Y0004475D01*
X0062245Y0004065D01*
X0061210Y0003681D01*
X0060166Y0003321D01*
X0059113Y0002988D01*
X0058052Y0002680D01*
X0056984Y0002399D01*
X0055910Y0002143D01*
X0054829Y0001915D01*
X0053743Y0001713D01*
X0052653Y0001537D01*
X0051558Y0001388D01*
X0050461Y0001267D01*
X0049360Y0001172D01*
X0048258Y0001104D01*
X0047154Y0001064D01*
X0046050Y0001050D01*
X0044946Y0001064D01*
X0043842Y0001104D01*
X0042740Y0001172D01*
X0041639Y0001267D01*
X0040542Y0001388D01*
X0039447Y0001537D01*
X0038357Y0001713D01*
X0037271Y0001915D01*
X0036190Y0002143D01*
X0035116Y0002399D01*
X0034048Y0002680D01*
X0032987Y0002988D01*
X0031934Y0003321D01*
X0030890Y0003681D01*
X0029855Y0004065D01*
X0028829Y0004475D01*
X0027814Y0004911D01*
X0026810Y0005370D01*
X0025817Y0005855D01*
X0024837Y0006364D01*
X0023870Y0006896D01*
X0022915Y0007452D01*
X0021975Y0008032D01*
X0021049Y0008634D01*
X0020139Y0009259D01*
X0019244Y0009906D01*
X0018365Y0010574D01*
X0017502Y0011265D01*
X0016657Y0011976D01*
X0015830Y0012707D01*
X0015021Y0013459D01*
X0014230Y0014230D01*
X0013459Y0015021D01*
X0012707Y0015830D01*
X0011976Y0016657D01*
X0011265Y0017502D01*
X0010574Y0018365D01*
X0009906Y0019244D01*
X0009259Y0020139D01*
X0008634Y0021049D01*
X0008032Y0021975D01*
X0007452Y0022915D01*
X0006896Y0023870D01*
X0006364Y0024837D01*
X0005855Y0025817D01*
X0005370Y0026810D01*
X0004911Y0027814D01*
X0004475Y0028829D01*
X0004065Y0029855D01*
X0003681Y0030890D01*
X0003321Y0031934D01*
X0002988Y0032987D01*
X0002680Y0034048D01*
X0002399Y0035116D01*
X0002143Y0036190D01*
X0001915Y0037271D01*
X0001713Y0038357D01*
X0001537Y0039447D01*
X0001388Y0040542D01*
X0001267Y0041639D01*
X0001172Y0042740D01*
X0001104Y0043842D01*
X0001064Y0044946D01*
X0001050Y0046050D01*
M02*
