0
SECTION
2 
ENTITIES
0
LINE
8
Outline
10
11.73468
20
-2.73306
11
12.01509
21
-2.72951
0
LINE
8
Outline
10
12.01509
20
-2.72951
11
12.08573
21
-2.72778
0
LINE
8
Outline
10
12.08573
20
-2.72778
11
12.36615
21
-2.71762
0
LINE
8
Outline
10
12.36615
20
-2.71762
11
12.44228
21
-2.7139
0
LINE
8
Outline
10
12.44228
20
-2.7139
11
12.72218
21
-2.69663
0
LINE
8
Outline
10
12.72218
20
-2.69663
11
12.79532
21
-2.69121
0
LINE
8
Outline
10
12.79532
20
-2.69121
11
13.07498
21
-2.66708
0
LINE
8
Outline
10
13.07498
20
-2.66708
11
13.14606
21
-2.6601
0
LINE
8
Outline
10
13.14606
20
-2.6601
11
13.4247
21
-2.62936
0
LINE
8
Outline
10
13.4247
20
-2.62936
11
13.50016
21
-2.62006
0
LINE
8
Outline
10
13.50016
20
-2.62006
11
13.77829
21
-2.58222
0
LINE
8
Outline
10
13.77829
20
-2.58222
11
13.85213
21
-2.57124
0
LINE
8
Outline
10
13.85213
20
-2.57124
11
14.12899
21
-2.52653
0
LINE
8
Outline
10
14.12899
20
-2.52653
11
14.19935
21
-2.51431
0
LINE
8
Outline
10
14.19935
20
-2.51431
11
14.47519
21
-2.463
0
LINE
8
Outline
10
14.47519
20
-2.463
11
14.54565
21
-2.44902
0
LINE
8
Outline
10
14.54565
20
-2.44902
11
14.82023
21
-2.39111
0
LINE
8
Outline
10
14.82023
20
-2.39111
11
14.89671
21
-2.37393
0
LINE
8
Outline
10
14.89671
20
-2.37393
11
15.1695
21
-2.30891
0
LINE
8
Outline
10
15.1695
20
-2.30891
11
15.23734
21
-2.2919
0
LINE
8
Outline
10
15.23734
20
-2.2919
11
15.50861
21
-2.22052
0
LINE
8
Outline
10
15.50861
20
-2.22052
11
15.58151
21
-2.20035
0
LINE
8
Outline
10
15.58151
20
-2.20035
11
15.85101
21
-2.12212
0
LINE
8
Outline
10
15.85101
20
-2.12212
11
15.91925
21
-2.10143
0
LINE
8
Outline
10
15.91925
20
-2.10143
11
16.18671
21
-2.01685
0
LINE
8
Outline
10
16.18671
20
-2.01685
11
16.26015
21
-1.99258
0
LINE
8
Outline
10
16.26015
20
-1.99258
11
16.52532
21
-1.90114
0
LINE
8
Outline
10
16.52532
20
-1.90114
11
16.59081
21
-1.87771
0
LINE
8
Outline
10
16.59081
20
-1.87771
11
16.8537
21
-1.78018
0
LINE
8
Outline
10
16.8537
20
-1.78018
11
16.92353
21
-1.75328
0
LINE
8
Outline
10
16.92353
20
-1.75328
11
17.18414
21
-1.64913
0
LINE
8
Outline
10
17.18414
20
-1.64913
11
17.25485
21
-1.61982
0
LINE
8
Outline
10
17.25485
20
-1.61982
11
17.51266
21
-1.50908
0
LINE
8
Outline
10
17.51266
20
-1.50908
11
17.57608
21
-1.48096
0
LINE
8
Outline
10
17.57608
20
-1.48096
11
17.83108
21
-1.36437
0
LINE
8
Outline
10
17.83108
20
-1.36437
11
17.90017
21
-1.33171
0
LINE
8
Outline
10
17.90017
20
-1.33171
11
18.15241
21
-1.20852
0
LINE
8
Outline
10
18.15241
20
-1.20852
11
18.2186
21
-1.17517
0
LINE
8
Outline
10
18.2186
20
-1.17517
11
18.46752
21
-1.04589
0
LINE
8
Outline
10
18.46752
20
-1.04589
11
18.53088
21
-1.01202
0
LINE
8
Outline
10
18.53088
20
-1.01202
11
18.7765
21
-0.87689
0
LINE
8
Outline
10
18.7765
20
-0.87689
11
18.83985
21
-0.84103
0
LINE
8
Outline
10
18.83985
20
-0.84103
11
19.08241
21
-0.69981
0
LINE
8
Outline
10
19.08241
20
-0.69981
11
19.14825
21
-0.66034
0
LINE
8
Outline
10
19.14825
20
-0.66034
11
19.38702
21
-0.51302
0
LINE
8
Outline
10
19.38702
20
-0.51302
11
19.44687
21
-0.47511
0
LINE
8
Outline
10
19.44687
20
-0.47511
11
19.68207
21
-0.32221
0
LINE
8
Outline
10
19.68207
20
-0.32221
11
19.74546
21
-0.27985
0
LINE
8
Outline
10
19.74546
20
-0.27985
11
19.9766
21
-0.12109
0
LINE
8
Outline
10
19.9766
20
-0.12109
11
20.03567
21
-0.07946
0
LINE
8
Outline
10
20.03567
20
-0.07946
11
20.263
21
0.08488
0
LINE
8
Outline
10
20.263
20
0.08488
11
20.32062
21
0.12759
0
LINE
8
Outline
10
20.32062
20
0.12759
11
20.54388
21
0.29726
0
LINE
8
Outline
10
20.54388
20
0.29726
11
20.60376
21
0.34398
0
LINE
8
Outline
10
20.60376
20
0.34398
11
20.82297
21
0.5195
0
LINE
8
Outline
10
20.82297
20
0.5195
11
20.87935
21
0.56578
0
LINE
8
Outline
10
20.87935
20
0.56578
11
21.09398
21
0.74637
0
LINE
8
Outline
10
21.09398
20
0.74637
11
21.14933
21
0.7941
0
LINE
8
Outline
10
21.14933
20
0.7941
11
21.35939
21
0.97977
0
LINE
8
Outline
10
21.35939
20
0.97977
11
21.41512
21
1.03029
0
LINE
8
Outline
10
21.41512
20
1.03029
11
21.6206
21
1.2213
0
LINE
8
Outline
10
21.6206
20
1.2213
11
21.6721
21
1.27033
0
LINE
8
Outline
10
21.6721
20
1.27033
11
21.87301
21
1.46617
0
LINE
8
Outline
10
21.87301
20
1.46617
11
21.92722
21
1.52038
0
LINE
8
Outline
10
21.92722
20
1.52038
11
22.12306
21
1.72129
0
LINE
8
Outline
10
22.12306
20
1.72129
11
22.17209
21
1.77279
0
LINE
8
Outline
10
22.17209
20
1.77279
11
22.3631
21
1.97827
0
LINE
8
Outline
10
22.3631
20
1.97827
11
22.41367
21
2.03406
0
LINE
8
Outline
10
22.41367
20
2.03406
11
22.59933
21
2.24412
0
LINE
8
Outline
10
22.59933
20
2.24412
11
22.6469
21
2.29928
0
LINE
8
Outline
10
22.6469
20
2.29928
11
22.82751
21
2.51391
0
LINE
8
Outline
10
22.82751
20
2.51391
11
22.87396
21
2.57049
0
LINE
8
Outline
10
22.87396
20
2.57049
11
23.04947
21
2.7897
0
LINE
8
Outline
10
23.04947
20
2.7897
11
23.09613
21
2.84951
0
LINE
8
Outline
10
23.09613
20
2.84951
11
23.2658
21
3.07277
0
LINE
8
Outline
10
23.2658
20
3.07277
11
23.30851
21
3.13039
0
LINE
8
Outline
10
23.30851
20
3.13039
11
23.47285
21
3.35772
0
LINE
8
Outline
10
23.47285
20
3.35772
11
23.51453
21
3.41687
0
LINE
8
Outline
10
23.51453
20
3.41687
11
23.67328
21
3.64801
0
LINE
8
Outline
10
23.67328
20
3.64801
11
23.71558
21
3.7113
0
LINE
8
Outline
10
23.71558
20
3.7113
11
23.86849
21
3.94651
0
LINE
8
Outline
10
23.86849
20
3.94651
11
23.90638
21
4.00633
0
LINE
8
Outline
10
23.90638
20
4.00633
11
24.0537
21
4.24509
0
LINE
8
Outline
10
24.0537
20
4.24509
11
24.09322
21
4.31102
0
LINE
8
Outline
10
24.09322
20
4.31102
11
24.23444
21
4.55359
0
LINE
8
Outline
10
24.23444
20
4.55359
11
24.27026
21
4.61686
0
LINE
8
Outline
10
24.27026
20
4.61686
11
24.40539
21
4.86247
0
LINE
8
Outline
10
24.40539
20
4.86247
11
24.43924
21
4.92578
0
LINE
8
Outline
10
24.43924
20
4.92578
11
24.56853
21
5.1747
0
LINE
8
Outline
10
24.56853
20
5.1747
11
24.6019
21
5.24094
0
LINE
8
Outline
10
24.6019
20
5.24094
11
24.72509
21
5.49317
0
LINE
8
Outline
10
24.72509
20
5.49317
11
24.75783
21
5.56243
0
LINE
8
Outline
10
24.75783
20
5.56243
11
24.87441
21
5.81744
0
LINE
8
Outline
10
24.87441
20
5.81744
11
24.90247
21
5.88073
0
LINE
8
Outline
10
24.90247
20
5.88073
11
25.01321
21
6.13854
0
LINE
8
Outline
10
25.01321
20
6.13854
11
25.0425
21
6.20922
0
LINE
8
Outline
10
25.0425
20
6.20922
11
25.14665
21
6.46982
0
LINE
8
Outline
10
25.14665
20
6.46982
11
25.17358
21
6.53972
0
LINE
8
Outline
10
25.17358
20
6.53972
11
25.27111
21
6.80262
0
LINE
8
Outline
10
25.27111
20
6.80262
11
25.29453
21
6.86807
0
LINE
8
Outline
10
25.29453
20
6.86807
11
25.38597
21
7.13324
0
LINE
8
Outline
10
25.38597
20
7.13324
11
25.41024
21
7.20668
0
LINE
8
Outline
10
25.41024
20
7.20668
11
25.49482
21
7.47414
0
LINE
8
Outline
10
25.49482
20
7.47414
11
25.51548
21
7.54228
0
LINE
8
Outline
10
25.51548
20
7.54228
11
25.59372
21
7.81178
0
LINE
8
Outline
10
25.59372
20
7.81178
11
25.61395
21
7.88488
0
LINE
8
Outline
10
25.61395
20
7.88488
11
25.68532
21
8.15615
0
LINE
8
Outline
10
25.68532
20
8.15615
11
25.7023
21
8.22389
0
LINE
8
Outline
10
25.7023
20
8.22389
11
25.76732
21
8.49668
0
LINE
8
Outline
10
25.76732
20
8.49668
11
25.78447
21
8.57305
0
LINE
8
Outline
10
25.78447
20
8.57305
11
25.84239
21
8.84763
0
LINE
8
Outline
10
25.84239
20
8.84763
11
25.85642
21
8.9183
0
LINE
8
Outline
10
25.85642
20
8.9183
11
25.90772
21
9.19414
0
LINE
8
Outline
10
25.90772
20
9.19414
11
25.91992
21
9.2644
0
LINE
8
Outline
10
25.91992
20
9.2644
11
25.96463
21
9.54126
0
LINE
8
Outline
10
25.96463
20
9.54126
11
25.97561
21
9.6151
0
LINE
8
Outline
10
25.97561
20
9.6151
11
26.01345
21
9.89323
0
LINE
8
Outline
10
26.01345
20
9.89323
11
26.02275
21
9.96869
0
LINE
8
Outline
10
26.02275
20
9.96869
11
26.05349
21
10.24733
0
LINE
8
Outline
10
26.05349
20
10.24733
11
26.06047
21
10.31841
0
LINE
8
Outline
10
26.06047
20
10.31841
11
26.0846
21
10.59807
0
LINE
8
Outline
10
26.0846
20
10.59807
11
26.09002
21
10.67121
0
LINE
8
Outline
10
26.09002
20
10.67121
11
26.10729
21
10.95111
0
LINE
8
Outline
10
26.10729
20
10.95111
11
26.11101
21
11.02724
0
LINE
8
Outline
10
26.11101
20
11.02724
11
26.12117
21
11.30766
0
LINE
8
Outline
10
26.12117
20
11.30766
11
26.1229
21
11.3782
0
LINE
8
Outline
10
26.1229
20
11.3782
11
26.12646
21
11.65862
0
LINE
8
Outline
10
26.12646
20
11.65862
11
26.12646
21
11.73478
0
LINE
8
Outline
10
26.12646
20
11.73478
11
26.1229
21
12.01519
0
LINE
8
Outline
10
26.1229
20
12.01519
11
26.12117
21
12.08573
0
LINE
8
Outline
10
26.12117
20
12.08573
11
26.11101
21
12.36615
0
LINE
8
Outline
10
26.11101
20
12.36615
11
26.10729
21
12.44228
0
LINE
8
Outline
10
26.10729
20
12.44228
11
26.09002
21
12.72218
0
LINE
8
Outline
10
26.09002
20
12.72218
11
26.0846
21
12.79532
0
LINE
8
Outline
10
26.0846
20
12.79532
11
26.06047
21
13.07498
0
LINE
8
Outline
10
26.06047
20
13.07498
11
26.05349
21
13.14606
0
LINE
8
Outline
10
26.05349
20
13.14606
11
26.02275
21
13.4247
0
LINE
8
Outline
10
26.02275
20
13.4247
11
26.01345
21
13.50016
0
LINE
8
Outline
10
26.01345
20
13.50016
11
25.97561
21
13.77829
0
LINE
8
Outline
10
25.97561
20
13.77829
11
25.96463
21
13.85213
0
LINE
8
Outline
10
25.96463
20
13.85213
11
25.91992
21
14.12899
0
LINE
8
Outline
10
25.91992
20
14.12899
11
25.90772
21
14.19925
0
LINE
8
Outline
10
25.90772
20
14.19925
11
25.85642
21
14.47509
0
LINE
8
Outline
10
25.85642
20
14.47509
11
25.84239
21
14.54576
0
LINE
8
Outline
10
25.84239
20
14.54576
11
25.78447
21
14.82034
0
LINE
8
Outline
10
25.78447
20
14.82034
11
25.76732
21
14.89671
0
LINE
8
Outline
10
25.76732
20
14.89671
11
25.7023
21
15.1695
0
LINE
8
Outline
10
25.7023
20
15.1695
11
25.68532
21
15.23724
0
LINE
8
Outline
10
25.68532
20
15.23724
11
25.61395
21
15.50851
0
LINE
8
Outline
10
25.61395
20
15.50851
11
25.59372
21
15.58161
0
LINE
8
Outline
10
25.59372
20
15.58161
11
25.51548
21
15.85111
0
LINE
8
Outline
10
25.51548
20
15.85111
11
25.49482
21
15.91925
0
LINE
8
Outline
10
25.49482
20
15.91925
11
25.41024
21
16.18671
0
LINE
8
Outline
10
25.41024
20
16.18671
11
25.38597
21
16.26015
0
LINE
8
Outline
10
25.38597
20
16.26015
11
25.29453
21
16.52532
0
LINE
8
Outline
10
25.29453
20
16.52532
11
25.2711
21
16.59081
0
LINE
8
Outline
10
25.2711
20
16.59081
11
25.17357
21
16.8537
0
LINE
8
Outline
10
25.17357
20
16.8537
11
25.14667
21
16.92353
0
LINE
8
Outline
10
25.14667
20
16.92353
11
25.04252
21
17.18414
0
LINE
8
Outline
10
25.04252
20
17.18414
11
25.01321
21
17.25485
0
LINE
8
Outline
10
25.01321
20
17.25485
11
24.90247
21
17.51266
0
LINE
8
Outline
10
24.90247
20
17.51266
11
24.87439
21
17.576
0
LINE
8
Outline
10
24.87439
20
17.576
11
24.75781
21
17.831
0
LINE
8
Outline
10
24.75781
20
17.831
11
24.72511
21
17.90017
0
LINE
8
Outline
10
24.72511
20
17.90017
11
24.60192
21
18.15241
0
LINE
8
Outline
10
24.60192
20
18.15241
11
24.56853
21
18.21869
0
LINE
8
Outline
10
24.56853
20
18.21869
11
24.43924
21
18.46761
0
LINE
8
Outline
10
24.43924
20
18.46761
11
24.40541
21
18.53088
0
LINE
8
Outline
10
24.40541
20
18.53088
11
24.27028
21
18.7765
0
LINE
8
Outline
10
24.27028
20
18.7765
11
24.23442
21
18.83985
0
LINE
8
Outline
10
24.23442
20
18.83985
11
24.0932
21
19.08241
0
LINE
8
Outline
10
24.0932
20
19.08241
11
24.05373
21
19.14825
0
LINE
8
Outline
10
24.05373
20
19.14825
11
23.90641
21
19.38702
0
LINE
8
Outline
10
23.90641
20
19.38702
11
23.86845
21
19.44694
0
LINE
8
Outline
10
23.86845
20
19.44694
11
23.71554
21
19.68214
0
LINE
8
Outline
10
23.71554
20
19.68214
11
23.67328
21
19.74538
0
LINE
8
Outline
10
23.67328
20
19.74538
11
23.51453
21
19.97652
0
LINE
8
Outline
10
23.51453
20
19.97652
11
23.47285
21
20.03567
0
LINE
8
Outline
10
23.47285
20
20.03567
11
23.30851
21
20.263
0
LINE
8
Outline
10
23.30851
20
20.263
11
23.2658
21
20.32062
0
LINE
8
Outline
10
23.2658
20
20.32062
11
23.09613
21
20.54388
0
LINE
8
Outline
10
23.09613
20
20.54388
11
23.04947
21
20.60369
0
LINE
8
Outline
10
23.04947
20
20.60369
11
22.87396
21
20.8229
0
LINE
8
Outline
10
22.87396
20
20.8229
11
22.82751
21
20.87948
0
LINE
8
Outline
10
22.82751
20
20.87948
11
22.6469
21
21.09411
0
LINE
8
Outline
10
22.6469
20
21.09411
11
22.59933
21
21.14927
0
LINE
8
Outline
10
22.59933
20
21.14927
11
22.41367
21
21.35933
0
LINE
8
Outline
10
22.41367
20
21.35933
11
22.3631
21
21.41512
0
LINE
8
Outline
10
22.3631
20
21.41512
11
22.17209
21
21.6206
0
LINE
8
Outline
10
22.17209
20
21.6206
11
22.12306
21
21.6721
0
LINE
8
Outline
10
22.12306
20
21.6721
11
21.92722
21
21.87301
0
LINE
8
Outline
10
21.92722
20
21.87301
11
21.87301
21
21.92722
0
LINE
8
Outline
10
21.87301
20
21.92722
11
21.6721
21
22.12306
0
LINE
8
Outline
10
21.6721
20
22.12306
11
21.6206
21
22.17209
0
LINE
8
Outline
10
21.6206
20
22.17209
11
21.41512
21
22.3631
0
LINE
8
Outline
10
21.41512
20
22.3631
11
21.35933
21
22.41367
0
LINE
8
Outline
10
21.35933
20
22.41367
11
21.14927
21
22.59933
0
LINE
8
Outline
10
21.14927
20
22.59933
11
21.09411
21
22.6469
0
LINE
8
Outline
10
21.09411
20
22.6469
11
20.87948
21
22.82751
0
LINE
8
Outline
10
20.87948
20
22.82751
11
20.8229
21
22.87396
0
LINE
8
Outline
10
20.8229
20
22.87396
11
20.60369
21
23.04947
0
LINE
8
Outline
10
20.60369
20
23.04947
11
20.54388
21
23.09613
0
LINE
8
Outline
10
20.54388
20
23.09613
11
20.32062
21
23.2658
0
LINE
8
Outline
10
20.32062
20
23.2658
11
20.263
21
23.30851
0
LINE
8
Outline
10
20.263
20
23.30851
11
20.03567
21
23.47285
0
LINE
8
Outline
10
20.03567
20
23.47285
11
19.97652
21
23.51453
0
LINE
8
Outline
10
19.97652
20
23.51453
11
19.74538
21
23.67328
0
LINE
8
Outline
10
19.74538
20
23.67328
11
19.68214
21
23.71554
0
LINE
8
Outline
10
19.68214
20
23.71554
11
19.44694
21
23.86845
0
LINE
8
Outline
10
19.44694
20
23.86845
11
19.38702
21
23.90641
0
LINE
8
Outline
10
19.38702
20
23.90641
11
19.14825
21
24.05373
0
LINE
8
Outline
10
19.14825
20
24.05373
11
19.08241
21
24.0932
0
LINE
8
Outline
10
19.08241
20
24.0932
11
18.83985
21
24.23442
0
LINE
8
Outline
10
18.83985
20
24.23442
11
18.7765
21
24.27028
0
LINE
8
Outline
10
18.7765
20
24.27028
11
18.53088
21
24.40541
0
LINE
8
Outline
10
18.53088
20
24.40541
11
18.46761
21
24.43924
0
LINE
8
Outline
10
18.46761
20
24.43924
11
18.21869
21
24.56853
0
LINE
8
Outline
10
18.21869
20
24.56853
11
18.15241
21
24.60192
0
LINE
8
Outline
10
18.15241
20
24.60192
11
17.90017
21
24.72511
0
LINE
8
Outline
10
17.90017
20
24.72511
11
17.831
21
24.75781
0
LINE
8
Outline
10
17.831
20
24.75781
11
17.576
21
24.87439
0
LINE
8
Outline
10
17.576
20
24.87439
11
17.51266
21
24.90247
0
LINE
8
Outline
10
17.51266
20
24.90247
11
17.25485
21
25.01321
0
LINE
8
Outline
10
17.25485
20
25.01321
11
17.18414
21
25.04252
0
LINE
8
Outline
10
17.18414
20
25.04252
11
16.92353
21
25.14667
0
LINE
8
Outline
10
16.92353
20
25.14667
11
16.8537
21
25.17357
0
LINE
8
Outline
10
16.8537
20
25.17357
11
16.59081
21
25.2711
0
LINE
8
Outline
10
16.59081
20
25.2711
11
16.52532
21
25.29453
0
LINE
8
Outline
10
16.52532
20
25.29453
11
16.26015
21
25.38597
0
LINE
8
Outline
10
16.26015
20
25.38597
11
16.18671
21
25.41024
0
LINE
8
Outline
10
16.18671
20
25.41024
11
15.91925
21
25.49482
0
LINE
8
Outline
10
15.91925
20
25.49482
11
15.85111
21
25.51548
0
LINE
8
Outline
10
15.85111
20
25.51548
11
15.58161
21
25.59372
0
LINE
8
Outline
10
15.58161
20
25.59372
11
15.50851
21
25.61395
0
LINE
8
Outline
10
15.50851
20
25.61395
11
15.23724
21
25.68532
0
LINE
8
Outline
10
15.23724
20
25.68532
11
15.1695
21
25.7023
0
LINE
8
Outline
10
15.1695
20
25.7023
11
14.89671
21
25.76732
0
LINE
8
Outline
10
14.89671
20
25.76732
11
14.82034
21
25.78447
0
LINE
8
Outline
10
14.82034
20
25.78447
11
14.54576
21
25.84239
0
LINE
8
Outline
10
14.54576
20
25.84239
11
14.47509
21
25.85642
0
LINE
8
Outline
10
14.47509
20
25.85642
11
14.19925
21
25.90772
0
LINE
8
Outline
10
14.19925
20
25.90772
11
14.12899
21
25.91992
0
LINE
8
Outline
10
14.12899
20
25.91992
11
13.85213
21
25.96463
0
LINE
8
Outline
10
13.85213
20
25.96463
11
13.77829
21
25.97561
0
LINE
8
Outline
10
13.77829
20
25.97561
11
13.50016
21
26.01345
0
LINE
8
Outline
10
13.50016
20
26.01345
11
13.4247
21
26.02275
0
LINE
8
Outline
10
13.4247
20
26.02275
11
13.14606
21
26.05349
0
LINE
8
Outline
10
13.14606
20
26.05349
11
13.07498
21
26.06047
0
LINE
8
Outline
10
13.07498
20
26.06047
11
12.79532
21
26.0846
0
LINE
8
Outline
10
12.79532
20
26.0846
11
12.72218
21
26.09002
0
LINE
8
Outline
10
12.72218
20
26.09002
11
12.44228
21
26.10729
0
LINE
8
Outline
10
12.44228
20
26.10729
11
12.36615
21
26.11101
0
LINE
8
Outline
10
12.36615
20
26.11101
11
12.08573
21
26.12117
0
LINE
8
Outline
10
12.08573
20
26.12117
11
12.01519
21
26.1229
0
LINE
8
Outline
10
12.01519
20
26.1229
11
11.73478
21
26.12646
0
LINE
8
Outline
10
11.73478
20
26.12646
11
11.65862
21
26.12646
0
LINE
8
Outline
10
11.65862
20
26.12646
11
11.3782
21
26.1229
0
LINE
8
Outline
10
11.3782
20
26.1229
11
11.30766
21
26.12117
0
LINE
8
Outline
10
11.30766
20
26.12117
11
11.02724
21
26.11101
0
LINE
8
Outline
10
11.02724
20
26.11101
11
10.95111
21
26.10729
0
LINE
8
Outline
10
10.95111
20
26.10729
11
10.67121
21
26.09002
0
LINE
8
Outline
10
10.67121
20
26.09002
11
10.59807
21
26.0846
0
LINE
8
Outline
10
10.59807
20
26.0846
11
10.31841
21
26.06047
0
LINE
8
Outline
10
10.31841
20
26.06047
11
10.24733
21
26.05349
0
LINE
8
Outline
10
10.24733
20
26.05349
11
9.96869
21
26.02275
0
LINE
8
Outline
10
9.96869
20
26.02275
11
9.89323
21
26.01345
0
LINE
8
Outline
10
9.89323
20
26.01345
11
9.6151
21
25.97561
0
LINE
8
Outline
10
9.6151
20
25.97561
11
9.54126
21
25.96463
0
LINE
8
Outline
10
9.54126
20
25.96463
11
9.2644
21
25.91992
0
LINE
8
Outline
10
9.2644
20
25.91992
11
9.19414
21
25.90772
0
LINE
8
Outline
10
9.19414
20
25.90772
11
8.9183
21
25.85642
0
LINE
8
Outline
10
8.9183
20
25.85642
11
8.84763
21
25.84239
0
LINE
8
Outline
10
8.84763
20
25.84239
11
8.57305
21
25.78447
0
LINE
8
Outline
10
8.57305
20
25.78447
11
8.49668
21
25.76732
0
LINE
8
Outline
10
8.49668
20
25.76732
11
8.22389
21
25.7023
0
LINE
8
Outline
10
8.22389
20
25.7023
11
8.15615
21
25.68532
0
LINE
8
Outline
10
8.15615
20
25.68532
11
7.88488
21
25.61395
0
LINE
8
Outline
10
7.88488
20
25.61395
11
7.81178
21
25.59372
0
LINE
8
Outline
10
7.81178
20
25.59372
11
7.54228
21
25.51548
0
LINE
8
Outline
10
7.54228
20
25.51548
11
7.47414
21
25.49482
0
LINE
8
Outline
10
7.47414
20
25.49482
11
7.20668
21
25.41024
0
LINE
8
Outline
10
7.20668
20
25.41024
11
7.13324
21
25.38597
0
LINE
8
Outline
10
7.13324
20
25.38597
11
6.86807
21
25.29453
0
LINE
8
Outline
10
6.86807
20
25.29453
11
6.80262
21
25.27111
0
LINE
8
Outline
10
6.80262
20
25.27111
11
6.53972
21
25.17358
0
LINE
8
Outline
10
6.53972
20
25.17358
11
6.46982
21
25.14665
0
LINE
8
Outline
10
6.46982
20
25.14665
11
6.20922
21
25.0425
0
LINE
8
Outline
10
6.20922
20
25.0425
11
6.13854
21
25.01321
0
LINE
8
Outline
10
6.13854
20
25.01321
11
5.88073
21
24.90247
0
LINE
8
Outline
10
5.88073
20
24.90247
11
5.81744
21
24.87441
0
LINE
8
Outline
10
5.81744
20
24.87441
11
5.56243
21
24.75783
0
LINE
8
Outline
10
5.56243
20
24.75783
11
5.49317
21
24.72509
0
LINE
8
Outline
10
5.49317
20
24.72509
11
5.24094
21
24.6019
0
LINE
8
Outline
10
5.24094
20
24.6019
11
5.1747
21
24.56853
0
LINE
8
Outline
10
5.1747
20
24.56853
11
4.92578
21
24.43924
0
LINE
8
Outline
10
4.92578
20
24.43924
11
4.86247
21
24.40539
0
LINE
8
Outline
10
4.86247
20
24.40539
11
4.61686
21
24.27026
0
LINE
8
Outline
10
4.61686
20
24.27026
11
4.55359
21
24.23444
0
LINE
8
Outline
10
4.55359
20
24.23444
11
4.31102
21
24.09322
0
LINE
8
Outline
10
4.31102
20
24.09322
11
4.24509
21
24.0537
0
LINE
8
Outline
10
4.24509
20
24.0537
11
4.00633
21
23.90638
0
LINE
8
Outline
10
4.00633
20
23.90638
11
3.94651
21
23.86849
0
LINE
8
Outline
10
3.94651
20
23.86849
11
3.7113
21
23.71558
0
LINE
8
Outline
10
3.7113
20
23.71558
11
3.64801
21
23.67328
0
LINE
8
Outline
10
3.64801
20
23.67328
11
3.41687
21
23.51453
0
LINE
8
Outline
10
3.41687
20
23.51453
11
3.35772
21
23.47285
0
LINE
8
Outline
10
3.35772
20
23.47285
11
3.13039
21
23.30851
0
LINE
8
Outline
10
3.13039
20
23.30851
11
3.07277
21
23.2658
0
LINE
8
Outline
10
3.07277
20
23.2658
11
2.84951
21
23.09613
0
LINE
8
Outline
10
2.84951
20
23.09613
11
2.7897
21
23.04947
0
LINE
8
Outline
10
2.7897
20
23.04947
11
2.57049
21
22.87396
0
LINE
8
Outline
10
2.57049
20
22.87396
11
2.51391
21
22.82751
0
LINE
8
Outline
10
2.51391
20
22.82751
11
2.29928
21
22.6469
0
LINE
8
Outline
10
2.29928
20
22.6469
11
2.24412
21
22.59933
0
LINE
8
Outline
10
2.24412
20
22.59933
11
2.03406
21
22.41367
0
LINE
8
Outline
10
2.03406
20
22.41367
11
1.97827
21
22.3631
0
LINE
8
Outline
10
1.97827
20
22.3631
11
1.77279
21
22.17209
0
LINE
8
Outline
10
1.77279
20
22.17209
11
1.72129
21
22.12306
0
LINE
8
Outline
10
1.72129
20
22.12306
11
1.52038
21
21.92722
0
LINE
8
Outline
10
1.52038
20
21.92722
11
1.46617
21
21.87301
0
LINE
8
Outline
10
1.46617
20
21.87301
11
1.27033
21
21.6721
0
LINE
8
Outline
10
1.27033
20
21.6721
11
1.2213
21
21.6206
0
LINE
8
Outline
10
1.2213
20
21.6206
11
1.03029
21
21.41512
0
LINE
8
Outline
10
1.03029
20
21.41512
11
0.97977
21
21.35939
0
LINE
8
Outline
10
0.97977
20
21.35939
11
0.7941
21
21.14933
0
LINE
8
Outline
10
0.7941
20
21.14933
11
0.74637
21
21.09398
0
LINE
8
Outline
10
0.74637
20
21.09398
11
0.56578
21
20.87935
0
LINE
8
Outline
10
0.56578
20
20.87935
11
0.5195
21
20.82297
0
LINE
8
Outline
10
0.5195
20
20.82297
11
0.34398
21
20.60376
0
LINE
8
Outline
10
0.34398
20
20.60376
11
0.29726
21
20.54388
0
LINE
8
Outline
10
0.29726
20
20.54388
11
0.12759
21
20.32062
0
LINE
8
Outline
10
0.12759
20
20.32062
11
0.08488
21
20.263
0
LINE
8
Outline
10
0.08488
20
20.263
11
-0.07946
21
20.03567
0
LINE
8
Outline
10
-0.07946
20
20.03567
11
-0.12109
21
19.9766
0
LINE
8
Outline
10
-0.12109
20
19.9766
11
-0.27985
21
19.74546
0
LINE
8
Outline
10
-0.27985
20
19.74546
11
-0.32221
21
19.68207
0
LINE
8
Outline
10
-0.32221
20
19.68207
11
-0.47511
21
19.44687
0
LINE
8
Outline
10
-0.47511
20
19.44687
11
-0.51302
21
19.38702
0
LINE
8
Outline
10
-0.51302
20
19.38702
11
-0.66034
21
19.14825
0
LINE
8
Outline
10
-0.66034
20
19.14825
11
-0.69981
21
19.08241
0
LINE
8
Outline
10
-0.69981
20
19.08241
11
-0.84103
21
18.83985
0
LINE
8
Outline
10
-0.84103
20
18.83985
11
-0.87689
21
18.7765
0
LINE
8
Outline
10
-0.87689
20
18.7765
11
-1.01202
21
18.53088
0
LINE
8
Outline
10
-1.01202
20
18.53088
11
-1.04589
21
18.46752
0
LINE
8
Outline
10
-1.04589
20
18.46752
11
-1.17517
21
18.2186
0
LINE
8
Outline
10
-1.17517
20
18.2186
11
-1.20852
21
18.15241
0
LINE
8
Outline
10
-1.20852
20
18.15241
11
-1.33171
21
17.90017
0
LINE
8
Outline
10
-1.33171
20
17.90017
11
-1.36437
21
17.83108
0
LINE
8
Outline
10
-1.36437
20
17.83108
11
-1.48096
21
17.57608
0
LINE
8
Outline
10
-1.48096
20
17.57608
11
-1.50908
21
17.51266
0
LINE
8
Outline
10
-1.50908
20
17.51266
11
-1.61982
21
17.25485
0
LINE
8
Outline
10
-1.61982
20
17.25485
11
-1.64913
21
17.18414
0
LINE
8
Outline
10
-1.64913
20
17.18414
11
-1.75328
21
16.92353
0
LINE
8
Outline
10
-1.75328
20
16.92353
11
-1.78018
21
16.8537
0
LINE
8
Outline
10
-1.78018
20
16.8537
11
-1.87771
21
16.59081
0
LINE
8
Outline
10
-1.87771
20
16.59081
11
-1.90114
21
16.52532
0
LINE
8
Outline
10
-1.90114
20
16.52532
11
-1.99258
21
16.26015
0
LINE
8
Outline
10
-1.99258
20
16.26015
11
-2.01685
21
16.18671
0
LINE
8
Outline
10
-2.01685
20
16.18671
11
-2.10143
21
15.91925
0
LINE
8
Outline
10
-2.10143
20
15.91925
11
-2.12212
21
15.85101
0
LINE
8
Outline
10
-2.12212
20
15.85101
11
-2.20035
21
15.58151
0
LINE
8
Outline
10
-2.20035
20
15.58151
11
-2.22052
21
15.50861
0
LINE
8
Outline
10
-2.22052
20
15.50861
11
-2.2919
21
15.23734
0
LINE
8
Outline
10
-2.2919
20
15.23734
11
-2.30891
21
15.1695
0
LINE
8
Outline
10
-2.30891
20
15.1695
11
-2.37393
21
14.89671
0
LINE
8
Outline
10
-2.37393
20
14.89671
11
-2.39111
21
14.82023
0
LINE
8
Outline
10
-2.39111
20
14.82023
11
-2.44902
21
14.54565
0
LINE
8
Outline
10
-2.44902
20
14.54565
11
-2.463
21
14.47519
0
LINE
8
Outline
10
-2.463
20
14.47519
11
-2.51431
21
14.19935
0
LINE
8
Outline
10
-2.51431
20
14.19935
11
-2.52653
21
14.12899
0
LINE
8
Outline
10
-2.52653
20
14.12899
11
-2.57124
21
13.85213
0
LINE
8
Outline
10
-2.57124
20
13.85213
11
-2.58222
21
13.77829
0
LINE
8
Outline
10
-2.58222
20
13.77829
11
-2.62006
21
13.50016
0
LINE
8
Outline
10
-2.62006
20
13.50016
11
-2.62936
21
13.4247
0
LINE
8
Outline
10
-2.62936
20
13.4247
11
-2.6601
21
13.14606
0
LINE
8
Outline
10
-2.6601
20
13.14606
11
-2.66708
21
13.07498
0
LINE
8
Outline
10
-2.66708
20
13.07498
11
-2.69121
21
12.79532
0
LINE
8
Outline
10
-2.69121
20
12.79532
11
-2.69663
21
12.72218
0
LINE
8
Outline
10
-2.69663
20
12.72218
11
-2.7139
21
12.44228
0
LINE
8
Outline
10
-2.7139
20
12.44228
11
-2.71762
21
12.36615
0
LINE
8
Outline
10
-2.71762
20
12.36615
11
-2.72778
21
12.08573
0
LINE
8
Outline
10
-2.72778
20
12.08573
11
-2.72951
21
12.01509
0
LINE
8
Outline
10
-2.72951
20
12.01509
11
-2.73306
21
11.73468
0
LINE
8
Outline
10
-2.73306
20
11.73468
11
-2.73306
21
11.65872
0
LINE
8
Outline
10
-2.73306
20
11.65872
11
-2.72951
21
11.3783
0
LINE
8
Outline
10
-2.72951
20
11.3783
11
-2.72778
21
11.30766
0
LINE
8
Outline
10
-2.72778
20
11.30766
11
-2.71762
21
11.02724
0
LINE
8
Outline
10
-2.71762
20
11.02724
11
-2.7139
21
10.95111
0
LINE
8
Outline
10
-2.7139
20
10.95111
11
-2.69663
21
10.67121
0
LINE
8
Outline
10
-2.69663
20
10.67121
11
-2.69121
21
10.59807
0
LINE
8
Outline
10
-2.69121
20
10.59807
11
-2.66708
21
10.31841
0
LINE
8
Outline
10
-2.66708
20
10.31841
11
-2.6601
21
10.24733
0
LINE
8
Outline
10
-2.6601
20
10.24733
11
-2.62936
21
9.96869
0
LINE
8
Outline
10
-2.62936
20
9.96869
11
-2.62006
21
9.89323
0
LINE
8
Outline
10
-2.62006
20
9.89323
11
-2.58222
21
9.6151
0
LINE
8
Outline
10
-2.58222
20
9.6151
11
-2.57124
21
9.54126
0
LINE
8
Outline
10
-2.57124
20
9.54126
11
-2.52653
21
9.2644
0
LINE
8
Outline
10
-2.52653
20
9.2644
11
-2.51431
21
9.19404
0
LINE
8
Outline
10
-2.51431
20
9.19404
11
-2.463
21
8.9182
0
LINE
8
Outline
10
-2.463
20
8.9182
11
-2.44902
21
8.84774
0
LINE
8
Outline
10
-2.44902
20
8.84774
11
-2.39111
21
8.57316
0
LINE
8
Outline
10
-2.39111
20
8.57316
11
-2.37393
21
8.49668
0
LINE
8
Outline
10
-2.37393
20
8.49668
11
-2.30891
21
8.22389
0
LINE
8
Outline
10
-2.30891
20
8.22389
11
-2.2919
21
8.15605
0
LINE
8
Outline
10
-2.2919
20
8.15605
11
-2.22052
21
7.88478
0
LINE
8
Outline
10
-2.22052
20
7.88478
11
-2.20035
21
7.81188
0
LINE
8
Outline
10
-2.20035
20
7.81188
11
-2.12212
21
7.54238
0
LINE
8
Outline
10
-2.12212
20
7.54238
11
-2.10143
21
7.47414
0
LINE
8
Outline
10
-2.10143
20
7.47414
11
-2.01685
21
7.20668
0
LINE
8
Outline
10
-2.01685
20
7.20668
11
-1.99258
21
7.13324
0
LINE
8
Outline
10
-1.99258
20
7.13324
11
-1.90114
21
6.86807
0
LINE
8
Outline
10
-1.90114
20
6.86807
11
-1.87772
21
6.80262
0
LINE
8
Outline
10
-1.87772
20
6.80262
11
-1.78019
21
6.53972
0
LINE
8
Outline
10
-1.78019
20
6.53972
11
-1.75326
21
6.46982
0
LINE
8
Outline
10
-1.75326
20
6.46982
11
-1.64911
21
6.20922
0
LINE
8
Outline
10
-1.64911
20
6.20922
11
-1.61982
21
6.13854
0
LINE
8
Outline
10
-1.61982
20
6.13854
11
-1.50908
21
5.88073
0
LINE
8
Outline
10
-1.50908
20
5.88073
11
-1.48098
21
5.81735
0
LINE
8
Outline
10
-1.48098
20
5.81735
11
-1.36439
21
5.56234
0
LINE
8
Outline
10
-1.36439
20
5.56234
11
-1.33169
21
5.49317
0
LINE
8
Outline
10
-1.33169
20
5.49317
11
-1.2085
21
5.24094
0
LINE
8
Outline
10
-1.2085
20
5.24094
11
-1.17517
21
5.17479
0
LINE
8
Outline
10
-1.17517
20
5.17479
11
-1.04589
21
4.92587
0
LINE
8
Outline
10
-1.04589
20
4.92587
11
-1.012
21
4.86247
0
LINE
8
Outline
10
-1.012
20
4.86247
11
-0.87687
21
4.61686
0
LINE
8
Outline
10
-0.87687
20
4.61686
11
-0.84105
21
4.55359
0
LINE
8
Outline
10
-0.84105
20
4.55359
11
-0.69983
21
4.31102
0
LINE
8
Outline
10
-0.69983
20
4.31102
11
-0.66031
21
4.24509
0
LINE
8
Outline
10
-0.66031
20
4.24509
11
-0.51299
21
4.00633
0
LINE
8
Outline
10
-0.51299
20
4.00633
11
-0.47514
21
3.94658
0
LINE
8
Outline
10
-0.47514
20
3.94658
11
-0.32224
21
3.71137
0
LINE
8
Outline
10
-0.32224
20
3.71137
11
-0.27985
21
3.64793
0
LINE
8
Outline
10
-0.27985
20
3.64793
11
-0.12109
21
3.41679
0
LINE
8
Outline
10
-0.12109
20
3.41679
11
-0.07946
21
3.35772
0
LINE
8
Outline
10
-0.07946
20
3.35772
11
0.08488
21
3.13039
0
LINE
8
Outline
10
0.08488
20
3.13039
11
0.12759
21
3.07277
0
LINE
8
Outline
10
0.12759
20
3.07277
11
0.29726
21
2.84951
0
LINE
8
Outline
10
0.29726
20
2.84951
11
0.34398
21
2.78963
0
LINE
8
Outline
10
0.34398
20
2.78963
11
0.5195
21
2.57042
0
LINE
8
Outline
10
0.5195
20
2.57042
11
0.56578
21
2.51404
0
LINE
8
Outline
10
0.56578
20
2.51404
11
0.74637
21
2.29941
0
LINE
8
Outline
10
0.74637
20
2.29941
11
0.7941
21
2.24406
0
LINE
8
Outline
10
0.7941
20
2.24406
11
0.97977
21
2.034
0
LINE
8
Outline
10
0.97977
20
2.034
11
1.03029
21
1.97827
0
LINE
8
Outline
10
1.03029
20
1.97827
11
1.2213
21
1.77279
0
LINE
8
Outline
10
1.2213
20
1.77279
11
1.27033
21
1.72129
0
LINE
8
Outline
10
1.27033
20
1.72129
11
1.46617
21
1.52038
0
LINE
8
Outline
10
1.46617
20
1.52038
11
1.52038
21
1.46617
0
LINE
8
Outline
10
1.52038
20
1.46617
11
1.72129
21
1.27033
0
LINE
8
Outline
10
1.72129
20
1.27033
11
1.77279
21
1.2213
0
LINE
8
Outline
10
1.77279
20
1.2213
11
1.97827
21
1.03029
0
LINE
8
Outline
10
1.97827
20
1.03029
11
2.034
21
0.97977
0
LINE
8
Outline
10
2.034
20
0.97977
11
2.24406
21
0.7941
0
LINE
8
Outline
10
2.24406
20
0.7941
11
2.29941
21
0.74637
0
LINE
8
Outline
10
2.29941
20
0.74637
11
2.51404
21
0.56578
0
LINE
8
Outline
10
2.51404
20
0.56578
11
2.57042
21
0.5195
0
LINE
8
Outline
10
2.57042
20
0.5195
11
2.78963
21
0.34398
0
LINE
8
Outline
10
2.78963
20
0.34398
11
2.84951
21
0.29726
0
LINE
8
Outline
10
2.84951
20
0.29726
11
3.07277
21
0.12759
0
LINE
8
Outline
10
3.07277
20
0.12759
11
3.13039
21
0.08488
0
LINE
8
Outline
10
3.13039
20
0.08488
11
3.35772
21
-0.07946
0
LINE
8
Outline
10
3.35772
20
-0.07946
11
3.41679
21
-0.12109
0
LINE
8
Outline
10
3.41679
20
-0.12109
11
3.64793
21
-0.27985
0
LINE
8
Outline
10
3.64793
20
-0.27985
11
3.71137
21
-0.32224
0
LINE
8
Outline
10
3.71137
20
-0.32224
11
3.94658
21
-0.47514
0
LINE
8
Outline
10
3.94658
20
-0.47514
11
4.00633
21
-0.51299
0
LINE
8
Outline
10
4.00633
20
-0.51299
11
4.24509
21
-0.66031
0
LINE
8
Outline
10
4.24509
20
-0.66031
11
4.31102
21
-0.69983
0
LINE
8
Outline
10
4.31102
20
-0.69983
11
4.55359
21
-0.84105
0
LINE
8
Outline
10
4.55359
20
-0.84105
11
4.61686
21
-0.87687
0
LINE
8
Outline
10
4.61686
20
-0.87687
11
4.86247
21
-1.012
0
LINE
8
Outline
10
4.86247
20
-1.012
11
4.92587
21
-1.04589
0
LINE
8
Outline
10
4.92587
20
-1.04589
11
5.17479
21
-1.17517
0
LINE
8
Outline
10
5.17479
20
-1.17517
11
5.24094
21
-1.2085
0
LINE
8
Outline
10
5.24094
20
-1.2085
11
5.49317
21
-1.33169
0
LINE
8
Outline
10
5.49317
20
-1.33169
11
5.56234
21
-1.36439
0
LINE
8
Outline
10
5.56234
20
-1.36439
11
5.81735
21
-1.48098
0
LINE
8
Outline
10
5.81735
20
-1.48098
11
5.88073
21
-1.50908
0
LINE
8
Outline
10
5.88073
20
-1.50908
11
6.13854
21
-1.61982
0
LINE
8
Outline
10
6.13854
20
-1.61982
11
6.20922
21
-1.64911
0
LINE
8
Outline
10
6.20922
20
-1.64911
11
6.46982
21
-1.75326
0
LINE
8
Outline
10
6.46982
20
-1.75326
11
6.53972
21
-1.78019
0
LINE
8
Outline
10
6.53972
20
-1.78019
11
6.80262
21
-1.87772
0
LINE
8
Outline
10
6.80262
20
-1.87772
11
6.86807
21
-1.90114
0
LINE
8
Outline
10
6.86807
20
-1.90114
11
7.13324
21
-1.99258
0
LINE
8
Outline
10
7.13324
20
-1.99258
11
7.20668
21
-2.01685
0
LINE
8
Outline
10
7.20668
20
-2.01685
11
7.47414
21
-2.10143
0
LINE
8
Outline
10
7.47414
20
-2.10143
11
7.54238
21
-2.12212
0
LINE
8
Outline
10
7.54238
20
-2.12212
11
7.81188
21
-2.20035
0
LINE
8
Outline
10
7.81188
20
-2.20035
11
7.88478
21
-2.22052
0
LINE
8
Outline
10
7.88478
20
-2.22052
11
8.15605
21
-2.2919
0
LINE
8
Outline
10
8.15605
20
-2.2919
11
8.22389
21
-2.30891
0
LINE
8
Outline
10
8.22389
20
-2.30891
11
8.49668
21
-2.37393
0
LINE
8
Outline
10
8.49668
20
-2.37393
11
8.57316
21
-2.39111
0
LINE
8
Outline
10
8.57316
20
-2.39111
11
8.84774
21
-2.44902
0
LINE
8
Outline
10
8.84774
20
-2.44902
11
8.9182
21
-2.463
0
LINE
8
Outline
10
8.9182
20
-2.463
11
9.19404
21
-2.51431
0
LINE
8
Outline
10
9.19404
20
-2.51431
11
9.2644
21
-2.52653
0
LINE
8
Outline
10
9.2644
20
-2.52653
11
9.54126
21
-2.57124
0
LINE
8
Outline
10
9.54126
20
-2.57124
11
9.6151
21
-2.58222
0
LINE
8
Outline
10
9.6151
20
-2.58222
11
9.89323
21
-2.62006
0
LINE
8
Outline
10
9.89323
20
-2.62006
11
9.96869
21
-2.62936
0
LINE
8
Outline
10
9.96869
20
-2.62936
11
10.24733
21
-2.6601
0
LINE
8
Outline
10
10.24733
20
-2.6601
11
10.31841
21
-2.66708
0
LINE
8
Outline
10
10.31841
20
-2.66708
11
10.59807
21
-2.69121
0
LINE
8
Outline
10
10.59807
20
-2.69121
11
10.67121
21
-2.69663
0
LINE
8
Outline
10
10.67121
20
-2.69663
11
10.95111
21
-2.7139
0
LINE
8
Outline
10
10.95111
20
-2.7139
11
11.02724
21
-2.71762
0
LINE
8
Outline
10
11.02724
20
-2.71762
11
11.30766
21
-2.72778
0
LINE
8
Outline
10
11.30766
20
-2.72778
11
11.3783
21
-2.72951
0
LINE
8
Outline
10
11.3783
20
-2.72951
11
11.65872
21
-2.73306
0
LINE
8
Outline
10
11.65872
20
-2.73306
11
11.73468
21
-2.73306
0
LINE
8
Outline
10
11.73468
20
-2.73306
11
11.73468
21
-2.73306
0
ENDSEC
0
EOF
